%TF.GenerationSoftware,KiCad,Pcbnew,7.0.5*%
%TF.CreationDate,2023-10-05T13:57:49+07:00*%
%TF.ProjectId,Driver_motor,44726976-6572-45f6-9d6f-746f722e6b69,rev?*%
%TF.SameCoordinates,Original*%
%TF.FileFunction,Soldermask,Top*%
%TF.FilePolarity,Negative*%
%FSLAX46Y46*%
G04 Gerber Fmt 4.6, Leading zero omitted, Abs format (unit mm)*
G04 Created by KiCad (PCBNEW 7.0.5) date 2023-10-05 13:57:49*
%MOMM*%
%LPD*%
G01*
G04 APERTURE LIST*
G04 Aperture macros list*
%AMRoundRect*
0 Rectangle with rounded corners*
0 $1 Rounding radius*
0 $2 $3 $4 $5 $6 $7 $8 $9 X,Y pos of 4 corners*
0 Add a 4 corners polygon primitive as box body*
4,1,4,$2,$3,$4,$5,$6,$7,$8,$9,$2,$3,0*
0 Add four circle primitives for the rounded corners*
1,1,$1+$1,$2,$3*
1,1,$1+$1,$4,$5*
1,1,$1+$1,$6,$7*
1,1,$1+$1,$8,$9*
0 Add four rect primitives between the rounded corners*
20,1,$1+$1,$2,$3,$4,$5,0*
20,1,$1+$1,$4,$5,$6,$7,0*
20,1,$1+$1,$6,$7,$8,$9,0*
20,1,$1+$1,$8,$9,$2,$3,0*%
G04 Aperture macros list end*
%ADD10RoundRect,0.250000X-0.475000X0.337500X-0.475000X-0.337500X0.475000X-0.337500X0.475000X0.337500X0*%
%ADD11RoundRect,0.237500X-0.237500X0.250000X-0.237500X-0.250000X0.237500X-0.250000X0.237500X0.250000X0*%
%ADD12RoundRect,0.237500X0.237500X-0.250000X0.237500X0.250000X-0.237500X0.250000X-0.237500X-0.250000X0*%
%ADD13R,1.508000X1.508000*%
%ADD14C,1.508000*%
%ADD15RoundRect,0.250000X0.475000X-0.337500X0.475000X0.337500X-0.475000X0.337500X-0.475000X-0.337500X0*%
%ADD16RoundRect,0.237500X-0.237500X0.300000X-0.237500X-0.300000X0.237500X-0.300000X0.237500X0.300000X0*%
%ADD17R,0.800000X3.810000*%
%ADD18R,10.070000X8.290000*%
%ADD19RoundRect,0.102000X0.754000X-0.754000X0.754000X0.754000X-0.754000X0.754000X-0.754000X-0.754000X0*%
%ADD20C,1.712000*%
%ADD21C,6.400000*%
%ADD22RoundRect,0.250000X0.425000X-0.537500X0.425000X0.537500X-0.425000X0.537500X-0.425000X-0.537500X0*%
%ADD23RoundRect,0.102000X-1.050000X1.050000X-1.050000X-1.050000X1.050000X-1.050000X1.050000X1.050000X0*%
%ADD24C,2.304000*%
%ADD25RoundRect,0.237500X-0.250000X-0.237500X0.250000X-0.237500X0.250000X0.237500X-0.250000X0.237500X0*%
%ADD26RoundRect,0.250000X0.350000X-0.850000X0.350000X0.850000X-0.350000X0.850000X-0.350000X-0.850000X0*%
%ADD27RoundRect,0.249997X2.650003X-2.950003X2.650003X2.950003X-2.650003X2.950003X-2.650003X-2.950003X0*%
%ADD28R,2.090000X1.500000*%
%ADD29R,0.533400X1.803400*%
%ADD30RoundRect,0.237500X-0.237500X0.287500X-0.237500X-0.287500X0.237500X-0.287500X0.237500X0.287500X0*%
%ADD31RoundRect,0.102000X-0.754000X0.754000X-0.754000X-0.754000X0.754000X-0.754000X0.754000X0.754000X0*%
%ADD32RoundRect,0.237500X-0.287500X-0.237500X0.287500X-0.237500X0.287500X0.237500X-0.287500X0.237500X0*%
%ADD33R,2.000000X1.500000*%
%ADD34R,2.000000X3.800000*%
%ADD35RoundRect,0.237500X0.237500X-0.287500X0.237500X0.287500X-0.237500X0.287500X-0.237500X-0.287500X0*%
%ADD36RoundRect,0.102000X1.050000X-1.050000X1.050000X1.050000X-1.050000X1.050000X-1.050000X-1.050000X0*%
G04 APERTURE END LIST*
D10*
%TO.C,C4*%
X93218000Y-64594500D03*
X93218000Y-66669500D03*
%TD*%
D11*
%TO.C,R8*%
X89636000Y-68072000D03*
X89636000Y-69897000D03*
%TD*%
D12*
%TO.C,R18*%
X84582000Y-104902000D03*
X84582000Y-103077000D03*
%TD*%
D13*
%TO.C,J2*%
X131859500Y-127028500D03*
D14*
X129359500Y-127028500D03*
X126859500Y-127028500D03*
X124359500Y-127028500D03*
X121859500Y-127028500D03*
X119359500Y-127028500D03*
%TD*%
D11*
%TO.C,R7*%
X123444000Y-67921500D03*
X123444000Y-69746500D03*
%TD*%
D15*
%TO.C,C2*%
X109194000Y-66923500D03*
X109194000Y-64848500D03*
%TD*%
D16*
%TO.C,C5*%
X134366000Y-93879500D03*
X134366000Y-95604500D03*
%TD*%
D11*
%TO.C,R10*%
X87858000Y-68072000D03*
X87858000Y-69897000D03*
%TD*%
D17*
%TO.C,U10*%
X106045000Y-108486500D03*
X104775000Y-108486500D03*
X103505000Y-108486500D03*
X102235000Y-108486500D03*
X100965000Y-108486500D03*
X99695000Y-108486500D03*
X98425000Y-108486500D03*
D18*
X102235000Y-118146500D03*
%TD*%
D17*
%TO.C,U9*%
X135763000Y-108486500D03*
X134493000Y-108486500D03*
X133223000Y-108486500D03*
X131953000Y-108486500D03*
X130683000Y-108486500D03*
X129413000Y-108486500D03*
X128143000Y-108486500D03*
D18*
X131953000Y-118146500D03*
%TD*%
D17*
%TO.C,U2*%
X99314000Y-64624000D03*
X100584000Y-64624000D03*
X101854000Y-64624000D03*
X103124000Y-64624000D03*
X104394000Y-64624000D03*
X105664000Y-64624000D03*
X106934000Y-64624000D03*
D18*
X103124000Y-54964000D03*
%TD*%
D11*
%TO.C,R13*%
X118719000Y-103113500D03*
X118719000Y-104938500D03*
%TD*%
D16*
%TO.C,C6*%
X105512000Y-88685000D03*
X105512000Y-90410000D03*
%TD*%
D19*
%TO.C,J6*%
X75946000Y-73714000D03*
D20*
X75946000Y-71214000D03*
X75946000Y-68714000D03*
X75946000Y-66214000D03*
X75946000Y-63714000D03*
X75946000Y-61214000D03*
X75946000Y-58714000D03*
X75946000Y-56214000D03*
%TD*%
D21*
%TO.C,H1*%
X74168000Y-45720000D03*
%TD*%
D22*
%TO.C,C10*%
X90018000Y-90577500D03*
X90018000Y-87702500D03*
%TD*%
D17*
%TO.C,U6*%
X121259000Y-108486500D03*
X119989000Y-108486500D03*
X118719000Y-108486500D03*
X117449000Y-108486500D03*
X116179000Y-108486500D03*
X114909000Y-108486500D03*
X113639000Y-108486500D03*
D18*
X117449000Y-118146500D03*
%TD*%
D17*
%TO.C,U3*%
X117094000Y-64370000D03*
X118364000Y-64370000D03*
X119634000Y-64370000D03*
X120904000Y-64370000D03*
X122174000Y-64370000D03*
X123444000Y-64370000D03*
X124714000Y-64370000D03*
D18*
X120904000Y-54710000D03*
%TD*%
D11*
%TO.C,R27*%
X103378000Y-103113500D03*
X103378000Y-104938500D03*
%TD*%
D12*
%TO.C,R2*%
X101828000Y-69897000D03*
X101828000Y-68072000D03*
%TD*%
D23*
%TO.C,J7*%
X81216000Y-80554500D03*
D24*
X81216000Y-85634500D03*
%TD*%
D11*
%TO.C,R22*%
X142494000Y-116435500D03*
X142494000Y-118260500D03*
%TD*%
%TO.C,R4*%
X103860000Y-68072000D03*
X103860000Y-69897000D03*
%TD*%
D25*
%TO.C,R19*%
X81637500Y-73660000D03*
X83462500Y-73660000D03*
%TD*%
D12*
%TO.C,R16*%
X86461600Y-104902000D03*
X86461600Y-103077000D03*
%TD*%
D15*
%TO.C,C1*%
X142748000Y-66723500D03*
X142748000Y-64648500D03*
%TD*%
D26*
%TO.C,U11*%
X94596000Y-90513500D03*
D27*
X96876000Y-84213500D03*
D26*
X99156000Y-90513500D03*
%TD*%
D13*
%TO.C,J4*%
X87242000Y-46482000D03*
D14*
X89742000Y-46482000D03*
X92242000Y-46482000D03*
X94742000Y-46482000D03*
X97242000Y-46482000D03*
X99742000Y-46482000D03*
%TD*%
D11*
%TO.C,R5*%
X139192000Y-68075500D03*
X139192000Y-69900500D03*
%TD*%
D17*
%TO.C,U4*%
X83286000Y-64624000D03*
X84556000Y-64624000D03*
X85826000Y-64624000D03*
X87096000Y-64624000D03*
X88366000Y-64624000D03*
X89636000Y-64624000D03*
X90906000Y-64624000D03*
D18*
X87096000Y-54964000D03*
%TD*%
D10*
%TO.C,C3*%
X127000000Y-64494500D03*
X127000000Y-66569500D03*
%TD*%
D11*
%TO.C,R26*%
X133248400Y-103113500D03*
X133248400Y-104938500D03*
%TD*%
D12*
%TO.C,R24*%
X142494000Y-122428000D03*
X142494000Y-120603000D03*
%TD*%
D16*
%TO.C,C9*%
X116688000Y-86499500D03*
X116688000Y-88224500D03*
%TD*%
%TO.C,C13*%
X92050000Y-88785500D03*
X92050000Y-90510500D03*
%TD*%
D12*
%TO.C,R23*%
X131318000Y-104938500D03*
X131318000Y-103113500D03*
%TD*%
D28*
%TO.C,D1*%
X82300000Y-90410000D03*
X86560000Y-90410000D03*
%TD*%
D21*
%TO.C,H4*%
X144526000Y-127762000D03*
%TD*%
D11*
%TO.C,R9*%
X121666000Y-67921500D03*
X121666000Y-69746500D03*
%TD*%
D16*
%TO.C,C14*%
X101702000Y-88685000D03*
X101702000Y-90410000D03*
%TD*%
D29*
%TO.C,U5*%
X132308000Y-84161300D03*
X131038000Y-84161300D03*
X129768000Y-84161300D03*
X128498000Y-84161300D03*
X127228000Y-84161300D03*
X125958000Y-84161300D03*
X124688000Y-84161300D03*
X123418000Y-84161300D03*
X122148000Y-84161300D03*
X120878000Y-84161300D03*
X120878000Y-93711700D03*
X122148000Y-93711700D03*
X123418000Y-93711700D03*
X124688000Y-93711700D03*
X125958000Y-93711700D03*
X127228000Y-93711700D03*
X128498000Y-93711700D03*
X129768000Y-93711700D03*
X131038000Y-93711700D03*
X132308000Y-93711700D03*
%TD*%
D12*
%TO.C,R1*%
X135382000Y-69900500D03*
X135382000Y-68075500D03*
%TD*%
D13*
%TO.C,J5*%
X99664250Y-127000000D03*
D14*
X97164250Y-127000000D03*
X94664250Y-127000000D03*
X92164250Y-127000000D03*
X89664250Y-127000000D03*
X87164250Y-127000000D03*
%TD*%
D17*
%TO.C,U1*%
X132842000Y-64524000D03*
X134112000Y-64524000D03*
X135382000Y-64524000D03*
X136652000Y-64524000D03*
X137922000Y-64524000D03*
X139192000Y-64524000D03*
X140462000Y-64524000D03*
D18*
X136652000Y-54864000D03*
%TD*%
D11*
%TO.C,R3*%
X137414000Y-68075500D03*
X137414000Y-69900500D03*
%TD*%
D12*
%TO.C,R20*%
X129438400Y-104938500D03*
X129438400Y-103113500D03*
%TD*%
D21*
%TO.C,H2*%
X74443000Y-127762000D03*
%TD*%
D12*
%TO.C,R15*%
X116687000Y-104938500D03*
X116687000Y-103113500D03*
%TD*%
%TO.C,R17*%
X114909000Y-104938500D03*
X114909000Y-103113500D03*
%TD*%
D10*
%TO.C,C12*%
X95351000Y-108573000D03*
X95351000Y-110648000D03*
%TD*%
D30*
%TO.C,5V1*%
X144526000Y-116473000D03*
X144526000Y-118223000D03*
%TD*%
D15*
%TO.C,C8*%
X80111000Y-110648000D03*
X80111000Y-108573000D03*
%TD*%
D10*
%TO.C,C11*%
X125577000Y-108573000D03*
X125577000Y-110648000D03*
%TD*%
D11*
%TO.C,R14*%
X88392000Y-103077000D03*
X88392000Y-104902000D03*
%TD*%
D31*
%TO.C,J3*%
X144526000Y-92148000D03*
D20*
X144526000Y-94648000D03*
X144526000Y-97148000D03*
X144526000Y-99648000D03*
X144526000Y-102148000D03*
X144526000Y-104648000D03*
X144526000Y-107148000D03*
X144526000Y-109648000D03*
X144526000Y-112148000D03*
%TD*%
D13*
%TO.C,J1*%
X124300000Y-46382000D03*
D14*
X126800000Y-46382000D03*
X129300000Y-46382000D03*
X131800000Y-46382000D03*
X134300000Y-46382000D03*
X136800000Y-46382000D03*
%TD*%
D12*
%TO.C,R21*%
X99568000Y-104938500D03*
X99568000Y-103113500D03*
%TD*%
D32*
%TO.C,12V1*%
X81675000Y-75692000D03*
X83425000Y-75692000D03*
%TD*%
D30*
%TO.C,12V2*%
X143764000Y-86106000D03*
X143764000Y-87856000D03*
%TD*%
D17*
%TO.C,U7*%
X91033000Y-108486500D03*
X89763000Y-108486500D03*
X88493000Y-108486500D03*
X87223000Y-108486500D03*
X85953000Y-108486500D03*
X84683000Y-108486500D03*
X83413000Y-108486500D03*
D18*
X87223000Y-118146500D03*
%TD*%
D12*
%TO.C,R12*%
X85826000Y-69897000D03*
X85826000Y-68072000D03*
%TD*%
D33*
%TO.C,U8*%
X107950000Y-85824000D03*
X107950000Y-88124000D03*
D34*
X114250000Y-88124000D03*
D33*
X107950000Y-90424000D03*
%TD*%
D21*
%TO.C,H3*%
X144526000Y-45720000D03*
%TD*%
D12*
%TO.C,R25*%
X101346000Y-104938500D03*
X101346000Y-103113500D03*
%TD*%
D11*
%TO.C,R28*%
X145796000Y-86068500D03*
X145796000Y-87893500D03*
%TD*%
D12*
%TO.C,R11*%
X119634000Y-69746500D03*
X119634000Y-67921500D03*
%TD*%
D35*
%TO.C,3V1*%
X144526000Y-122390500D03*
X144526000Y-120640500D03*
%TD*%
D11*
%TO.C,R6*%
X105638000Y-68072000D03*
X105638000Y-69897000D03*
%TD*%
D15*
%TO.C,C7*%
X110591000Y-110648000D03*
X110591000Y-108573000D03*
%TD*%
D36*
%TO.C,J8*%
X138240000Y-81465000D03*
D24*
X138240000Y-76385000D03*
%TD*%
M02*
