%TF.GenerationSoftware,KiCad,Pcbnew,7.0.5*%
%TF.CreationDate,2023-10-05T13:57:49+07:00*%
%TF.ProjectId,Driver_motor,44726976-6572-45f6-9d6f-746f722e6b69,rev?*%
%TF.SameCoordinates,Original*%
%TF.FileFunction,Legend,Bot*%
%TF.FilePolarity,Positive*%
%FSLAX46Y46*%
G04 Gerber Fmt 4.6, Leading zero omitted, Abs format (unit mm)*
G04 Created by KiCad (PCBNEW 7.0.5) date 2023-10-05 13:57:49*
%MOMM*%
%LPD*%
G01*
G04 APERTURE LIST*
%ADD10C,0.150000*%
%ADD11C,0.120000*%
G04 APERTURE END LIST*
D10*
%TO.C,C15*%
X128404857Y-50651580D02*
X128452476Y-50699200D01*
X128452476Y-50699200D02*
X128595333Y-50746819D01*
X128595333Y-50746819D02*
X128690571Y-50746819D01*
X128690571Y-50746819D02*
X128833428Y-50699200D01*
X128833428Y-50699200D02*
X128928666Y-50603961D01*
X128928666Y-50603961D02*
X128976285Y-50508723D01*
X128976285Y-50508723D02*
X129023904Y-50318247D01*
X129023904Y-50318247D02*
X129023904Y-50175390D01*
X129023904Y-50175390D02*
X128976285Y-49984914D01*
X128976285Y-49984914D02*
X128928666Y-49889676D01*
X128928666Y-49889676D02*
X128833428Y-49794438D01*
X128833428Y-49794438D02*
X128690571Y-49746819D01*
X128690571Y-49746819D02*
X128595333Y-49746819D01*
X128595333Y-49746819D02*
X128452476Y-49794438D01*
X128452476Y-49794438D02*
X128404857Y-49842057D01*
X127452476Y-50746819D02*
X128023904Y-50746819D01*
X127738190Y-50746819D02*
X127738190Y-49746819D01*
X127738190Y-49746819D02*
X127833428Y-49889676D01*
X127833428Y-49889676D02*
X127928666Y-49984914D01*
X127928666Y-49984914D02*
X128023904Y-50032533D01*
X126547714Y-49746819D02*
X127023904Y-49746819D01*
X127023904Y-49746819D02*
X127071523Y-50223009D01*
X127071523Y-50223009D02*
X127023904Y-50175390D01*
X127023904Y-50175390D02*
X126928666Y-50127771D01*
X126928666Y-50127771D02*
X126690571Y-50127771D01*
X126690571Y-50127771D02*
X126595333Y-50175390D01*
X126595333Y-50175390D02*
X126547714Y-50223009D01*
X126547714Y-50223009D02*
X126500095Y-50318247D01*
X126500095Y-50318247D02*
X126500095Y-50556342D01*
X126500095Y-50556342D02*
X126547714Y-50651580D01*
X126547714Y-50651580D02*
X126595333Y-50699200D01*
X126595333Y-50699200D02*
X126690571Y-50746819D01*
X126690571Y-50746819D02*
X126928666Y-50746819D01*
X126928666Y-50746819D02*
X127023904Y-50699200D01*
X127023904Y-50699200D02*
X127071523Y-50651580D01*
%TO.C,C16*%
X129166857Y-123041580D02*
X129214476Y-123089200D01*
X129214476Y-123089200D02*
X129357333Y-123136819D01*
X129357333Y-123136819D02*
X129452571Y-123136819D01*
X129452571Y-123136819D02*
X129595428Y-123089200D01*
X129595428Y-123089200D02*
X129690666Y-122993961D01*
X129690666Y-122993961D02*
X129738285Y-122898723D01*
X129738285Y-122898723D02*
X129785904Y-122708247D01*
X129785904Y-122708247D02*
X129785904Y-122565390D01*
X129785904Y-122565390D02*
X129738285Y-122374914D01*
X129738285Y-122374914D02*
X129690666Y-122279676D01*
X129690666Y-122279676D02*
X129595428Y-122184438D01*
X129595428Y-122184438D02*
X129452571Y-122136819D01*
X129452571Y-122136819D02*
X129357333Y-122136819D01*
X129357333Y-122136819D02*
X129214476Y-122184438D01*
X129214476Y-122184438D02*
X129166857Y-122232057D01*
X128214476Y-123136819D02*
X128785904Y-123136819D01*
X128500190Y-123136819D02*
X128500190Y-122136819D01*
X128500190Y-122136819D02*
X128595428Y-122279676D01*
X128595428Y-122279676D02*
X128690666Y-122374914D01*
X128690666Y-122374914D02*
X128785904Y-122422533D01*
X127357333Y-122136819D02*
X127547809Y-122136819D01*
X127547809Y-122136819D02*
X127643047Y-122184438D01*
X127643047Y-122184438D02*
X127690666Y-122232057D01*
X127690666Y-122232057D02*
X127785904Y-122374914D01*
X127785904Y-122374914D02*
X127833523Y-122565390D01*
X127833523Y-122565390D02*
X127833523Y-122946342D01*
X127833523Y-122946342D02*
X127785904Y-123041580D01*
X127785904Y-123041580D02*
X127738285Y-123089200D01*
X127738285Y-123089200D02*
X127643047Y-123136819D01*
X127643047Y-123136819D02*
X127452571Y-123136819D01*
X127452571Y-123136819D02*
X127357333Y-123089200D01*
X127357333Y-123089200D02*
X127309714Y-123041580D01*
X127309714Y-123041580D02*
X127262095Y-122946342D01*
X127262095Y-122946342D02*
X127262095Y-122708247D01*
X127262095Y-122708247D02*
X127309714Y-122613009D01*
X127309714Y-122613009D02*
X127357333Y-122565390D01*
X127357333Y-122565390D02*
X127452571Y-122517771D01*
X127452571Y-122517771D02*
X127643047Y-122517771D01*
X127643047Y-122517771D02*
X127738285Y-122565390D01*
X127738285Y-122565390D02*
X127785904Y-122613009D01*
X127785904Y-122613009D02*
X127833523Y-122708247D01*
%TO.C,C17*%
X91320857Y-50905580D02*
X91368476Y-50953200D01*
X91368476Y-50953200D02*
X91511333Y-51000819D01*
X91511333Y-51000819D02*
X91606571Y-51000819D01*
X91606571Y-51000819D02*
X91749428Y-50953200D01*
X91749428Y-50953200D02*
X91844666Y-50857961D01*
X91844666Y-50857961D02*
X91892285Y-50762723D01*
X91892285Y-50762723D02*
X91939904Y-50572247D01*
X91939904Y-50572247D02*
X91939904Y-50429390D01*
X91939904Y-50429390D02*
X91892285Y-50238914D01*
X91892285Y-50238914D02*
X91844666Y-50143676D01*
X91844666Y-50143676D02*
X91749428Y-50048438D01*
X91749428Y-50048438D02*
X91606571Y-50000819D01*
X91606571Y-50000819D02*
X91511333Y-50000819D01*
X91511333Y-50000819D02*
X91368476Y-50048438D01*
X91368476Y-50048438D02*
X91320857Y-50096057D01*
X90368476Y-51000819D02*
X90939904Y-51000819D01*
X90654190Y-51000819D02*
X90654190Y-50000819D01*
X90654190Y-50000819D02*
X90749428Y-50143676D01*
X90749428Y-50143676D02*
X90844666Y-50238914D01*
X90844666Y-50238914D02*
X90939904Y-50286533D01*
X90035142Y-50000819D02*
X89368476Y-50000819D01*
X89368476Y-50000819D02*
X89797047Y-51000819D01*
%TO.C,C18*%
X97162857Y-123041580D02*
X97210476Y-123089200D01*
X97210476Y-123089200D02*
X97353333Y-123136819D01*
X97353333Y-123136819D02*
X97448571Y-123136819D01*
X97448571Y-123136819D02*
X97591428Y-123089200D01*
X97591428Y-123089200D02*
X97686666Y-122993961D01*
X97686666Y-122993961D02*
X97734285Y-122898723D01*
X97734285Y-122898723D02*
X97781904Y-122708247D01*
X97781904Y-122708247D02*
X97781904Y-122565390D01*
X97781904Y-122565390D02*
X97734285Y-122374914D01*
X97734285Y-122374914D02*
X97686666Y-122279676D01*
X97686666Y-122279676D02*
X97591428Y-122184438D01*
X97591428Y-122184438D02*
X97448571Y-122136819D01*
X97448571Y-122136819D02*
X97353333Y-122136819D01*
X97353333Y-122136819D02*
X97210476Y-122184438D01*
X97210476Y-122184438D02*
X97162857Y-122232057D01*
X96210476Y-123136819D02*
X96781904Y-123136819D01*
X96496190Y-123136819D02*
X96496190Y-122136819D01*
X96496190Y-122136819D02*
X96591428Y-122279676D01*
X96591428Y-122279676D02*
X96686666Y-122374914D01*
X96686666Y-122374914D02*
X96781904Y-122422533D01*
X95639047Y-122565390D02*
X95734285Y-122517771D01*
X95734285Y-122517771D02*
X95781904Y-122470152D01*
X95781904Y-122470152D02*
X95829523Y-122374914D01*
X95829523Y-122374914D02*
X95829523Y-122327295D01*
X95829523Y-122327295D02*
X95781904Y-122232057D01*
X95781904Y-122232057D02*
X95734285Y-122184438D01*
X95734285Y-122184438D02*
X95639047Y-122136819D01*
X95639047Y-122136819D02*
X95448571Y-122136819D01*
X95448571Y-122136819D02*
X95353333Y-122184438D01*
X95353333Y-122184438D02*
X95305714Y-122232057D01*
X95305714Y-122232057D02*
X95258095Y-122327295D01*
X95258095Y-122327295D02*
X95258095Y-122374914D01*
X95258095Y-122374914D02*
X95305714Y-122470152D01*
X95305714Y-122470152D02*
X95353333Y-122517771D01*
X95353333Y-122517771D02*
X95448571Y-122565390D01*
X95448571Y-122565390D02*
X95639047Y-122565390D01*
X95639047Y-122565390D02*
X95734285Y-122613009D01*
X95734285Y-122613009D02*
X95781904Y-122660628D01*
X95781904Y-122660628D02*
X95829523Y-122755866D01*
X95829523Y-122755866D02*
X95829523Y-122946342D01*
X95829523Y-122946342D02*
X95781904Y-123041580D01*
X95781904Y-123041580D02*
X95734285Y-123089200D01*
X95734285Y-123089200D02*
X95639047Y-123136819D01*
X95639047Y-123136819D02*
X95448571Y-123136819D01*
X95448571Y-123136819D02*
X95353333Y-123089200D01*
X95353333Y-123089200D02*
X95305714Y-123041580D01*
X95305714Y-123041580D02*
X95258095Y-122946342D01*
X95258095Y-122946342D02*
X95258095Y-122755866D01*
X95258095Y-122755866D02*
X95305714Y-122660628D01*
X95305714Y-122660628D02*
X95353333Y-122613009D01*
X95353333Y-122613009D02*
X95448571Y-122565390D01*
D11*
%TO.C,C15*%
X127908267Y-49278000D02*
X127615733Y-49278000D01*
X127908267Y-48258000D02*
X127615733Y-48258000D01*
%TO.C,C16*%
X128277233Y-123732500D02*
X128569767Y-123732500D01*
X128277233Y-124752500D02*
X128569767Y-124752500D01*
%TO.C,C17*%
X90824267Y-49532000D02*
X90531733Y-49532000D01*
X90824267Y-48512000D02*
X90531733Y-48512000D01*
%TO.C,C18*%
X96295983Y-123704000D02*
X96588517Y-123704000D01*
X96295983Y-124724000D02*
X96588517Y-124724000D01*
%TD*%
M02*
