%TF.GenerationSoftware,KiCad,Pcbnew,7.0.5*%
%TF.CreationDate,2023-10-05T13:57:49+07:00*%
%TF.ProjectId,Driver_motor,44726976-6572-45f6-9d6f-746f722e6b69,rev?*%
%TF.SameCoordinates,Original*%
%TF.FileFunction,Soldermask,Bot*%
%TF.FilePolarity,Negative*%
%FSLAX46Y46*%
G04 Gerber Fmt 4.6, Leading zero omitted, Abs format (unit mm)*
G04 Created by KiCad (PCBNEW 7.0.5) date 2023-10-05 13:57:49*
%MOMM*%
%LPD*%
G01*
G04 APERTURE LIST*
G04 Aperture macros list*
%AMRoundRect*
0 Rectangle with rounded corners*
0 $1 Rounding radius*
0 $2 $3 $4 $5 $6 $7 $8 $9 X,Y pos of 4 corners*
0 Add a 4 corners polygon primitive as box body*
4,1,4,$2,$3,$4,$5,$6,$7,$8,$9,$2,$3,0*
0 Add four circle primitives for the rounded corners*
1,1,$1+$1,$2,$3*
1,1,$1+$1,$4,$5*
1,1,$1+$1,$6,$7*
1,1,$1+$1,$8,$9*
0 Add four rect primitives between the rounded corners*
20,1,$1+$1,$2,$3,$4,$5,0*
20,1,$1+$1,$4,$5,$6,$7,0*
20,1,$1+$1,$6,$7,$8,$9,0*
20,1,$1+$1,$8,$9,$2,$3,0*%
G04 Aperture macros list end*
%ADD10R,1.508000X1.508000*%
%ADD11C,1.508000*%
%ADD12RoundRect,0.102000X0.754000X-0.754000X0.754000X0.754000X-0.754000X0.754000X-0.754000X-0.754000X0*%
%ADD13C,1.712000*%
%ADD14C,6.400000*%
%ADD15RoundRect,0.102000X-1.050000X1.050000X-1.050000X-1.050000X1.050000X-1.050000X1.050000X1.050000X0*%
%ADD16C,2.304000*%
%ADD17RoundRect,0.102000X-0.754000X0.754000X-0.754000X-0.754000X0.754000X-0.754000X0.754000X0.754000X0*%
%ADD18RoundRect,0.102000X1.050000X-1.050000X1.050000X1.050000X-1.050000X1.050000X-1.050000X-1.050000X0*%
%ADD19RoundRect,0.237500X0.300000X0.237500X-0.300000X0.237500X-0.300000X-0.237500X0.300000X-0.237500X0*%
%ADD20RoundRect,0.237500X-0.300000X-0.237500X0.300000X-0.237500X0.300000X0.237500X-0.300000X0.237500X0*%
G04 APERTURE END LIST*
D10*
%TO.C,J2*%
X131859500Y-127028500D03*
D11*
X129359500Y-127028500D03*
X126859500Y-127028500D03*
X124359500Y-127028500D03*
X121859500Y-127028500D03*
X119359500Y-127028500D03*
%TD*%
D12*
%TO.C,J6*%
X75946000Y-73714000D03*
D13*
X75946000Y-71214000D03*
X75946000Y-68714000D03*
X75946000Y-66214000D03*
X75946000Y-63714000D03*
X75946000Y-61214000D03*
X75946000Y-58714000D03*
X75946000Y-56214000D03*
%TD*%
D14*
%TO.C,H1*%
X74168000Y-45720000D03*
%TD*%
D15*
%TO.C,J7*%
X81216000Y-80554500D03*
D16*
X81216000Y-85634500D03*
%TD*%
D10*
%TO.C,J4*%
X87242000Y-46482000D03*
D11*
X89742000Y-46482000D03*
X92242000Y-46482000D03*
X94742000Y-46482000D03*
X97242000Y-46482000D03*
X99742000Y-46482000D03*
%TD*%
D14*
%TO.C,H4*%
X144526000Y-127762000D03*
%TD*%
D10*
%TO.C,J5*%
X99664250Y-127000000D03*
D11*
X97164250Y-127000000D03*
X94664250Y-127000000D03*
X92164250Y-127000000D03*
X89664250Y-127000000D03*
X87164250Y-127000000D03*
%TD*%
D14*
%TO.C,H2*%
X74443000Y-127762000D03*
%TD*%
D17*
%TO.C,J3*%
X144526000Y-92148000D03*
D13*
X144526000Y-94648000D03*
X144526000Y-97148000D03*
X144526000Y-99648000D03*
X144526000Y-102148000D03*
X144526000Y-104648000D03*
X144526000Y-107148000D03*
X144526000Y-109648000D03*
X144526000Y-112148000D03*
%TD*%
D10*
%TO.C,J1*%
X124300000Y-46382000D03*
D11*
X126800000Y-46382000D03*
X129300000Y-46382000D03*
X131800000Y-46382000D03*
X134300000Y-46382000D03*
X136800000Y-46382000D03*
%TD*%
D14*
%TO.C,H3*%
X144526000Y-45720000D03*
%TD*%
D18*
%TO.C,J8*%
X138240000Y-81465000D03*
D16*
X138240000Y-76385000D03*
%TD*%
D19*
%TO.C,C15*%
X128624500Y-48768000D03*
X126899500Y-48768000D03*
%TD*%
D20*
%TO.C,C16*%
X127561000Y-124242500D03*
X129286000Y-124242500D03*
%TD*%
D19*
%TO.C,C17*%
X91540500Y-49022000D03*
X89815500Y-49022000D03*
%TD*%
D20*
%TO.C,C18*%
X95579750Y-124214000D03*
X97304750Y-124214000D03*
%TD*%
M02*
