%TF.GenerationSoftware,KiCad,Pcbnew,7.0.5*%
%TF.CreationDate,2023-10-05T13:57:49+07:00*%
%TF.ProjectId,Driver_motor,44726976-6572-45f6-9d6f-746f722e6b69,rev?*%
%TF.SameCoordinates,Original*%
%TF.FileFunction,Legend,Top*%
%TF.FilePolarity,Positive*%
%FSLAX46Y46*%
G04 Gerber Fmt 4.6, Leading zero omitted, Abs format (unit mm)*
G04 Created by KiCad (PCBNEW 7.0.5) date 2023-10-05 13:57:49*
%MOMM*%
%LPD*%
G01*
G04 APERTURE LIST*
%ADD10C,0.150000*%
%ADD11C,0.120000*%
%ADD12C,0.127000*%
%ADD13C,0.200000*%
%ADD14C,0.152400*%
G04 APERTURE END LIST*
D10*
X114150666Y-124152819D02*
X114150666Y-123152819D01*
X114150666Y-123152819D02*
X114483999Y-123867104D01*
X114483999Y-123867104D02*
X114817332Y-123152819D01*
X114817332Y-123152819D02*
X114817332Y-124152819D01*
X115245904Y-123248057D02*
X115293523Y-123200438D01*
X115293523Y-123200438D02*
X115388761Y-123152819D01*
X115388761Y-123152819D02*
X115626856Y-123152819D01*
X115626856Y-123152819D02*
X115722094Y-123200438D01*
X115722094Y-123200438D02*
X115769713Y-123248057D01*
X115769713Y-123248057D02*
X115817332Y-123343295D01*
X115817332Y-123343295D02*
X115817332Y-123438533D01*
X115817332Y-123438533D02*
X115769713Y-123581390D01*
X115769713Y-123581390D02*
X115198285Y-124152819D01*
X115198285Y-124152819D02*
X115817332Y-124152819D01*
X116245904Y-123771866D02*
X117007809Y-123771866D01*
X116626856Y-124152819D02*
X116626856Y-123390914D01*
X118769713Y-123200438D02*
X118674475Y-123152819D01*
X118674475Y-123152819D02*
X118531618Y-123152819D01*
X118531618Y-123152819D02*
X118388761Y-123200438D01*
X118388761Y-123200438D02*
X118293523Y-123295676D01*
X118293523Y-123295676D02*
X118245904Y-123390914D01*
X118245904Y-123390914D02*
X118198285Y-123581390D01*
X118198285Y-123581390D02*
X118198285Y-123724247D01*
X118198285Y-123724247D02*
X118245904Y-123914723D01*
X118245904Y-123914723D02*
X118293523Y-124009961D01*
X118293523Y-124009961D02*
X118388761Y-124105200D01*
X118388761Y-124105200D02*
X118531618Y-124152819D01*
X118531618Y-124152819D02*
X118626856Y-124152819D01*
X118626856Y-124152819D02*
X118769713Y-124105200D01*
X118769713Y-124105200D02*
X118817332Y-124057580D01*
X118817332Y-124057580D02*
X118817332Y-123724247D01*
X118817332Y-123724247D02*
X118626856Y-123724247D01*
X119245904Y-124152819D02*
X119245904Y-123152819D01*
X119245904Y-123152819D02*
X119817332Y-124152819D01*
X119817332Y-124152819D02*
X119817332Y-123152819D01*
X120293523Y-124152819D02*
X120293523Y-123152819D01*
X120293523Y-123152819D02*
X120531618Y-123152819D01*
X120531618Y-123152819D02*
X120674475Y-123200438D01*
X120674475Y-123200438D02*
X120769713Y-123295676D01*
X120769713Y-123295676D02*
X120817332Y-123390914D01*
X120817332Y-123390914D02*
X120864951Y-123581390D01*
X120864951Y-123581390D02*
X120864951Y-123724247D01*
X120864951Y-123724247D02*
X120817332Y-123914723D01*
X120817332Y-123914723D02*
X120769713Y-124009961D01*
X120769713Y-124009961D02*
X120674475Y-124105200D01*
X120674475Y-124105200D02*
X120531618Y-124152819D01*
X120531618Y-124152819D02*
X120293523Y-124152819D01*
X122055428Y-123629009D02*
X122388761Y-123629009D01*
X122531618Y-124152819D02*
X122055428Y-124152819D01*
X122055428Y-124152819D02*
X122055428Y-123152819D01*
X122055428Y-123152819D02*
X122531618Y-123152819D01*
X122960190Y-124152819D02*
X122960190Y-123152819D01*
X122960190Y-123152819D02*
X123531618Y-124152819D01*
X123531618Y-124152819D02*
X123531618Y-123152819D01*
X124579237Y-124057580D02*
X124531618Y-124105200D01*
X124531618Y-124105200D02*
X124388761Y-124152819D01*
X124388761Y-124152819D02*
X124293523Y-124152819D01*
X124293523Y-124152819D02*
X124150666Y-124105200D01*
X124150666Y-124105200D02*
X124055428Y-124009961D01*
X124055428Y-124009961D02*
X124007809Y-123914723D01*
X124007809Y-123914723D02*
X123960190Y-123724247D01*
X123960190Y-123724247D02*
X123960190Y-123581390D01*
X123960190Y-123581390D02*
X124007809Y-123390914D01*
X124007809Y-123390914D02*
X124055428Y-123295676D01*
X124055428Y-123295676D02*
X124150666Y-123200438D01*
X124150666Y-123200438D02*
X124293523Y-123152819D01*
X124293523Y-123152819D02*
X124388761Y-123152819D01*
X124388761Y-123152819D02*
X124531618Y-123200438D01*
X124531618Y-123200438D02*
X124579237Y-123248057D01*
X124960190Y-123867104D02*
X125436380Y-123867104D01*
X124864952Y-124152819D02*
X125198285Y-123152819D01*
X125198285Y-123152819D02*
X125531618Y-124152819D01*
X126626857Y-123629009D02*
X126960190Y-123629009D01*
X127103047Y-124152819D02*
X126626857Y-124152819D01*
X126626857Y-124152819D02*
X126626857Y-123152819D01*
X126626857Y-123152819D02*
X127103047Y-123152819D01*
X127531619Y-124152819D02*
X127531619Y-123152819D01*
X127531619Y-123152819D02*
X128103047Y-124152819D01*
X128103047Y-124152819D02*
X128103047Y-123152819D01*
X129150666Y-124057580D02*
X129103047Y-124105200D01*
X129103047Y-124105200D02*
X128960190Y-124152819D01*
X128960190Y-124152819D02*
X128864952Y-124152819D01*
X128864952Y-124152819D02*
X128722095Y-124105200D01*
X128722095Y-124105200D02*
X128626857Y-124009961D01*
X128626857Y-124009961D02*
X128579238Y-123914723D01*
X128579238Y-123914723D02*
X128531619Y-123724247D01*
X128531619Y-123724247D02*
X128531619Y-123581390D01*
X128531619Y-123581390D02*
X128579238Y-123390914D01*
X128579238Y-123390914D02*
X128626857Y-123295676D01*
X128626857Y-123295676D02*
X128722095Y-123200438D01*
X128722095Y-123200438D02*
X128864952Y-123152819D01*
X128864952Y-123152819D02*
X128960190Y-123152819D01*
X128960190Y-123152819D02*
X129103047Y-123200438D01*
X129103047Y-123200438D02*
X129150666Y-123248057D01*
X129912571Y-123629009D02*
X130055428Y-123676628D01*
X130055428Y-123676628D02*
X130103047Y-123724247D01*
X130103047Y-123724247D02*
X130150666Y-123819485D01*
X130150666Y-123819485D02*
X130150666Y-123962342D01*
X130150666Y-123962342D02*
X130103047Y-124057580D01*
X130103047Y-124057580D02*
X130055428Y-124105200D01*
X130055428Y-124105200D02*
X129960190Y-124152819D01*
X129960190Y-124152819D02*
X129579238Y-124152819D01*
X129579238Y-124152819D02*
X129579238Y-123152819D01*
X129579238Y-123152819D02*
X129912571Y-123152819D01*
X129912571Y-123152819D02*
X130007809Y-123200438D01*
X130007809Y-123200438D02*
X130055428Y-123248057D01*
X130055428Y-123248057D02*
X130103047Y-123343295D01*
X130103047Y-123343295D02*
X130103047Y-123438533D01*
X130103047Y-123438533D02*
X130055428Y-123533771D01*
X130055428Y-123533771D02*
X130007809Y-123581390D01*
X130007809Y-123581390D02*
X129912571Y-123629009D01*
X129912571Y-123629009D02*
X129579238Y-123629009D01*
X131198286Y-123152819D02*
X131531619Y-124152819D01*
X131531619Y-124152819D02*
X131864952Y-123152819D01*
X132769714Y-124057580D02*
X132722095Y-124105200D01*
X132722095Y-124105200D02*
X132579238Y-124152819D01*
X132579238Y-124152819D02*
X132484000Y-124152819D01*
X132484000Y-124152819D02*
X132341143Y-124105200D01*
X132341143Y-124105200D02*
X132245905Y-124009961D01*
X132245905Y-124009961D02*
X132198286Y-123914723D01*
X132198286Y-123914723D02*
X132150667Y-123724247D01*
X132150667Y-123724247D02*
X132150667Y-123581390D01*
X132150667Y-123581390D02*
X132198286Y-123390914D01*
X132198286Y-123390914D02*
X132245905Y-123295676D01*
X132245905Y-123295676D02*
X132341143Y-123200438D01*
X132341143Y-123200438D02*
X132484000Y-123152819D01*
X132484000Y-123152819D02*
X132579238Y-123152819D01*
X132579238Y-123152819D02*
X132722095Y-123200438D01*
X132722095Y-123200438D02*
X132769714Y-123248057D01*
X133769714Y-124057580D02*
X133722095Y-124105200D01*
X133722095Y-124105200D02*
X133579238Y-124152819D01*
X133579238Y-124152819D02*
X133484000Y-124152819D01*
X133484000Y-124152819D02*
X133341143Y-124105200D01*
X133341143Y-124105200D02*
X133245905Y-124009961D01*
X133245905Y-124009961D02*
X133198286Y-123914723D01*
X133198286Y-123914723D02*
X133150667Y-123724247D01*
X133150667Y-123724247D02*
X133150667Y-123581390D01*
X133150667Y-123581390D02*
X133198286Y-123390914D01*
X133198286Y-123390914D02*
X133245905Y-123295676D01*
X133245905Y-123295676D02*
X133341143Y-123200438D01*
X133341143Y-123200438D02*
X133484000Y-123152819D01*
X133484000Y-123152819D02*
X133579238Y-123152819D01*
X133579238Y-123152819D02*
X133722095Y-123200438D01*
X133722095Y-123200438D02*
X133769714Y-123248057D01*
X134960191Y-124152819D02*
X134960191Y-123152819D01*
X134960191Y-123152819D02*
X135293524Y-123867104D01*
X135293524Y-123867104D02*
X135626857Y-123152819D01*
X135626857Y-123152819D02*
X135626857Y-124152819D01*
X136055429Y-123248057D02*
X136103048Y-123200438D01*
X136103048Y-123200438D02*
X136198286Y-123152819D01*
X136198286Y-123152819D02*
X136436381Y-123152819D01*
X136436381Y-123152819D02*
X136531619Y-123200438D01*
X136531619Y-123200438D02*
X136579238Y-123248057D01*
X136579238Y-123248057D02*
X136626857Y-123343295D01*
X136626857Y-123343295D02*
X136626857Y-123438533D01*
X136626857Y-123438533D02*
X136579238Y-123581390D01*
X136579238Y-123581390D02*
X136007810Y-124152819D01*
X136007810Y-124152819D02*
X136626857Y-124152819D01*
X137055429Y-123771866D02*
X137817334Y-123771866D01*
X79433009Y-75167142D02*
X79433009Y-74833809D01*
X79956819Y-74690952D02*
X79956819Y-75167142D01*
X79956819Y-75167142D02*
X78956819Y-75167142D01*
X78956819Y-75167142D02*
X78956819Y-74690952D01*
X79956819Y-74262380D02*
X78956819Y-74262380D01*
X78956819Y-74262380D02*
X79956819Y-73690952D01*
X79956819Y-73690952D02*
X78956819Y-73690952D01*
X79861580Y-72643333D02*
X79909200Y-72690952D01*
X79909200Y-72690952D02*
X79956819Y-72833809D01*
X79956819Y-72833809D02*
X79956819Y-72929047D01*
X79956819Y-72929047D02*
X79909200Y-73071904D01*
X79909200Y-73071904D02*
X79813961Y-73167142D01*
X79813961Y-73167142D02*
X79718723Y-73214761D01*
X79718723Y-73214761D02*
X79528247Y-73262380D01*
X79528247Y-73262380D02*
X79385390Y-73262380D01*
X79385390Y-73262380D02*
X79194914Y-73214761D01*
X79194914Y-73214761D02*
X79099676Y-73167142D01*
X79099676Y-73167142D02*
X79004438Y-73071904D01*
X79004438Y-73071904D02*
X78956819Y-72929047D01*
X78956819Y-72929047D02*
X78956819Y-72833809D01*
X78956819Y-72833809D02*
X79004438Y-72690952D01*
X79004438Y-72690952D02*
X79052057Y-72643333D01*
X78956819Y-72024285D02*
X78956819Y-71833809D01*
X78956819Y-71833809D02*
X79004438Y-71738571D01*
X79004438Y-71738571D02*
X79099676Y-71643333D01*
X79099676Y-71643333D02*
X79290152Y-71595714D01*
X79290152Y-71595714D02*
X79623485Y-71595714D01*
X79623485Y-71595714D02*
X79813961Y-71643333D01*
X79813961Y-71643333D02*
X79909200Y-71738571D01*
X79909200Y-71738571D02*
X79956819Y-71833809D01*
X79956819Y-71833809D02*
X79956819Y-72024285D01*
X79956819Y-72024285D02*
X79909200Y-72119523D01*
X79909200Y-72119523D02*
X79813961Y-72214761D01*
X79813961Y-72214761D02*
X79623485Y-72262380D01*
X79623485Y-72262380D02*
X79290152Y-72262380D01*
X79290152Y-72262380D02*
X79099676Y-72214761D01*
X79099676Y-72214761D02*
X79004438Y-72119523D01*
X79004438Y-72119523D02*
X78956819Y-72024285D01*
X79956819Y-71167142D02*
X78956819Y-71167142D01*
X78956819Y-71167142D02*
X78956819Y-70929047D01*
X78956819Y-70929047D02*
X79004438Y-70786190D01*
X79004438Y-70786190D02*
X79099676Y-70690952D01*
X79099676Y-70690952D02*
X79194914Y-70643333D01*
X79194914Y-70643333D02*
X79385390Y-70595714D01*
X79385390Y-70595714D02*
X79528247Y-70595714D01*
X79528247Y-70595714D02*
X79718723Y-70643333D01*
X79718723Y-70643333D02*
X79813961Y-70690952D01*
X79813961Y-70690952D02*
X79909200Y-70786190D01*
X79909200Y-70786190D02*
X79956819Y-70929047D01*
X79956819Y-70929047D02*
X79956819Y-71167142D01*
X79433009Y-70167142D02*
X79433009Y-69833809D01*
X79956819Y-69690952D02*
X79956819Y-70167142D01*
X79956819Y-70167142D02*
X78956819Y-70167142D01*
X78956819Y-70167142D02*
X78956819Y-69690952D01*
X79956819Y-68690952D02*
X79480628Y-69024285D01*
X79956819Y-69262380D02*
X78956819Y-69262380D01*
X78956819Y-69262380D02*
X78956819Y-68881428D01*
X78956819Y-68881428D02*
X79004438Y-68786190D01*
X79004438Y-68786190D02*
X79052057Y-68738571D01*
X79052057Y-68738571D02*
X79147295Y-68690952D01*
X79147295Y-68690952D02*
X79290152Y-68690952D01*
X79290152Y-68690952D02*
X79385390Y-68738571D01*
X79385390Y-68738571D02*
X79433009Y-68786190D01*
X79433009Y-68786190D02*
X79480628Y-68881428D01*
X79480628Y-68881428D02*
X79480628Y-69262380D01*
X79956819Y-67500475D02*
X78956819Y-67500475D01*
X78956819Y-67500475D02*
X79671104Y-67167142D01*
X79671104Y-67167142D02*
X78956819Y-66833809D01*
X78956819Y-66833809D02*
X79956819Y-66833809D01*
X79956819Y-65833809D02*
X79956819Y-66405237D01*
X79956819Y-66119523D02*
X78956819Y-66119523D01*
X78956819Y-66119523D02*
X79099676Y-66214761D01*
X79099676Y-66214761D02*
X79194914Y-66309999D01*
X79194914Y-66309999D02*
X79242533Y-66405237D01*
X79671104Y-65452856D02*
X79671104Y-64976666D01*
X79956819Y-65548094D02*
X78956819Y-65214761D01*
X78956819Y-65214761D02*
X79956819Y-64881428D01*
X79575866Y-64548094D02*
X79575866Y-63786190D01*
X79290152Y-63309999D02*
X79575866Y-62548095D01*
X79575866Y-62548095D02*
X79861580Y-63309999D01*
X79956819Y-62071904D02*
X78956819Y-62071904D01*
X78956819Y-62071904D02*
X79671104Y-61738571D01*
X79671104Y-61738571D02*
X78956819Y-61405238D01*
X78956819Y-61405238D02*
X79956819Y-61405238D01*
X79290152Y-60500476D02*
X79956819Y-60500476D01*
X78909200Y-60738571D02*
X79623485Y-60976666D01*
X79623485Y-60976666D02*
X79623485Y-60357619D01*
X79433009Y-59643333D02*
X79480628Y-59500476D01*
X79480628Y-59500476D02*
X79528247Y-59452857D01*
X79528247Y-59452857D02*
X79623485Y-59405238D01*
X79623485Y-59405238D02*
X79766342Y-59405238D01*
X79766342Y-59405238D02*
X79861580Y-59452857D01*
X79861580Y-59452857D02*
X79909200Y-59500476D01*
X79909200Y-59500476D02*
X79956819Y-59595714D01*
X79956819Y-59595714D02*
X79956819Y-59976666D01*
X79956819Y-59976666D02*
X78956819Y-59976666D01*
X78956819Y-59976666D02*
X78956819Y-59643333D01*
X78956819Y-59643333D02*
X79004438Y-59548095D01*
X79004438Y-59548095D02*
X79052057Y-59500476D01*
X79052057Y-59500476D02*
X79147295Y-59452857D01*
X79147295Y-59452857D02*
X79242533Y-59452857D01*
X79242533Y-59452857D02*
X79337771Y-59500476D01*
X79337771Y-59500476D02*
X79385390Y-59548095D01*
X79385390Y-59548095D02*
X79433009Y-59643333D01*
X79433009Y-59643333D02*
X79433009Y-59976666D01*
X146349962Y-118561495D02*
X145750037Y-118561495D01*
X146049999Y-118261532D02*
X146049999Y-118861458D01*
X81892666Y-124152819D02*
X81892666Y-123152819D01*
X81892666Y-123152819D02*
X82225999Y-123867104D01*
X82225999Y-123867104D02*
X82559332Y-123152819D01*
X82559332Y-123152819D02*
X82559332Y-124152819D01*
X83464094Y-123486152D02*
X83464094Y-124152819D01*
X83225999Y-123105200D02*
X82987904Y-123819485D01*
X82987904Y-123819485D02*
X83606951Y-123819485D01*
X83987904Y-123771866D02*
X84749809Y-123771866D01*
X84368856Y-124152819D02*
X84368856Y-123390914D01*
X86511713Y-123200438D02*
X86416475Y-123152819D01*
X86416475Y-123152819D02*
X86273618Y-123152819D01*
X86273618Y-123152819D02*
X86130761Y-123200438D01*
X86130761Y-123200438D02*
X86035523Y-123295676D01*
X86035523Y-123295676D02*
X85987904Y-123390914D01*
X85987904Y-123390914D02*
X85940285Y-123581390D01*
X85940285Y-123581390D02*
X85940285Y-123724247D01*
X85940285Y-123724247D02*
X85987904Y-123914723D01*
X85987904Y-123914723D02*
X86035523Y-124009961D01*
X86035523Y-124009961D02*
X86130761Y-124105200D01*
X86130761Y-124105200D02*
X86273618Y-124152819D01*
X86273618Y-124152819D02*
X86368856Y-124152819D01*
X86368856Y-124152819D02*
X86511713Y-124105200D01*
X86511713Y-124105200D02*
X86559332Y-124057580D01*
X86559332Y-124057580D02*
X86559332Y-123724247D01*
X86559332Y-123724247D02*
X86368856Y-123724247D01*
X86987904Y-124152819D02*
X86987904Y-123152819D01*
X86987904Y-123152819D02*
X87559332Y-124152819D01*
X87559332Y-124152819D02*
X87559332Y-123152819D01*
X88035523Y-124152819D02*
X88035523Y-123152819D01*
X88035523Y-123152819D02*
X88273618Y-123152819D01*
X88273618Y-123152819D02*
X88416475Y-123200438D01*
X88416475Y-123200438D02*
X88511713Y-123295676D01*
X88511713Y-123295676D02*
X88559332Y-123390914D01*
X88559332Y-123390914D02*
X88606951Y-123581390D01*
X88606951Y-123581390D02*
X88606951Y-123724247D01*
X88606951Y-123724247D02*
X88559332Y-123914723D01*
X88559332Y-123914723D02*
X88511713Y-124009961D01*
X88511713Y-124009961D02*
X88416475Y-124105200D01*
X88416475Y-124105200D02*
X88273618Y-124152819D01*
X88273618Y-124152819D02*
X88035523Y-124152819D01*
X89797428Y-123629009D02*
X90130761Y-123629009D01*
X90273618Y-124152819D02*
X89797428Y-124152819D01*
X89797428Y-124152819D02*
X89797428Y-123152819D01*
X89797428Y-123152819D02*
X90273618Y-123152819D01*
X90702190Y-124152819D02*
X90702190Y-123152819D01*
X90702190Y-123152819D02*
X91273618Y-124152819D01*
X91273618Y-124152819D02*
X91273618Y-123152819D01*
X92321237Y-124057580D02*
X92273618Y-124105200D01*
X92273618Y-124105200D02*
X92130761Y-124152819D01*
X92130761Y-124152819D02*
X92035523Y-124152819D01*
X92035523Y-124152819D02*
X91892666Y-124105200D01*
X91892666Y-124105200D02*
X91797428Y-124009961D01*
X91797428Y-124009961D02*
X91749809Y-123914723D01*
X91749809Y-123914723D02*
X91702190Y-123724247D01*
X91702190Y-123724247D02*
X91702190Y-123581390D01*
X91702190Y-123581390D02*
X91749809Y-123390914D01*
X91749809Y-123390914D02*
X91797428Y-123295676D01*
X91797428Y-123295676D02*
X91892666Y-123200438D01*
X91892666Y-123200438D02*
X92035523Y-123152819D01*
X92035523Y-123152819D02*
X92130761Y-123152819D01*
X92130761Y-123152819D02*
X92273618Y-123200438D01*
X92273618Y-123200438D02*
X92321237Y-123248057D01*
X92702190Y-123867104D02*
X93178380Y-123867104D01*
X92606952Y-124152819D02*
X92940285Y-123152819D01*
X92940285Y-123152819D02*
X93273618Y-124152819D01*
X94368857Y-123629009D02*
X94702190Y-123629009D01*
X94845047Y-124152819D02*
X94368857Y-124152819D01*
X94368857Y-124152819D02*
X94368857Y-123152819D01*
X94368857Y-123152819D02*
X94845047Y-123152819D01*
X95273619Y-124152819D02*
X95273619Y-123152819D01*
X95273619Y-123152819D02*
X95845047Y-124152819D01*
X95845047Y-124152819D02*
X95845047Y-123152819D01*
X96892666Y-124057580D02*
X96845047Y-124105200D01*
X96845047Y-124105200D02*
X96702190Y-124152819D01*
X96702190Y-124152819D02*
X96606952Y-124152819D01*
X96606952Y-124152819D02*
X96464095Y-124105200D01*
X96464095Y-124105200D02*
X96368857Y-124009961D01*
X96368857Y-124009961D02*
X96321238Y-123914723D01*
X96321238Y-123914723D02*
X96273619Y-123724247D01*
X96273619Y-123724247D02*
X96273619Y-123581390D01*
X96273619Y-123581390D02*
X96321238Y-123390914D01*
X96321238Y-123390914D02*
X96368857Y-123295676D01*
X96368857Y-123295676D02*
X96464095Y-123200438D01*
X96464095Y-123200438D02*
X96606952Y-123152819D01*
X96606952Y-123152819D02*
X96702190Y-123152819D01*
X96702190Y-123152819D02*
X96845047Y-123200438D01*
X96845047Y-123200438D02*
X96892666Y-123248057D01*
X97654571Y-123629009D02*
X97797428Y-123676628D01*
X97797428Y-123676628D02*
X97845047Y-123724247D01*
X97845047Y-123724247D02*
X97892666Y-123819485D01*
X97892666Y-123819485D02*
X97892666Y-123962342D01*
X97892666Y-123962342D02*
X97845047Y-124057580D01*
X97845047Y-124057580D02*
X97797428Y-124105200D01*
X97797428Y-124105200D02*
X97702190Y-124152819D01*
X97702190Y-124152819D02*
X97321238Y-124152819D01*
X97321238Y-124152819D02*
X97321238Y-123152819D01*
X97321238Y-123152819D02*
X97654571Y-123152819D01*
X97654571Y-123152819D02*
X97749809Y-123200438D01*
X97749809Y-123200438D02*
X97797428Y-123248057D01*
X97797428Y-123248057D02*
X97845047Y-123343295D01*
X97845047Y-123343295D02*
X97845047Y-123438533D01*
X97845047Y-123438533D02*
X97797428Y-123533771D01*
X97797428Y-123533771D02*
X97749809Y-123581390D01*
X97749809Y-123581390D02*
X97654571Y-123629009D01*
X97654571Y-123629009D02*
X97321238Y-123629009D01*
X98940286Y-123152819D02*
X99273619Y-124152819D01*
X99273619Y-124152819D02*
X99606952Y-123152819D01*
X100511714Y-124057580D02*
X100464095Y-124105200D01*
X100464095Y-124105200D02*
X100321238Y-124152819D01*
X100321238Y-124152819D02*
X100226000Y-124152819D01*
X100226000Y-124152819D02*
X100083143Y-124105200D01*
X100083143Y-124105200D02*
X99987905Y-124009961D01*
X99987905Y-124009961D02*
X99940286Y-123914723D01*
X99940286Y-123914723D02*
X99892667Y-123724247D01*
X99892667Y-123724247D02*
X99892667Y-123581390D01*
X99892667Y-123581390D02*
X99940286Y-123390914D01*
X99940286Y-123390914D02*
X99987905Y-123295676D01*
X99987905Y-123295676D02*
X100083143Y-123200438D01*
X100083143Y-123200438D02*
X100226000Y-123152819D01*
X100226000Y-123152819D02*
X100321238Y-123152819D01*
X100321238Y-123152819D02*
X100464095Y-123200438D01*
X100464095Y-123200438D02*
X100511714Y-123248057D01*
X101511714Y-124057580D02*
X101464095Y-124105200D01*
X101464095Y-124105200D02*
X101321238Y-124152819D01*
X101321238Y-124152819D02*
X101226000Y-124152819D01*
X101226000Y-124152819D02*
X101083143Y-124105200D01*
X101083143Y-124105200D02*
X100987905Y-124009961D01*
X100987905Y-124009961D02*
X100940286Y-123914723D01*
X100940286Y-123914723D02*
X100892667Y-123724247D01*
X100892667Y-123724247D02*
X100892667Y-123581390D01*
X100892667Y-123581390D02*
X100940286Y-123390914D01*
X100940286Y-123390914D02*
X100987905Y-123295676D01*
X100987905Y-123295676D02*
X101083143Y-123200438D01*
X101083143Y-123200438D02*
X101226000Y-123152819D01*
X101226000Y-123152819D02*
X101321238Y-123152819D01*
X101321238Y-123152819D02*
X101464095Y-123200438D01*
X101464095Y-123200438D02*
X101511714Y-123248057D01*
X102702191Y-124152819D02*
X102702191Y-123152819D01*
X102702191Y-123152819D02*
X103035524Y-123867104D01*
X103035524Y-123867104D02*
X103368857Y-123152819D01*
X103368857Y-123152819D02*
X103368857Y-124152819D01*
X104273619Y-123486152D02*
X104273619Y-124152819D01*
X104035524Y-123105200D02*
X103797429Y-123819485D01*
X103797429Y-123819485D02*
X104416476Y-123819485D01*
X104797429Y-123771866D02*
X105559334Y-123771866D01*
X142539962Y-88335495D02*
X141940037Y-88335495D01*
X142239999Y-88035532D02*
X142239999Y-88635458D01*
X129502819Y-58419904D02*
X130312342Y-58419904D01*
X130312342Y-58419904D02*
X130407580Y-58372285D01*
X130407580Y-58372285D02*
X130455200Y-58324666D01*
X130455200Y-58324666D02*
X130502819Y-58229428D01*
X130502819Y-58229428D02*
X130502819Y-58038952D01*
X130502819Y-58038952D02*
X130455200Y-57943714D01*
X130455200Y-57943714D02*
X130407580Y-57896095D01*
X130407580Y-57896095D02*
X130312342Y-57848476D01*
X130312342Y-57848476D02*
X129502819Y-57848476D01*
X130502819Y-56848476D02*
X130502819Y-57419904D01*
X130502819Y-57134190D02*
X129502819Y-57134190D01*
X129502819Y-57134190D02*
X129645676Y-57229428D01*
X129645676Y-57229428D02*
X129740914Y-57324666D01*
X129740914Y-57324666D02*
X129788533Y-57419904D01*
X134693866Y-77961904D02*
X134693866Y-77200000D01*
X135074819Y-77580952D02*
X134312914Y-77580952D01*
X135074819Y-76200000D02*
X135074819Y-76771428D01*
X135074819Y-76485714D02*
X134074819Y-76485714D01*
X134074819Y-76485714D02*
X134217676Y-76580952D01*
X134217676Y-76580952D02*
X134312914Y-76676190D01*
X134312914Y-76676190D02*
X134360533Y-76771428D01*
X134170057Y-75819047D02*
X134122438Y-75771428D01*
X134122438Y-75771428D02*
X134074819Y-75676190D01*
X134074819Y-75676190D02*
X134074819Y-75438095D01*
X134074819Y-75438095D02*
X134122438Y-75342857D01*
X134122438Y-75342857D02*
X134170057Y-75295238D01*
X134170057Y-75295238D02*
X134265295Y-75247619D01*
X134265295Y-75247619D02*
X134360533Y-75247619D01*
X134360533Y-75247619D02*
X134503390Y-75295238D01*
X134503390Y-75295238D02*
X135074819Y-75866666D01*
X135074819Y-75866666D02*
X135074819Y-75247619D01*
X134074819Y-74961904D02*
X135074819Y-74628571D01*
X135074819Y-74628571D02*
X134074819Y-74295238D01*
X146349962Y-120085495D02*
X145750037Y-120085495D01*
X146049999Y-119785532D02*
X146049999Y-120385458D01*
X82908666Y-50238819D02*
X82908666Y-49238819D01*
X82908666Y-49238819D02*
X83241999Y-49953104D01*
X83241999Y-49953104D02*
X83575332Y-49238819D01*
X83575332Y-49238819D02*
X83575332Y-50238819D01*
X83956285Y-49238819D02*
X84575332Y-49238819D01*
X84575332Y-49238819D02*
X84241999Y-49619771D01*
X84241999Y-49619771D02*
X84384856Y-49619771D01*
X84384856Y-49619771D02*
X84480094Y-49667390D01*
X84480094Y-49667390D02*
X84527713Y-49715009D01*
X84527713Y-49715009D02*
X84575332Y-49810247D01*
X84575332Y-49810247D02*
X84575332Y-50048342D01*
X84575332Y-50048342D02*
X84527713Y-50143580D01*
X84527713Y-50143580D02*
X84480094Y-50191200D01*
X84480094Y-50191200D02*
X84384856Y-50238819D01*
X84384856Y-50238819D02*
X84099142Y-50238819D01*
X84099142Y-50238819D02*
X84003904Y-50191200D01*
X84003904Y-50191200D02*
X83956285Y-50143580D01*
X85003904Y-49857866D02*
X85765809Y-49857866D01*
X86861047Y-49238819D02*
X87194380Y-50238819D01*
X87194380Y-50238819D02*
X87527713Y-49238819D01*
X88432475Y-50143580D02*
X88384856Y-50191200D01*
X88384856Y-50191200D02*
X88241999Y-50238819D01*
X88241999Y-50238819D02*
X88146761Y-50238819D01*
X88146761Y-50238819D02*
X88003904Y-50191200D01*
X88003904Y-50191200D02*
X87908666Y-50095961D01*
X87908666Y-50095961D02*
X87861047Y-50000723D01*
X87861047Y-50000723D02*
X87813428Y-49810247D01*
X87813428Y-49810247D02*
X87813428Y-49667390D01*
X87813428Y-49667390D02*
X87861047Y-49476914D01*
X87861047Y-49476914D02*
X87908666Y-49381676D01*
X87908666Y-49381676D02*
X88003904Y-49286438D01*
X88003904Y-49286438D02*
X88146761Y-49238819D01*
X88146761Y-49238819D02*
X88241999Y-49238819D01*
X88241999Y-49238819D02*
X88384856Y-49286438D01*
X88384856Y-49286438D02*
X88432475Y-49334057D01*
X89432475Y-50143580D02*
X89384856Y-50191200D01*
X89384856Y-50191200D02*
X89241999Y-50238819D01*
X89241999Y-50238819D02*
X89146761Y-50238819D01*
X89146761Y-50238819D02*
X89003904Y-50191200D01*
X89003904Y-50191200D02*
X88908666Y-50095961D01*
X88908666Y-50095961D02*
X88861047Y-50000723D01*
X88861047Y-50000723D02*
X88813428Y-49810247D01*
X88813428Y-49810247D02*
X88813428Y-49667390D01*
X88813428Y-49667390D02*
X88861047Y-49476914D01*
X88861047Y-49476914D02*
X88908666Y-49381676D01*
X88908666Y-49381676D02*
X89003904Y-49286438D01*
X89003904Y-49286438D02*
X89146761Y-49238819D01*
X89146761Y-49238819D02*
X89241999Y-49238819D01*
X89241999Y-49238819D02*
X89384856Y-49286438D01*
X89384856Y-49286438D02*
X89432475Y-49334057D01*
X90622952Y-49715009D02*
X90956285Y-49715009D01*
X91099142Y-50238819D02*
X90622952Y-50238819D01*
X90622952Y-50238819D02*
X90622952Y-49238819D01*
X90622952Y-49238819D02*
X91099142Y-49238819D01*
X91527714Y-50238819D02*
X91527714Y-49238819D01*
X91527714Y-49238819D02*
X92099142Y-50238819D01*
X92099142Y-50238819D02*
X92099142Y-49238819D01*
X93146761Y-50143580D02*
X93099142Y-50191200D01*
X93099142Y-50191200D02*
X92956285Y-50238819D01*
X92956285Y-50238819D02*
X92861047Y-50238819D01*
X92861047Y-50238819D02*
X92718190Y-50191200D01*
X92718190Y-50191200D02*
X92622952Y-50095961D01*
X92622952Y-50095961D02*
X92575333Y-50000723D01*
X92575333Y-50000723D02*
X92527714Y-49810247D01*
X92527714Y-49810247D02*
X92527714Y-49667390D01*
X92527714Y-49667390D02*
X92575333Y-49476914D01*
X92575333Y-49476914D02*
X92622952Y-49381676D01*
X92622952Y-49381676D02*
X92718190Y-49286438D01*
X92718190Y-49286438D02*
X92861047Y-49238819D01*
X92861047Y-49238819D02*
X92956285Y-49238819D01*
X92956285Y-49238819D02*
X93099142Y-49286438D01*
X93099142Y-49286438D02*
X93146761Y-49334057D01*
X93908666Y-49715009D02*
X94051523Y-49762628D01*
X94051523Y-49762628D02*
X94099142Y-49810247D01*
X94099142Y-49810247D02*
X94146761Y-49905485D01*
X94146761Y-49905485D02*
X94146761Y-50048342D01*
X94146761Y-50048342D02*
X94099142Y-50143580D01*
X94099142Y-50143580D02*
X94051523Y-50191200D01*
X94051523Y-50191200D02*
X93956285Y-50238819D01*
X93956285Y-50238819D02*
X93575333Y-50238819D01*
X93575333Y-50238819D02*
X93575333Y-49238819D01*
X93575333Y-49238819D02*
X93908666Y-49238819D01*
X93908666Y-49238819D02*
X94003904Y-49286438D01*
X94003904Y-49286438D02*
X94051523Y-49334057D01*
X94051523Y-49334057D02*
X94099142Y-49429295D01*
X94099142Y-49429295D02*
X94099142Y-49524533D01*
X94099142Y-49524533D02*
X94051523Y-49619771D01*
X94051523Y-49619771D02*
X94003904Y-49667390D01*
X94003904Y-49667390D02*
X93908666Y-49715009D01*
X93908666Y-49715009D02*
X93575333Y-49715009D01*
X95337238Y-49715009D02*
X95670571Y-49715009D01*
X95813428Y-50238819D02*
X95337238Y-50238819D01*
X95337238Y-50238819D02*
X95337238Y-49238819D01*
X95337238Y-49238819D02*
X95813428Y-49238819D01*
X96242000Y-50238819D02*
X96242000Y-49238819D01*
X96242000Y-49238819D02*
X96813428Y-50238819D01*
X96813428Y-50238819D02*
X96813428Y-49238819D01*
X97861047Y-50143580D02*
X97813428Y-50191200D01*
X97813428Y-50191200D02*
X97670571Y-50238819D01*
X97670571Y-50238819D02*
X97575333Y-50238819D01*
X97575333Y-50238819D02*
X97432476Y-50191200D01*
X97432476Y-50191200D02*
X97337238Y-50095961D01*
X97337238Y-50095961D02*
X97289619Y-50000723D01*
X97289619Y-50000723D02*
X97242000Y-49810247D01*
X97242000Y-49810247D02*
X97242000Y-49667390D01*
X97242000Y-49667390D02*
X97289619Y-49476914D01*
X97289619Y-49476914D02*
X97337238Y-49381676D01*
X97337238Y-49381676D02*
X97432476Y-49286438D01*
X97432476Y-49286438D02*
X97575333Y-49238819D01*
X97575333Y-49238819D02*
X97670571Y-49238819D01*
X97670571Y-49238819D02*
X97813428Y-49286438D01*
X97813428Y-49286438D02*
X97861047Y-49334057D01*
X98242000Y-49953104D02*
X98718190Y-49953104D01*
X98146762Y-50238819D02*
X98480095Y-49238819D01*
X98480095Y-49238819D02*
X98813428Y-50238819D01*
X100432476Y-49286438D02*
X100337238Y-49238819D01*
X100337238Y-49238819D02*
X100194381Y-49238819D01*
X100194381Y-49238819D02*
X100051524Y-49286438D01*
X100051524Y-49286438D02*
X99956286Y-49381676D01*
X99956286Y-49381676D02*
X99908667Y-49476914D01*
X99908667Y-49476914D02*
X99861048Y-49667390D01*
X99861048Y-49667390D02*
X99861048Y-49810247D01*
X99861048Y-49810247D02*
X99908667Y-50000723D01*
X99908667Y-50000723D02*
X99956286Y-50095961D01*
X99956286Y-50095961D02*
X100051524Y-50191200D01*
X100051524Y-50191200D02*
X100194381Y-50238819D01*
X100194381Y-50238819D02*
X100289619Y-50238819D01*
X100289619Y-50238819D02*
X100432476Y-50191200D01*
X100432476Y-50191200D02*
X100480095Y-50143580D01*
X100480095Y-50143580D02*
X100480095Y-49810247D01*
X100480095Y-49810247D02*
X100289619Y-49810247D01*
X100908667Y-50238819D02*
X100908667Y-49238819D01*
X100908667Y-49238819D02*
X101480095Y-50238819D01*
X101480095Y-50238819D02*
X101480095Y-49238819D01*
X101956286Y-50238819D02*
X101956286Y-49238819D01*
X101956286Y-49238819D02*
X102194381Y-49238819D01*
X102194381Y-49238819D02*
X102337238Y-49286438D01*
X102337238Y-49286438D02*
X102432476Y-49381676D01*
X102432476Y-49381676D02*
X102480095Y-49476914D01*
X102480095Y-49476914D02*
X102527714Y-49667390D01*
X102527714Y-49667390D02*
X102527714Y-49810247D01*
X102527714Y-49810247D02*
X102480095Y-50000723D01*
X102480095Y-50000723D02*
X102432476Y-50095961D01*
X102432476Y-50095961D02*
X102337238Y-50191200D01*
X102337238Y-50191200D02*
X102194381Y-50238819D01*
X102194381Y-50238819D02*
X101956286Y-50238819D01*
X103718191Y-50238819D02*
X103718191Y-49238819D01*
X103718191Y-49238819D02*
X104051524Y-49953104D01*
X104051524Y-49953104D02*
X104384857Y-49238819D01*
X104384857Y-49238819D02*
X104384857Y-50238819D01*
X104765810Y-49238819D02*
X105384857Y-49238819D01*
X105384857Y-49238819D02*
X105051524Y-49619771D01*
X105051524Y-49619771D02*
X105194381Y-49619771D01*
X105194381Y-49619771D02*
X105289619Y-49667390D01*
X105289619Y-49667390D02*
X105337238Y-49715009D01*
X105337238Y-49715009D02*
X105384857Y-49810247D01*
X105384857Y-49810247D02*
X105384857Y-50048342D01*
X105384857Y-50048342D02*
X105337238Y-50143580D01*
X105337238Y-50143580D02*
X105289619Y-50191200D01*
X105289619Y-50191200D02*
X105194381Y-50238819D01*
X105194381Y-50238819D02*
X104908667Y-50238819D01*
X104908667Y-50238819D02*
X104813429Y-50191200D01*
X104813429Y-50191200D02*
X104765810Y-50143580D01*
X105813429Y-49857866D02*
X106575334Y-49857866D01*
X106194381Y-50238819D02*
X106194381Y-49476914D01*
X118722666Y-50238819D02*
X118722666Y-49238819D01*
X118722666Y-49238819D02*
X119055999Y-49953104D01*
X119055999Y-49953104D02*
X119389332Y-49238819D01*
X119389332Y-49238819D02*
X119389332Y-50238819D01*
X120389332Y-50238819D02*
X119817904Y-50238819D01*
X120103618Y-50238819D02*
X120103618Y-49238819D01*
X120103618Y-49238819D02*
X120008380Y-49381676D01*
X120008380Y-49381676D02*
X119913142Y-49476914D01*
X119913142Y-49476914D02*
X119817904Y-49524533D01*
X120817904Y-49857866D02*
X121579809Y-49857866D01*
X122675047Y-49238819D02*
X123008380Y-50238819D01*
X123008380Y-50238819D02*
X123341713Y-49238819D01*
X124246475Y-50143580D02*
X124198856Y-50191200D01*
X124198856Y-50191200D02*
X124055999Y-50238819D01*
X124055999Y-50238819D02*
X123960761Y-50238819D01*
X123960761Y-50238819D02*
X123817904Y-50191200D01*
X123817904Y-50191200D02*
X123722666Y-50095961D01*
X123722666Y-50095961D02*
X123675047Y-50000723D01*
X123675047Y-50000723D02*
X123627428Y-49810247D01*
X123627428Y-49810247D02*
X123627428Y-49667390D01*
X123627428Y-49667390D02*
X123675047Y-49476914D01*
X123675047Y-49476914D02*
X123722666Y-49381676D01*
X123722666Y-49381676D02*
X123817904Y-49286438D01*
X123817904Y-49286438D02*
X123960761Y-49238819D01*
X123960761Y-49238819D02*
X124055999Y-49238819D01*
X124055999Y-49238819D02*
X124198856Y-49286438D01*
X124198856Y-49286438D02*
X124246475Y-49334057D01*
X125246475Y-50143580D02*
X125198856Y-50191200D01*
X125198856Y-50191200D02*
X125055999Y-50238819D01*
X125055999Y-50238819D02*
X124960761Y-50238819D01*
X124960761Y-50238819D02*
X124817904Y-50191200D01*
X124817904Y-50191200D02*
X124722666Y-50095961D01*
X124722666Y-50095961D02*
X124675047Y-50000723D01*
X124675047Y-50000723D02*
X124627428Y-49810247D01*
X124627428Y-49810247D02*
X124627428Y-49667390D01*
X124627428Y-49667390D02*
X124675047Y-49476914D01*
X124675047Y-49476914D02*
X124722666Y-49381676D01*
X124722666Y-49381676D02*
X124817904Y-49286438D01*
X124817904Y-49286438D02*
X124960761Y-49238819D01*
X124960761Y-49238819D02*
X125055999Y-49238819D01*
X125055999Y-49238819D02*
X125198856Y-49286438D01*
X125198856Y-49286438D02*
X125246475Y-49334057D01*
X126436952Y-49715009D02*
X126770285Y-49715009D01*
X126913142Y-50238819D02*
X126436952Y-50238819D01*
X126436952Y-50238819D02*
X126436952Y-49238819D01*
X126436952Y-49238819D02*
X126913142Y-49238819D01*
X127341714Y-50238819D02*
X127341714Y-49238819D01*
X127341714Y-49238819D02*
X127913142Y-50238819D01*
X127913142Y-50238819D02*
X127913142Y-49238819D01*
X128960761Y-50143580D02*
X128913142Y-50191200D01*
X128913142Y-50191200D02*
X128770285Y-50238819D01*
X128770285Y-50238819D02*
X128675047Y-50238819D01*
X128675047Y-50238819D02*
X128532190Y-50191200D01*
X128532190Y-50191200D02*
X128436952Y-50095961D01*
X128436952Y-50095961D02*
X128389333Y-50000723D01*
X128389333Y-50000723D02*
X128341714Y-49810247D01*
X128341714Y-49810247D02*
X128341714Y-49667390D01*
X128341714Y-49667390D02*
X128389333Y-49476914D01*
X128389333Y-49476914D02*
X128436952Y-49381676D01*
X128436952Y-49381676D02*
X128532190Y-49286438D01*
X128532190Y-49286438D02*
X128675047Y-49238819D01*
X128675047Y-49238819D02*
X128770285Y-49238819D01*
X128770285Y-49238819D02*
X128913142Y-49286438D01*
X128913142Y-49286438D02*
X128960761Y-49334057D01*
X129722666Y-49715009D02*
X129865523Y-49762628D01*
X129865523Y-49762628D02*
X129913142Y-49810247D01*
X129913142Y-49810247D02*
X129960761Y-49905485D01*
X129960761Y-49905485D02*
X129960761Y-50048342D01*
X129960761Y-50048342D02*
X129913142Y-50143580D01*
X129913142Y-50143580D02*
X129865523Y-50191200D01*
X129865523Y-50191200D02*
X129770285Y-50238819D01*
X129770285Y-50238819D02*
X129389333Y-50238819D01*
X129389333Y-50238819D02*
X129389333Y-49238819D01*
X129389333Y-49238819D02*
X129722666Y-49238819D01*
X129722666Y-49238819D02*
X129817904Y-49286438D01*
X129817904Y-49286438D02*
X129865523Y-49334057D01*
X129865523Y-49334057D02*
X129913142Y-49429295D01*
X129913142Y-49429295D02*
X129913142Y-49524533D01*
X129913142Y-49524533D02*
X129865523Y-49619771D01*
X129865523Y-49619771D02*
X129817904Y-49667390D01*
X129817904Y-49667390D02*
X129722666Y-49715009D01*
X129722666Y-49715009D02*
X129389333Y-49715009D01*
X131151238Y-49715009D02*
X131484571Y-49715009D01*
X131627428Y-50238819D02*
X131151238Y-50238819D01*
X131151238Y-50238819D02*
X131151238Y-49238819D01*
X131151238Y-49238819D02*
X131627428Y-49238819D01*
X132056000Y-50238819D02*
X132056000Y-49238819D01*
X132056000Y-49238819D02*
X132627428Y-50238819D01*
X132627428Y-50238819D02*
X132627428Y-49238819D01*
X133675047Y-50143580D02*
X133627428Y-50191200D01*
X133627428Y-50191200D02*
X133484571Y-50238819D01*
X133484571Y-50238819D02*
X133389333Y-50238819D01*
X133389333Y-50238819D02*
X133246476Y-50191200D01*
X133246476Y-50191200D02*
X133151238Y-50095961D01*
X133151238Y-50095961D02*
X133103619Y-50000723D01*
X133103619Y-50000723D02*
X133056000Y-49810247D01*
X133056000Y-49810247D02*
X133056000Y-49667390D01*
X133056000Y-49667390D02*
X133103619Y-49476914D01*
X133103619Y-49476914D02*
X133151238Y-49381676D01*
X133151238Y-49381676D02*
X133246476Y-49286438D01*
X133246476Y-49286438D02*
X133389333Y-49238819D01*
X133389333Y-49238819D02*
X133484571Y-49238819D01*
X133484571Y-49238819D02*
X133627428Y-49286438D01*
X133627428Y-49286438D02*
X133675047Y-49334057D01*
X134056000Y-49953104D02*
X134532190Y-49953104D01*
X133960762Y-50238819D02*
X134294095Y-49238819D01*
X134294095Y-49238819D02*
X134627428Y-50238819D01*
X136246476Y-49286438D02*
X136151238Y-49238819D01*
X136151238Y-49238819D02*
X136008381Y-49238819D01*
X136008381Y-49238819D02*
X135865524Y-49286438D01*
X135865524Y-49286438D02*
X135770286Y-49381676D01*
X135770286Y-49381676D02*
X135722667Y-49476914D01*
X135722667Y-49476914D02*
X135675048Y-49667390D01*
X135675048Y-49667390D02*
X135675048Y-49810247D01*
X135675048Y-49810247D02*
X135722667Y-50000723D01*
X135722667Y-50000723D02*
X135770286Y-50095961D01*
X135770286Y-50095961D02*
X135865524Y-50191200D01*
X135865524Y-50191200D02*
X136008381Y-50238819D01*
X136008381Y-50238819D02*
X136103619Y-50238819D01*
X136103619Y-50238819D02*
X136246476Y-50191200D01*
X136246476Y-50191200D02*
X136294095Y-50143580D01*
X136294095Y-50143580D02*
X136294095Y-49810247D01*
X136294095Y-49810247D02*
X136103619Y-49810247D01*
X136722667Y-50238819D02*
X136722667Y-49238819D01*
X136722667Y-49238819D02*
X137294095Y-50238819D01*
X137294095Y-50238819D02*
X137294095Y-49238819D01*
X137770286Y-50238819D02*
X137770286Y-49238819D01*
X137770286Y-49238819D02*
X138008381Y-49238819D01*
X138008381Y-49238819D02*
X138151238Y-49286438D01*
X138151238Y-49286438D02*
X138246476Y-49381676D01*
X138246476Y-49381676D02*
X138294095Y-49476914D01*
X138294095Y-49476914D02*
X138341714Y-49667390D01*
X138341714Y-49667390D02*
X138341714Y-49810247D01*
X138341714Y-49810247D02*
X138294095Y-50000723D01*
X138294095Y-50000723D02*
X138246476Y-50095961D01*
X138246476Y-50095961D02*
X138151238Y-50191200D01*
X138151238Y-50191200D02*
X138008381Y-50238819D01*
X138008381Y-50238819D02*
X137770286Y-50238819D01*
X139532191Y-50238819D02*
X139532191Y-49238819D01*
X139532191Y-49238819D02*
X139865524Y-49953104D01*
X139865524Y-49953104D02*
X140198857Y-49238819D01*
X140198857Y-49238819D02*
X140198857Y-50238819D01*
X141198857Y-50238819D02*
X140627429Y-50238819D01*
X140913143Y-50238819D02*
X140913143Y-49238819D01*
X140913143Y-49238819D02*
X140817905Y-49381676D01*
X140817905Y-49381676D02*
X140722667Y-49476914D01*
X140722667Y-49476914D02*
X140627429Y-49524533D01*
X141627429Y-49857866D02*
X142389334Y-49857866D01*
X142008381Y-50238819D02*
X142008381Y-49476914D01*
X135836819Y-72048666D02*
X135360628Y-72381999D01*
X135836819Y-72620094D02*
X134836819Y-72620094D01*
X134836819Y-72620094D02*
X134836819Y-72239142D01*
X134836819Y-72239142D02*
X134884438Y-72143904D01*
X134884438Y-72143904D02*
X134932057Y-72096285D01*
X134932057Y-72096285D02*
X135027295Y-72048666D01*
X135027295Y-72048666D02*
X135170152Y-72048666D01*
X135170152Y-72048666D02*
X135265390Y-72096285D01*
X135265390Y-72096285D02*
X135313009Y-72143904D01*
X135313009Y-72143904D02*
X135360628Y-72239142D01*
X135360628Y-72239142D02*
X135360628Y-72620094D01*
X135836819Y-71096285D02*
X135836819Y-71667713D01*
X135836819Y-71381999D02*
X134836819Y-71381999D01*
X134836819Y-71381999D02*
X134979676Y-71477237D01*
X134979676Y-71477237D02*
X135074914Y-71572475D01*
X135074914Y-71572475D02*
X135122533Y-71667713D01*
X78845580Y-109894666D02*
X78893200Y-109942285D01*
X78893200Y-109942285D02*
X78940819Y-110085142D01*
X78940819Y-110085142D02*
X78940819Y-110180380D01*
X78940819Y-110180380D02*
X78893200Y-110323237D01*
X78893200Y-110323237D02*
X78797961Y-110418475D01*
X78797961Y-110418475D02*
X78702723Y-110466094D01*
X78702723Y-110466094D02*
X78512247Y-110513713D01*
X78512247Y-110513713D02*
X78369390Y-110513713D01*
X78369390Y-110513713D02*
X78178914Y-110466094D01*
X78178914Y-110466094D02*
X78083676Y-110418475D01*
X78083676Y-110418475D02*
X77988438Y-110323237D01*
X77988438Y-110323237D02*
X77940819Y-110180380D01*
X77940819Y-110180380D02*
X77940819Y-110085142D01*
X77940819Y-110085142D02*
X77988438Y-109942285D01*
X77988438Y-109942285D02*
X78036057Y-109894666D01*
X78369390Y-109323237D02*
X78321771Y-109418475D01*
X78321771Y-109418475D02*
X78274152Y-109466094D01*
X78274152Y-109466094D02*
X78178914Y-109513713D01*
X78178914Y-109513713D02*
X78131295Y-109513713D01*
X78131295Y-109513713D02*
X78036057Y-109466094D01*
X78036057Y-109466094D02*
X77988438Y-109418475D01*
X77988438Y-109418475D02*
X77940819Y-109323237D01*
X77940819Y-109323237D02*
X77940819Y-109132761D01*
X77940819Y-109132761D02*
X77988438Y-109037523D01*
X77988438Y-109037523D02*
X78036057Y-108989904D01*
X78036057Y-108989904D02*
X78131295Y-108942285D01*
X78131295Y-108942285D02*
X78178914Y-108942285D01*
X78178914Y-108942285D02*
X78274152Y-108989904D01*
X78274152Y-108989904D02*
X78321771Y-109037523D01*
X78321771Y-109037523D02*
X78369390Y-109132761D01*
X78369390Y-109132761D02*
X78369390Y-109323237D01*
X78369390Y-109323237D02*
X78417009Y-109418475D01*
X78417009Y-109418475D02*
X78464628Y-109466094D01*
X78464628Y-109466094D02*
X78559866Y-109513713D01*
X78559866Y-109513713D02*
X78750342Y-109513713D01*
X78750342Y-109513713D02*
X78845580Y-109466094D01*
X78845580Y-109466094D02*
X78893200Y-109418475D01*
X78893200Y-109418475D02*
X78940819Y-109323237D01*
X78940819Y-109323237D02*
X78940819Y-109132761D01*
X78940819Y-109132761D02*
X78893200Y-109037523D01*
X78893200Y-109037523D02*
X78845580Y-108989904D01*
X78845580Y-108989904D02*
X78750342Y-108942285D01*
X78750342Y-108942285D02*
X78559866Y-108942285D01*
X78559866Y-108942285D02*
X78464628Y-108989904D01*
X78464628Y-108989904D02*
X78417009Y-109037523D01*
X78417009Y-109037523D02*
X78369390Y-109132761D01*
X80817962Y-90621495D02*
X80218037Y-90621495D01*
X80517999Y-90321532D02*
X80517999Y-90921458D01*
X132334000Y-82601104D02*
X132572095Y-82839200D01*
X132572095Y-82839200D02*
X132334000Y-83077295D01*
X132334000Y-83077295D02*
X132095904Y-82839200D01*
X132095904Y-82839200D02*
X132334000Y-82601104D01*
X132334000Y-82601104D02*
X132334000Y-83077295D01*
X90215962Y-92399495D02*
X89616037Y-92399495D01*
X89915999Y-92099532D02*
X89915999Y-92699458D01*
X141170819Y-108607903D02*
X140170819Y-108607903D01*
X140170819Y-108607903D02*
X140170819Y-108226951D01*
X140170819Y-108226951D02*
X140218438Y-108131713D01*
X140218438Y-108131713D02*
X140266057Y-108084094D01*
X140266057Y-108084094D02*
X140361295Y-108036475D01*
X140361295Y-108036475D02*
X140504152Y-108036475D01*
X140504152Y-108036475D02*
X140599390Y-108084094D01*
X140599390Y-108084094D02*
X140647009Y-108131713D01*
X140647009Y-108131713D02*
X140694628Y-108226951D01*
X140694628Y-108226951D02*
X140694628Y-108607903D01*
X140170819Y-107703141D02*
X141170819Y-107465046D01*
X141170819Y-107465046D02*
X140456533Y-107274570D01*
X140456533Y-107274570D02*
X141170819Y-107084094D01*
X141170819Y-107084094D02*
X140170819Y-106845999D01*
X141170819Y-106465046D02*
X140170819Y-106465046D01*
X140170819Y-106465046D02*
X140885104Y-106131713D01*
X140885104Y-106131713D02*
X140170819Y-105798380D01*
X140170819Y-105798380D02*
X141170819Y-105798380D01*
X140218438Y-104036475D02*
X140170819Y-104131713D01*
X140170819Y-104131713D02*
X140170819Y-104274570D01*
X140170819Y-104274570D02*
X140218438Y-104417427D01*
X140218438Y-104417427D02*
X140313676Y-104512665D01*
X140313676Y-104512665D02*
X140408914Y-104560284D01*
X140408914Y-104560284D02*
X140599390Y-104607903D01*
X140599390Y-104607903D02*
X140742247Y-104607903D01*
X140742247Y-104607903D02*
X140932723Y-104560284D01*
X140932723Y-104560284D02*
X141027961Y-104512665D01*
X141027961Y-104512665D02*
X141123200Y-104417427D01*
X141123200Y-104417427D02*
X141170819Y-104274570D01*
X141170819Y-104274570D02*
X141170819Y-104179332D01*
X141170819Y-104179332D02*
X141123200Y-104036475D01*
X141123200Y-104036475D02*
X141075580Y-103988856D01*
X141075580Y-103988856D02*
X140742247Y-103988856D01*
X140742247Y-103988856D02*
X140742247Y-104179332D01*
X141170819Y-103560284D02*
X140170819Y-103560284D01*
X140170819Y-103560284D02*
X141170819Y-102988856D01*
X141170819Y-102988856D02*
X140170819Y-102988856D01*
X141170819Y-102512665D02*
X140170819Y-102512665D01*
X140170819Y-102512665D02*
X140170819Y-102274570D01*
X140170819Y-102274570D02*
X140218438Y-102131713D01*
X140218438Y-102131713D02*
X140313676Y-102036475D01*
X140313676Y-102036475D02*
X140408914Y-101988856D01*
X140408914Y-101988856D02*
X140599390Y-101941237D01*
X140599390Y-101941237D02*
X140742247Y-101941237D01*
X140742247Y-101941237D02*
X140932723Y-101988856D01*
X140932723Y-101988856D02*
X141027961Y-102036475D01*
X141027961Y-102036475D02*
X141123200Y-102131713D01*
X141123200Y-102131713D02*
X141170819Y-102274570D01*
X141170819Y-102274570D02*
X141170819Y-102512665D01*
X140789866Y-101512665D02*
X140789866Y-100750761D01*
X141170819Y-100274570D02*
X140170819Y-100274570D01*
X140170819Y-100274570D02*
X140885104Y-99941237D01*
X140885104Y-99941237D02*
X140170819Y-99607904D01*
X140170819Y-99607904D02*
X141170819Y-99607904D01*
X140504152Y-98703142D02*
X141170819Y-98703142D01*
X140123200Y-98941237D02*
X140837485Y-99179332D01*
X140837485Y-99179332D02*
X140837485Y-98560285D01*
X140789866Y-98179332D02*
X140789866Y-97417428D01*
X140504152Y-96941237D02*
X140789866Y-96179333D01*
X140789866Y-96179333D02*
X141075580Y-96941237D01*
X141170819Y-95703142D02*
X140170819Y-95703142D01*
X140170819Y-95703142D02*
X140885104Y-95369809D01*
X140885104Y-95369809D02*
X140170819Y-95036476D01*
X140170819Y-95036476D02*
X141170819Y-95036476D01*
X141170819Y-94036476D02*
X141170819Y-94607904D01*
X141170819Y-94322190D02*
X140170819Y-94322190D01*
X140170819Y-94322190D02*
X140313676Y-94417428D01*
X140313676Y-94417428D02*
X140408914Y-94512666D01*
X140408914Y-94512666D02*
X140456533Y-94607904D01*
X136249580Y-94908666D02*
X136297200Y-94956285D01*
X136297200Y-94956285D02*
X136344819Y-95099142D01*
X136344819Y-95099142D02*
X136344819Y-95194380D01*
X136344819Y-95194380D02*
X136297200Y-95337237D01*
X136297200Y-95337237D02*
X136201961Y-95432475D01*
X136201961Y-95432475D02*
X136106723Y-95480094D01*
X136106723Y-95480094D02*
X135916247Y-95527713D01*
X135916247Y-95527713D02*
X135773390Y-95527713D01*
X135773390Y-95527713D02*
X135582914Y-95480094D01*
X135582914Y-95480094D02*
X135487676Y-95432475D01*
X135487676Y-95432475D02*
X135392438Y-95337237D01*
X135392438Y-95337237D02*
X135344819Y-95194380D01*
X135344819Y-95194380D02*
X135344819Y-95099142D01*
X135344819Y-95099142D02*
X135392438Y-94956285D01*
X135392438Y-94956285D02*
X135440057Y-94908666D01*
X135344819Y-94003904D02*
X135344819Y-94480094D01*
X135344819Y-94480094D02*
X135821009Y-94527713D01*
X135821009Y-94527713D02*
X135773390Y-94480094D01*
X135773390Y-94480094D02*
X135725771Y-94384856D01*
X135725771Y-94384856D02*
X135725771Y-94146761D01*
X135725771Y-94146761D02*
X135773390Y-94051523D01*
X135773390Y-94051523D02*
X135821009Y-94003904D01*
X135821009Y-94003904D02*
X135916247Y-93956285D01*
X135916247Y-93956285D02*
X136154342Y-93956285D01*
X136154342Y-93956285D02*
X136249580Y-94003904D01*
X136249580Y-94003904D02*
X136297200Y-94051523D01*
X136297200Y-94051523D02*
X136344819Y-94146761D01*
X136344819Y-94146761D02*
X136344819Y-94384856D01*
X136344819Y-94384856D02*
X136297200Y-94480094D01*
X136297200Y-94480094D02*
X136249580Y-94527713D01*
X84627962Y-76905495D02*
X84028037Y-76905495D01*
X84327999Y-76605532D02*
X84327999Y-77205458D01*
X84909866Y-88121904D02*
X84909866Y-87360000D01*
X85290819Y-87740952D02*
X84528914Y-87740952D01*
X85290819Y-86360000D02*
X85290819Y-86931428D01*
X85290819Y-86645714D02*
X84290819Y-86645714D01*
X84290819Y-86645714D02*
X84433676Y-86740952D01*
X84433676Y-86740952D02*
X84528914Y-86836190D01*
X84528914Y-86836190D02*
X84576533Y-86931428D01*
X84386057Y-85979047D02*
X84338438Y-85931428D01*
X84338438Y-85931428D02*
X84290819Y-85836190D01*
X84290819Y-85836190D02*
X84290819Y-85598095D01*
X84290819Y-85598095D02*
X84338438Y-85502857D01*
X84338438Y-85502857D02*
X84386057Y-85455238D01*
X84386057Y-85455238D02*
X84481295Y-85407619D01*
X84481295Y-85407619D02*
X84576533Y-85407619D01*
X84576533Y-85407619D02*
X84719390Y-85455238D01*
X84719390Y-85455238D02*
X85290819Y-86026666D01*
X85290819Y-86026666D02*
X85290819Y-85407619D01*
X84290819Y-85121904D02*
X85290819Y-84788571D01*
X85290819Y-84788571D02*
X84290819Y-84455238D01*
%TO.C,C4*%
X95609580Y-65798666D02*
X95657200Y-65846285D01*
X95657200Y-65846285D02*
X95704819Y-65989142D01*
X95704819Y-65989142D02*
X95704819Y-66084380D01*
X95704819Y-66084380D02*
X95657200Y-66227237D01*
X95657200Y-66227237D02*
X95561961Y-66322475D01*
X95561961Y-66322475D02*
X95466723Y-66370094D01*
X95466723Y-66370094D02*
X95276247Y-66417713D01*
X95276247Y-66417713D02*
X95133390Y-66417713D01*
X95133390Y-66417713D02*
X94942914Y-66370094D01*
X94942914Y-66370094D02*
X94847676Y-66322475D01*
X94847676Y-66322475D02*
X94752438Y-66227237D01*
X94752438Y-66227237D02*
X94704819Y-66084380D01*
X94704819Y-66084380D02*
X94704819Y-65989142D01*
X94704819Y-65989142D02*
X94752438Y-65846285D01*
X94752438Y-65846285D02*
X94800057Y-65798666D01*
X95038152Y-64941523D02*
X95704819Y-64941523D01*
X94657200Y-65179618D02*
X95371485Y-65417713D01*
X95371485Y-65417713D02*
X95371485Y-64798666D01*
%TO.C,R8*%
X91520819Y-69151166D02*
X91044628Y-69484499D01*
X91520819Y-69722594D02*
X90520819Y-69722594D01*
X90520819Y-69722594D02*
X90520819Y-69341642D01*
X90520819Y-69341642D02*
X90568438Y-69246404D01*
X90568438Y-69246404D02*
X90616057Y-69198785D01*
X90616057Y-69198785D02*
X90711295Y-69151166D01*
X90711295Y-69151166D02*
X90854152Y-69151166D01*
X90854152Y-69151166D02*
X90949390Y-69198785D01*
X90949390Y-69198785D02*
X90997009Y-69246404D01*
X90997009Y-69246404D02*
X91044628Y-69341642D01*
X91044628Y-69341642D02*
X91044628Y-69722594D01*
X90949390Y-68579737D02*
X90901771Y-68674975D01*
X90901771Y-68674975D02*
X90854152Y-68722594D01*
X90854152Y-68722594D02*
X90758914Y-68770213D01*
X90758914Y-68770213D02*
X90711295Y-68770213D01*
X90711295Y-68770213D02*
X90616057Y-68722594D01*
X90616057Y-68722594D02*
X90568438Y-68674975D01*
X90568438Y-68674975D02*
X90520819Y-68579737D01*
X90520819Y-68579737D02*
X90520819Y-68389261D01*
X90520819Y-68389261D02*
X90568438Y-68294023D01*
X90568438Y-68294023D02*
X90616057Y-68246404D01*
X90616057Y-68246404D02*
X90711295Y-68198785D01*
X90711295Y-68198785D02*
X90758914Y-68198785D01*
X90758914Y-68198785D02*
X90854152Y-68246404D01*
X90854152Y-68246404D02*
X90901771Y-68294023D01*
X90901771Y-68294023D02*
X90949390Y-68389261D01*
X90949390Y-68389261D02*
X90949390Y-68579737D01*
X90949390Y-68579737D02*
X90997009Y-68674975D01*
X90997009Y-68674975D02*
X91044628Y-68722594D01*
X91044628Y-68722594D02*
X91139866Y-68770213D01*
X91139866Y-68770213D02*
X91330342Y-68770213D01*
X91330342Y-68770213D02*
X91425580Y-68722594D01*
X91425580Y-68722594D02*
X91473200Y-68674975D01*
X91473200Y-68674975D02*
X91520819Y-68579737D01*
X91520819Y-68579737D02*
X91520819Y-68389261D01*
X91520819Y-68389261D02*
X91473200Y-68294023D01*
X91473200Y-68294023D02*
X91425580Y-68246404D01*
X91425580Y-68246404D02*
X91330342Y-68198785D01*
X91330342Y-68198785D02*
X91139866Y-68198785D01*
X91139866Y-68198785D02*
X91044628Y-68246404D01*
X91044628Y-68246404D02*
X90997009Y-68294023D01*
X90997009Y-68294023D02*
X90949390Y-68389261D01*
%TO.C,R18*%
X85036819Y-101226857D02*
X84560628Y-101560190D01*
X85036819Y-101798285D02*
X84036819Y-101798285D01*
X84036819Y-101798285D02*
X84036819Y-101417333D01*
X84036819Y-101417333D02*
X84084438Y-101322095D01*
X84084438Y-101322095D02*
X84132057Y-101274476D01*
X84132057Y-101274476D02*
X84227295Y-101226857D01*
X84227295Y-101226857D02*
X84370152Y-101226857D01*
X84370152Y-101226857D02*
X84465390Y-101274476D01*
X84465390Y-101274476D02*
X84513009Y-101322095D01*
X84513009Y-101322095D02*
X84560628Y-101417333D01*
X84560628Y-101417333D02*
X84560628Y-101798285D01*
X85036819Y-100274476D02*
X85036819Y-100845904D01*
X85036819Y-100560190D02*
X84036819Y-100560190D01*
X84036819Y-100560190D02*
X84179676Y-100655428D01*
X84179676Y-100655428D02*
X84274914Y-100750666D01*
X84274914Y-100750666D02*
X84322533Y-100845904D01*
X84465390Y-99703047D02*
X84417771Y-99798285D01*
X84417771Y-99798285D02*
X84370152Y-99845904D01*
X84370152Y-99845904D02*
X84274914Y-99893523D01*
X84274914Y-99893523D02*
X84227295Y-99893523D01*
X84227295Y-99893523D02*
X84132057Y-99845904D01*
X84132057Y-99845904D02*
X84084438Y-99798285D01*
X84084438Y-99798285D02*
X84036819Y-99703047D01*
X84036819Y-99703047D02*
X84036819Y-99512571D01*
X84036819Y-99512571D02*
X84084438Y-99417333D01*
X84084438Y-99417333D02*
X84132057Y-99369714D01*
X84132057Y-99369714D02*
X84227295Y-99322095D01*
X84227295Y-99322095D02*
X84274914Y-99322095D01*
X84274914Y-99322095D02*
X84370152Y-99369714D01*
X84370152Y-99369714D02*
X84417771Y-99417333D01*
X84417771Y-99417333D02*
X84465390Y-99512571D01*
X84465390Y-99512571D02*
X84465390Y-99703047D01*
X84465390Y-99703047D02*
X84513009Y-99798285D01*
X84513009Y-99798285D02*
X84560628Y-99845904D01*
X84560628Y-99845904D02*
X84655866Y-99893523D01*
X84655866Y-99893523D02*
X84846342Y-99893523D01*
X84846342Y-99893523D02*
X84941580Y-99845904D01*
X84941580Y-99845904D02*
X84989200Y-99798285D01*
X84989200Y-99798285D02*
X85036819Y-99703047D01*
X85036819Y-99703047D02*
X85036819Y-99512571D01*
X85036819Y-99512571D02*
X84989200Y-99417333D01*
X84989200Y-99417333D02*
X84941580Y-99369714D01*
X84941580Y-99369714D02*
X84846342Y-99322095D01*
X84846342Y-99322095D02*
X84655866Y-99322095D01*
X84655866Y-99322095D02*
X84560628Y-99369714D01*
X84560628Y-99369714D02*
X84513009Y-99417333D01*
X84513009Y-99417333D02*
X84465390Y-99512571D01*
%TO.C,J2*%
X135302666Y-128994819D02*
X135302666Y-129709104D01*
X135302666Y-129709104D02*
X135255047Y-129851961D01*
X135255047Y-129851961D02*
X135159809Y-129947200D01*
X135159809Y-129947200D02*
X135016952Y-129994819D01*
X135016952Y-129994819D02*
X134921714Y-129994819D01*
X135731238Y-129090057D02*
X135778857Y-129042438D01*
X135778857Y-129042438D02*
X135874095Y-128994819D01*
X135874095Y-128994819D02*
X136112190Y-128994819D01*
X136112190Y-128994819D02*
X136207428Y-129042438D01*
X136207428Y-129042438D02*
X136255047Y-129090057D01*
X136255047Y-129090057D02*
X136302666Y-129185295D01*
X136302666Y-129185295D02*
X136302666Y-129280533D01*
X136302666Y-129280533D02*
X136255047Y-129423390D01*
X136255047Y-129423390D02*
X135683619Y-129994819D01*
X135683619Y-129994819D02*
X136302666Y-129994819D01*
%TO.C,R7*%
X123898819Y-72302666D02*
X123422628Y-72635999D01*
X123898819Y-72874094D02*
X122898819Y-72874094D01*
X122898819Y-72874094D02*
X122898819Y-72493142D01*
X122898819Y-72493142D02*
X122946438Y-72397904D01*
X122946438Y-72397904D02*
X122994057Y-72350285D01*
X122994057Y-72350285D02*
X123089295Y-72302666D01*
X123089295Y-72302666D02*
X123232152Y-72302666D01*
X123232152Y-72302666D02*
X123327390Y-72350285D01*
X123327390Y-72350285D02*
X123375009Y-72397904D01*
X123375009Y-72397904D02*
X123422628Y-72493142D01*
X123422628Y-72493142D02*
X123422628Y-72874094D01*
X122898819Y-71969332D02*
X122898819Y-71302666D01*
X122898819Y-71302666D02*
X123898819Y-71731237D01*
%TO.C,C2*%
X111611580Y-65952666D02*
X111659200Y-66000285D01*
X111659200Y-66000285D02*
X111706819Y-66143142D01*
X111706819Y-66143142D02*
X111706819Y-66238380D01*
X111706819Y-66238380D02*
X111659200Y-66381237D01*
X111659200Y-66381237D02*
X111563961Y-66476475D01*
X111563961Y-66476475D02*
X111468723Y-66524094D01*
X111468723Y-66524094D02*
X111278247Y-66571713D01*
X111278247Y-66571713D02*
X111135390Y-66571713D01*
X111135390Y-66571713D02*
X110944914Y-66524094D01*
X110944914Y-66524094D02*
X110849676Y-66476475D01*
X110849676Y-66476475D02*
X110754438Y-66381237D01*
X110754438Y-66381237D02*
X110706819Y-66238380D01*
X110706819Y-66238380D02*
X110706819Y-66143142D01*
X110706819Y-66143142D02*
X110754438Y-66000285D01*
X110754438Y-66000285D02*
X110802057Y-65952666D01*
X110802057Y-65571713D02*
X110754438Y-65524094D01*
X110754438Y-65524094D02*
X110706819Y-65428856D01*
X110706819Y-65428856D02*
X110706819Y-65190761D01*
X110706819Y-65190761D02*
X110754438Y-65095523D01*
X110754438Y-65095523D02*
X110802057Y-65047904D01*
X110802057Y-65047904D02*
X110897295Y-65000285D01*
X110897295Y-65000285D02*
X110992533Y-65000285D01*
X110992533Y-65000285D02*
X111135390Y-65047904D01*
X111135390Y-65047904D02*
X111706819Y-65619332D01*
X111706819Y-65619332D02*
X111706819Y-65000285D01*
%TO.C,R10*%
X87241142Y-71828819D02*
X86907809Y-71352628D01*
X86669714Y-71828819D02*
X86669714Y-70828819D01*
X86669714Y-70828819D02*
X87050666Y-70828819D01*
X87050666Y-70828819D02*
X87145904Y-70876438D01*
X87145904Y-70876438D02*
X87193523Y-70924057D01*
X87193523Y-70924057D02*
X87241142Y-71019295D01*
X87241142Y-71019295D02*
X87241142Y-71162152D01*
X87241142Y-71162152D02*
X87193523Y-71257390D01*
X87193523Y-71257390D02*
X87145904Y-71305009D01*
X87145904Y-71305009D02*
X87050666Y-71352628D01*
X87050666Y-71352628D02*
X86669714Y-71352628D01*
X88193523Y-71828819D02*
X87622095Y-71828819D01*
X87907809Y-71828819D02*
X87907809Y-70828819D01*
X87907809Y-70828819D02*
X87812571Y-70971676D01*
X87812571Y-70971676D02*
X87717333Y-71066914D01*
X87717333Y-71066914D02*
X87622095Y-71114533D01*
X88812571Y-70828819D02*
X88907809Y-70828819D01*
X88907809Y-70828819D02*
X89003047Y-70876438D01*
X89003047Y-70876438D02*
X89050666Y-70924057D01*
X89050666Y-70924057D02*
X89098285Y-71019295D01*
X89098285Y-71019295D02*
X89145904Y-71209771D01*
X89145904Y-71209771D02*
X89145904Y-71447866D01*
X89145904Y-71447866D02*
X89098285Y-71638342D01*
X89098285Y-71638342D02*
X89050666Y-71733580D01*
X89050666Y-71733580D02*
X89003047Y-71781200D01*
X89003047Y-71781200D02*
X88907809Y-71828819D01*
X88907809Y-71828819D02*
X88812571Y-71828819D01*
X88812571Y-71828819D02*
X88717333Y-71781200D01*
X88717333Y-71781200D02*
X88669714Y-71733580D01*
X88669714Y-71733580D02*
X88622095Y-71638342D01*
X88622095Y-71638342D02*
X88574476Y-71447866D01*
X88574476Y-71447866D02*
X88574476Y-71209771D01*
X88574476Y-71209771D02*
X88622095Y-71019295D01*
X88622095Y-71019295D02*
X88669714Y-70924057D01*
X88669714Y-70924057D02*
X88717333Y-70876438D01*
X88717333Y-70876438D02*
X88812571Y-70828819D01*
%TO.C,U10*%
X108039819Y-116690594D02*
X108849342Y-116690594D01*
X108849342Y-116690594D02*
X108944580Y-116642975D01*
X108944580Y-116642975D02*
X108992200Y-116595356D01*
X108992200Y-116595356D02*
X109039819Y-116500118D01*
X109039819Y-116500118D02*
X109039819Y-116309642D01*
X109039819Y-116309642D02*
X108992200Y-116214404D01*
X108992200Y-116214404D02*
X108944580Y-116166785D01*
X108944580Y-116166785D02*
X108849342Y-116119166D01*
X108849342Y-116119166D02*
X108039819Y-116119166D01*
X109039819Y-115119166D02*
X109039819Y-115690594D01*
X109039819Y-115404880D02*
X108039819Y-115404880D01*
X108039819Y-115404880D02*
X108182676Y-115500118D01*
X108182676Y-115500118D02*
X108277914Y-115595356D01*
X108277914Y-115595356D02*
X108325533Y-115690594D01*
X108039819Y-114500118D02*
X108039819Y-114404880D01*
X108039819Y-114404880D02*
X108087438Y-114309642D01*
X108087438Y-114309642D02*
X108135057Y-114262023D01*
X108135057Y-114262023D02*
X108230295Y-114214404D01*
X108230295Y-114214404D02*
X108420771Y-114166785D01*
X108420771Y-114166785D02*
X108658866Y-114166785D01*
X108658866Y-114166785D02*
X108849342Y-114214404D01*
X108849342Y-114214404D02*
X108944580Y-114262023D01*
X108944580Y-114262023D02*
X108992200Y-114309642D01*
X108992200Y-114309642D02*
X109039819Y-114404880D01*
X109039819Y-114404880D02*
X109039819Y-114500118D01*
X109039819Y-114500118D02*
X108992200Y-114595356D01*
X108992200Y-114595356D02*
X108944580Y-114642975D01*
X108944580Y-114642975D02*
X108849342Y-114690594D01*
X108849342Y-114690594D02*
X108658866Y-114738213D01*
X108658866Y-114738213D02*
X108420771Y-114738213D01*
X108420771Y-114738213D02*
X108230295Y-114690594D01*
X108230295Y-114690594D02*
X108135057Y-114642975D01*
X108135057Y-114642975D02*
X108087438Y-114595356D01*
X108087438Y-114595356D02*
X108039819Y-114500118D01*
%TO.C,U9*%
X138011819Y-116331904D02*
X138821342Y-116331904D01*
X138821342Y-116331904D02*
X138916580Y-116284285D01*
X138916580Y-116284285D02*
X138964200Y-116236666D01*
X138964200Y-116236666D02*
X139011819Y-116141428D01*
X139011819Y-116141428D02*
X139011819Y-115950952D01*
X139011819Y-115950952D02*
X138964200Y-115855714D01*
X138964200Y-115855714D02*
X138916580Y-115808095D01*
X138916580Y-115808095D02*
X138821342Y-115760476D01*
X138821342Y-115760476D02*
X138011819Y-115760476D01*
X139011819Y-115236666D02*
X139011819Y-115046190D01*
X139011819Y-115046190D02*
X138964200Y-114950952D01*
X138964200Y-114950952D02*
X138916580Y-114903333D01*
X138916580Y-114903333D02*
X138773723Y-114808095D01*
X138773723Y-114808095D02*
X138583247Y-114760476D01*
X138583247Y-114760476D02*
X138202295Y-114760476D01*
X138202295Y-114760476D02*
X138107057Y-114808095D01*
X138107057Y-114808095D02*
X138059438Y-114855714D01*
X138059438Y-114855714D02*
X138011819Y-114950952D01*
X138011819Y-114950952D02*
X138011819Y-115141428D01*
X138011819Y-115141428D02*
X138059438Y-115236666D01*
X138059438Y-115236666D02*
X138107057Y-115284285D01*
X138107057Y-115284285D02*
X138202295Y-115331904D01*
X138202295Y-115331904D02*
X138440390Y-115331904D01*
X138440390Y-115331904D02*
X138535628Y-115284285D01*
X138535628Y-115284285D02*
X138583247Y-115236666D01*
X138583247Y-115236666D02*
X138630866Y-115141428D01*
X138630866Y-115141428D02*
X138630866Y-114950952D01*
X138630866Y-114950952D02*
X138583247Y-114855714D01*
X138583247Y-114855714D02*
X138535628Y-114808095D01*
X138535628Y-114808095D02*
X138440390Y-114760476D01*
%TO.C,U2*%
X96228819Y-58419904D02*
X97038342Y-58419904D01*
X97038342Y-58419904D02*
X97133580Y-58372285D01*
X97133580Y-58372285D02*
X97181200Y-58324666D01*
X97181200Y-58324666D02*
X97228819Y-58229428D01*
X97228819Y-58229428D02*
X97228819Y-58038952D01*
X97228819Y-58038952D02*
X97181200Y-57943714D01*
X97181200Y-57943714D02*
X97133580Y-57896095D01*
X97133580Y-57896095D02*
X97038342Y-57848476D01*
X97038342Y-57848476D02*
X96228819Y-57848476D01*
X96324057Y-57419904D02*
X96276438Y-57372285D01*
X96276438Y-57372285D02*
X96228819Y-57277047D01*
X96228819Y-57277047D02*
X96228819Y-57038952D01*
X96228819Y-57038952D02*
X96276438Y-56943714D01*
X96276438Y-56943714D02*
X96324057Y-56896095D01*
X96324057Y-56896095D02*
X96419295Y-56848476D01*
X96419295Y-56848476D02*
X96514533Y-56848476D01*
X96514533Y-56848476D02*
X96657390Y-56896095D01*
X96657390Y-56896095D02*
X97228819Y-57467523D01*
X97228819Y-57467523D02*
X97228819Y-56848476D01*
%TO.C,R13*%
X119072819Y-101480857D02*
X118596628Y-101814190D01*
X119072819Y-102052285D02*
X118072819Y-102052285D01*
X118072819Y-102052285D02*
X118072819Y-101671333D01*
X118072819Y-101671333D02*
X118120438Y-101576095D01*
X118120438Y-101576095D02*
X118168057Y-101528476D01*
X118168057Y-101528476D02*
X118263295Y-101480857D01*
X118263295Y-101480857D02*
X118406152Y-101480857D01*
X118406152Y-101480857D02*
X118501390Y-101528476D01*
X118501390Y-101528476D02*
X118549009Y-101576095D01*
X118549009Y-101576095D02*
X118596628Y-101671333D01*
X118596628Y-101671333D02*
X118596628Y-102052285D01*
X119072819Y-100528476D02*
X119072819Y-101099904D01*
X119072819Y-100814190D02*
X118072819Y-100814190D01*
X118072819Y-100814190D02*
X118215676Y-100909428D01*
X118215676Y-100909428D02*
X118310914Y-101004666D01*
X118310914Y-101004666D02*
X118358533Y-101099904D01*
X118072819Y-100195142D02*
X118072819Y-99576095D01*
X118072819Y-99576095D02*
X118453771Y-99909428D01*
X118453771Y-99909428D02*
X118453771Y-99766571D01*
X118453771Y-99766571D02*
X118501390Y-99671333D01*
X118501390Y-99671333D02*
X118549009Y-99623714D01*
X118549009Y-99623714D02*
X118644247Y-99576095D01*
X118644247Y-99576095D02*
X118882342Y-99576095D01*
X118882342Y-99576095D02*
X118977580Y-99623714D01*
X118977580Y-99623714D02*
X119025200Y-99671333D01*
X119025200Y-99671333D02*
X119072819Y-99766571D01*
X119072819Y-99766571D02*
X119072819Y-100052285D01*
X119072819Y-100052285D02*
X119025200Y-100147523D01*
X119025200Y-100147523D02*
X118977580Y-100195142D01*
%TO.C,C6*%
X105769580Y-86780666D02*
X105817200Y-86828285D01*
X105817200Y-86828285D02*
X105864819Y-86971142D01*
X105864819Y-86971142D02*
X105864819Y-87066380D01*
X105864819Y-87066380D02*
X105817200Y-87209237D01*
X105817200Y-87209237D02*
X105721961Y-87304475D01*
X105721961Y-87304475D02*
X105626723Y-87352094D01*
X105626723Y-87352094D02*
X105436247Y-87399713D01*
X105436247Y-87399713D02*
X105293390Y-87399713D01*
X105293390Y-87399713D02*
X105102914Y-87352094D01*
X105102914Y-87352094D02*
X105007676Y-87304475D01*
X105007676Y-87304475D02*
X104912438Y-87209237D01*
X104912438Y-87209237D02*
X104864819Y-87066380D01*
X104864819Y-87066380D02*
X104864819Y-86971142D01*
X104864819Y-86971142D02*
X104912438Y-86828285D01*
X104912438Y-86828285D02*
X104960057Y-86780666D01*
X104864819Y-85923523D02*
X104864819Y-86113999D01*
X104864819Y-86113999D02*
X104912438Y-86209237D01*
X104912438Y-86209237D02*
X104960057Y-86256856D01*
X104960057Y-86256856D02*
X105102914Y-86352094D01*
X105102914Y-86352094D02*
X105293390Y-86399713D01*
X105293390Y-86399713D02*
X105674342Y-86399713D01*
X105674342Y-86399713D02*
X105769580Y-86352094D01*
X105769580Y-86352094D02*
X105817200Y-86304475D01*
X105817200Y-86304475D02*
X105864819Y-86209237D01*
X105864819Y-86209237D02*
X105864819Y-86018761D01*
X105864819Y-86018761D02*
X105817200Y-85923523D01*
X105817200Y-85923523D02*
X105769580Y-85875904D01*
X105769580Y-85875904D02*
X105674342Y-85828285D01*
X105674342Y-85828285D02*
X105436247Y-85828285D01*
X105436247Y-85828285D02*
X105341009Y-85875904D01*
X105341009Y-85875904D02*
X105293390Y-85923523D01*
X105293390Y-85923523D02*
X105245771Y-86018761D01*
X105245771Y-86018761D02*
X105245771Y-86209237D01*
X105245771Y-86209237D02*
X105293390Y-86304475D01*
X105293390Y-86304475D02*
X105341009Y-86352094D01*
X105341009Y-86352094D02*
X105436247Y-86399713D01*
%TO.C,H1*%
X73406095Y-51000819D02*
X73406095Y-50000819D01*
X73406095Y-50477009D02*
X73977523Y-50477009D01*
X73977523Y-51000819D02*
X73977523Y-50000819D01*
X74977523Y-51000819D02*
X74406095Y-51000819D01*
X74691809Y-51000819D02*
X74691809Y-50000819D01*
X74691809Y-50000819D02*
X74596571Y-50143676D01*
X74596571Y-50143676D02*
X74501333Y-50238914D01*
X74501333Y-50238914D02*
X74406095Y-50286533D01*
%TO.C,C10*%
X90529580Y-85732857D02*
X90577200Y-85780476D01*
X90577200Y-85780476D02*
X90624819Y-85923333D01*
X90624819Y-85923333D02*
X90624819Y-86018571D01*
X90624819Y-86018571D02*
X90577200Y-86161428D01*
X90577200Y-86161428D02*
X90481961Y-86256666D01*
X90481961Y-86256666D02*
X90386723Y-86304285D01*
X90386723Y-86304285D02*
X90196247Y-86351904D01*
X90196247Y-86351904D02*
X90053390Y-86351904D01*
X90053390Y-86351904D02*
X89862914Y-86304285D01*
X89862914Y-86304285D02*
X89767676Y-86256666D01*
X89767676Y-86256666D02*
X89672438Y-86161428D01*
X89672438Y-86161428D02*
X89624819Y-86018571D01*
X89624819Y-86018571D02*
X89624819Y-85923333D01*
X89624819Y-85923333D02*
X89672438Y-85780476D01*
X89672438Y-85780476D02*
X89720057Y-85732857D01*
X90624819Y-84780476D02*
X90624819Y-85351904D01*
X90624819Y-85066190D02*
X89624819Y-85066190D01*
X89624819Y-85066190D02*
X89767676Y-85161428D01*
X89767676Y-85161428D02*
X89862914Y-85256666D01*
X89862914Y-85256666D02*
X89910533Y-85351904D01*
X89624819Y-84161428D02*
X89624819Y-84066190D01*
X89624819Y-84066190D02*
X89672438Y-83970952D01*
X89672438Y-83970952D02*
X89720057Y-83923333D01*
X89720057Y-83923333D02*
X89815295Y-83875714D01*
X89815295Y-83875714D02*
X90005771Y-83828095D01*
X90005771Y-83828095D02*
X90243866Y-83828095D01*
X90243866Y-83828095D02*
X90434342Y-83875714D01*
X90434342Y-83875714D02*
X90529580Y-83923333D01*
X90529580Y-83923333D02*
X90577200Y-83970952D01*
X90577200Y-83970952D02*
X90624819Y-84066190D01*
X90624819Y-84066190D02*
X90624819Y-84161428D01*
X90624819Y-84161428D02*
X90577200Y-84256666D01*
X90577200Y-84256666D02*
X90529580Y-84304285D01*
X90529580Y-84304285D02*
X90434342Y-84351904D01*
X90434342Y-84351904D02*
X90243866Y-84399523D01*
X90243866Y-84399523D02*
X90005771Y-84399523D01*
X90005771Y-84399523D02*
X89815295Y-84351904D01*
X89815295Y-84351904D02*
X89720057Y-84304285D01*
X89720057Y-84304285D02*
X89672438Y-84256666D01*
X89672438Y-84256666D02*
X89624819Y-84161428D01*
%TO.C,U6*%
X123253819Y-116214404D02*
X124063342Y-116214404D01*
X124063342Y-116214404D02*
X124158580Y-116166785D01*
X124158580Y-116166785D02*
X124206200Y-116119166D01*
X124206200Y-116119166D02*
X124253819Y-116023928D01*
X124253819Y-116023928D02*
X124253819Y-115833452D01*
X124253819Y-115833452D02*
X124206200Y-115738214D01*
X124206200Y-115738214D02*
X124158580Y-115690595D01*
X124158580Y-115690595D02*
X124063342Y-115642976D01*
X124063342Y-115642976D02*
X123253819Y-115642976D01*
X123253819Y-114738214D02*
X123253819Y-114928690D01*
X123253819Y-114928690D02*
X123301438Y-115023928D01*
X123301438Y-115023928D02*
X123349057Y-115071547D01*
X123349057Y-115071547D02*
X123491914Y-115166785D01*
X123491914Y-115166785D02*
X123682390Y-115214404D01*
X123682390Y-115214404D02*
X124063342Y-115214404D01*
X124063342Y-115214404D02*
X124158580Y-115166785D01*
X124158580Y-115166785D02*
X124206200Y-115119166D01*
X124206200Y-115119166D02*
X124253819Y-115023928D01*
X124253819Y-115023928D02*
X124253819Y-114833452D01*
X124253819Y-114833452D02*
X124206200Y-114738214D01*
X124206200Y-114738214D02*
X124158580Y-114690595D01*
X124158580Y-114690595D02*
X124063342Y-114642976D01*
X124063342Y-114642976D02*
X123825247Y-114642976D01*
X123825247Y-114642976D02*
X123730009Y-114690595D01*
X123730009Y-114690595D02*
X123682390Y-114738214D01*
X123682390Y-114738214D02*
X123634771Y-114833452D01*
X123634771Y-114833452D02*
X123634771Y-115023928D01*
X123634771Y-115023928D02*
X123682390Y-115119166D01*
X123682390Y-115119166D02*
X123730009Y-115166785D01*
X123730009Y-115166785D02*
X123825247Y-115214404D01*
%TO.C,U3*%
X114008819Y-58419904D02*
X114818342Y-58419904D01*
X114818342Y-58419904D02*
X114913580Y-58372285D01*
X114913580Y-58372285D02*
X114961200Y-58324666D01*
X114961200Y-58324666D02*
X115008819Y-58229428D01*
X115008819Y-58229428D02*
X115008819Y-58038952D01*
X115008819Y-58038952D02*
X114961200Y-57943714D01*
X114961200Y-57943714D02*
X114913580Y-57896095D01*
X114913580Y-57896095D02*
X114818342Y-57848476D01*
X114818342Y-57848476D02*
X114008819Y-57848476D01*
X114008819Y-57467523D02*
X114008819Y-56848476D01*
X114008819Y-56848476D02*
X114389771Y-57181809D01*
X114389771Y-57181809D02*
X114389771Y-57038952D01*
X114389771Y-57038952D02*
X114437390Y-56943714D01*
X114437390Y-56943714D02*
X114485009Y-56896095D01*
X114485009Y-56896095D02*
X114580247Y-56848476D01*
X114580247Y-56848476D02*
X114818342Y-56848476D01*
X114818342Y-56848476D02*
X114913580Y-56896095D01*
X114913580Y-56896095D02*
X114961200Y-56943714D01*
X114961200Y-56943714D02*
X115008819Y-57038952D01*
X115008819Y-57038952D02*
X115008819Y-57324666D01*
X115008819Y-57324666D02*
X114961200Y-57419904D01*
X114961200Y-57419904D02*
X114913580Y-57467523D01*
%TO.C,R27*%
X103832819Y-101226857D02*
X103356628Y-101560190D01*
X103832819Y-101798285D02*
X102832819Y-101798285D01*
X102832819Y-101798285D02*
X102832819Y-101417333D01*
X102832819Y-101417333D02*
X102880438Y-101322095D01*
X102880438Y-101322095D02*
X102928057Y-101274476D01*
X102928057Y-101274476D02*
X103023295Y-101226857D01*
X103023295Y-101226857D02*
X103166152Y-101226857D01*
X103166152Y-101226857D02*
X103261390Y-101274476D01*
X103261390Y-101274476D02*
X103309009Y-101322095D01*
X103309009Y-101322095D02*
X103356628Y-101417333D01*
X103356628Y-101417333D02*
X103356628Y-101798285D01*
X102928057Y-100845904D02*
X102880438Y-100798285D01*
X102880438Y-100798285D02*
X102832819Y-100703047D01*
X102832819Y-100703047D02*
X102832819Y-100464952D01*
X102832819Y-100464952D02*
X102880438Y-100369714D01*
X102880438Y-100369714D02*
X102928057Y-100322095D01*
X102928057Y-100322095D02*
X103023295Y-100274476D01*
X103023295Y-100274476D02*
X103118533Y-100274476D01*
X103118533Y-100274476D02*
X103261390Y-100322095D01*
X103261390Y-100322095D02*
X103832819Y-100893523D01*
X103832819Y-100893523D02*
X103832819Y-100274476D01*
X102832819Y-99941142D02*
X102832819Y-99274476D01*
X102832819Y-99274476D02*
X103832819Y-99703047D01*
%TO.C,R2*%
X102308819Y-72556666D02*
X101832628Y-72889999D01*
X102308819Y-73128094D02*
X101308819Y-73128094D01*
X101308819Y-73128094D02*
X101308819Y-72747142D01*
X101308819Y-72747142D02*
X101356438Y-72651904D01*
X101356438Y-72651904D02*
X101404057Y-72604285D01*
X101404057Y-72604285D02*
X101499295Y-72556666D01*
X101499295Y-72556666D02*
X101642152Y-72556666D01*
X101642152Y-72556666D02*
X101737390Y-72604285D01*
X101737390Y-72604285D02*
X101785009Y-72651904D01*
X101785009Y-72651904D02*
X101832628Y-72747142D01*
X101832628Y-72747142D02*
X101832628Y-73128094D01*
X101404057Y-72175713D02*
X101356438Y-72128094D01*
X101356438Y-72128094D02*
X101308819Y-72032856D01*
X101308819Y-72032856D02*
X101308819Y-71794761D01*
X101308819Y-71794761D02*
X101356438Y-71699523D01*
X101356438Y-71699523D02*
X101404057Y-71651904D01*
X101404057Y-71651904D02*
X101499295Y-71604285D01*
X101499295Y-71604285D02*
X101594533Y-71604285D01*
X101594533Y-71604285D02*
X101737390Y-71651904D01*
X101737390Y-71651904D02*
X102308819Y-72223332D01*
X102308819Y-72223332D02*
X102308819Y-71604285D01*
%TO.C,J7*%
X77686819Y-89741333D02*
X78401104Y-89741333D01*
X78401104Y-89741333D02*
X78543961Y-89788952D01*
X78543961Y-89788952D02*
X78639200Y-89884190D01*
X78639200Y-89884190D02*
X78686819Y-90027047D01*
X78686819Y-90027047D02*
X78686819Y-90122285D01*
X77686819Y-89360380D02*
X77686819Y-88693714D01*
X77686819Y-88693714D02*
X78686819Y-89122285D01*
%TO.C,R22*%
X141424819Y-117990857D02*
X140948628Y-118324190D01*
X141424819Y-118562285D02*
X140424819Y-118562285D01*
X140424819Y-118562285D02*
X140424819Y-118181333D01*
X140424819Y-118181333D02*
X140472438Y-118086095D01*
X140472438Y-118086095D02*
X140520057Y-118038476D01*
X140520057Y-118038476D02*
X140615295Y-117990857D01*
X140615295Y-117990857D02*
X140758152Y-117990857D01*
X140758152Y-117990857D02*
X140853390Y-118038476D01*
X140853390Y-118038476D02*
X140901009Y-118086095D01*
X140901009Y-118086095D02*
X140948628Y-118181333D01*
X140948628Y-118181333D02*
X140948628Y-118562285D01*
X140520057Y-117609904D02*
X140472438Y-117562285D01*
X140472438Y-117562285D02*
X140424819Y-117467047D01*
X140424819Y-117467047D02*
X140424819Y-117228952D01*
X140424819Y-117228952D02*
X140472438Y-117133714D01*
X140472438Y-117133714D02*
X140520057Y-117086095D01*
X140520057Y-117086095D02*
X140615295Y-117038476D01*
X140615295Y-117038476D02*
X140710533Y-117038476D01*
X140710533Y-117038476D02*
X140853390Y-117086095D01*
X140853390Y-117086095D02*
X141424819Y-117657523D01*
X141424819Y-117657523D02*
X141424819Y-117038476D01*
X140520057Y-116657523D02*
X140472438Y-116609904D01*
X140472438Y-116609904D02*
X140424819Y-116514666D01*
X140424819Y-116514666D02*
X140424819Y-116276571D01*
X140424819Y-116276571D02*
X140472438Y-116181333D01*
X140472438Y-116181333D02*
X140520057Y-116133714D01*
X140520057Y-116133714D02*
X140615295Y-116086095D01*
X140615295Y-116086095D02*
X140710533Y-116086095D01*
X140710533Y-116086095D02*
X140853390Y-116133714D01*
X140853390Y-116133714D02*
X141424819Y-116705142D01*
X141424819Y-116705142D02*
X141424819Y-116086095D01*
%TO.C,R4*%
X104340819Y-72556666D02*
X103864628Y-72889999D01*
X104340819Y-73128094D02*
X103340819Y-73128094D01*
X103340819Y-73128094D02*
X103340819Y-72747142D01*
X103340819Y-72747142D02*
X103388438Y-72651904D01*
X103388438Y-72651904D02*
X103436057Y-72604285D01*
X103436057Y-72604285D02*
X103531295Y-72556666D01*
X103531295Y-72556666D02*
X103674152Y-72556666D01*
X103674152Y-72556666D02*
X103769390Y-72604285D01*
X103769390Y-72604285D02*
X103817009Y-72651904D01*
X103817009Y-72651904D02*
X103864628Y-72747142D01*
X103864628Y-72747142D02*
X103864628Y-73128094D01*
X103674152Y-71699523D02*
X104340819Y-71699523D01*
X103293200Y-71937618D02*
X104007485Y-72175713D01*
X104007485Y-72175713D02*
X104007485Y-71556666D01*
%TO.C,R19*%
X85209142Y-74368819D02*
X84875809Y-73892628D01*
X84637714Y-74368819D02*
X84637714Y-73368819D01*
X84637714Y-73368819D02*
X85018666Y-73368819D01*
X85018666Y-73368819D02*
X85113904Y-73416438D01*
X85113904Y-73416438D02*
X85161523Y-73464057D01*
X85161523Y-73464057D02*
X85209142Y-73559295D01*
X85209142Y-73559295D02*
X85209142Y-73702152D01*
X85209142Y-73702152D02*
X85161523Y-73797390D01*
X85161523Y-73797390D02*
X85113904Y-73845009D01*
X85113904Y-73845009D02*
X85018666Y-73892628D01*
X85018666Y-73892628D02*
X84637714Y-73892628D01*
X86161523Y-74368819D02*
X85590095Y-74368819D01*
X85875809Y-74368819D02*
X85875809Y-73368819D01*
X85875809Y-73368819D02*
X85780571Y-73511676D01*
X85780571Y-73511676D02*
X85685333Y-73606914D01*
X85685333Y-73606914D02*
X85590095Y-73654533D01*
X86637714Y-74368819D02*
X86828190Y-74368819D01*
X86828190Y-74368819D02*
X86923428Y-74321200D01*
X86923428Y-74321200D02*
X86971047Y-74273580D01*
X86971047Y-74273580D02*
X87066285Y-74130723D01*
X87066285Y-74130723D02*
X87113904Y-73940247D01*
X87113904Y-73940247D02*
X87113904Y-73559295D01*
X87113904Y-73559295D02*
X87066285Y-73464057D01*
X87066285Y-73464057D02*
X87018666Y-73416438D01*
X87018666Y-73416438D02*
X86923428Y-73368819D01*
X86923428Y-73368819D02*
X86732952Y-73368819D01*
X86732952Y-73368819D02*
X86637714Y-73416438D01*
X86637714Y-73416438D02*
X86590095Y-73464057D01*
X86590095Y-73464057D02*
X86542476Y-73559295D01*
X86542476Y-73559295D02*
X86542476Y-73797390D01*
X86542476Y-73797390D02*
X86590095Y-73892628D01*
X86590095Y-73892628D02*
X86637714Y-73940247D01*
X86637714Y-73940247D02*
X86732952Y-73987866D01*
X86732952Y-73987866D02*
X86923428Y-73987866D01*
X86923428Y-73987866D02*
X87018666Y-73940247D01*
X87018666Y-73940247D02*
X87066285Y-73892628D01*
X87066285Y-73892628D02*
X87113904Y-73797390D01*
%TO.C,R16*%
X87068819Y-101226857D02*
X86592628Y-101560190D01*
X87068819Y-101798285D02*
X86068819Y-101798285D01*
X86068819Y-101798285D02*
X86068819Y-101417333D01*
X86068819Y-101417333D02*
X86116438Y-101322095D01*
X86116438Y-101322095D02*
X86164057Y-101274476D01*
X86164057Y-101274476D02*
X86259295Y-101226857D01*
X86259295Y-101226857D02*
X86402152Y-101226857D01*
X86402152Y-101226857D02*
X86497390Y-101274476D01*
X86497390Y-101274476D02*
X86545009Y-101322095D01*
X86545009Y-101322095D02*
X86592628Y-101417333D01*
X86592628Y-101417333D02*
X86592628Y-101798285D01*
X87068819Y-100274476D02*
X87068819Y-100845904D01*
X87068819Y-100560190D02*
X86068819Y-100560190D01*
X86068819Y-100560190D02*
X86211676Y-100655428D01*
X86211676Y-100655428D02*
X86306914Y-100750666D01*
X86306914Y-100750666D02*
X86354533Y-100845904D01*
X86068819Y-99417333D02*
X86068819Y-99607809D01*
X86068819Y-99607809D02*
X86116438Y-99703047D01*
X86116438Y-99703047D02*
X86164057Y-99750666D01*
X86164057Y-99750666D02*
X86306914Y-99845904D01*
X86306914Y-99845904D02*
X86497390Y-99893523D01*
X86497390Y-99893523D02*
X86878342Y-99893523D01*
X86878342Y-99893523D02*
X86973580Y-99845904D01*
X86973580Y-99845904D02*
X87021200Y-99798285D01*
X87021200Y-99798285D02*
X87068819Y-99703047D01*
X87068819Y-99703047D02*
X87068819Y-99512571D01*
X87068819Y-99512571D02*
X87021200Y-99417333D01*
X87021200Y-99417333D02*
X86973580Y-99369714D01*
X86973580Y-99369714D02*
X86878342Y-99322095D01*
X86878342Y-99322095D02*
X86640247Y-99322095D01*
X86640247Y-99322095D02*
X86545009Y-99369714D01*
X86545009Y-99369714D02*
X86497390Y-99417333D01*
X86497390Y-99417333D02*
X86449771Y-99512571D01*
X86449771Y-99512571D02*
X86449771Y-99703047D01*
X86449771Y-99703047D02*
X86497390Y-99798285D01*
X86497390Y-99798285D02*
X86545009Y-99845904D01*
X86545009Y-99845904D02*
X86640247Y-99893523D01*
%TO.C,C1*%
X145393580Y-65852666D02*
X145441200Y-65900285D01*
X145441200Y-65900285D02*
X145488819Y-66043142D01*
X145488819Y-66043142D02*
X145488819Y-66138380D01*
X145488819Y-66138380D02*
X145441200Y-66281237D01*
X145441200Y-66281237D02*
X145345961Y-66376475D01*
X145345961Y-66376475D02*
X145250723Y-66424094D01*
X145250723Y-66424094D02*
X145060247Y-66471713D01*
X145060247Y-66471713D02*
X144917390Y-66471713D01*
X144917390Y-66471713D02*
X144726914Y-66424094D01*
X144726914Y-66424094D02*
X144631676Y-66376475D01*
X144631676Y-66376475D02*
X144536438Y-66281237D01*
X144536438Y-66281237D02*
X144488819Y-66138380D01*
X144488819Y-66138380D02*
X144488819Y-66043142D01*
X144488819Y-66043142D02*
X144536438Y-65900285D01*
X144536438Y-65900285D02*
X144584057Y-65852666D01*
X145488819Y-64900285D02*
X145488819Y-65471713D01*
X145488819Y-65185999D02*
X144488819Y-65185999D01*
X144488819Y-65185999D02*
X144631676Y-65281237D01*
X144631676Y-65281237D02*
X144726914Y-65376475D01*
X144726914Y-65376475D02*
X144774533Y-65471713D01*
%TO.C,U11*%
X95535905Y-79210819D02*
X95535905Y-80020342D01*
X95535905Y-80020342D02*
X95583524Y-80115580D01*
X95583524Y-80115580D02*
X95631143Y-80163200D01*
X95631143Y-80163200D02*
X95726381Y-80210819D01*
X95726381Y-80210819D02*
X95916857Y-80210819D01*
X95916857Y-80210819D02*
X96012095Y-80163200D01*
X96012095Y-80163200D02*
X96059714Y-80115580D01*
X96059714Y-80115580D02*
X96107333Y-80020342D01*
X96107333Y-80020342D02*
X96107333Y-79210819D01*
X97107333Y-80210819D02*
X96535905Y-80210819D01*
X96821619Y-80210819D02*
X96821619Y-79210819D01*
X96821619Y-79210819D02*
X96726381Y-79353676D01*
X96726381Y-79353676D02*
X96631143Y-79448914D01*
X96631143Y-79448914D02*
X96535905Y-79496533D01*
X98059714Y-80210819D02*
X97488286Y-80210819D01*
X97774000Y-80210819D02*
X97774000Y-79210819D01*
X97774000Y-79210819D02*
X97678762Y-79353676D01*
X97678762Y-79353676D02*
X97583524Y-79448914D01*
X97583524Y-79448914D02*
X97488286Y-79496533D01*
%TO.C,R5*%
X139646819Y-72048666D02*
X139170628Y-72381999D01*
X139646819Y-72620094D02*
X138646819Y-72620094D01*
X138646819Y-72620094D02*
X138646819Y-72239142D01*
X138646819Y-72239142D02*
X138694438Y-72143904D01*
X138694438Y-72143904D02*
X138742057Y-72096285D01*
X138742057Y-72096285D02*
X138837295Y-72048666D01*
X138837295Y-72048666D02*
X138980152Y-72048666D01*
X138980152Y-72048666D02*
X139075390Y-72096285D01*
X139075390Y-72096285D02*
X139123009Y-72143904D01*
X139123009Y-72143904D02*
X139170628Y-72239142D01*
X139170628Y-72239142D02*
X139170628Y-72620094D01*
X138646819Y-71143904D02*
X138646819Y-71620094D01*
X138646819Y-71620094D02*
X139123009Y-71667713D01*
X139123009Y-71667713D02*
X139075390Y-71620094D01*
X139075390Y-71620094D02*
X139027771Y-71524856D01*
X139027771Y-71524856D02*
X139027771Y-71286761D01*
X139027771Y-71286761D02*
X139075390Y-71191523D01*
X139075390Y-71191523D02*
X139123009Y-71143904D01*
X139123009Y-71143904D02*
X139218247Y-71096285D01*
X139218247Y-71096285D02*
X139456342Y-71096285D01*
X139456342Y-71096285D02*
X139551580Y-71143904D01*
X139551580Y-71143904D02*
X139599200Y-71191523D01*
X139599200Y-71191523D02*
X139646819Y-71286761D01*
X139646819Y-71286761D02*
X139646819Y-71524856D01*
X139646819Y-71524856D02*
X139599200Y-71620094D01*
X139599200Y-71620094D02*
X139551580Y-71667713D01*
%TO.C,U4*%
X80200819Y-58419904D02*
X81010342Y-58419904D01*
X81010342Y-58419904D02*
X81105580Y-58372285D01*
X81105580Y-58372285D02*
X81153200Y-58324666D01*
X81153200Y-58324666D02*
X81200819Y-58229428D01*
X81200819Y-58229428D02*
X81200819Y-58038952D01*
X81200819Y-58038952D02*
X81153200Y-57943714D01*
X81153200Y-57943714D02*
X81105580Y-57896095D01*
X81105580Y-57896095D02*
X81010342Y-57848476D01*
X81010342Y-57848476D02*
X80200819Y-57848476D01*
X80534152Y-56943714D02*
X81200819Y-56943714D01*
X80153200Y-57181809D02*
X80867485Y-57419904D01*
X80867485Y-57419904D02*
X80867485Y-56800857D01*
%TO.C,C3*%
X129391580Y-65698666D02*
X129439200Y-65746285D01*
X129439200Y-65746285D02*
X129486819Y-65889142D01*
X129486819Y-65889142D02*
X129486819Y-65984380D01*
X129486819Y-65984380D02*
X129439200Y-66127237D01*
X129439200Y-66127237D02*
X129343961Y-66222475D01*
X129343961Y-66222475D02*
X129248723Y-66270094D01*
X129248723Y-66270094D02*
X129058247Y-66317713D01*
X129058247Y-66317713D02*
X128915390Y-66317713D01*
X128915390Y-66317713D02*
X128724914Y-66270094D01*
X128724914Y-66270094D02*
X128629676Y-66222475D01*
X128629676Y-66222475D02*
X128534438Y-66127237D01*
X128534438Y-66127237D02*
X128486819Y-65984380D01*
X128486819Y-65984380D02*
X128486819Y-65889142D01*
X128486819Y-65889142D02*
X128534438Y-65746285D01*
X128534438Y-65746285D02*
X128582057Y-65698666D01*
X128486819Y-65365332D02*
X128486819Y-64746285D01*
X128486819Y-64746285D02*
X128867771Y-65079618D01*
X128867771Y-65079618D02*
X128867771Y-64936761D01*
X128867771Y-64936761D02*
X128915390Y-64841523D01*
X128915390Y-64841523D02*
X128963009Y-64793904D01*
X128963009Y-64793904D02*
X129058247Y-64746285D01*
X129058247Y-64746285D02*
X129296342Y-64746285D01*
X129296342Y-64746285D02*
X129391580Y-64793904D01*
X129391580Y-64793904D02*
X129439200Y-64841523D01*
X129439200Y-64841523D02*
X129486819Y-64936761D01*
X129486819Y-64936761D02*
X129486819Y-65222475D01*
X129486819Y-65222475D02*
X129439200Y-65317713D01*
X129439200Y-65317713D02*
X129391580Y-65365332D01*
%TO.C,R26*%
X133804819Y-101480857D02*
X133328628Y-101814190D01*
X133804819Y-102052285D02*
X132804819Y-102052285D01*
X132804819Y-102052285D02*
X132804819Y-101671333D01*
X132804819Y-101671333D02*
X132852438Y-101576095D01*
X132852438Y-101576095D02*
X132900057Y-101528476D01*
X132900057Y-101528476D02*
X132995295Y-101480857D01*
X132995295Y-101480857D02*
X133138152Y-101480857D01*
X133138152Y-101480857D02*
X133233390Y-101528476D01*
X133233390Y-101528476D02*
X133281009Y-101576095D01*
X133281009Y-101576095D02*
X133328628Y-101671333D01*
X133328628Y-101671333D02*
X133328628Y-102052285D01*
X132900057Y-101099904D02*
X132852438Y-101052285D01*
X132852438Y-101052285D02*
X132804819Y-100957047D01*
X132804819Y-100957047D02*
X132804819Y-100718952D01*
X132804819Y-100718952D02*
X132852438Y-100623714D01*
X132852438Y-100623714D02*
X132900057Y-100576095D01*
X132900057Y-100576095D02*
X132995295Y-100528476D01*
X132995295Y-100528476D02*
X133090533Y-100528476D01*
X133090533Y-100528476D02*
X133233390Y-100576095D01*
X133233390Y-100576095D02*
X133804819Y-101147523D01*
X133804819Y-101147523D02*
X133804819Y-100528476D01*
X132804819Y-99671333D02*
X132804819Y-99861809D01*
X132804819Y-99861809D02*
X132852438Y-99957047D01*
X132852438Y-99957047D02*
X132900057Y-100004666D01*
X132900057Y-100004666D02*
X133042914Y-100099904D01*
X133042914Y-100099904D02*
X133233390Y-100147523D01*
X133233390Y-100147523D02*
X133614342Y-100147523D01*
X133614342Y-100147523D02*
X133709580Y-100099904D01*
X133709580Y-100099904D02*
X133757200Y-100052285D01*
X133757200Y-100052285D02*
X133804819Y-99957047D01*
X133804819Y-99957047D02*
X133804819Y-99766571D01*
X133804819Y-99766571D02*
X133757200Y-99671333D01*
X133757200Y-99671333D02*
X133709580Y-99623714D01*
X133709580Y-99623714D02*
X133614342Y-99576095D01*
X133614342Y-99576095D02*
X133376247Y-99576095D01*
X133376247Y-99576095D02*
X133281009Y-99623714D01*
X133281009Y-99623714D02*
X133233390Y-99671333D01*
X133233390Y-99671333D02*
X133185771Y-99766571D01*
X133185771Y-99766571D02*
X133185771Y-99957047D01*
X133185771Y-99957047D02*
X133233390Y-100052285D01*
X133233390Y-100052285D02*
X133281009Y-100099904D01*
X133281009Y-100099904D02*
X133376247Y-100147523D01*
%TO.C,R24*%
X141424819Y-122308857D02*
X140948628Y-122642190D01*
X141424819Y-122880285D02*
X140424819Y-122880285D01*
X140424819Y-122880285D02*
X140424819Y-122499333D01*
X140424819Y-122499333D02*
X140472438Y-122404095D01*
X140472438Y-122404095D02*
X140520057Y-122356476D01*
X140520057Y-122356476D02*
X140615295Y-122308857D01*
X140615295Y-122308857D02*
X140758152Y-122308857D01*
X140758152Y-122308857D02*
X140853390Y-122356476D01*
X140853390Y-122356476D02*
X140901009Y-122404095D01*
X140901009Y-122404095D02*
X140948628Y-122499333D01*
X140948628Y-122499333D02*
X140948628Y-122880285D01*
X140520057Y-121927904D02*
X140472438Y-121880285D01*
X140472438Y-121880285D02*
X140424819Y-121785047D01*
X140424819Y-121785047D02*
X140424819Y-121546952D01*
X140424819Y-121546952D02*
X140472438Y-121451714D01*
X140472438Y-121451714D02*
X140520057Y-121404095D01*
X140520057Y-121404095D02*
X140615295Y-121356476D01*
X140615295Y-121356476D02*
X140710533Y-121356476D01*
X140710533Y-121356476D02*
X140853390Y-121404095D01*
X140853390Y-121404095D02*
X141424819Y-121975523D01*
X141424819Y-121975523D02*
X141424819Y-121356476D01*
X140758152Y-120499333D02*
X141424819Y-120499333D01*
X140377200Y-120737428D02*
X141091485Y-120975523D01*
X141091485Y-120975523D02*
X141091485Y-120356476D01*
%TO.C,C9*%
X118477580Y-87528666D02*
X118525200Y-87576285D01*
X118525200Y-87576285D02*
X118572819Y-87719142D01*
X118572819Y-87719142D02*
X118572819Y-87814380D01*
X118572819Y-87814380D02*
X118525200Y-87957237D01*
X118525200Y-87957237D02*
X118429961Y-88052475D01*
X118429961Y-88052475D02*
X118334723Y-88100094D01*
X118334723Y-88100094D02*
X118144247Y-88147713D01*
X118144247Y-88147713D02*
X118001390Y-88147713D01*
X118001390Y-88147713D02*
X117810914Y-88100094D01*
X117810914Y-88100094D02*
X117715676Y-88052475D01*
X117715676Y-88052475D02*
X117620438Y-87957237D01*
X117620438Y-87957237D02*
X117572819Y-87814380D01*
X117572819Y-87814380D02*
X117572819Y-87719142D01*
X117572819Y-87719142D02*
X117620438Y-87576285D01*
X117620438Y-87576285D02*
X117668057Y-87528666D01*
X118572819Y-87052475D02*
X118572819Y-86861999D01*
X118572819Y-86861999D02*
X118525200Y-86766761D01*
X118525200Y-86766761D02*
X118477580Y-86719142D01*
X118477580Y-86719142D02*
X118334723Y-86623904D01*
X118334723Y-86623904D02*
X118144247Y-86576285D01*
X118144247Y-86576285D02*
X117763295Y-86576285D01*
X117763295Y-86576285D02*
X117668057Y-86623904D01*
X117668057Y-86623904D02*
X117620438Y-86671523D01*
X117620438Y-86671523D02*
X117572819Y-86766761D01*
X117572819Y-86766761D02*
X117572819Y-86957237D01*
X117572819Y-86957237D02*
X117620438Y-87052475D01*
X117620438Y-87052475D02*
X117668057Y-87100094D01*
X117668057Y-87100094D02*
X117763295Y-87147713D01*
X117763295Y-87147713D02*
X118001390Y-87147713D01*
X118001390Y-87147713D02*
X118096628Y-87100094D01*
X118096628Y-87100094D02*
X118144247Y-87052475D01*
X118144247Y-87052475D02*
X118191866Y-86957237D01*
X118191866Y-86957237D02*
X118191866Y-86766761D01*
X118191866Y-86766761D02*
X118144247Y-86671523D01*
X118144247Y-86671523D02*
X118096628Y-86623904D01*
X118096628Y-86623904D02*
X118001390Y-86576285D01*
%TO.C,C13*%
X92561580Y-87002857D02*
X92609200Y-87050476D01*
X92609200Y-87050476D02*
X92656819Y-87193333D01*
X92656819Y-87193333D02*
X92656819Y-87288571D01*
X92656819Y-87288571D02*
X92609200Y-87431428D01*
X92609200Y-87431428D02*
X92513961Y-87526666D01*
X92513961Y-87526666D02*
X92418723Y-87574285D01*
X92418723Y-87574285D02*
X92228247Y-87621904D01*
X92228247Y-87621904D02*
X92085390Y-87621904D01*
X92085390Y-87621904D02*
X91894914Y-87574285D01*
X91894914Y-87574285D02*
X91799676Y-87526666D01*
X91799676Y-87526666D02*
X91704438Y-87431428D01*
X91704438Y-87431428D02*
X91656819Y-87288571D01*
X91656819Y-87288571D02*
X91656819Y-87193333D01*
X91656819Y-87193333D02*
X91704438Y-87050476D01*
X91704438Y-87050476D02*
X91752057Y-87002857D01*
X92656819Y-86050476D02*
X92656819Y-86621904D01*
X92656819Y-86336190D02*
X91656819Y-86336190D01*
X91656819Y-86336190D02*
X91799676Y-86431428D01*
X91799676Y-86431428D02*
X91894914Y-86526666D01*
X91894914Y-86526666D02*
X91942533Y-86621904D01*
X91656819Y-85717142D02*
X91656819Y-85098095D01*
X91656819Y-85098095D02*
X92037771Y-85431428D01*
X92037771Y-85431428D02*
X92037771Y-85288571D01*
X92037771Y-85288571D02*
X92085390Y-85193333D01*
X92085390Y-85193333D02*
X92133009Y-85145714D01*
X92133009Y-85145714D02*
X92228247Y-85098095D01*
X92228247Y-85098095D02*
X92466342Y-85098095D01*
X92466342Y-85098095D02*
X92561580Y-85145714D01*
X92561580Y-85145714D02*
X92609200Y-85193333D01*
X92609200Y-85193333D02*
X92656819Y-85288571D01*
X92656819Y-85288571D02*
X92656819Y-85574285D01*
X92656819Y-85574285D02*
X92609200Y-85669523D01*
X92609200Y-85669523D02*
X92561580Y-85717142D01*
%TO.C,R23*%
X131772819Y-101480857D02*
X131296628Y-101814190D01*
X131772819Y-102052285D02*
X130772819Y-102052285D01*
X130772819Y-102052285D02*
X130772819Y-101671333D01*
X130772819Y-101671333D02*
X130820438Y-101576095D01*
X130820438Y-101576095D02*
X130868057Y-101528476D01*
X130868057Y-101528476D02*
X130963295Y-101480857D01*
X130963295Y-101480857D02*
X131106152Y-101480857D01*
X131106152Y-101480857D02*
X131201390Y-101528476D01*
X131201390Y-101528476D02*
X131249009Y-101576095D01*
X131249009Y-101576095D02*
X131296628Y-101671333D01*
X131296628Y-101671333D02*
X131296628Y-102052285D01*
X130868057Y-101099904D02*
X130820438Y-101052285D01*
X130820438Y-101052285D02*
X130772819Y-100957047D01*
X130772819Y-100957047D02*
X130772819Y-100718952D01*
X130772819Y-100718952D02*
X130820438Y-100623714D01*
X130820438Y-100623714D02*
X130868057Y-100576095D01*
X130868057Y-100576095D02*
X130963295Y-100528476D01*
X130963295Y-100528476D02*
X131058533Y-100528476D01*
X131058533Y-100528476D02*
X131201390Y-100576095D01*
X131201390Y-100576095D02*
X131772819Y-101147523D01*
X131772819Y-101147523D02*
X131772819Y-100528476D01*
X130772819Y-100195142D02*
X130772819Y-99576095D01*
X130772819Y-99576095D02*
X131153771Y-99909428D01*
X131153771Y-99909428D02*
X131153771Y-99766571D01*
X131153771Y-99766571D02*
X131201390Y-99671333D01*
X131201390Y-99671333D02*
X131249009Y-99623714D01*
X131249009Y-99623714D02*
X131344247Y-99576095D01*
X131344247Y-99576095D02*
X131582342Y-99576095D01*
X131582342Y-99576095D02*
X131677580Y-99623714D01*
X131677580Y-99623714D02*
X131725200Y-99671333D01*
X131725200Y-99671333D02*
X131772819Y-99766571D01*
X131772819Y-99766571D02*
X131772819Y-100052285D01*
X131772819Y-100052285D02*
X131725200Y-100147523D01*
X131725200Y-100147523D02*
X131677580Y-100195142D01*
%TO.C,D1*%
X84773822Y-93196467D02*
X84773822Y-92409065D01*
X84773822Y-92409065D02*
X84961299Y-92409065D01*
X84961299Y-92409065D02*
X85073785Y-92446560D01*
X85073785Y-92446560D02*
X85148776Y-92521551D01*
X85148776Y-92521551D02*
X85186271Y-92596542D01*
X85186271Y-92596542D02*
X85223766Y-92746523D01*
X85223766Y-92746523D02*
X85223766Y-92859009D01*
X85223766Y-92859009D02*
X85186271Y-93008990D01*
X85186271Y-93008990D02*
X85148776Y-93083981D01*
X85148776Y-93083981D02*
X85073785Y-93158972D01*
X85073785Y-93158972D02*
X84961299Y-93196467D01*
X84961299Y-93196467D02*
X84773822Y-93196467D01*
X85973673Y-93196467D02*
X85523729Y-93196467D01*
X85748701Y-93196467D02*
X85748701Y-92409065D01*
X85748701Y-92409065D02*
X85673710Y-92521551D01*
X85673710Y-92521551D02*
X85598720Y-92596542D01*
X85598720Y-92596542D02*
X85523729Y-92634037D01*
%TO.C,H4*%
X138684095Y-128216819D02*
X138684095Y-127216819D01*
X138684095Y-127693009D02*
X139255523Y-127693009D01*
X139255523Y-128216819D02*
X139255523Y-127216819D01*
X140160285Y-127550152D02*
X140160285Y-128216819D01*
X139922190Y-127169200D02*
X139684095Y-127883485D01*
X139684095Y-127883485D02*
X140303142Y-127883485D01*
%TO.C,R9*%
X122120819Y-72302666D02*
X121644628Y-72635999D01*
X122120819Y-72874094D02*
X121120819Y-72874094D01*
X121120819Y-72874094D02*
X121120819Y-72493142D01*
X121120819Y-72493142D02*
X121168438Y-72397904D01*
X121168438Y-72397904D02*
X121216057Y-72350285D01*
X121216057Y-72350285D02*
X121311295Y-72302666D01*
X121311295Y-72302666D02*
X121454152Y-72302666D01*
X121454152Y-72302666D02*
X121549390Y-72350285D01*
X121549390Y-72350285D02*
X121597009Y-72397904D01*
X121597009Y-72397904D02*
X121644628Y-72493142D01*
X121644628Y-72493142D02*
X121644628Y-72874094D01*
X122120819Y-71826475D02*
X122120819Y-71635999D01*
X122120819Y-71635999D02*
X122073200Y-71540761D01*
X122073200Y-71540761D02*
X122025580Y-71493142D01*
X122025580Y-71493142D02*
X121882723Y-71397904D01*
X121882723Y-71397904D02*
X121692247Y-71350285D01*
X121692247Y-71350285D02*
X121311295Y-71350285D01*
X121311295Y-71350285D02*
X121216057Y-71397904D01*
X121216057Y-71397904D02*
X121168438Y-71445523D01*
X121168438Y-71445523D02*
X121120819Y-71540761D01*
X121120819Y-71540761D02*
X121120819Y-71731237D01*
X121120819Y-71731237D02*
X121168438Y-71826475D01*
X121168438Y-71826475D02*
X121216057Y-71874094D01*
X121216057Y-71874094D02*
X121311295Y-71921713D01*
X121311295Y-71921713D02*
X121549390Y-71921713D01*
X121549390Y-71921713D02*
X121644628Y-71874094D01*
X121644628Y-71874094D02*
X121692247Y-71826475D01*
X121692247Y-71826475D02*
X121739866Y-71731237D01*
X121739866Y-71731237D02*
X121739866Y-71540761D01*
X121739866Y-71540761D02*
X121692247Y-71445523D01*
X121692247Y-71445523D02*
X121644628Y-71397904D01*
X121644628Y-71397904D02*
X121549390Y-71350285D01*
%TO.C,C14*%
X101959580Y-87002857D02*
X102007200Y-87050476D01*
X102007200Y-87050476D02*
X102054819Y-87193333D01*
X102054819Y-87193333D02*
X102054819Y-87288571D01*
X102054819Y-87288571D02*
X102007200Y-87431428D01*
X102007200Y-87431428D02*
X101911961Y-87526666D01*
X101911961Y-87526666D02*
X101816723Y-87574285D01*
X101816723Y-87574285D02*
X101626247Y-87621904D01*
X101626247Y-87621904D02*
X101483390Y-87621904D01*
X101483390Y-87621904D02*
X101292914Y-87574285D01*
X101292914Y-87574285D02*
X101197676Y-87526666D01*
X101197676Y-87526666D02*
X101102438Y-87431428D01*
X101102438Y-87431428D02*
X101054819Y-87288571D01*
X101054819Y-87288571D02*
X101054819Y-87193333D01*
X101054819Y-87193333D02*
X101102438Y-87050476D01*
X101102438Y-87050476D02*
X101150057Y-87002857D01*
X102054819Y-86050476D02*
X102054819Y-86621904D01*
X102054819Y-86336190D02*
X101054819Y-86336190D01*
X101054819Y-86336190D02*
X101197676Y-86431428D01*
X101197676Y-86431428D02*
X101292914Y-86526666D01*
X101292914Y-86526666D02*
X101340533Y-86621904D01*
X101388152Y-85193333D02*
X102054819Y-85193333D01*
X101007200Y-85431428D02*
X101721485Y-85669523D01*
X101721485Y-85669523D02*
X101721485Y-85050476D01*
%TO.C,U5*%
X133820819Y-89661904D02*
X134630342Y-89661904D01*
X134630342Y-89661904D02*
X134725580Y-89614285D01*
X134725580Y-89614285D02*
X134773200Y-89566666D01*
X134773200Y-89566666D02*
X134820819Y-89471428D01*
X134820819Y-89471428D02*
X134820819Y-89280952D01*
X134820819Y-89280952D02*
X134773200Y-89185714D01*
X134773200Y-89185714D02*
X134725580Y-89138095D01*
X134725580Y-89138095D02*
X134630342Y-89090476D01*
X134630342Y-89090476D02*
X133820819Y-89090476D01*
X133820819Y-88138095D02*
X133820819Y-88614285D01*
X133820819Y-88614285D02*
X134297009Y-88661904D01*
X134297009Y-88661904D02*
X134249390Y-88614285D01*
X134249390Y-88614285D02*
X134201771Y-88519047D01*
X134201771Y-88519047D02*
X134201771Y-88280952D01*
X134201771Y-88280952D02*
X134249390Y-88185714D01*
X134249390Y-88185714D02*
X134297009Y-88138095D01*
X134297009Y-88138095D02*
X134392247Y-88090476D01*
X134392247Y-88090476D02*
X134630342Y-88090476D01*
X134630342Y-88090476D02*
X134725580Y-88138095D01*
X134725580Y-88138095D02*
X134773200Y-88185714D01*
X134773200Y-88185714D02*
X134820819Y-88280952D01*
X134820819Y-88280952D02*
X134820819Y-88519047D01*
X134820819Y-88519047D02*
X134773200Y-88614285D01*
X134773200Y-88614285D02*
X134725580Y-88661904D01*
%TO.C,J5*%
X103044666Y-129248819D02*
X103044666Y-129963104D01*
X103044666Y-129963104D02*
X102997047Y-130105961D01*
X102997047Y-130105961D02*
X102901809Y-130201200D01*
X102901809Y-130201200D02*
X102758952Y-130248819D01*
X102758952Y-130248819D02*
X102663714Y-130248819D01*
X103997047Y-129248819D02*
X103520857Y-129248819D01*
X103520857Y-129248819D02*
X103473238Y-129725009D01*
X103473238Y-129725009D02*
X103520857Y-129677390D01*
X103520857Y-129677390D02*
X103616095Y-129629771D01*
X103616095Y-129629771D02*
X103854190Y-129629771D01*
X103854190Y-129629771D02*
X103949428Y-129677390D01*
X103949428Y-129677390D02*
X103997047Y-129725009D01*
X103997047Y-129725009D02*
X104044666Y-129820247D01*
X104044666Y-129820247D02*
X104044666Y-130058342D01*
X104044666Y-130058342D02*
X103997047Y-130153580D01*
X103997047Y-130153580D02*
X103949428Y-130201200D01*
X103949428Y-130201200D02*
X103854190Y-130248819D01*
X103854190Y-130248819D02*
X103616095Y-130248819D01*
X103616095Y-130248819D02*
X103520857Y-130201200D01*
X103520857Y-130201200D02*
X103473238Y-130153580D01*
%TO.C,R3*%
X137868819Y-72048666D02*
X137392628Y-72381999D01*
X137868819Y-72620094D02*
X136868819Y-72620094D01*
X136868819Y-72620094D02*
X136868819Y-72239142D01*
X136868819Y-72239142D02*
X136916438Y-72143904D01*
X136916438Y-72143904D02*
X136964057Y-72096285D01*
X136964057Y-72096285D02*
X137059295Y-72048666D01*
X137059295Y-72048666D02*
X137202152Y-72048666D01*
X137202152Y-72048666D02*
X137297390Y-72096285D01*
X137297390Y-72096285D02*
X137345009Y-72143904D01*
X137345009Y-72143904D02*
X137392628Y-72239142D01*
X137392628Y-72239142D02*
X137392628Y-72620094D01*
X136868819Y-71715332D02*
X136868819Y-71096285D01*
X136868819Y-71096285D02*
X137249771Y-71429618D01*
X137249771Y-71429618D02*
X137249771Y-71286761D01*
X137249771Y-71286761D02*
X137297390Y-71191523D01*
X137297390Y-71191523D02*
X137345009Y-71143904D01*
X137345009Y-71143904D02*
X137440247Y-71096285D01*
X137440247Y-71096285D02*
X137678342Y-71096285D01*
X137678342Y-71096285D02*
X137773580Y-71143904D01*
X137773580Y-71143904D02*
X137821200Y-71191523D01*
X137821200Y-71191523D02*
X137868819Y-71286761D01*
X137868819Y-71286761D02*
X137868819Y-71572475D01*
X137868819Y-71572475D02*
X137821200Y-71667713D01*
X137821200Y-71667713D02*
X137773580Y-71715332D01*
%TO.C,R20*%
X129994819Y-101480857D02*
X129518628Y-101814190D01*
X129994819Y-102052285D02*
X128994819Y-102052285D01*
X128994819Y-102052285D02*
X128994819Y-101671333D01*
X128994819Y-101671333D02*
X129042438Y-101576095D01*
X129042438Y-101576095D02*
X129090057Y-101528476D01*
X129090057Y-101528476D02*
X129185295Y-101480857D01*
X129185295Y-101480857D02*
X129328152Y-101480857D01*
X129328152Y-101480857D02*
X129423390Y-101528476D01*
X129423390Y-101528476D02*
X129471009Y-101576095D01*
X129471009Y-101576095D02*
X129518628Y-101671333D01*
X129518628Y-101671333D02*
X129518628Y-102052285D01*
X129090057Y-101099904D02*
X129042438Y-101052285D01*
X129042438Y-101052285D02*
X128994819Y-100957047D01*
X128994819Y-100957047D02*
X128994819Y-100718952D01*
X128994819Y-100718952D02*
X129042438Y-100623714D01*
X129042438Y-100623714D02*
X129090057Y-100576095D01*
X129090057Y-100576095D02*
X129185295Y-100528476D01*
X129185295Y-100528476D02*
X129280533Y-100528476D01*
X129280533Y-100528476D02*
X129423390Y-100576095D01*
X129423390Y-100576095D02*
X129994819Y-101147523D01*
X129994819Y-101147523D02*
X129994819Y-100528476D01*
X128994819Y-99909428D02*
X128994819Y-99814190D01*
X128994819Y-99814190D02*
X129042438Y-99718952D01*
X129042438Y-99718952D02*
X129090057Y-99671333D01*
X129090057Y-99671333D02*
X129185295Y-99623714D01*
X129185295Y-99623714D02*
X129375771Y-99576095D01*
X129375771Y-99576095D02*
X129613866Y-99576095D01*
X129613866Y-99576095D02*
X129804342Y-99623714D01*
X129804342Y-99623714D02*
X129899580Y-99671333D01*
X129899580Y-99671333D02*
X129947200Y-99718952D01*
X129947200Y-99718952D02*
X129994819Y-99814190D01*
X129994819Y-99814190D02*
X129994819Y-99909428D01*
X129994819Y-99909428D02*
X129947200Y-100004666D01*
X129947200Y-100004666D02*
X129899580Y-100052285D01*
X129899580Y-100052285D02*
X129804342Y-100099904D01*
X129804342Y-100099904D02*
X129613866Y-100147523D01*
X129613866Y-100147523D02*
X129375771Y-100147523D01*
X129375771Y-100147523D02*
X129185295Y-100099904D01*
X129185295Y-100099904D02*
X129090057Y-100052285D01*
X129090057Y-100052285D02*
X129042438Y-100004666D01*
X129042438Y-100004666D02*
X128994819Y-99909428D01*
%TO.C,H2*%
X73681095Y-124016819D02*
X73681095Y-123016819D01*
X73681095Y-123493009D02*
X74252523Y-123493009D01*
X74252523Y-124016819D02*
X74252523Y-123016819D01*
X74681095Y-123112057D02*
X74728714Y-123064438D01*
X74728714Y-123064438D02*
X74823952Y-123016819D01*
X74823952Y-123016819D02*
X75062047Y-123016819D01*
X75062047Y-123016819D02*
X75157285Y-123064438D01*
X75157285Y-123064438D02*
X75204904Y-123112057D01*
X75204904Y-123112057D02*
X75252523Y-123207295D01*
X75252523Y-123207295D02*
X75252523Y-123302533D01*
X75252523Y-123302533D02*
X75204904Y-123445390D01*
X75204904Y-123445390D02*
X74633476Y-124016819D01*
X74633476Y-124016819D02*
X75252523Y-124016819D01*
%TO.C,R15*%
X117040819Y-101480857D02*
X116564628Y-101814190D01*
X117040819Y-102052285D02*
X116040819Y-102052285D01*
X116040819Y-102052285D02*
X116040819Y-101671333D01*
X116040819Y-101671333D02*
X116088438Y-101576095D01*
X116088438Y-101576095D02*
X116136057Y-101528476D01*
X116136057Y-101528476D02*
X116231295Y-101480857D01*
X116231295Y-101480857D02*
X116374152Y-101480857D01*
X116374152Y-101480857D02*
X116469390Y-101528476D01*
X116469390Y-101528476D02*
X116517009Y-101576095D01*
X116517009Y-101576095D02*
X116564628Y-101671333D01*
X116564628Y-101671333D02*
X116564628Y-102052285D01*
X117040819Y-100528476D02*
X117040819Y-101099904D01*
X117040819Y-100814190D02*
X116040819Y-100814190D01*
X116040819Y-100814190D02*
X116183676Y-100909428D01*
X116183676Y-100909428D02*
X116278914Y-101004666D01*
X116278914Y-101004666D02*
X116326533Y-101099904D01*
X116040819Y-99623714D02*
X116040819Y-100099904D01*
X116040819Y-100099904D02*
X116517009Y-100147523D01*
X116517009Y-100147523D02*
X116469390Y-100099904D01*
X116469390Y-100099904D02*
X116421771Y-100004666D01*
X116421771Y-100004666D02*
X116421771Y-99766571D01*
X116421771Y-99766571D02*
X116469390Y-99671333D01*
X116469390Y-99671333D02*
X116517009Y-99623714D01*
X116517009Y-99623714D02*
X116612247Y-99576095D01*
X116612247Y-99576095D02*
X116850342Y-99576095D01*
X116850342Y-99576095D02*
X116945580Y-99623714D01*
X116945580Y-99623714D02*
X116993200Y-99671333D01*
X116993200Y-99671333D02*
X117040819Y-99766571D01*
X117040819Y-99766571D02*
X117040819Y-100004666D01*
X117040819Y-100004666D02*
X116993200Y-100099904D01*
X116993200Y-100099904D02*
X116945580Y-100147523D01*
%TO.C,R17*%
X115262819Y-101480857D02*
X114786628Y-101814190D01*
X115262819Y-102052285D02*
X114262819Y-102052285D01*
X114262819Y-102052285D02*
X114262819Y-101671333D01*
X114262819Y-101671333D02*
X114310438Y-101576095D01*
X114310438Y-101576095D02*
X114358057Y-101528476D01*
X114358057Y-101528476D02*
X114453295Y-101480857D01*
X114453295Y-101480857D02*
X114596152Y-101480857D01*
X114596152Y-101480857D02*
X114691390Y-101528476D01*
X114691390Y-101528476D02*
X114739009Y-101576095D01*
X114739009Y-101576095D02*
X114786628Y-101671333D01*
X114786628Y-101671333D02*
X114786628Y-102052285D01*
X115262819Y-100528476D02*
X115262819Y-101099904D01*
X115262819Y-100814190D02*
X114262819Y-100814190D01*
X114262819Y-100814190D02*
X114405676Y-100909428D01*
X114405676Y-100909428D02*
X114500914Y-101004666D01*
X114500914Y-101004666D02*
X114548533Y-101099904D01*
X114262819Y-100195142D02*
X114262819Y-99528476D01*
X114262819Y-99528476D02*
X115262819Y-99957047D01*
%TO.C,C12*%
X94085580Y-110116857D02*
X94133200Y-110164476D01*
X94133200Y-110164476D02*
X94180819Y-110307333D01*
X94180819Y-110307333D02*
X94180819Y-110402571D01*
X94180819Y-110402571D02*
X94133200Y-110545428D01*
X94133200Y-110545428D02*
X94037961Y-110640666D01*
X94037961Y-110640666D02*
X93942723Y-110688285D01*
X93942723Y-110688285D02*
X93752247Y-110735904D01*
X93752247Y-110735904D02*
X93609390Y-110735904D01*
X93609390Y-110735904D02*
X93418914Y-110688285D01*
X93418914Y-110688285D02*
X93323676Y-110640666D01*
X93323676Y-110640666D02*
X93228438Y-110545428D01*
X93228438Y-110545428D02*
X93180819Y-110402571D01*
X93180819Y-110402571D02*
X93180819Y-110307333D01*
X93180819Y-110307333D02*
X93228438Y-110164476D01*
X93228438Y-110164476D02*
X93276057Y-110116857D01*
X94180819Y-109164476D02*
X94180819Y-109735904D01*
X94180819Y-109450190D02*
X93180819Y-109450190D01*
X93180819Y-109450190D02*
X93323676Y-109545428D01*
X93323676Y-109545428D02*
X93418914Y-109640666D01*
X93418914Y-109640666D02*
X93466533Y-109735904D01*
X93276057Y-108783523D02*
X93228438Y-108735904D01*
X93228438Y-108735904D02*
X93180819Y-108640666D01*
X93180819Y-108640666D02*
X93180819Y-108402571D01*
X93180819Y-108402571D02*
X93228438Y-108307333D01*
X93228438Y-108307333D02*
X93276057Y-108259714D01*
X93276057Y-108259714D02*
X93371295Y-108212095D01*
X93371295Y-108212095D02*
X93466533Y-108212095D01*
X93466533Y-108212095D02*
X93609390Y-108259714D01*
X93609390Y-108259714D02*
X94180819Y-108831142D01*
X94180819Y-108831142D02*
X94180819Y-108212095D01*
%TO.C,5V1*%
X145758819Y-117252666D02*
X145758819Y-117728856D01*
X145758819Y-117728856D02*
X146235009Y-117776475D01*
X146235009Y-117776475D02*
X146187390Y-117728856D01*
X146187390Y-117728856D02*
X146139771Y-117633618D01*
X146139771Y-117633618D02*
X146139771Y-117395523D01*
X146139771Y-117395523D02*
X146187390Y-117300285D01*
X146187390Y-117300285D02*
X146235009Y-117252666D01*
X146235009Y-117252666D02*
X146330247Y-117205047D01*
X146330247Y-117205047D02*
X146568342Y-117205047D01*
X146568342Y-117205047D02*
X146663580Y-117252666D01*
X146663580Y-117252666D02*
X146711200Y-117300285D01*
X146711200Y-117300285D02*
X146758819Y-117395523D01*
X146758819Y-117395523D02*
X146758819Y-117633618D01*
X146758819Y-117633618D02*
X146711200Y-117728856D01*
X146711200Y-117728856D02*
X146663580Y-117776475D01*
X145758819Y-116919332D02*
X146758819Y-116585999D01*
X146758819Y-116585999D02*
X145758819Y-116252666D01*
X146758819Y-115395523D02*
X146758819Y-115966951D01*
X146758819Y-115681237D02*
X145758819Y-115681237D01*
X145758819Y-115681237D02*
X145901676Y-115776475D01*
X145901676Y-115776475D02*
X145996914Y-115871713D01*
X145996914Y-115871713D02*
X146044533Y-115966951D01*
%TO.C,C11*%
X124057580Y-109608857D02*
X124105200Y-109656476D01*
X124105200Y-109656476D02*
X124152819Y-109799333D01*
X124152819Y-109799333D02*
X124152819Y-109894571D01*
X124152819Y-109894571D02*
X124105200Y-110037428D01*
X124105200Y-110037428D02*
X124009961Y-110132666D01*
X124009961Y-110132666D02*
X123914723Y-110180285D01*
X123914723Y-110180285D02*
X123724247Y-110227904D01*
X123724247Y-110227904D02*
X123581390Y-110227904D01*
X123581390Y-110227904D02*
X123390914Y-110180285D01*
X123390914Y-110180285D02*
X123295676Y-110132666D01*
X123295676Y-110132666D02*
X123200438Y-110037428D01*
X123200438Y-110037428D02*
X123152819Y-109894571D01*
X123152819Y-109894571D02*
X123152819Y-109799333D01*
X123152819Y-109799333D02*
X123200438Y-109656476D01*
X123200438Y-109656476D02*
X123248057Y-109608857D01*
X124152819Y-108656476D02*
X124152819Y-109227904D01*
X124152819Y-108942190D02*
X123152819Y-108942190D01*
X123152819Y-108942190D02*
X123295676Y-109037428D01*
X123295676Y-109037428D02*
X123390914Y-109132666D01*
X123390914Y-109132666D02*
X123438533Y-109227904D01*
X124152819Y-107704095D02*
X124152819Y-108275523D01*
X124152819Y-107989809D02*
X123152819Y-107989809D01*
X123152819Y-107989809D02*
X123295676Y-108085047D01*
X123295676Y-108085047D02*
X123390914Y-108180285D01*
X123390914Y-108180285D02*
X123438533Y-108275523D01*
%TO.C,R14*%
X88846819Y-101226857D02*
X88370628Y-101560190D01*
X88846819Y-101798285D02*
X87846819Y-101798285D01*
X87846819Y-101798285D02*
X87846819Y-101417333D01*
X87846819Y-101417333D02*
X87894438Y-101322095D01*
X87894438Y-101322095D02*
X87942057Y-101274476D01*
X87942057Y-101274476D02*
X88037295Y-101226857D01*
X88037295Y-101226857D02*
X88180152Y-101226857D01*
X88180152Y-101226857D02*
X88275390Y-101274476D01*
X88275390Y-101274476D02*
X88323009Y-101322095D01*
X88323009Y-101322095D02*
X88370628Y-101417333D01*
X88370628Y-101417333D02*
X88370628Y-101798285D01*
X88846819Y-100274476D02*
X88846819Y-100845904D01*
X88846819Y-100560190D02*
X87846819Y-100560190D01*
X87846819Y-100560190D02*
X87989676Y-100655428D01*
X87989676Y-100655428D02*
X88084914Y-100750666D01*
X88084914Y-100750666D02*
X88132533Y-100845904D01*
X88180152Y-99417333D02*
X88846819Y-99417333D01*
X87799200Y-99655428D02*
X88513485Y-99893523D01*
X88513485Y-99893523D02*
X88513485Y-99274476D01*
%TO.C,J3*%
X140678819Y-111331333D02*
X141393104Y-111331333D01*
X141393104Y-111331333D02*
X141535961Y-111378952D01*
X141535961Y-111378952D02*
X141631200Y-111474190D01*
X141631200Y-111474190D02*
X141678819Y-111617047D01*
X141678819Y-111617047D02*
X141678819Y-111712285D01*
X140678819Y-110950380D02*
X140678819Y-110331333D01*
X140678819Y-110331333D02*
X141059771Y-110664666D01*
X141059771Y-110664666D02*
X141059771Y-110521809D01*
X141059771Y-110521809D02*
X141107390Y-110426571D01*
X141107390Y-110426571D02*
X141155009Y-110378952D01*
X141155009Y-110378952D02*
X141250247Y-110331333D01*
X141250247Y-110331333D02*
X141488342Y-110331333D01*
X141488342Y-110331333D02*
X141583580Y-110378952D01*
X141583580Y-110378952D02*
X141631200Y-110426571D01*
X141631200Y-110426571D02*
X141678819Y-110521809D01*
X141678819Y-110521809D02*
X141678819Y-110807523D01*
X141678819Y-110807523D02*
X141631200Y-110902761D01*
X141631200Y-110902761D02*
X141583580Y-110950380D01*
%TO.C,R21*%
X100022819Y-101226857D02*
X99546628Y-101560190D01*
X100022819Y-101798285D02*
X99022819Y-101798285D01*
X99022819Y-101798285D02*
X99022819Y-101417333D01*
X99022819Y-101417333D02*
X99070438Y-101322095D01*
X99070438Y-101322095D02*
X99118057Y-101274476D01*
X99118057Y-101274476D02*
X99213295Y-101226857D01*
X99213295Y-101226857D02*
X99356152Y-101226857D01*
X99356152Y-101226857D02*
X99451390Y-101274476D01*
X99451390Y-101274476D02*
X99499009Y-101322095D01*
X99499009Y-101322095D02*
X99546628Y-101417333D01*
X99546628Y-101417333D02*
X99546628Y-101798285D01*
X99118057Y-100845904D02*
X99070438Y-100798285D01*
X99070438Y-100798285D02*
X99022819Y-100703047D01*
X99022819Y-100703047D02*
X99022819Y-100464952D01*
X99022819Y-100464952D02*
X99070438Y-100369714D01*
X99070438Y-100369714D02*
X99118057Y-100322095D01*
X99118057Y-100322095D02*
X99213295Y-100274476D01*
X99213295Y-100274476D02*
X99308533Y-100274476D01*
X99308533Y-100274476D02*
X99451390Y-100322095D01*
X99451390Y-100322095D02*
X100022819Y-100893523D01*
X100022819Y-100893523D02*
X100022819Y-100274476D01*
X100022819Y-99322095D02*
X100022819Y-99893523D01*
X100022819Y-99607809D02*
X99022819Y-99607809D01*
X99022819Y-99607809D02*
X99165676Y-99703047D01*
X99165676Y-99703047D02*
X99260914Y-99798285D01*
X99260914Y-99798285D02*
X99308533Y-99893523D01*
%TO.C,12V1*%
X85010761Y-76146819D02*
X84439333Y-76146819D01*
X84725047Y-76146819D02*
X84725047Y-75146819D01*
X84725047Y-75146819D02*
X84629809Y-75289676D01*
X84629809Y-75289676D02*
X84534571Y-75384914D01*
X84534571Y-75384914D02*
X84439333Y-75432533D01*
X85391714Y-75242057D02*
X85439333Y-75194438D01*
X85439333Y-75194438D02*
X85534571Y-75146819D01*
X85534571Y-75146819D02*
X85772666Y-75146819D01*
X85772666Y-75146819D02*
X85867904Y-75194438D01*
X85867904Y-75194438D02*
X85915523Y-75242057D01*
X85915523Y-75242057D02*
X85963142Y-75337295D01*
X85963142Y-75337295D02*
X85963142Y-75432533D01*
X85963142Y-75432533D02*
X85915523Y-75575390D01*
X85915523Y-75575390D02*
X85344095Y-76146819D01*
X85344095Y-76146819D02*
X85963142Y-76146819D01*
X86248857Y-75146819D02*
X86582190Y-76146819D01*
X86582190Y-76146819D02*
X86915523Y-75146819D01*
X87772666Y-76146819D02*
X87201238Y-76146819D01*
X87486952Y-76146819D02*
X87486952Y-75146819D01*
X87486952Y-75146819D02*
X87391714Y-75289676D01*
X87391714Y-75289676D02*
X87296476Y-75384914D01*
X87296476Y-75384914D02*
X87201238Y-75432533D01*
%TO.C,12V2*%
X142440819Y-87201238D02*
X142440819Y-87772666D01*
X142440819Y-87486952D02*
X141440819Y-87486952D01*
X141440819Y-87486952D02*
X141583676Y-87582190D01*
X141583676Y-87582190D02*
X141678914Y-87677428D01*
X141678914Y-87677428D02*
X141726533Y-87772666D01*
X141536057Y-86820285D02*
X141488438Y-86772666D01*
X141488438Y-86772666D02*
X141440819Y-86677428D01*
X141440819Y-86677428D02*
X141440819Y-86439333D01*
X141440819Y-86439333D02*
X141488438Y-86344095D01*
X141488438Y-86344095D02*
X141536057Y-86296476D01*
X141536057Y-86296476D02*
X141631295Y-86248857D01*
X141631295Y-86248857D02*
X141726533Y-86248857D01*
X141726533Y-86248857D02*
X141869390Y-86296476D01*
X141869390Y-86296476D02*
X142440819Y-86867904D01*
X142440819Y-86867904D02*
X142440819Y-86248857D01*
X141440819Y-85963142D02*
X142440819Y-85629809D01*
X142440819Y-85629809D02*
X141440819Y-85296476D01*
X141536057Y-85010761D02*
X141488438Y-84963142D01*
X141488438Y-84963142D02*
X141440819Y-84867904D01*
X141440819Y-84867904D02*
X141440819Y-84629809D01*
X141440819Y-84629809D02*
X141488438Y-84534571D01*
X141488438Y-84534571D02*
X141536057Y-84486952D01*
X141536057Y-84486952D02*
X141631295Y-84439333D01*
X141631295Y-84439333D02*
X141726533Y-84439333D01*
X141726533Y-84439333D02*
X141869390Y-84486952D01*
X141869390Y-84486952D02*
X142440819Y-85058380D01*
X142440819Y-85058380D02*
X142440819Y-84439333D01*
%TO.C,U7*%
X93027819Y-116214404D02*
X93837342Y-116214404D01*
X93837342Y-116214404D02*
X93932580Y-116166785D01*
X93932580Y-116166785D02*
X93980200Y-116119166D01*
X93980200Y-116119166D02*
X94027819Y-116023928D01*
X94027819Y-116023928D02*
X94027819Y-115833452D01*
X94027819Y-115833452D02*
X93980200Y-115738214D01*
X93980200Y-115738214D02*
X93932580Y-115690595D01*
X93932580Y-115690595D02*
X93837342Y-115642976D01*
X93837342Y-115642976D02*
X93027819Y-115642976D01*
X93027819Y-115262023D02*
X93027819Y-114595357D01*
X93027819Y-114595357D02*
X94027819Y-115023928D01*
%TO.C,R12*%
X84850819Y-69730857D02*
X84374628Y-70064190D01*
X84850819Y-70302285D02*
X83850819Y-70302285D01*
X83850819Y-70302285D02*
X83850819Y-69921333D01*
X83850819Y-69921333D02*
X83898438Y-69826095D01*
X83898438Y-69826095D02*
X83946057Y-69778476D01*
X83946057Y-69778476D02*
X84041295Y-69730857D01*
X84041295Y-69730857D02*
X84184152Y-69730857D01*
X84184152Y-69730857D02*
X84279390Y-69778476D01*
X84279390Y-69778476D02*
X84327009Y-69826095D01*
X84327009Y-69826095D02*
X84374628Y-69921333D01*
X84374628Y-69921333D02*
X84374628Y-70302285D01*
X84850819Y-68778476D02*
X84850819Y-69349904D01*
X84850819Y-69064190D02*
X83850819Y-69064190D01*
X83850819Y-69064190D02*
X83993676Y-69159428D01*
X83993676Y-69159428D02*
X84088914Y-69254666D01*
X84088914Y-69254666D02*
X84136533Y-69349904D01*
X83946057Y-68397523D02*
X83898438Y-68349904D01*
X83898438Y-68349904D02*
X83850819Y-68254666D01*
X83850819Y-68254666D02*
X83850819Y-68016571D01*
X83850819Y-68016571D02*
X83898438Y-67921333D01*
X83898438Y-67921333D02*
X83946057Y-67873714D01*
X83946057Y-67873714D02*
X84041295Y-67826095D01*
X84041295Y-67826095D02*
X84136533Y-67826095D01*
X84136533Y-67826095D02*
X84279390Y-67873714D01*
X84279390Y-67873714D02*
X84850819Y-68445142D01*
X84850819Y-68445142D02*
X84850819Y-67826095D01*
%TO.C,H3*%
X143764095Y-51000819D02*
X143764095Y-50000819D01*
X143764095Y-50477009D02*
X144335523Y-50477009D01*
X144335523Y-51000819D02*
X144335523Y-50000819D01*
X144716476Y-50000819D02*
X145335523Y-50000819D01*
X145335523Y-50000819D02*
X145002190Y-50381771D01*
X145002190Y-50381771D02*
X145145047Y-50381771D01*
X145145047Y-50381771D02*
X145240285Y-50429390D01*
X145240285Y-50429390D02*
X145287904Y-50477009D01*
X145287904Y-50477009D02*
X145335523Y-50572247D01*
X145335523Y-50572247D02*
X145335523Y-50810342D01*
X145335523Y-50810342D02*
X145287904Y-50905580D01*
X145287904Y-50905580D02*
X145240285Y-50953200D01*
X145240285Y-50953200D02*
X145145047Y-51000819D01*
X145145047Y-51000819D02*
X144859333Y-51000819D01*
X144859333Y-51000819D02*
X144764095Y-50953200D01*
X144764095Y-50953200D02*
X144716476Y-50905580D01*
%TO.C,R25*%
X101800819Y-101226857D02*
X101324628Y-101560190D01*
X101800819Y-101798285D02*
X100800819Y-101798285D01*
X100800819Y-101798285D02*
X100800819Y-101417333D01*
X100800819Y-101417333D02*
X100848438Y-101322095D01*
X100848438Y-101322095D02*
X100896057Y-101274476D01*
X100896057Y-101274476D02*
X100991295Y-101226857D01*
X100991295Y-101226857D02*
X101134152Y-101226857D01*
X101134152Y-101226857D02*
X101229390Y-101274476D01*
X101229390Y-101274476D02*
X101277009Y-101322095D01*
X101277009Y-101322095D02*
X101324628Y-101417333D01*
X101324628Y-101417333D02*
X101324628Y-101798285D01*
X100896057Y-100845904D02*
X100848438Y-100798285D01*
X100848438Y-100798285D02*
X100800819Y-100703047D01*
X100800819Y-100703047D02*
X100800819Y-100464952D01*
X100800819Y-100464952D02*
X100848438Y-100369714D01*
X100848438Y-100369714D02*
X100896057Y-100322095D01*
X100896057Y-100322095D02*
X100991295Y-100274476D01*
X100991295Y-100274476D02*
X101086533Y-100274476D01*
X101086533Y-100274476D02*
X101229390Y-100322095D01*
X101229390Y-100322095D02*
X101800819Y-100893523D01*
X101800819Y-100893523D02*
X101800819Y-100274476D01*
X100800819Y-99369714D02*
X100800819Y-99845904D01*
X100800819Y-99845904D02*
X101277009Y-99893523D01*
X101277009Y-99893523D02*
X101229390Y-99845904D01*
X101229390Y-99845904D02*
X101181771Y-99750666D01*
X101181771Y-99750666D02*
X101181771Y-99512571D01*
X101181771Y-99512571D02*
X101229390Y-99417333D01*
X101229390Y-99417333D02*
X101277009Y-99369714D01*
X101277009Y-99369714D02*
X101372247Y-99322095D01*
X101372247Y-99322095D02*
X101610342Y-99322095D01*
X101610342Y-99322095D02*
X101705580Y-99369714D01*
X101705580Y-99369714D02*
X101753200Y-99417333D01*
X101753200Y-99417333D02*
X101800819Y-99512571D01*
X101800819Y-99512571D02*
X101800819Y-99750666D01*
X101800819Y-99750666D02*
X101753200Y-99845904D01*
X101753200Y-99845904D02*
X101705580Y-99893523D01*
%TO.C,R28*%
X148028819Y-87764857D02*
X147552628Y-88098190D01*
X148028819Y-88336285D02*
X147028819Y-88336285D01*
X147028819Y-88336285D02*
X147028819Y-87955333D01*
X147028819Y-87955333D02*
X147076438Y-87860095D01*
X147076438Y-87860095D02*
X147124057Y-87812476D01*
X147124057Y-87812476D02*
X147219295Y-87764857D01*
X147219295Y-87764857D02*
X147362152Y-87764857D01*
X147362152Y-87764857D02*
X147457390Y-87812476D01*
X147457390Y-87812476D02*
X147505009Y-87860095D01*
X147505009Y-87860095D02*
X147552628Y-87955333D01*
X147552628Y-87955333D02*
X147552628Y-88336285D01*
X147124057Y-87383904D02*
X147076438Y-87336285D01*
X147076438Y-87336285D02*
X147028819Y-87241047D01*
X147028819Y-87241047D02*
X147028819Y-87002952D01*
X147028819Y-87002952D02*
X147076438Y-86907714D01*
X147076438Y-86907714D02*
X147124057Y-86860095D01*
X147124057Y-86860095D02*
X147219295Y-86812476D01*
X147219295Y-86812476D02*
X147314533Y-86812476D01*
X147314533Y-86812476D02*
X147457390Y-86860095D01*
X147457390Y-86860095D02*
X148028819Y-87431523D01*
X148028819Y-87431523D02*
X148028819Y-86812476D01*
X147457390Y-86241047D02*
X147409771Y-86336285D01*
X147409771Y-86336285D02*
X147362152Y-86383904D01*
X147362152Y-86383904D02*
X147266914Y-86431523D01*
X147266914Y-86431523D02*
X147219295Y-86431523D01*
X147219295Y-86431523D02*
X147124057Y-86383904D01*
X147124057Y-86383904D02*
X147076438Y-86336285D01*
X147076438Y-86336285D02*
X147028819Y-86241047D01*
X147028819Y-86241047D02*
X147028819Y-86050571D01*
X147028819Y-86050571D02*
X147076438Y-85955333D01*
X147076438Y-85955333D02*
X147124057Y-85907714D01*
X147124057Y-85907714D02*
X147219295Y-85860095D01*
X147219295Y-85860095D02*
X147266914Y-85860095D01*
X147266914Y-85860095D02*
X147362152Y-85907714D01*
X147362152Y-85907714D02*
X147409771Y-85955333D01*
X147409771Y-85955333D02*
X147457390Y-86050571D01*
X147457390Y-86050571D02*
X147457390Y-86241047D01*
X147457390Y-86241047D02*
X147505009Y-86336285D01*
X147505009Y-86336285D02*
X147552628Y-86383904D01*
X147552628Y-86383904D02*
X147647866Y-86431523D01*
X147647866Y-86431523D02*
X147838342Y-86431523D01*
X147838342Y-86431523D02*
X147933580Y-86383904D01*
X147933580Y-86383904D02*
X147981200Y-86336285D01*
X147981200Y-86336285D02*
X148028819Y-86241047D01*
X148028819Y-86241047D02*
X148028819Y-86050571D01*
X148028819Y-86050571D02*
X147981200Y-85955333D01*
X147981200Y-85955333D02*
X147933580Y-85907714D01*
X147933580Y-85907714D02*
X147838342Y-85860095D01*
X147838342Y-85860095D02*
X147647866Y-85860095D01*
X147647866Y-85860095D02*
X147552628Y-85907714D01*
X147552628Y-85907714D02*
X147505009Y-85955333D01*
X147505009Y-85955333D02*
X147457390Y-86050571D01*
%TO.C,R11*%
X120088819Y-73032857D02*
X119612628Y-73366190D01*
X120088819Y-73604285D02*
X119088819Y-73604285D01*
X119088819Y-73604285D02*
X119088819Y-73223333D01*
X119088819Y-73223333D02*
X119136438Y-73128095D01*
X119136438Y-73128095D02*
X119184057Y-73080476D01*
X119184057Y-73080476D02*
X119279295Y-73032857D01*
X119279295Y-73032857D02*
X119422152Y-73032857D01*
X119422152Y-73032857D02*
X119517390Y-73080476D01*
X119517390Y-73080476D02*
X119565009Y-73128095D01*
X119565009Y-73128095D02*
X119612628Y-73223333D01*
X119612628Y-73223333D02*
X119612628Y-73604285D01*
X120088819Y-72080476D02*
X120088819Y-72651904D01*
X120088819Y-72366190D02*
X119088819Y-72366190D01*
X119088819Y-72366190D02*
X119231676Y-72461428D01*
X119231676Y-72461428D02*
X119326914Y-72556666D01*
X119326914Y-72556666D02*
X119374533Y-72651904D01*
X120088819Y-71128095D02*
X120088819Y-71699523D01*
X120088819Y-71413809D02*
X119088819Y-71413809D01*
X119088819Y-71413809D02*
X119231676Y-71509047D01*
X119231676Y-71509047D02*
X119326914Y-71604285D01*
X119326914Y-71604285D02*
X119374533Y-71699523D01*
%TO.C,3V1*%
X145758819Y-123158094D02*
X145758819Y-122539047D01*
X145758819Y-122539047D02*
X146139771Y-122872380D01*
X146139771Y-122872380D02*
X146139771Y-122729523D01*
X146139771Y-122729523D02*
X146187390Y-122634285D01*
X146187390Y-122634285D02*
X146235009Y-122586666D01*
X146235009Y-122586666D02*
X146330247Y-122539047D01*
X146330247Y-122539047D02*
X146568342Y-122539047D01*
X146568342Y-122539047D02*
X146663580Y-122586666D01*
X146663580Y-122586666D02*
X146711200Y-122634285D01*
X146711200Y-122634285D02*
X146758819Y-122729523D01*
X146758819Y-122729523D02*
X146758819Y-123015237D01*
X146758819Y-123015237D02*
X146711200Y-123110475D01*
X146711200Y-123110475D02*
X146663580Y-123158094D01*
X145758819Y-122253332D02*
X146758819Y-121919999D01*
X146758819Y-121919999D02*
X145758819Y-121586666D01*
X146758819Y-120729523D02*
X146758819Y-121300951D01*
X146758819Y-121015237D02*
X145758819Y-121015237D01*
X145758819Y-121015237D02*
X145901676Y-121110475D01*
X145901676Y-121110475D02*
X145996914Y-121205713D01*
X145996914Y-121205713D02*
X146044533Y-121300951D01*
%TO.C,R6*%
X106118819Y-72556666D02*
X105642628Y-72889999D01*
X106118819Y-73128094D02*
X105118819Y-73128094D01*
X105118819Y-73128094D02*
X105118819Y-72747142D01*
X105118819Y-72747142D02*
X105166438Y-72651904D01*
X105166438Y-72651904D02*
X105214057Y-72604285D01*
X105214057Y-72604285D02*
X105309295Y-72556666D01*
X105309295Y-72556666D02*
X105452152Y-72556666D01*
X105452152Y-72556666D02*
X105547390Y-72604285D01*
X105547390Y-72604285D02*
X105595009Y-72651904D01*
X105595009Y-72651904D02*
X105642628Y-72747142D01*
X105642628Y-72747142D02*
X105642628Y-73128094D01*
X105118819Y-71699523D02*
X105118819Y-71889999D01*
X105118819Y-71889999D02*
X105166438Y-71985237D01*
X105166438Y-71985237D02*
X105214057Y-72032856D01*
X105214057Y-72032856D02*
X105356914Y-72128094D01*
X105356914Y-72128094D02*
X105547390Y-72175713D01*
X105547390Y-72175713D02*
X105928342Y-72175713D01*
X105928342Y-72175713D02*
X106023580Y-72128094D01*
X106023580Y-72128094D02*
X106071200Y-72080475D01*
X106071200Y-72080475D02*
X106118819Y-71985237D01*
X106118819Y-71985237D02*
X106118819Y-71794761D01*
X106118819Y-71794761D02*
X106071200Y-71699523D01*
X106071200Y-71699523D02*
X106023580Y-71651904D01*
X106023580Y-71651904D02*
X105928342Y-71604285D01*
X105928342Y-71604285D02*
X105690247Y-71604285D01*
X105690247Y-71604285D02*
X105595009Y-71651904D01*
X105595009Y-71651904D02*
X105547390Y-71699523D01*
X105547390Y-71699523D02*
X105499771Y-71794761D01*
X105499771Y-71794761D02*
X105499771Y-71985237D01*
X105499771Y-71985237D02*
X105547390Y-72080475D01*
X105547390Y-72080475D02*
X105595009Y-72128094D01*
X105595009Y-72128094D02*
X105690247Y-72175713D01*
%TO.C,C7*%
X109270580Y-109777166D02*
X109318200Y-109824785D01*
X109318200Y-109824785D02*
X109365819Y-109967642D01*
X109365819Y-109967642D02*
X109365819Y-110062880D01*
X109365819Y-110062880D02*
X109318200Y-110205737D01*
X109318200Y-110205737D02*
X109222961Y-110300975D01*
X109222961Y-110300975D02*
X109127723Y-110348594D01*
X109127723Y-110348594D02*
X108937247Y-110396213D01*
X108937247Y-110396213D02*
X108794390Y-110396213D01*
X108794390Y-110396213D02*
X108603914Y-110348594D01*
X108603914Y-110348594D02*
X108508676Y-110300975D01*
X108508676Y-110300975D02*
X108413438Y-110205737D01*
X108413438Y-110205737D02*
X108365819Y-110062880D01*
X108365819Y-110062880D02*
X108365819Y-109967642D01*
X108365819Y-109967642D02*
X108413438Y-109824785D01*
X108413438Y-109824785D02*
X108461057Y-109777166D01*
X108365819Y-109443832D02*
X108365819Y-108777166D01*
X108365819Y-108777166D02*
X109365819Y-109205737D01*
%TO.C,J8*%
X136106819Y-86439333D02*
X136821104Y-86439333D01*
X136821104Y-86439333D02*
X136963961Y-86486952D01*
X136963961Y-86486952D02*
X137059200Y-86582190D01*
X137059200Y-86582190D02*
X137106819Y-86725047D01*
X137106819Y-86725047D02*
X137106819Y-86820285D01*
X136535390Y-85820285D02*
X136487771Y-85915523D01*
X136487771Y-85915523D02*
X136440152Y-85963142D01*
X136440152Y-85963142D02*
X136344914Y-86010761D01*
X136344914Y-86010761D02*
X136297295Y-86010761D01*
X136297295Y-86010761D02*
X136202057Y-85963142D01*
X136202057Y-85963142D02*
X136154438Y-85915523D01*
X136154438Y-85915523D02*
X136106819Y-85820285D01*
X136106819Y-85820285D02*
X136106819Y-85629809D01*
X136106819Y-85629809D02*
X136154438Y-85534571D01*
X136154438Y-85534571D02*
X136202057Y-85486952D01*
X136202057Y-85486952D02*
X136297295Y-85439333D01*
X136297295Y-85439333D02*
X136344914Y-85439333D01*
X136344914Y-85439333D02*
X136440152Y-85486952D01*
X136440152Y-85486952D02*
X136487771Y-85534571D01*
X136487771Y-85534571D02*
X136535390Y-85629809D01*
X136535390Y-85629809D02*
X136535390Y-85820285D01*
X136535390Y-85820285D02*
X136583009Y-85915523D01*
X136583009Y-85915523D02*
X136630628Y-85963142D01*
X136630628Y-85963142D02*
X136725866Y-86010761D01*
X136725866Y-86010761D02*
X136916342Y-86010761D01*
X136916342Y-86010761D02*
X137011580Y-85963142D01*
X137011580Y-85963142D02*
X137059200Y-85915523D01*
X137059200Y-85915523D02*
X137106819Y-85820285D01*
X137106819Y-85820285D02*
X137106819Y-85629809D01*
X137106819Y-85629809D02*
X137059200Y-85534571D01*
X137059200Y-85534571D02*
X137011580Y-85486952D01*
X137011580Y-85486952D02*
X136916342Y-85439333D01*
X136916342Y-85439333D02*
X136725866Y-85439333D01*
X136725866Y-85439333D02*
X136630628Y-85486952D01*
X136630628Y-85486952D02*
X136583009Y-85534571D01*
X136583009Y-85534571D02*
X136535390Y-85629809D01*
D11*
%TO.C,C4*%
X93953000Y-65370748D02*
X93953000Y-65893252D01*
X92483000Y-65370748D02*
X92483000Y-65893252D01*
%TO.C,R8*%
X90158500Y-68729776D02*
X90158500Y-69239224D01*
X89113500Y-68729776D02*
X89113500Y-69239224D01*
%TO.C,R18*%
X84059500Y-104244224D02*
X84059500Y-103734776D01*
X85104500Y-104244224D02*
X85104500Y-103734776D01*
D12*
%TO.C,J2*%
X134309500Y-130428500D02*
X116909500Y-130428500D01*
X134309500Y-124678500D02*
X134309500Y-130428500D01*
X116909500Y-130428500D02*
X116909500Y-124678500D01*
X116909500Y-124678500D02*
X134309500Y-124678500D01*
D13*
X135159500Y-127028500D02*
G75*
G03*
X135159500Y-127028500I-100000J0D01*
G01*
D11*
%TO.C,R7*%
X123966500Y-68579276D02*
X123966500Y-69088724D01*
X122921500Y-68579276D02*
X122921500Y-69088724D01*
%TO.C,C2*%
X108459000Y-66147252D02*
X108459000Y-65624748D01*
X109929000Y-66147252D02*
X109929000Y-65624748D01*
%TO.C,C5*%
X134876000Y-94595733D02*
X134876000Y-94888267D01*
X133856000Y-94595733D02*
X133856000Y-94888267D01*
%TO.C,R10*%
X88380500Y-68729776D02*
X88380500Y-69239224D01*
X87335500Y-68729776D02*
X87335500Y-69239224D01*
D12*
%TO.C,U10*%
X107185000Y-111746500D02*
X97285000Y-111746500D01*
X97285000Y-111746500D02*
X97285000Y-113687500D01*
X107185000Y-113687500D02*
X107185000Y-111746500D01*
D13*
X106235000Y-105936500D02*
G75*
G03*
X106235000Y-105936500I-100000J0D01*
G01*
D12*
%TO.C,U9*%
X136903000Y-111746500D02*
X127003000Y-111746500D01*
X127003000Y-111746500D02*
X127003000Y-113687500D01*
X136903000Y-113687500D02*
X136903000Y-111746500D01*
D13*
X135953000Y-105936500D02*
G75*
G03*
X135953000Y-105936500I-100000J0D01*
G01*
D12*
%TO.C,U2*%
X98174000Y-61364000D02*
X108074000Y-61364000D01*
X108074000Y-61364000D02*
X108074000Y-59423000D01*
X98174000Y-59423000D02*
X98174000Y-61364000D01*
D13*
X99324000Y-67174000D02*
G75*
G03*
X99324000Y-67174000I-100000J0D01*
G01*
D11*
%TO.C,R13*%
X119241500Y-103771276D02*
X119241500Y-104280724D01*
X118196500Y-103771276D02*
X118196500Y-104280724D01*
%TO.C,C6*%
X106022000Y-89401233D02*
X106022000Y-89693767D01*
X105002000Y-89401233D02*
X105002000Y-89693767D01*
D12*
%TO.C,J6*%
X72546000Y-76164000D02*
X72546000Y-53764000D01*
X78296000Y-76164000D02*
X72546000Y-76164000D01*
X72546000Y-53764000D02*
X78296000Y-53764000D01*
X78296000Y-53764000D02*
X78296000Y-76164000D01*
D13*
X76046000Y-76914000D02*
G75*
G03*
X76046000Y-76914000I-100000J0D01*
G01*
D11*
%TO.C,C10*%
X89083000Y-91625000D02*
X90953000Y-91625000D01*
X90953000Y-91625000D02*
X90953000Y-87540000D01*
X89083000Y-87540000D02*
X89083000Y-91625000D01*
D12*
%TO.C,U6*%
X122399000Y-111746500D02*
X112499000Y-111746500D01*
X112499000Y-111746500D02*
X112499000Y-113687500D01*
X122399000Y-113687500D02*
X122399000Y-111746500D01*
D13*
X121449000Y-105936500D02*
G75*
G03*
X121449000Y-105936500I-100000J0D01*
G01*
D12*
%TO.C,U3*%
X115954000Y-61110000D02*
X125854000Y-61110000D01*
X125854000Y-61110000D02*
X125854000Y-59169000D01*
X115954000Y-59169000D02*
X115954000Y-61110000D01*
D13*
X117104000Y-66920000D02*
G75*
G03*
X117104000Y-66920000I-100000J0D01*
G01*
D11*
%TO.C,R27*%
X103900500Y-103771276D02*
X103900500Y-104280724D01*
X102855500Y-103771276D02*
X102855500Y-104280724D01*
%TO.C,R2*%
X101305500Y-69239224D02*
X101305500Y-68729776D01*
X102350500Y-69239224D02*
X102350500Y-68729776D01*
D12*
%TO.C,J7*%
X83216000Y-77514500D02*
X83216000Y-88174500D01*
X71216000Y-77514500D02*
X83216000Y-77514500D01*
X83216000Y-88174500D02*
X71216000Y-88174500D01*
X71216000Y-88174500D02*
X71216000Y-77514500D01*
D13*
X81222000Y-76832500D02*
G75*
G03*
X81222000Y-76832500I-100000J0D01*
G01*
D11*
%TO.C,R22*%
X143016500Y-117093276D02*
X143016500Y-117602724D01*
X141971500Y-117093276D02*
X141971500Y-117602724D01*
%TO.C,R4*%
X104382500Y-68729776D02*
X104382500Y-69239224D01*
X103337500Y-68729776D02*
X103337500Y-69239224D01*
%TO.C,R19*%
X82295276Y-73137500D02*
X82804724Y-73137500D01*
X82295276Y-74182500D02*
X82804724Y-74182500D01*
%TO.C,R16*%
X85939100Y-104244224D02*
X85939100Y-103734776D01*
X86984100Y-104244224D02*
X86984100Y-103734776D01*
%TO.C,C1*%
X142013000Y-65947252D02*
X142013000Y-65424748D01*
X143483000Y-65947252D02*
X143483000Y-65424748D01*
%TO.C,U11*%
X93426000Y-88783500D02*
X93696000Y-88783500D01*
X93696000Y-88783500D02*
X93696000Y-91613500D01*
X100056000Y-88783500D02*
X100056000Y-89883500D01*
X100326000Y-88783500D02*
X100056000Y-88783500D01*
X93426000Y-82363500D02*
X93426000Y-88783500D01*
X100326000Y-82363500D02*
X100326000Y-88783500D01*
D12*
%TO.C,J4*%
X84792000Y-43082000D02*
X102192000Y-43082000D01*
X84792000Y-48832000D02*
X84792000Y-43082000D01*
X102192000Y-43082000D02*
X102192000Y-48832000D01*
X102192000Y-48832000D02*
X84792000Y-48832000D01*
D13*
X84142000Y-46482000D02*
G75*
G03*
X84142000Y-46482000I-100000J0D01*
G01*
D11*
%TO.C,R5*%
X139714500Y-68733276D02*
X139714500Y-69242724D01*
X138669500Y-68733276D02*
X138669500Y-69242724D01*
D12*
%TO.C,U4*%
X82146000Y-61364000D02*
X92046000Y-61364000D01*
X92046000Y-61364000D02*
X92046000Y-59423000D01*
X82146000Y-59423000D02*
X82146000Y-61364000D01*
D13*
X83296000Y-67174000D02*
G75*
G03*
X83296000Y-67174000I-100000J0D01*
G01*
D11*
%TO.C,C3*%
X127735000Y-65270748D02*
X127735000Y-65793252D01*
X126265000Y-65270748D02*
X126265000Y-65793252D01*
%TO.C,R26*%
X133770900Y-103771276D02*
X133770900Y-104280724D01*
X132725900Y-103771276D02*
X132725900Y-104280724D01*
%TO.C,R24*%
X141971500Y-121770224D02*
X141971500Y-121260776D01*
X143016500Y-121770224D02*
X143016500Y-121260776D01*
%TO.C,C9*%
X117198000Y-87215733D02*
X117198000Y-87508267D01*
X116178000Y-87215733D02*
X116178000Y-87508267D01*
%TO.C,C13*%
X92560000Y-89501733D02*
X92560000Y-89794267D01*
X91540000Y-89501733D02*
X91540000Y-89794267D01*
%TO.C,R23*%
X130795500Y-104280724D02*
X130795500Y-103771276D01*
X131840500Y-104280724D02*
X131840500Y-103771276D01*
D12*
%TO.C,D1*%
X86595000Y-91690000D02*
X86595000Y-91480000D01*
X86595000Y-89130000D02*
X86595000Y-89340000D01*
X86595000Y-89130000D02*
X82265000Y-89130000D01*
X82265000Y-91690000D02*
X86595000Y-91690000D01*
X82265000Y-91480000D02*
X82265000Y-91690000D01*
X82265000Y-89130000D02*
X82265000Y-89340000D01*
D13*
X88530000Y-90410000D02*
G75*
G03*
X88530000Y-90410000I-100000J0D01*
G01*
D11*
%TO.C,R9*%
X122188500Y-68579276D02*
X122188500Y-69088724D01*
X121143500Y-68579276D02*
X121143500Y-69088724D01*
%TO.C,C14*%
X102212000Y-89401233D02*
X102212000Y-89693767D01*
X101192000Y-89401233D02*
X101192000Y-89693767D01*
D14*
%TO.C,U5*%
X133095400Y-85126500D02*
X132892200Y-85126500D01*
X120293800Y-85126500D02*
X120090600Y-85126500D01*
X120090600Y-85126500D02*
X120090600Y-92746500D01*
X133095400Y-88631700D02*
X133095400Y-85126500D01*
X133095400Y-89241300D02*
X133095400Y-88631700D01*
X133095400Y-92746500D02*
X133095400Y-89241300D01*
X132892200Y-92746500D02*
X133095400Y-92746500D01*
X120090600Y-92746500D02*
X120293800Y-92746500D01*
X133095400Y-88631700D02*
G75*
G03*
X133095400Y-89241300I0J-304800D01*
G01*
D11*
%TO.C,R1*%
X134859500Y-69242724D02*
X134859500Y-68733276D01*
X135904500Y-69242724D02*
X135904500Y-68733276D01*
D12*
%TO.C,J5*%
X102114250Y-130400000D02*
X84714250Y-130400000D01*
X102114250Y-124650000D02*
X102114250Y-130400000D01*
X84714250Y-130400000D02*
X84714250Y-124650000D01*
X84714250Y-124650000D02*
X102114250Y-124650000D01*
D13*
X102964250Y-127000000D02*
G75*
G03*
X102964250Y-127000000I-100000J0D01*
G01*
D12*
%TO.C,U1*%
X131702000Y-61264000D02*
X141602000Y-61264000D01*
X141602000Y-61264000D02*
X141602000Y-59323000D01*
X131702000Y-59323000D02*
X131702000Y-61264000D01*
D13*
X132852000Y-67074000D02*
G75*
G03*
X132852000Y-67074000I-100000J0D01*
G01*
D11*
%TO.C,R3*%
X137936500Y-68733276D02*
X137936500Y-69242724D01*
X136891500Y-68733276D02*
X136891500Y-69242724D01*
%TO.C,R20*%
X128915900Y-104280724D02*
X128915900Y-103771276D01*
X129960900Y-104280724D02*
X129960900Y-103771276D01*
%TO.C,R15*%
X116164500Y-104280724D02*
X116164500Y-103771276D01*
X117209500Y-104280724D02*
X117209500Y-103771276D01*
%TO.C,R17*%
X114386500Y-104280724D02*
X114386500Y-103771276D01*
X115431500Y-104280724D02*
X115431500Y-103771276D01*
%TO.C,C12*%
X96086000Y-109349248D02*
X96086000Y-109871752D01*
X94616000Y-109349248D02*
X94616000Y-109871752D01*
%TO.C,5V1*%
X145261000Y-115688000D02*
X143791000Y-115688000D01*
X143791000Y-115688000D02*
X143791000Y-118148000D01*
X145261000Y-118148000D02*
X145261000Y-115688000D01*
%TO.C,C8*%
X79376000Y-109871752D02*
X79376000Y-109349248D01*
X80846000Y-109871752D02*
X80846000Y-109349248D01*
%TO.C,C11*%
X126312000Y-109349248D02*
X126312000Y-109871752D01*
X124842000Y-109349248D02*
X124842000Y-109871752D01*
%TO.C,R14*%
X88914500Y-103734776D02*
X88914500Y-104244224D01*
X87869500Y-103734776D02*
X87869500Y-104244224D01*
D12*
%TO.C,J3*%
X147926000Y-89698000D02*
X147926000Y-114598000D01*
X142176000Y-89698000D02*
X147926000Y-89698000D01*
X147926000Y-114598000D02*
X142176000Y-114598000D01*
X142176000Y-114598000D02*
X142176000Y-89698000D01*
D13*
X144626000Y-88948000D02*
G75*
G03*
X144626000Y-88948000I-100000J0D01*
G01*
D12*
%TO.C,J1*%
X121850000Y-42982000D02*
X139250000Y-42982000D01*
X121850000Y-48732000D02*
X121850000Y-42982000D01*
X139250000Y-42982000D02*
X139250000Y-48732000D01*
X139250000Y-48732000D02*
X121850000Y-48732000D01*
D13*
X121200000Y-46382000D02*
G75*
G03*
X121200000Y-46382000I-100000J0D01*
G01*
D11*
%TO.C,R21*%
X99045500Y-104280724D02*
X99045500Y-103771276D01*
X100090500Y-104280724D02*
X100090500Y-103771276D01*
%TO.C,12V1*%
X80890000Y-74957000D02*
X80890000Y-76427000D01*
X80890000Y-76427000D02*
X83350000Y-76427000D01*
X83350000Y-74957000D02*
X80890000Y-74957000D01*
%TO.C,12V2*%
X144499000Y-85321000D02*
X143029000Y-85321000D01*
X143029000Y-85321000D02*
X143029000Y-87781000D01*
X144499000Y-87781000D02*
X144499000Y-85321000D01*
D12*
%TO.C,U7*%
X92173000Y-111746500D02*
X82273000Y-111746500D01*
X82273000Y-111746500D02*
X82273000Y-113687500D01*
X92173000Y-113687500D02*
X92173000Y-111746500D01*
D13*
X91223000Y-105936500D02*
G75*
G03*
X91223000Y-105936500I-100000J0D01*
G01*
D11*
%TO.C,R12*%
X85303500Y-69239224D02*
X85303500Y-68729776D01*
X86348500Y-69239224D02*
X86348500Y-68729776D01*
%TO.C,U8*%
X107000000Y-84714000D02*
X113010000Y-84714000D01*
X109250000Y-91534000D02*
X113010000Y-91534000D01*
X113010000Y-84714000D02*
X113010000Y-85974000D01*
X113010000Y-91534000D02*
X113010000Y-90274000D01*
%TO.C,R25*%
X100823500Y-104280724D02*
X100823500Y-103771276D01*
X101868500Y-104280724D02*
X101868500Y-103771276D01*
%TO.C,R28*%
X146318500Y-86726276D02*
X146318500Y-87235724D01*
X145273500Y-86726276D02*
X145273500Y-87235724D01*
%TO.C,R11*%
X119111500Y-69088724D02*
X119111500Y-68579276D01*
X120156500Y-69088724D02*
X120156500Y-68579276D01*
%TO.C,3V1*%
X143791000Y-123175500D02*
X145261000Y-123175500D01*
X145261000Y-123175500D02*
X145261000Y-120715500D01*
X143791000Y-120715500D02*
X143791000Y-123175500D01*
%TO.C,R6*%
X106160500Y-68729776D02*
X106160500Y-69239224D01*
X105115500Y-68729776D02*
X105115500Y-69239224D01*
%TO.C,C7*%
X109856000Y-109871752D02*
X109856000Y-109349248D01*
X111326000Y-109871752D02*
X111326000Y-109349248D01*
D12*
%TO.C,J8*%
X136240000Y-84505000D02*
X136240000Y-73845000D01*
X148240000Y-84505000D02*
X136240000Y-84505000D01*
X136240000Y-73845000D02*
X148240000Y-73845000D01*
X148240000Y-73845000D02*
X148240000Y-84505000D01*
D13*
X138434000Y-85187000D02*
G75*
G03*
X138434000Y-85187000I-100000J0D01*
G01*
%TD*%
M02*
