M48
; DRILL file {KiCad 7.0.5} date Thu Oct  5 13:58:03 2023
; FORMAT={-:-/ absolute / inch / decimal}
; #@! TF.CreationDate,2023-10-05T13:58:03+07:00
; #@! TF.GenerationSoftware,Kicad,Pcbnew,7.0.5
; #@! TF.FileFunction,MixedPlating,1,2
FMAT,2
INCH
; #@! TA.AperFunction,Plated,PTH,ViaDrill
T1C0.0157
; #@! TA.AperFunction,Plated,PTH,ComponentDrill
T2C0.0394
; #@! TA.AperFunction,Plated,PTH,ComponentDrill
T3C0.0551
; #@! TA.AperFunction,Plated,PTH,ComponentDrill
T4C0.1260
%
G90
G05
T1
X3.04Y-4.5
X3.04Y-4.56
X3.04Y-4.63
X3.04Y-4.7
X3.05Y-4.36
X3.05Y-4.43
X3.12Y-4.42
X3.21Y-2.47
X3.21Y-2.54
X3.21Y-2.62
X3.21Y-2.69
X3.27Y-4.02
X3.28Y-2.68
X3.29Y-3.05
X3.29Y-3.11
X3.3Y-3.22
X3.33Y-3.9846
X3.37Y-3.27
X3.38Y-2.8257
X3.38Y-3.02
X3.38Y-3.09
X3.4Y-3.99
X3.41Y-3.34
X3.41Y-3.42
X3.43Y-3.17
X3.46Y-3.11
X3.47Y-3.38
X3.47Y-3.47
X3.48Y-3.694
X3.48Y-3.9786
X3.51Y-2.91
X3.51Y-3.19
X3.53Y-3.26
X3.534Y-3.98
X3.58Y-2.94
X3.584Y-4.15
X3.59Y-3.23
X3.61Y-2.68
X3.63Y-3.01
X3.64Y-4.15
X3.64Y-4.19
X3.64Y-4.24
X3.64Y-4.29
X3.64Y-4.34
X3.66Y-2.94
X3.67Y-2.68
X3.68Y-3.07
X3.7Y-3.01
X3.75Y-1.9843
X3.75Y-2.1
X3.75Y-4.43
X3.76Y-3.07
X3.8Y-2.43
X3.81Y-4.36
X3.85Y-2.47
X3.91Y-2.66
X3.92Y-3.99
X3.98Y-4.0
X4.0007Y-3.1993
X4.0107Y-2.8015
X4.064Y-3.5594
X4.064Y-3.694
X4.07Y-3.99
X4.125Y-3.24
X4.125Y-3.99
X4.15Y-2.8857
X4.15Y-3.1235
X4.18Y-4.15
X4.2Y-4.02
X4.22Y-4.22
X4.23Y-2.69
X4.23Y-4.29
X4.23Y-4.34
X4.23Y-5.0
X4.29Y-4.95
X4.3Y-2.74
X4.31Y-5.02
X4.35Y-1.84
X4.35Y-4.44
X4.35Y-4.8914
X4.36Y-4.97
X4.38Y-2.41
X4.39Y-5.02
X4.41Y-1.92
X4.42Y-2.12
X4.42Y-2.2
X4.42Y-2.26
X4.42Y-2.33
X4.44Y-4.0
X4.44Y-4.1457
X4.45Y-1.84
X4.46Y-2.41
X4.49Y-4.0
X4.54Y-2.66
X4.54Y-2.8857
X4.56Y-3.73
X4.562Y-3.9986
X4.61Y-2.66
X4.61Y-3.9579
X4.6566Y-3.4734
X4.66Y-2.8857
X4.67Y-3.63
X4.71Y-2.8
X4.72Y-3.4
X4.72Y-3.59
X4.73Y-3.46
X4.73Y-3.52
X4.78Y-3.4
X4.78Y-4.16
X4.8Y-3.46
X4.81Y-3.52
X4.82Y-4.28
X4.82Y-4.33
X4.87Y-4.36
X4.89Y-3.52
X4.9Y-4.42
X4.91Y-2.78
X4.91Y-3.61
X4.95Y-4.45
X4.96Y-2.78
X4.97Y-5.14
X4.98Y-4.41
X5.0Y-2.75
X5.01Y-3.61
X5.01Y-3.8843
X5.02Y-5.1
X5.0213Y-4.02
X5.05Y-5.14
X5.1Y-2.4
X5.11Y-3.61
X5.14Y-4.02
X5.15Y-5.15
X5.19Y-3.13
X5.19Y-3.19
X5.23Y-2.77
X5.24Y-5.15
X5.279Y-2.8857
X5.28Y-3.13
X5.28Y-3.19
X5.29Y-3.26
X5.295Y-4.02
X5.33Y-2.8061
X5.33Y-5.15
X5.35Y-2.88
X5.35Y-3.19
X5.37Y-3.13
X5.37Y-3.696
X5.37Y-3.77
X5.4Y-2.85
X5.41Y-4.33
X5.41Y-5.15
X5.4111Y-4.2711
X5.42Y-2.81
X5.42Y-3.9657
X5.45Y-5.1
X5.46Y-2.85
X5.48Y-2.81
X5.48Y-4.33
X5.48Y-4.39
X5.49Y-5.05
X5.5Y-5.15
X5.52Y-5.1
X5.53Y-4.44
X5.55Y-3.26
X5.6Y-2.86
X5.6Y-3.2
X5.62Y-2.69
X5.62Y-2.76
X5.62Y-2.81
X5.64Y-3.27
X5.78Y-2.01
X5.78Y-2.08
X5.78Y-2.14
X5.78Y-2.21
X5.78Y-2.28
X5.78Y-2.35
T2
X2.99Y-2.2131
X2.99Y-2.3116
X2.99Y-2.41
X2.99Y-2.5084
X2.99Y-2.6069
X2.99Y-2.7053
X2.99Y-2.8037
X2.99Y-2.9021
X3.4317Y-5.0
X3.4347Y-1.83
X3.5301Y-5.0
X3.5331Y-1.83
X3.6285Y-5.0
X3.6316Y-1.83
X3.7269Y-5.0
X3.73Y-1.83
X3.8254Y-5.0
X3.8284Y-1.83
X3.9238Y-5.0
X3.9269Y-1.83
X4.6992Y-5.0011
X4.7976Y-5.0011
X4.8937Y-1.8261
X4.896Y-5.0011
X4.9921Y-1.8261
X4.9945Y-5.0011
X5.0906Y-1.8261
X5.0929Y-5.0011
X5.189Y-1.8261
X5.1913Y-5.0011
X5.2874Y-1.8261
X5.3858Y-1.8261
X5.69Y-3.6279
X5.69Y-3.7263
X5.69Y-3.8247
X5.69Y-3.9231
X5.69Y-4.0216
X5.69Y-4.12
X5.69Y-4.2184
X5.69Y-4.3169
X5.69Y-4.4153
T3
X3.1975Y-3.1714
X3.1975Y-3.3714
X5.4425Y-3.0073
X5.4425Y-3.2073
T4
X2.92Y-1.8
X2.9308Y-5.03
X5.69Y-1.8
X5.69Y-5.03
T0
M30
