%TF.GenerationSoftware,KiCad,Pcbnew,7.0.5*%
%TF.CreationDate,2023-10-05T13:57:49+07:00*%
%TF.ProjectId,Driver_motor,44726976-6572-45f6-9d6f-746f722e6b69,rev?*%
%TF.SameCoordinates,Original*%
%TF.FileFunction,Copper,L2,Bot*%
%TF.FilePolarity,Positive*%
%FSLAX46Y46*%
G04 Gerber Fmt 4.6, Leading zero omitted, Abs format (unit mm)*
G04 Created by KiCad (PCBNEW 7.0.5) date 2023-10-05 13:57:49*
%MOMM*%
%LPD*%
G01*
G04 APERTURE LIST*
G04 Aperture macros list*
%AMRoundRect*
0 Rectangle with rounded corners*
0 $1 Rounding radius*
0 $2 $3 $4 $5 $6 $7 $8 $9 X,Y pos of 4 corners*
0 Add a 4 corners polygon primitive as box body*
4,1,4,$2,$3,$4,$5,$6,$7,$8,$9,$2,$3,0*
0 Add four circle primitives for the rounded corners*
1,1,$1+$1,$2,$3*
1,1,$1+$1,$4,$5*
1,1,$1+$1,$6,$7*
1,1,$1+$1,$8,$9*
0 Add four rect primitives between the rounded corners*
20,1,$1+$1,$2,$3,$4,$5,0*
20,1,$1+$1,$4,$5,$6,$7,0*
20,1,$1+$1,$6,$7,$8,$9,0*
20,1,$1+$1,$8,$9,$2,$3,0*%
G04 Aperture macros list end*
%TA.AperFunction,ComponentPad*%
%ADD10R,1.508000X1.508000*%
%TD*%
%TA.AperFunction,ComponentPad*%
%ADD11C,1.508000*%
%TD*%
%TA.AperFunction,ComponentPad*%
%ADD12C,6.400000*%
%TD*%
%TA.AperFunction,ComponentPad*%
%ADD13R,2.100000X2.100000*%
%TD*%
%TA.AperFunction,ComponentPad*%
%ADD14C,2.100000*%
%TD*%
%TA.AperFunction,SMDPad,CuDef*%
%ADD15RoundRect,0.237500X0.300000X0.237500X-0.300000X0.237500X-0.300000X-0.237500X0.300000X-0.237500X0*%
%TD*%
%TA.AperFunction,SMDPad,CuDef*%
%ADD16RoundRect,0.237500X-0.300000X-0.237500X0.300000X-0.237500X0.300000X0.237500X-0.300000X0.237500X0*%
%TD*%
%TA.AperFunction,ViaPad*%
%ADD17C,0.800000*%
%TD*%
%TA.AperFunction,Conductor*%
%ADD18C,0.762000*%
%TD*%
%TA.AperFunction,Conductor*%
%ADD19C,1.270000*%
%TD*%
%TA.AperFunction,Conductor*%
%ADD20C,0.508000*%
%TD*%
G04 APERTURE END LIST*
D10*
%TO.P,J2,1,1*%
%TO.N,M2-*%
X131859500Y-127028500D03*
D11*
%TO.P,J2,2,2*%
%TO.N,+3.3V*%
X129359500Y-127028500D03*
%TO.P,J2,3,3*%
%TO.N,M2_ENC_B*%
X126859500Y-127028500D03*
%TO.P,J2,4,4*%
%TO.N,M2_ENC_A*%
X124359500Y-127028500D03*
%TO.P,J2,5,5*%
%TO.N,GND*%
X121859500Y-127028500D03*
%TO.P,J2,6,6*%
%TO.N,M2+*%
X119359500Y-127028500D03*
%TD*%
D10*
%TO.P,J6,1,1*%
%TO.N,M1_ENC_A*%
X75946000Y-73714000D03*
D11*
%TO.P,J6,2,2*%
%TO.N,M1_ENC_B*%
X75946000Y-71214000D03*
%TO.P,J6,3,3*%
%TO.N,M2_ENC_A*%
X75946000Y-68714000D03*
%TO.P,J6,4,4*%
%TO.N,M2_ENC_B*%
X75946000Y-66214000D03*
%TO.P,J6,5,5*%
%TO.N,M3_ENC_A*%
X75946000Y-63714000D03*
%TO.P,J6,6,6*%
%TO.N,M3_ENC_B*%
X75946000Y-61214000D03*
%TO.P,J6,7,7*%
%TO.N,M4_ENC_A*%
X75946000Y-58714000D03*
%TO.P,J6,8,8*%
%TO.N,M4_ENC_B*%
X75946000Y-56214000D03*
%TD*%
D12*
%TO.P,H1,1*%
%TO.N,N/C*%
X74168000Y-45720000D03*
%TD*%
D13*
%TO.P,J7,1,1*%
%TO.N,GND*%
X81216000Y-80554500D03*
D14*
%TO.P,J7,2,2*%
%TO.N,+12V*%
X81216000Y-85634500D03*
%TD*%
D10*
%TO.P,J4,1,1*%
%TO.N,M3-*%
X87242000Y-46482000D03*
D11*
%TO.P,J4,2,2*%
%TO.N,+3.3V*%
X89742000Y-46482000D03*
%TO.P,J4,3,3*%
%TO.N,M3_ENC_B*%
X92242000Y-46482000D03*
%TO.P,J4,4,4*%
%TO.N,M3_ENC_A*%
X94742000Y-46482000D03*
%TO.P,J4,5,5*%
%TO.N,GND*%
X97242000Y-46482000D03*
%TO.P,J4,6,6*%
%TO.N,M3+*%
X99742000Y-46482000D03*
%TD*%
D12*
%TO.P,H4,1*%
%TO.N,N/C*%
X144526000Y-127762000D03*
%TD*%
D10*
%TO.P,J5,1,1*%
%TO.N,M4-*%
X99664250Y-127000000D03*
D11*
%TO.P,J5,2,2*%
%TO.N,+3.3V*%
X97164250Y-127000000D03*
%TO.P,J5,3,3*%
%TO.N,M4_ENC_B*%
X94664250Y-127000000D03*
%TO.P,J5,4,4*%
%TO.N,M4_ENC_A*%
X92164250Y-127000000D03*
%TO.P,J5,5,5*%
%TO.N,GND*%
X89664250Y-127000000D03*
%TO.P,J5,6,6*%
%TO.N,M4+*%
X87164250Y-127000000D03*
%TD*%
D12*
%TO.P,H2,1*%
%TO.N,N/C*%
X74443000Y-127762000D03*
%TD*%
D10*
%TO.P,J3,1,1*%
%TO.N,M1_PWM_R*%
X144526000Y-92148000D03*
D11*
%TO.P,J3,2,2*%
%TO.N,M1_PWM_L*%
X144526000Y-94648000D03*
%TO.P,J3,3,3*%
%TO.N,M2_PWM_R*%
X144526000Y-97148000D03*
%TO.P,J3,4,4*%
%TO.N,M2_PWM_L*%
X144526000Y-99648000D03*
%TO.P,J3,5,5*%
%TO.N,M3_PWM_R*%
X144526000Y-102148000D03*
%TO.P,J3,6,6*%
%TO.N,M3_PWM_L*%
X144526000Y-104648000D03*
%TO.P,J3,7,7*%
%TO.N,M4_PWM_R*%
X144526000Y-107148000D03*
%TO.P,J3,8,8*%
%TO.N,M4_PWM_L*%
X144526000Y-109648000D03*
%TO.P,J3,9,9*%
%TO.N,GND*%
X144526000Y-112148000D03*
%TD*%
D10*
%TO.P,J1,1,1*%
%TO.N,M1-*%
X124300000Y-46382000D03*
D11*
%TO.P,J1,2,2*%
%TO.N,+3.3V*%
X126800000Y-46382000D03*
%TO.P,J1,3,3*%
%TO.N,M1_ENC_B*%
X129300000Y-46382000D03*
%TO.P,J1,4,4*%
%TO.N,M1_ENC_A*%
X131800000Y-46382000D03*
%TO.P,J1,5,5*%
%TO.N,GND*%
X134300000Y-46382000D03*
%TO.P,J1,6,6*%
%TO.N,M1+*%
X136800000Y-46382000D03*
%TD*%
D12*
%TO.P,H3,1*%
%TO.N,N/C*%
X144526000Y-45720000D03*
%TD*%
D13*
%TO.P,J8,1,1*%
%TO.N,GND*%
X138240000Y-81465000D03*
D14*
%TO.P,J8,2,2*%
%TO.N,+12P*%
X138240000Y-76385000D03*
%TD*%
D15*
%TO.P,C15,1*%
%TO.N,GND*%
X128624500Y-48768000D03*
%TO.P,C15,2*%
%TO.N,+3.3V*%
X126899500Y-48768000D03*
%TD*%
D16*
%TO.P,C16,1*%
%TO.N,GND*%
X127561000Y-124242500D03*
%TO.P,C16,2*%
%TO.N,+3.3V*%
X129286000Y-124242500D03*
%TD*%
D15*
%TO.P,C17,1*%
%TO.N,GND*%
X91540500Y-49022000D03*
%TO.P,C17,2*%
%TO.N,+3.3V*%
X89815500Y-49022000D03*
%TD*%
D16*
%TO.P,C18,1*%
%TO.N,GND*%
X95579750Y-124214000D03*
%TO.P,C18,2*%
%TO.N,+3.3V*%
X97304750Y-124214000D03*
%TD*%
D17*
%TO.N,GND*%
X139700000Y-130810000D03*
X146812000Y-59690000D03*
X119888000Y-91186000D03*
X92456000Y-110236000D03*
X91033000Y-105410000D03*
X137414000Y-109982000D03*
X139446000Y-128270000D03*
X124714000Y-70612000D03*
X113284000Y-61214000D03*
X139192000Y-111506000D03*
X124460000Y-112268000D03*
X142240000Y-72644000D03*
X122174000Y-89408000D03*
X122428000Y-108712000D03*
X146812000Y-54356000D03*
X127540947Y-102108000D03*
X77470000Y-112522000D03*
X137414000Y-130810000D03*
X79248000Y-112268000D03*
X95250000Y-112522000D03*
X125730000Y-113030000D03*
X142748000Y-68326000D03*
X92456000Y-106426000D03*
X125984000Y-70612000D03*
X137160000Y-72390000D03*
X142240000Y-81280000D03*
X110490000Y-46736000D03*
X110744000Y-126238000D03*
X133096000Y-130810000D03*
X88138000Y-88138000D03*
X89154000Y-81026000D03*
X135890000Y-81026000D03*
X110490000Y-112776000D03*
X120142000Y-89408000D03*
X93218000Y-68072000D03*
X91186000Y-82042000D03*
X121920000Y-87884000D03*
X107442000Y-110236000D03*
X117094000Y-67564000D03*
X120142000Y-87884000D03*
X85598000Y-83058000D03*
X85852000Y-78486000D03*
X106680000Y-102108000D03*
X85852000Y-76708000D03*
X135382000Y-130810000D03*
X95250000Y-50400500D03*
X91694000Y-68072000D03*
X139192000Y-109982000D03*
X77216000Y-119380000D03*
X112268000Y-53848000D03*
X138684000Y-72390000D03*
X130556000Y-102108000D03*
X121412000Y-86360000D03*
X131826000Y-79502000D03*
X93980000Y-76454000D03*
X93472000Y-77978000D03*
X122428000Y-109982000D03*
X119888000Y-86360000D03*
X84582000Y-101208500D03*
X128270000Y-130556000D03*
X132842000Y-70358000D03*
X112268000Y-57404000D03*
X129540000Y-60960000D03*
X134112000Y-81026000D03*
X121412000Y-105664000D03*
X111252000Y-61214000D03*
X126238000Y-130556000D03*
X101092000Y-101600000D03*
X99314000Y-67564000D03*
X140208000Y-129540000D03*
X108966000Y-125730000D03*
X114046000Y-101600000D03*
X139192000Y-71374000D03*
X123698000Y-110744000D03*
X127508000Y-129540000D03*
X81534000Y-66548000D03*
X136398000Y-79502000D03*
X89154000Y-73914000D03*
X89662000Y-82804000D03*
X118618000Y-92202000D03*
X83566000Y-78994000D03*
X138430000Y-129540000D03*
X113030000Y-46736000D03*
X111506000Y-127508000D03*
X112268000Y-55880000D03*
X137442500Y-108486500D03*
X97790000Y-62738000D03*
X130810000Y-130810000D03*
X77216000Y-117602000D03*
X92456000Y-107696000D03*
X134112000Y-79502000D03*
X146812000Y-56134000D03*
X95250000Y-53340000D03*
X81534000Y-68326000D03*
X143256000Y-83058000D03*
X134366000Y-82804000D03*
X83312000Y-68072000D03*
X124206000Y-89408000D03*
X87884000Y-78994000D03*
X146812000Y-57912000D03*
X112268000Y-59182000D03*
X107188000Y-107188000D03*
X110490000Y-124242500D03*
X95504000Y-77978000D03*
X83058000Y-102108000D03*
X109220000Y-69596000D03*
X92964000Y-74676000D03*
X142748000Y-70104000D03*
X83566000Y-77470000D03*
X88138000Y-85852000D03*
X86614000Y-84836000D03*
X109474000Y-127508000D03*
X112014000Y-48768000D03*
X146812000Y-52832000D03*
X86360000Y-101346000D03*
X87122000Y-80518000D03*
X126492000Y-112014000D03*
X92456000Y-108966000D03*
X107442000Y-68326000D03*
X96774000Y-110744000D03*
X96520000Y-61722000D03*
X92202000Y-76454000D03*
X107442000Y-127000000D03*
X77470000Y-110744000D03*
X92456000Y-105410000D03*
X106172000Y-105410000D03*
X131826000Y-81026000D03*
X140462000Y-112776000D03*
X77216000Y-114300000D03*
X135890000Y-73152000D03*
X81534000Y-64516000D03*
X77216000Y-115824000D03*
X99568000Y-101346000D03*
X140970000Y-82804000D03*
X137668000Y-71374000D03*
X127000000Y-69850000D03*
X90932000Y-74676000D03*
X136398000Y-95758000D03*
X83820000Y-81788000D03*
X81534000Y-62738000D03*
X142748000Y-71374000D03*
X107442000Y-108966000D03*
X146812000Y-51054000D03*
X86614000Y-86868000D03*
%TO.N,+5V*%
X103378000Y-101346000D03*
X88392000Y-101055500D03*
X85852000Y-71773500D03*
X101872500Y-71157500D03*
X88392000Y-93827000D03*
X136398000Y-93879500D03*
X115824000Y-94742000D03*
X115875914Y-101565447D03*
X137668000Y-100729500D03*
X135382000Y-71274000D03*
X103225000Y-90410000D03*
X119634000Y-71120000D03*
X103225000Y-93827000D03*
%TO.N,+3.3V*%
X112776000Y-101600000D03*
X115316000Y-73297500D03*
X118277500Y-88224500D03*
X115316000Y-67564000D03*
X112776000Y-105301500D03*
%TO.N,M1_PWM_R'*%
X134087167Y-73297500D03*
X129794000Y-91694000D03*
%TO.N,M3_PWM_R'*%
X105410000Y-73297500D03*
X105410000Y-79337500D03*
%TO.N,M1_PWM_L'*%
X127254000Y-91694000D03*
X118364000Y-73297500D03*
%TO.N,M2_PWM_R'*%
X124714000Y-91694000D03*
X117094000Y-100530947D03*
%TO.N,M4_PWM_R'*%
X101619000Y-81261000D03*
X89763000Y-101092000D03*
%TO.N,M2_PWM_L'*%
X127254000Y-98660500D03*
X134493000Y-102108000D03*
%TO.N,M4_PWM_L'*%
X104775000Y-101346000D03*
X104775000Y-82296000D03*
%TD*%
D18*
%TO.N,GND*%
X128624500Y-48768000D02*
X131914000Y-48768000D01*
X127540947Y-102108000D02*
X127540947Y-103853053D01*
X84481000Y-101309500D02*
X84481000Y-103595500D01*
D19*
X127000000Y-69850000D02*
X127000000Y-68326000D01*
X81041250Y-80554500D02*
X81216000Y-80554500D01*
D18*
X95579750Y-124214000D02*
X92450250Y-124214000D01*
D19*
X81280000Y-71628000D02*
X82550000Y-70358000D01*
X108712000Y-110998000D02*
X110490000Y-112776000D01*
X119634000Y-68326000D02*
X118218000Y-69742000D01*
X99822000Y-103886000D02*
X135128000Y-103886000D01*
D18*
X95250000Y-69488000D02*
X95504000Y-69742000D01*
D19*
X77216000Y-103886000D02*
X76962000Y-104140000D01*
X76962000Y-110236000D02*
X76962000Y-84633750D01*
D18*
X91540500Y-49884500D02*
X91540500Y-49022000D01*
D19*
X93980000Y-120142000D02*
X95579750Y-121741750D01*
D18*
X94702000Y-49022000D02*
X91540500Y-49022000D01*
D19*
X94742000Y-69742000D02*
X93218000Y-69742000D01*
X140716000Y-110236000D02*
X142628000Y-112148000D01*
X108712000Y-103886000D02*
X108712000Y-105410000D01*
X108712000Y-105410000D02*
X108712000Y-110998000D01*
X109366000Y-69742000D02*
X117094000Y-69742000D01*
D18*
X91033000Y-103886000D02*
X91033000Y-105410000D01*
D19*
X127000000Y-68326000D02*
X119634000Y-68326000D01*
D18*
X128624500Y-48768000D02*
X128624500Y-67918500D01*
X99467000Y-101447000D02*
X99467000Y-103378000D01*
D20*
X137442500Y-108486500D02*
X137442500Y-104365500D01*
D19*
X76962000Y-84633750D02*
X81041250Y-80554500D01*
X142628000Y-112148000D02*
X144526000Y-112148000D01*
D18*
X95504000Y-69742000D02*
X94742000Y-69742000D01*
X95250000Y-50400500D02*
X92056500Y-50400500D01*
X110490000Y-124242500D02*
X124645500Y-124242500D01*
X95250000Y-53340000D02*
X95250000Y-69488000D01*
D19*
X123698000Y-103886000D02*
X123698000Y-105664000D01*
X81280000Y-80490500D02*
X81280000Y-71628000D01*
X83166000Y-69742000D02*
X82550000Y-70358000D01*
X140716000Y-80518000D02*
X140716000Y-68326000D01*
X109366000Y-69742000D02*
X99314000Y-69742000D01*
D18*
X131914000Y-48768000D02*
X134300000Y-46382000D01*
D19*
X93218000Y-68072000D02*
X93218000Y-69742000D01*
D18*
X121859500Y-124242500D02*
X121859500Y-127028500D01*
D19*
X118218000Y-69742000D02*
X117094000Y-69742000D01*
X123698000Y-110744000D02*
X123698000Y-109982000D01*
X77470000Y-110744000D02*
X76962000Y-110236000D01*
D20*
X117094000Y-67564000D02*
X117094000Y-69742000D01*
D19*
X93218000Y-69742000D02*
X83166000Y-69742000D01*
D20*
X136398000Y-103886000D02*
X136398000Y-95758000D01*
D18*
X92056500Y-50400500D02*
X91540500Y-49884500D01*
X121412000Y-105664000D02*
X123698000Y-105664000D01*
X82550000Y-70358000D02*
X83312000Y-69596000D01*
X84582000Y-101208500D02*
X84481000Y-101309500D01*
D19*
X95579750Y-121741750D02*
X95579750Y-124214000D01*
X91033000Y-103886000D02*
X99822000Y-103886000D01*
D20*
X99314000Y-67564000D02*
X99314000Y-69742000D01*
D18*
X114046000Y-101600000D02*
X114046000Y-103886000D01*
X83312000Y-69596000D02*
X83312000Y-68072000D01*
D19*
X135128000Y-103886000D02*
X139192000Y-103886000D01*
X123698000Y-105664000D02*
X123698000Y-110744000D01*
X93980000Y-112522000D02*
X93980000Y-120142000D01*
D18*
X127561000Y-124242500D02*
X124645500Y-124242500D01*
D19*
X139769000Y-81465000D02*
X140716000Y-80518000D01*
D18*
X95250000Y-112522000D02*
X93980000Y-112522000D01*
X99568000Y-101346000D02*
X99467000Y-101447000D01*
X84481000Y-103595500D02*
X84227000Y-103849500D01*
D19*
X81216000Y-80554500D02*
X81280000Y-80490500D01*
X93980000Y-110236000D02*
X93980000Y-112522000D01*
X142748000Y-68326000D02*
X127000000Y-68326000D01*
X138240000Y-81465000D02*
X139769000Y-81465000D01*
X91033000Y-103886000D02*
X77216000Y-103886000D01*
X99314000Y-69742000D02*
X94742000Y-69742000D01*
D18*
X97242000Y-46482000D02*
X94702000Y-49022000D01*
X92450250Y-124214000D02*
X89664250Y-127000000D01*
X124645500Y-124242500D02*
X121859500Y-124242500D01*
D20*
X135128000Y-103886000D02*
X136398000Y-103886000D01*
D18*
X106172000Y-105410000D02*
X108712000Y-105410000D01*
D19*
X139192000Y-103886000D02*
X140716000Y-105410000D01*
X140716000Y-105410000D02*
X140716000Y-110236000D01*
D20*
X132842000Y-70358000D02*
X132842000Y-68326000D01*
D19*
X93980000Y-110236000D02*
X93980000Y-103886000D01*
D18*
%TO.N,+5V*%
X120142000Y-72136000D02*
X134520000Y-72136000D01*
X136398000Y-93879500D02*
X137668000Y-95149500D01*
D20*
X101872500Y-71157500D02*
X101854000Y-71176000D01*
D18*
X137668000Y-95149500D02*
X137668000Y-100729500D01*
X134520000Y-72136000D02*
X135382000Y-71274000D01*
D20*
X119634000Y-72136000D02*
X120142000Y-72136000D01*
D18*
X85852000Y-71773500D02*
X86214500Y-72136000D01*
D20*
X103225000Y-93827000D02*
X103225000Y-101346000D01*
D18*
X120142000Y-72136000D02*
X102616000Y-72136000D01*
X103124000Y-90309000D02*
X103225000Y-90410000D01*
X86214500Y-72136000D02*
X103124000Y-72136000D01*
X103124000Y-72136000D02*
X103124000Y-90309000D01*
D20*
X101854000Y-71176000D02*
X101854000Y-72136000D01*
X119634000Y-71120000D02*
X119634000Y-72136000D01*
X115824000Y-101513533D02*
X115875914Y-101565447D01*
X115824000Y-94742000D02*
X115824000Y-101513533D01*
X88392000Y-93827000D02*
X88392000Y-101055500D01*
D18*
%TO.N,+3.3V*%
X118277500Y-88224500D02*
X118277500Y-89748500D01*
X97304750Y-126859500D02*
X97164250Y-127000000D01*
X128205506Y-122936000D02*
X129286000Y-124016494D01*
X112776000Y-122936000D02*
X128205506Y-122936000D01*
X89815500Y-49937500D02*
X89815500Y-49022000D01*
X115316000Y-51562000D02*
X115316000Y-50038000D01*
X126899500Y-46481500D02*
X126800000Y-46382000D01*
X118277500Y-89748500D02*
X112776000Y-95250000D01*
X97304750Y-124214000D02*
X98582750Y-122936000D01*
X97304750Y-124214000D02*
X97304750Y-126859500D01*
X91440000Y-51562000D02*
X89815500Y-49937500D01*
X115316000Y-51562000D02*
X91440000Y-51562000D01*
X115316000Y-73297500D02*
X115316000Y-75438000D01*
X89815500Y-49022000D02*
X89815500Y-46555500D01*
X126899500Y-48768000D02*
X126899500Y-46481500D01*
X112776000Y-95250000D02*
X112776000Y-101600000D01*
X89815500Y-46555500D02*
X89742000Y-46482000D01*
X98582750Y-122936000D02*
X112776000Y-122936000D01*
X118277500Y-78399500D02*
X118277500Y-88224500D01*
X115316000Y-75438000D02*
X118277500Y-78399500D01*
X115316000Y-67564000D02*
X115316000Y-51562000D01*
X116586000Y-48768000D02*
X126899500Y-48768000D01*
X112776000Y-105301500D02*
X112776000Y-122936000D01*
X129286000Y-126955000D02*
X129359500Y-127028500D01*
X129286000Y-124242500D02*
X129286000Y-126955000D01*
X129286000Y-124016494D02*
X129286000Y-124242500D01*
X115316000Y-50038000D02*
X116586000Y-48768000D01*
%TO.N,M1_ENC_B*%
X129300000Y-46382000D02*
X127468000Y-44550000D01*
X127468000Y-44550000D02*
X86514000Y-44550000D01*
X79629000Y-73063000D02*
X77000000Y-75692000D01*
X74892000Y-75692000D02*
X73914000Y-74714000D01*
X86514000Y-44550000D02*
X79629000Y-51435000D01*
X73914000Y-74714000D02*
X73914000Y-73152000D01*
X79629000Y-51435000D02*
X79629000Y-73063000D01*
X73914000Y-73152000D02*
X75852000Y-71214000D01*
X75852000Y-71214000D02*
X75946000Y-71214000D01*
X77000000Y-75692000D02*
X74892000Y-75692000D01*
%TO.N,M1_ENC_A*%
X86360000Y-42926000D02*
X128344000Y-42926000D01*
X78486000Y-50800000D02*
X86360000Y-42926000D01*
X75946000Y-73660000D02*
X78486000Y-71120000D01*
X78486000Y-71120000D02*
X78486000Y-50800000D01*
X128344000Y-42926000D02*
X131800000Y-46382000D01*
X75946000Y-73714000D02*
X75946000Y-73660000D01*
%TO.N,M4_ENC_B*%
X83064054Y-129892500D02*
X91849500Y-129892500D01*
X94664250Y-127077750D02*
X94664250Y-127000000D01*
X71374000Y-60786000D02*
X71374000Y-118202446D01*
X91849500Y-129892500D02*
X94664250Y-127077750D01*
X71374000Y-118202446D02*
X83064054Y-129892500D01*
X75946000Y-56214000D02*
X71374000Y-60786000D01*
%TO.N,M4_ENC_A*%
X75946000Y-58714000D02*
X72517000Y-62143000D01*
X72517000Y-62143000D02*
X72517000Y-117729000D01*
X83537500Y-128749500D02*
X85852000Y-128749500D01*
X72517000Y-117729000D02*
X83537500Y-128749500D01*
X84657250Y-128749500D02*
X90414750Y-128749500D01*
X90414750Y-128749500D02*
X92164250Y-127000000D01*
D20*
%TO.N,M1_PWM_R'*%
X134087167Y-73297500D02*
X129794000Y-77590667D01*
X129794000Y-77590667D02*
X129794000Y-91694000D01*
%TO.N,M3_PWM_R'*%
X105410000Y-79337500D02*
X105410000Y-73297500D01*
%TO.N,M1_PWM_L'*%
X118472500Y-73406000D02*
X122682000Y-73406000D01*
X122682000Y-73406000D02*
X127254000Y-77978000D01*
X118364000Y-73297500D02*
X118472500Y-73406000D01*
X127254000Y-77978000D02*
X127254000Y-91694000D01*
%TO.N,M2_PWM_R'*%
X117094000Y-100530947D02*
X117094000Y-96774000D01*
X117094000Y-96774000D02*
X122174000Y-91694000D01*
X122174000Y-91694000D02*
X124714000Y-91694000D01*
%TO.N,M4_PWM_R'*%
X99822000Y-92456000D02*
X101619000Y-90659000D01*
X89763000Y-101092000D02*
X89763000Y-93117000D01*
X101619000Y-90659000D02*
X101619000Y-81261000D01*
X89763000Y-93117000D02*
X90424000Y-92456000D01*
X90424000Y-92456000D02*
X99822000Y-92456000D01*
%TO.N,M2_PWM_L'*%
X134493000Y-99695000D02*
X134493000Y-102108000D01*
X133458500Y-98660500D02*
X134493000Y-99695000D01*
X127254000Y-98660500D02*
X133458500Y-98660500D01*
X127254000Y-98660500D02*
X127362500Y-98552000D01*
%TO.N,M4_PWM_L'*%
X104775000Y-82296000D02*
X104775000Y-101346000D01*
%TD*%
%TA.AperFunction,Conductor*%
%TO.N,GND*%
G36*
X143191257Y-42057185D02*
G01*
X143237012Y-42109989D01*
X143246956Y-42179147D01*
X143217931Y-42242703D01*
X143168656Y-42277264D01*
X143018802Y-42334787D01*
X142673206Y-42510877D01*
X142347917Y-42722122D01*
X142046488Y-42966215D01*
X142046480Y-42966222D01*
X141772222Y-43240480D01*
X141772215Y-43240488D01*
X141528122Y-43541917D01*
X141316877Y-43867206D01*
X141140787Y-44212802D01*
X141001788Y-44574905D01*
X140901397Y-44949570D01*
X140901397Y-44949572D01*
X140840722Y-45332660D01*
X140820422Y-45719999D01*
X140820422Y-45720000D01*
X140840722Y-46107339D01*
X140884224Y-46382000D01*
X140901398Y-46490433D01*
X140999975Y-46858330D01*
X141001788Y-46865094D01*
X141140787Y-47227197D01*
X141316877Y-47572793D01*
X141528122Y-47898082D01*
X141720503Y-48135652D01*
X141772219Y-48199516D01*
X142046484Y-48473781D01*
X142214375Y-48609737D01*
X142347917Y-48717877D01*
X142673206Y-48929122D01*
X142673211Y-48929125D01*
X143018806Y-49105214D01*
X143380913Y-49244214D01*
X143755567Y-49344602D01*
X144138662Y-49405278D01*
X144504576Y-49424455D01*
X144525999Y-49425578D01*
X144526000Y-49425578D01*
X144526001Y-49425578D01*
X144546300Y-49424514D01*
X144913338Y-49405278D01*
X145296433Y-49344602D01*
X145671087Y-49244214D01*
X146033194Y-49105214D01*
X146378789Y-48929125D01*
X146704084Y-48717876D01*
X147005516Y-48473781D01*
X147279781Y-48199516D01*
X147523876Y-47898084D01*
X147735125Y-47572789D01*
X147911214Y-47227194D01*
X148050214Y-46865087D01*
X148091726Y-46710161D01*
X148128090Y-46650503D01*
X148190937Y-46619974D01*
X148260313Y-46628269D01*
X148314190Y-46672754D01*
X148335465Y-46739306D01*
X148335500Y-46742257D01*
X148335500Y-126739742D01*
X148315815Y-126806781D01*
X148263011Y-126852536D01*
X148193853Y-126862480D01*
X148130297Y-126833455D01*
X148092523Y-126774677D01*
X148091725Y-126771836D01*
X148050214Y-126616913D01*
X147911214Y-126254806D01*
X147735125Y-125909211D01*
X147721646Y-125888455D01*
X147523877Y-125583917D01*
X147279784Y-125282488D01*
X147279781Y-125282484D01*
X147005516Y-125008219D01*
X146922322Y-124940850D01*
X146704082Y-124764122D01*
X146378793Y-124552877D01*
X146033197Y-124376787D01*
X145671094Y-124237788D01*
X145671087Y-124237786D01*
X145296433Y-124137398D01*
X145296429Y-124137397D01*
X145296428Y-124137397D01*
X144913339Y-124076722D01*
X144526001Y-124056422D01*
X144525999Y-124056422D01*
X144138660Y-124076722D01*
X143755572Y-124137397D01*
X143755570Y-124137397D01*
X143380905Y-124237788D01*
X143018802Y-124376787D01*
X142673206Y-124552877D01*
X142347917Y-124764122D01*
X142046488Y-125008215D01*
X142046480Y-125008222D01*
X141772222Y-125282480D01*
X141772215Y-125282488D01*
X141528122Y-125583917D01*
X141316877Y-125909206D01*
X141140787Y-126254802D01*
X141001788Y-126616905D01*
X140901397Y-126991570D01*
X140901397Y-126991572D01*
X140840722Y-127374660D01*
X140820422Y-127761999D01*
X140820422Y-127762000D01*
X140840722Y-128149339D01*
X140901397Y-128532427D01*
X140901397Y-128532429D01*
X141001788Y-128907094D01*
X141140787Y-129269197D01*
X141316877Y-129614793D01*
X141528122Y-129940082D01*
X141528124Y-129940084D01*
X141772219Y-130241516D01*
X142046484Y-130515781D01*
X142148506Y-130598397D01*
X142347917Y-130759877D01*
X142673206Y-130971122D01*
X142673211Y-130971125D01*
X143018806Y-131147214D01*
X143168656Y-131204736D01*
X143224188Y-131247138D01*
X143247981Y-131312832D01*
X143232479Y-131380961D01*
X143182606Y-131429893D01*
X143124218Y-131444500D01*
X75844782Y-131444500D01*
X75777743Y-131424815D01*
X75731988Y-131372011D01*
X75722044Y-131302853D01*
X75751069Y-131239297D01*
X75800344Y-131204736D01*
X75950194Y-131147214D01*
X76295789Y-130971125D01*
X76621084Y-130759876D01*
X76922516Y-130515781D01*
X77196781Y-130241516D01*
X77440876Y-129940084D01*
X77652125Y-129614789D01*
X77828214Y-129269194D01*
X77967214Y-128907087D01*
X78067602Y-128532433D01*
X78128278Y-128149338D01*
X78148578Y-127762000D01*
X78128278Y-127374662D01*
X78067602Y-126991567D01*
X77967214Y-126616913D01*
X77828214Y-126254806D01*
X77818475Y-126235692D01*
X77805578Y-126167023D01*
X77831853Y-126102282D01*
X77888959Y-126062025D01*
X77958765Y-126059031D01*
X78016640Y-126091715D01*
X82413625Y-130488700D01*
X82417029Y-130492393D01*
X82454270Y-130536237D01*
X82454271Y-130536238D01*
X82520430Y-130586531D01*
X82521753Y-130587565D01*
X82535229Y-130598397D01*
X82586507Y-130639616D01*
X82586514Y-130639619D01*
X82586515Y-130639620D01*
X82586744Y-130639734D01*
X82606694Y-130652108D01*
X82606913Y-130652274D01*
X82682340Y-130687170D01*
X82683856Y-130687896D01*
X82758280Y-130724807D01*
X82758509Y-130724864D01*
X82758541Y-130724872D01*
X82780682Y-130732667D01*
X82780930Y-130732782D01*
X82780931Y-130732782D01*
X82780933Y-130732783D01*
X82808956Y-130738951D01*
X82862106Y-130750650D01*
X82863698Y-130751024D01*
X82892269Y-130758128D01*
X82944350Y-130771081D01*
X82944619Y-130771088D01*
X82967925Y-130773943D01*
X82968184Y-130774000D01*
X82968185Y-130774000D01*
X83051251Y-130774000D01*
X83052929Y-130774023D01*
X83091168Y-130775058D01*
X83136018Y-130776273D01*
X83136292Y-130776220D01*
X83159651Y-130774000D01*
X91811146Y-130774000D01*
X91816181Y-130774205D01*
X91840762Y-130776206D01*
X91873511Y-130778873D01*
X91955902Y-130767647D01*
X91957508Y-130767450D01*
X92040114Y-130758467D01*
X92040369Y-130758380D01*
X92063214Y-130753027D01*
X92063494Y-130752989D01*
X92141548Y-130724311D01*
X92143112Y-130723762D01*
X92221815Y-130697245D01*
X92222039Y-130697110D01*
X92243223Y-130686958D01*
X92243470Y-130686868D01*
X92313527Y-130642087D01*
X92314866Y-130641257D01*
X92386107Y-130598394D01*
X92386293Y-130598217D01*
X92404806Y-130583743D01*
X92405025Y-130583604D01*
X92463779Y-130524848D01*
X92464950Y-130523708D01*
X92525308Y-130466536D01*
X92525457Y-130466314D01*
X92540411Y-130448216D01*
X94703665Y-128284962D01*
X94764986Y-128251479D01*
X94780525Y-128249118D01*
X94882924Y-128240161D01*
X95094953Y-128183347D01*
X95293896Y-128090579D01*
X95473707Y-127964674D01*
X95628924Y-127809457D01*
X95754829Y-127629646D01*
X95801867Y-127528770D01*
X95848040Y-127476330D01*
X95915233Y-127457178D01*
X95982115Y-127477393D01*
X96026632Y-127528770D01*
X96073669Y-127629642D01*
X96073673Y-127629650D01*
X96199572Y-127809452D01*
X96199577Y-127809458D01*
X96354791Y-127964672D01*
X96354797Y-127964677D01*
X96534599Y-128090576D01*
X96534601Y-128090577D01*
X96534604Y-128090579D01*
X96733547Y-128183347D01*
X96945576Y-128240161D01*
X97092913Y-128253051D01*
X97164248Y-128259292D01*
X97164250Y-128259292D01*
X97164252Y-128259292D01*
X97219047Y-128254498D01*
X97382924Y-128240161D01*
X97594953Y-128183347D01*
X97793896Y-128090579D01*
X97973707Y-127964674D01*
X98128924Y-127809457D01*
X98184176Y-127730547D01*
X98238751Y-127686924D01*
X98308249Y-127679730D01*
X98370604Y-127711252D01*
X98406019Y-127771481D01*
X98409370Y-127798573D01*
X98409396Y-127798571D01*
X98409396Y-127798573D01*
X98409574Y-127798564D01*
X98409729Y-127801473D01*
X98409750Y-127801637D01*
X98409750Y-127801852D01*
X98409751Y-127801876D01*
X98416158Y-127861483D01*
X98466452Y-127996328D01*
X98466456Y-127996335D01*
X98552702Y-128111544D01*
X98552705Y-128111547D01*
X98667914Y-128197793D01*
X98667921Y-128197797D01*
X98802767Y-128248091D01*
X98802766Y-128248091D01*
X98809694Y-128248835D01*
X98862377Y-128254500D01*
X100466122Y-128254499D01*
X100525733Y-128248091D01*
X100660581Y-128197796D01*
X100775796Y-128111546D01*
X100862046Y-127996331D01*
X100912341Y-127861483D01*
X100918750Y-127801873D01*
X100918750Y-127028502D01*
X118100208Y-127028502D01*
X118116845Y-127218675D01*
X118119339Y-127247174D01*
X118176153Y-127459203D01*
X118176154Y-127459206D01*
X118176155Y-127459208D01*
X118268919Y-127658142D01*
X118268923Y-127658150D01*
X118394822Y-127837952D01*
X118394827Y-127837958D01*
X118550041Y-127993172D01*
X118550047Y-127993177D01*
X118729849Y-128119076D01*
X118729851Y-128119077D01*
X118729854Y-128119079D01*
X118928797Y-128211847D01*
X119140826Y-128268661D01*
X119297021Y-128282326D01*
X119359498Y-128287792D01*
X119359500Y-128287792D01*
X119359502Y-128287792D01*
X119414297Y-128282998D01*
X119578174Y-128268661D01*
X119790203Y-128211847D01*
X119989146Y-128119079D01*
X120168957Y-127993174D01*
X120324174Y-127837957D01*
X120450079Y-127658146D01*
X120542847Y-127459203D01*
X120599661Y-127247174D01*
X120618792Y-127028500D01*
X120616298Y-126999997D01*
X120608413Y-126909870D01*
X120599661Y-126809826D01*
X120542847Y-126597797D01*
X120450079Y-126398854D01*
X120450077Y-126398851D01*
X120450076Y-126398849D01*
X120324177Y-126219047D01*
X120324172Y-126219041D01*
X120168958Y-126063827D01*
X120168952Y-126063822D01*
X119989150Y-125937923D01*
X119989142Y-125937919D01*
X119790208Y-125845155D01*
X119790206Y-125845154D01*
X119790203Y-125845153D01*
X119639385Y-125804740D01*
X119578175Y-125788339D01*
X119578168Y-125788338D01*
X119359502Y-125769208D01*
X119359498Y-125769208D01*
X119140831Y-125788338D01*
X119140824Y-125788339D01*
X119035151Y-125816655D01*
X118928797Y-125845153D01*
X118928795Y-125845153D01*
X118928791Y-125845155D01*
X118729857Y-125937919D01*
X118729849Y-125937923D01*
X118550047Y-126063822D01*
X118550041Y-126063827D01*
X118394827Y-126219041D01*
X118394822Y-126219047D01*
X118268923Y-126398849D01*
X118268919Y-126398857D01*
X118176155Y-126597791D01*
X118119339Y-126809824D01*
X118119338Y-126809831D01*
X118100208Y-127028497D01*
X118100208Y-127028502D01*
X100918750Y-127028502D01*
X100918749Y-126198128D01*
X100912341Y-126138517D01*
X100902067Y-126110972D01*
X100862047Y-126003671D01*
X100862043Y-126003664D01*
X100775797Y-125888455D01*
X100775794Y-125888452D01*
X100660585Y-125802206D01*
X100660578Y-125802202D01*
X100525732Y-125751908D01*
X100525733Y-125751908D01*
X100466133Y-125745501D01*
X100466131Y-125745500D01*
X100466123Y-125745500D01*
X100466114Y-125745500D01*
X98862379Y-125745500D01*
X98862373Y-125745501D01*
X98802766Y-125751908D01*
X98667921Y-125802202D01*
X98667914Y-125802206D01*
X98552705Y-125888452D01*
X98552702Y-125888455D01*
X98466456Y-126003664D01*
X98466452Y-126003671D01*
X98426432Y-126110972D01*
X98384561Y-126166906D01*
X98319096Y-126191323D01*
X98250823Y-126176471D01*
X98201418Y-126127066D01*
X98186250Y-126067639D01*
X98186250Y-124949688D01*
X98204712Y-124884591D01*
X98278153Y-124765524D01*
X98278152Y-124765524D01*
X98278158Y-124765516D01*
X98332424Y-124601753D01*
X98342750Y-124500677D01*
X98342749Y-124473991D01*
X98362431Y-124406954D01*
X98379063Y-124386314D01*
X98911559Y-123853819D01*
X98972883Y-123820334D01*
X98999241Y-123817500D01*
X112680131Y-123817500D01*
X112694119Y-123817500D01*
X112714176Y-123819133D01*
X112719255Y-123819965D01*
X112727995Y-123821398D01*
X112798209Y-123817590D01*
X112801564Y-123817500D01*
X127789015Y-123817500D01*
X127856054Y-123837185D01*
X127876696Y-123853819D01*
X128211681Y-124188804D01*
X128245166Y-124250127D01*
X128248000Y-124276485D01*
X128248000Y-124529168D01*
X128248001Y-124529187D01*
X128258325Y-124630252D01*
X128312592Y-124794015D01*
X128312596Y-124794024D01*
X128386038Y-124913091D01*
X128404500Y-124978188D01*
X128404500Y-126166130D01*
X128384815Y-126233169D01*
X128382075Y-126237253D01*
X128268923Y-126398849D01*
X128268921Y-126398853D01*
X128221882Y-126499730D01*
X128175710Y-126552169D01*
X128108516Y-126571321D01*
X128041635Y-126551105D01*
X127997118Y-126499730D01*
X127950080Y-126398857D01*
X127950079Y-126398854D01*
X127950077Y-126398851D01*
X127950076Y-126398849D01*
X127824177Y-126219047D01*
X127824172Y-126219041D01*
X127668958Y-126063827D01*
X127668952Y-126063822D01*
X127489150Y-125937923D01*
X127489142Y-125937919D01*
X127290208Y-125845155D01*
X127290206Y-125845154D01*
X127290203Y-125845153D01*
X127139385Y-125804740D01*
X127078175Y-125788339D01*
X127078168Y-125788338D01*
X126859502Y-125769208D01*
X126859498Y-125769208D01*
X126640831Y-125788338D01*
X126640824Y-125788339D01*
X126535151Y-125816655D01*
X126428797Y-125845153D01*
X126428795Y-125845153D01*
X126428791Y-125845155D01*
X126229857Y-125937919D01*
X126229849Y-125937923D01*
X126050047Y-126063822D01*
X126050041Y-126063827D01*
X125894827Y-126219041D01*
X125894822Y-126219047D01*
X125768923Y-126398849D01*
X125768921Y-126398853D01*
X125721882Y-126499730D01*
X125675710Y-126552169D01*
X125608516Y-126571321D01*
X125541635Y-126551105D01*
X125497118Y-126499730D01*
X125450080Y-126398857D01*
X125450079Y-126398854D01*
X125450077Y-126398851D01*
X125450076Y-126398849D01*
X125324177Y-126219047D01*
X125324172Y-126219041D01*
X125168958Y-126063827D01*
X125168952Y-126063822D01*
X124989150Y-125937923D01*
X124989142Y-125937919D01*
X124790208Y-125845155D01*
X124790206Y-125845154D01*
X124790203Y-125845153D01*
X124639385Y-125804740D01*
X124578175Y-125788339D01*
X124578168Y-125788338D01*
X124359502Y-125769208D01*
X124359498Y-125769208D01*
X124140831Y-125788338D01*
X124140824Y-125788339D01*
X124035151Y-125816655D01*
X123928797Y-125845153D01*
X123928795Y-125845153D01*
X123928791Y-125845155D01*
X123729857Y-125937919D01*
X123729849Y-125937923D01*
X123550047Y-126063822D01*
X123550041Y-126063827D01*
X123394827Y-126219041D01*
X123394822Y-126219047D01*
X123268923Y-126398849D01*
X123268919Y-126398857D01*
X123176155Y-126597791D01*
X123119339Y-126809824D01*
X123119338Y-126809831D01*
X123100208Y-127028497D01*
X123100208Y-127028502D01*
X123116845Y-127218675D01*
X123119339Y-127247174D01*
X123176153Y-127459203D01*
X123176154Y-127459206D01*
X123176155Y-127459208D01*
X123268919Y-127658142D01*
X123268923Y-127658150D01*
X123394822Y-127837952D01*
X123394827Y-127837958D01*
X123550041Y-127993172D01*
X123550047Y-127993177D01*
X123729849Y-128119076D01*
X123729851Y-128119077D01*
X123729854Y-128119079D01*
X123928797Y-128211847D01*
X124140826Y-128268661D01*
X124297021Y-128282326D01*
X124359498Y-128287792D01*
X124359500Y-128287792D01*
X124359502Y-128287792D01*
X124414297Y-128282998D01*
X124578174Y-128268661D01*
X124790203Y-128211847D01*
X124989146Y-128119079D01*
X125168957Y-127993174D01*
X125324174Y-127837957D01*
X125450079Y-127658146D01*
X125497117Y-127557270D01*
X125543290Y-127504830D01*
X125610483Y-127485678D01*
X125677365Y-127505893D01*
X125721882Y-127557270D01*
X125768919Y-127658142D01*
X125768923Y-127658150D01*
X125894822Y-127837952D01*
X125894827Y-127837958D01*
X126050041Y-127993172D01*
X126050047Y-127993177D01*
X126229849Y-128119076D01*
X126229851Y-128119077D01*
X126229854Y-128119079D01*
X126428797Y-128211847D01*
X126640826Y-128268661D01*
X126797021Y-128282326D01*
X126859498Y-128287792D01*
X126859500Y-128287792D01*
X126859502Y-128287792D01*
X126914297Y-128282998D01*
X127078174Y-128268661D01*
X127290203Y-128211847D01*
X127489146Y-128119079D01*
X127668957Y-127993174D01*
X127824174Y-127837957D01*
X127950079Y-127658146D01*
X127997117Y-127557270D01*
X128043290Y-127504830D01*
X128110483Y-127485678D01*
X128177365Y-127505893D01*
X128221882Y-127557270D01*
X128268919Y-127658142D01*
X128268923Y-127658150D01*
X128394822Y-127837952D01*
X128394827Y-127837958D01*
X128550041Y-127993172D01*
X128550047Y-127993177D01*
X128729849Y-128119076D01*
X128729851Y-128119077D01*
X128729854Y-128119079D01*
X128928797Y-128211847D01*
X129140826Y-128268661D01*
X129297021Y-128282326D01*
X129359498Y-128287792D01*
X129359500Y-128287792D01*
X129359502Y-128287792D01*
X129414297Y-128282998D01*
X129578174Y-128268661D01*
X129790203Y-128211847D01*
X129989146Y-128119079D01*
X130168957Y-127993174D01*
X130324174Y-127837957D01*
X130379426Y-127759047D01*
X130434001Y-127715424D01*
X130503499Y-127708230D01*
X130565854Y-127739752D01*
X130601269Y-127799981D01*
X130604620Y-127827073D01*
X130604646Y-127827071D01*
X130604646Y-127827073D01*
X130604824Y-127827064D01*
X130604979Y-127829973D01*
X130605000Y-127830137D01*
X130605000Y-127830352D01*
X130605001Y-127830376D01*
X130611408Y-127889983D01*
X130661702Y-128024828D01*
X130661706Y-128024835D01*
X130747952Y-128140044D01*
X130747955Y-128140047D01*
X130863164Y-128226293D01*
X130863171Y-128226297D01*
X130998017Y-128276591D01*
X130998016Y-128276591D01*
X131004944Y-128277335D01*
X131057627Y-128283000D01*
X132661372Y-128282999D01*
X132720983Y-128276591D01*
X132855831Y-128226296D01*
X132971046Y-128140046D01*
X133057296Y-128024831D01*
X133107591Y-127889983D01*
X133114000Y-127830373D01*
X133113999Y-126226628D01*
X133107591Y-126167017D01*
X133107260Y-126166130D01*
X133057297Y-126032171D01*
X133057293Y-126032164D01*
X132971047Y-125916955D01*
X132971044Y-125916952D01*
X132855835Y-125830706D01*
X132855828Y-125830702D01*
X132720982Y-125780408D01*
X132720983Y-125780408D01*
X132661383Y-125774001D01*
X132661381Y-125774000D01*
X132661373Y-125774000D01*
X132661364Y-125774000D01*
X131057629Y-125774000D01*
X131057623Y-125774001D01*
X130998016Y-125780408D01*
X130863171Y-125830702D01*
X130863164Y-125830706D01*
X130747955Y-125916952D01*
X130747952Y-125916955D01*
X130661706Y-126032164D01*
X130661702Y-126032171D01*
X130611408Y-126167017D01*
X130605815Y-126219043D01*
X130605001Y-126226623D01*
X130605000Y-126226635D01*
X130605000Y-126226826D01*
X130604987Y-126226868D01*
X130604822Y-126229952D01*
X130604093Y-126229912D01*
X130585315Y-126293865D01*
X130532511Y-126339620D01*
X130463353Y-126349564D01*
X130399797Y-126320539D01*
X130379425Y-126297949D01*
X130353853Y-126261429D01*
X130324174Y-126219043D01*
X130203817Y-126098686D01*
X130170334Y-126037364D01*
X130167500Y-126011006D01*
X130167500Y-124978188D01*
X130185962Y-124913091D01*
X130259403Y-124794024D01*
X130259402Y-124794024D01*
X130259408Y-124794016D01*
X130313674Y-124630253D01*
X130324000Y-124529177D01*
X130323999Y-123955824D01*
X130313674Y-123854747D01*
X130259408Y-123690984D01*
X130168840Y-123544150D01*
X130046850Y-123422160D01*
X129900016Y-123331592D01*
X129900014Y-123331591D01*
X129900012Y-123331590D01*
X129900013Y-123331590D01*
X129849705Y-123314919D01*
X129801030Y-123284895D01*
X129718316Y-123202181D01*
X128855933Y-122339798D01*
X128852530Y-122336106D01*
X128815287Y-122292260D01*
X128749128Y-122241967D01*
X128747805Y-122240933D01*
X128683054Y-122188885D01*
X128683053Y-122188884D01*
X128682803Y-122188760D01*
X128662875Y-122176399D01*
X128662648Y-122176227D01*
X128662643Y-122176223D01*
X128587219Y-122141329D01*
X128585729Y-122140616D01*
X128562214Y-122128953D01*
X128511286Y-122103695D01*
X128511273Y-122103691D01*
X128511004Y-122103624D01*
X128488883Y-122095834D01*
X128488635Y-122095719D01*
X128488631Y-122095718D01*
X128407477Y-122077853D01*
X128405844Y-122077471D01*
X128325213Y-122057419D01*
X128325203Y-122057418D01*
X128324930Y-122057411D01*
X128301650Y-122054560D01*
X128301380Y-122054500D01*
X128301375Y-122054500D01*
X128218309Y-122054500D01*
X128216631Y-122054477D01*
X128133545Y-122052227D01*
X128133544Y-122052227D01*
X128133542Y-122052227D01*
X128133267Y-122052279D01*
X128109909Y-122054500D01*
X113781500Y-122054500D01*
X113714461Y-122034815D01*
X113668706Y-121982011D01*
X113657500Y-121930500D01*
X113657500Y-109648000D01*
X143266708Y-109648000D01*
X143285839Y-109866674D01*
X143342653Y-110078703D01*
X143342654Y-110078706D01*
X143342655Y-110078708D01*
X143435419Y-110277642D01*
X143435423Y-110277650D01*
X143561322Y-110457452D01*
X143561327Y-110457458D01*
X143716541Y-110612672D01*
X143716547Y-110612677D01*
X143896349Y-110738576D01*
X143896351Y-110738577D01*
X143896354Y-110738579D01*
X144095297Y-110831347D01*
X144307326Y-110888161D01*
X144463521Y-110901826D01*
X144525998Y-110907292D01*
X144526000Y-110907292D01*
X144526002Y-110907292D01*
X144580668Y-110902509D01*
X144744674Y-110888161D01*
X144956703Y-110831347D01*
X145155646Y-110738579D01*
X145335457Y-110612674D01*
X145490674Y-110457457D01*
X145616579Y-110277646D01*
X145709347Y-110078703D01*
X145766161Y-109866674D01*
X145785292Y-109648000D01*
X145766161Y-109429326D01*
X145709347Y-109217297D01*
X145616579Y-109018354D01*
X145616577Y-109018351D01*
X145616576Y-109018349D01*
X145490677Y-108838547D01*
X145490672Y-108838541D01*
X145335458Y-108683327D01*
X145335452Y-108683322D01*
X145155650Y-108557423D01*
X145155642Y-108557419D01*
X145054770Y-108510382D01*
X145002330Y-108464210D01*
X144983178Y-108397017D01*
X145003393Y-108330135D01*
X145054770Y-108285618D01*
X145062860Y-108281845D01*
X145155646Y-108238579D01*
X145335457Y-108112674D01*
X145490674Y-107957457D01*
X145616579Y-107777646D01*
X145709347Y-107578703D01*
X145766161Y-107366674D01*
X145785292Y-107148000D01*
X145766161Y-106929326D01*
X145709347Y-106717297D01*
X145616579Y-106518354D01*
X145616577Y-106518351D01*
X145616576Y-106518349D01*
X145490677Y-106338547D01*
X145490672Y-106338541D01*
X145335458Y-106183327D01*
X145335452Y-106183322D01*
X145155650Y-106057423D01*
X145155642Y-106057419D01*
X145054770Y-106010382D01*
X145002330Y-105964210D01*
X144983178Y-105897017D01*
X145003393Y-105830135D01*
X145054770Y-105785618D01*
X145062860Y-105781845D01*
X145155646Y-105738579D01*
X145335457Y-105612674D01*
X145490674Y-105457457D01*
X145616579Y-105277646D01*
X145709347Y-105078703D01*
X145766161Y-104866674D01*
X145785292Y-104648000D01*
X145766161Y-104429326D01*
X145709347Y-104217297D01*
X145616579Y-104018354D01*
X145616577Y-104018351D01*
X145616576Y-104018349D01*
X145490677Y-103838547D01*
X145490672Y-103838541D01*
X145335458Y-103683327D01*
X145335452Y-103683322D01*
X145155650Y-103557423D01*
X145155642Y-103557419D01*
X145054770Y-103510382D01*
X145002330Y-103464210D01*
X144983178Y-103397017D01*
X145003393Y-103330135D01*
X145054770Y-103285618D01*
X145062860Y-103281845D01*
X145155646Y-103238579D01*
X145335457Y-103112674D01*
X145490674Y-102957457D01*
X145616579Y-102777646D01*
X145709347Y-102578703D01*
X145766161Y-102366674D01*
X145785292Y-102148000D01*
X145783730Y-102130151D01*
X145778117Y-102065997D01*
X145766161Y-101929326D01*
X145709347Y-101717297D01*
X145616579Y-101518354D01*
X145616577Y-101518351D01*
X145616576Y-101518349D01*
X145490677Y-101338547D01*
X145490672Y-101338541D01*
X145335458Y-101183327D01*
X145335452Y-101183322D01*
X145155650Y-101057423D01*
X145155642Y-101057419D01*
X145054770Y-101010382D01*
X145002330Y-100964210D01*
X144983178Y-100897017D01*
X145003393Y-100830135D01*
X145054770Y-100785618D01*
X145062860Y-100781845D01*
X145155646Y-100738579D01*
X145335457Y-100612674D01*
X145490674Y-100457457D01*
X145616579Y-100277646D01*
X145709347Y-100078703D01*
X145766161Y-99866674D01*
X145785024Y-99651061D01*
X145785292Y-99648002D01*
X145785292Y-99647997D01*
X145774692Y-99526837D01*
X145766161Y-99429326D01*
X145709347Y-99217297D01*
X145616579Y-99018354D01*
X145616577Y-99018351D01*
X145616576Y-99018349D01*
X145490677Y-98838547D01*
X145490672Y-98838541D01*
X145335458Y-98683327D01*
X145335452Y-98683322D01*
X145155650Y-98557423D01*
X145155642Y-98557419D01*
X145054770Y-98510382D01*
X145002330Y-98464210D01*
X144983178Y-98397017D01*
X145003393Y-98330135D01*
X145054770Y-98285618D01*
X145062860Y-98281845D01*
X145155646Y-98238579D01*
X145335457Y-98112674D01*
X145490674Y-97957457D01*
X145616579Y-97777646D01*
X145709347Y-97578703D01*
X145766161Y-97366674D01*
X145785292Y-97148000D01*
X145766161Y-96929326D01*
X145709347Y-96717297D01*
X145616579Y-96518354D01*
X145616577Y-96518351D01*
X145616576Y-96518349D01*
X145490677Y-96338547D01*
X145490672Y-96338541D01*
X145335458Y-96183327D01*
X145335452Y-96183322D01*
X145155650Y-96057423D01*
X145155642Y-96057419D01*
X145054770Y-96010382D01*
X145002330Y-95964210D01*
X144983178Y-95897017D01*
X145003393Y-95830135D01*
X145054770Y-95785618D01*
X145062860Y-95781845D01*
X145155646Y-95738579D01*
X145335457Y-95612674D01*
X145490674Y-95457457D01*
X145616579Y-95277646D01*
X145709347Y-95078703D01*
X145766161Y-94866674D01*
X145782136Y-94684073D01*
X145785292Y-94648002D01*
X145785292Y-94647997D01*
X145777046Y-94553744D01*
X145766161Y-94429326D01*
X145709347Y-94217297D01*
X145616579Y-94018354D01*
X145616577Y-94018351D01*
X145616576Y-94018349D01*
X145490677Y-93838547D01*
X145490672Y-93838541D01*
X145335458Y-93683327D01*
X145335452Y-93683322D01*
X145256549Y-93628074D01*
X145212924Y-93573497D01*
X145205730Y-93503999D01*
X145237253Y-93441644D01*
X145297482Y-93406230D01*
X145324573Y-93402881D01*
X145324571Y-93402854D01*
X145324573Y-93402853D01*
X145324564Y-93402676D01*
X145327520Y-93402517D01*
X145327672Y-93402499D01*
X145327871Y-93402499D01*
X145327872Y-93402499D01*
X145387483Y-93396091D01*
X145522331Y-93345796D01*
X145637546Y-93259546D01*
X145723796Y-93144331D01*
X145774091Y-93009483D01*
X145780500Y-92949873D01*
X145780499Y-91346128D01*
X145774091Y-91286517D01*
X145768357Y-91271144D01*
X145723797Y-91151671D01*
X145723793Y-91151664D01*
X145637547Y-91036455D01*
X145637544Y-91036452D01*
X145522335Y-90950206D01*
X145522328Y-90950202D01*
X145387482Y-90899908D01*
X145387483Y-90899908D01*
X145327883Y-90893501D01*
X145327881Y-90893500D01*
X145327873Y-90893500D01*
X145327864Y-90893500D01*
X143724129Y-90893500D01*
X143724123Y-90893501D01*
X143664516Y-90899908D01*
X143529671Y-90950202D01*
X143529664Y-90950206D01*
X143414455Y-91036452D01*
X143414452Y-91036455D01*
X143328206Y-91151664D01*
X143328202Y-91151671D01*
X143277908Y-91286517D01*
X143271501Y-91346116D01*
X143271501Y-91346123D01*
X143271500Y-91346135D01*
X143271500Y-92949870D01*
X143271501Y-92949876D01*
X143277908Y-93009483D01*
X143328202Y-93144328D01*
X143328206Y-93144335D01*
X143414452Y-93259544D01*
X143414455Y-93259547D01*
X143529664Y-93345793D01*
X143529671Y-93345797D01*
X143533661Y-93347285D01*
X143664517Y-93396091D01*
X143724127Y-93402500D01*
X143724294Y-93402499D01*
X143724329Y-93402510D01*
X143727453Y-93402678D01*
X143727413Y-93403414D01*
X143791336Y-93422165D01*
X143837106Y-93474955D01*
X143847069Y-93544111D01*
X143818062Y-93607675D01*
X143795450Y-93628073D01*
X143716550Y-93683319D01*
X143716541Y-93683327D01*
X143561327Y-93838541D01*
X143561322Y-93838547D01*
X143435423Y-94018349D01*
X143435419Y-94018357D01*
X143342655Y-94217291D01*
X143285839Y-94429324D01*
X143285838Y-94429331D01*
X143266708Y-94647997D01*
X143266708Y-94648002D01*
X143285838Y-94866668D01*
X143285839Y-94866675D01*
X143286475Y-94869048D01*
X143342653Y-95078703D01*
X143342654Y-95078706D01*
X143342655Y-95078708D01*
X143435419Y-95277642D01*
X143435423Y-95277650D01*
X143561322Y-95457452D01*
X143561327Y-95457458D01*
X143716541Y-95612672D01*
X143716547Y-95612677D01*
X143896349Y-95738576D01*
X143896351Y-95738577D01*
X143896354Y-95738579D01*
X143984736Y-95779791D01*
X143997230Y-95785618D01*
X144049669Y-95831790D01*
X144068821Y-95898984D01*
X144048605Y-95965865D01*
X143997230Y-96010382D01*
X143896353Y-96057421D01*
X143896349Y-96057423D01*
X143716547Y-96183322D01*
X143716541Y-96183327D01*
X143561327Y-96338541D01*
X143561322Y-96338547D01*
X143435423Y-96518349D01*
X143435419Y-96518357D01*
X143342655Y-96717291D01*
X143285839Y-96929324D01*
X143285838Y-96929331D01*
X143272086Y-97086524D01*
X143266708Y-97148000D01*
X143285839Y-97366674D01*
X143342653Y-97578703D01*
X143342654Y-97578706D01*
X143342655Y-97578708D01*
X143435419Y-97777642D01*
X143435423Y-97777650D01*
X143561322Y-97957452D01*
X143561327Y-97957458D01*
X143716541Y-98112672D01*
X143716547Y-98112677D01*
X143896349Y-98238576D01*
X143896351Y-98238577D01*
X143896354Y-98238579D01*
X143984736Y-98279791D01*
X143997230Y-98285618D01*
X144049669Y-98331790D01*
X144068821Y-98398984D01*
X144048605Y-98465865D01*
X143997230Y-98510382D01*
X143896353Y-98557421D01*
X143896349Y-98557423D01*
X143716547Y-98683322D01*
X143716541Y-98683327D01*
X143561327Y-98838541D01*
X143561322Y-98838547D01*
X143435423Y-99018349D01*
X143435419Y-99018357D01*
X143342655Y-99217291D01*
X143342653Y-99217295D01*
X143342653Y-99217297D01*
X143323503Y-99288764D01*
X143285839Y-99429324D01*
X143285838Y-99429331D01*
X143266708Y-99647997D01*
X143266708Y-99648002D01*
X143275628Y-99749965D01*
X143285839Y-99866674D01*
X143342653Y-100078703D01*
X143342654Y-100078706D01*
X143342655Y-100078708D01*
X143435419Y-100277642D01*
X143435423Y-100277650D01*
X143561322Y-100457452D01*
X143561327Y-100457458D01*
X143716541Y-100612672D01*
X143716547Y-100612677D01*
X143896349Y-100738576D01*
X143896351Y-100738577D01*
X143896354Y-100738579D01*
X143984736Y-100779791D01*
X143997230Y-100785618D01*
X144049669Y-100831790D01*
X144068821Y-100898984D01*
X144048605Y-100965865D01*
X143997230Y-101010382D01*
X143896353Y-101057421D01*
X143896349Y-101057423D01*
X143716547Y-101183322D01*
X143716541Y-101183327D01*
X143561327Y-101338541D01*
X143561322Y-101338547D01*
X143435423Y-101518349D01*
X143435419Y-101518357D01*
X143342655Y-101717291D01*
X143342653Y-101717295D01*
X143342653Y-101717297D01*
X143318642Y-101806902D01*
X143285839Y-101929324D01*
X143285838Y-101929331D01*
X143266708Y-102147997D01*
X143266708Y-102148002D01*
X143284344Y-102349595D01*
X143285839Y-102366674D01*
X143342653Y-102578703D01*
X143342654Y-102578706D01*
X143342655Y-102578708D01*
X143435419Y-102777642D01*
X143435423Y-102777650D01*
X143561322Y-102957452D01*
X143561327Y-102957458D01*
X143716541Y-103112672D01*
X143716547Y-103112677D01*
X143896349Y-103238576D01*
X143896351Y-103238577D01*
X143896354Y-103238579D01*
X143984736Y-103279791D01*
X143997230Y-103285618D01*
X144049669Y-103331790D01*
X144068821Y-103398984D01*
X144048605Y-103465865D01*
X143997230Y-103510382D01*
X143896353Y-103557421D01*
X143896349Y-103557423D01*
X143716547Y-103683322D01*
X143716541Y-103683327D01*
X143561327Y-103838541D01*
X143561322Y-103838547D01*
X143435423Y-104018349D01*
X143435419Y-104018357D01*
X143342655Y-104217291D01*
X143285839Y-104429324D01*
X143285838Y-104429331D01*
X143266708Y-104647997D01*
X143266708Y-104648002D01*
X143277318Y-104769285D01*
X143285839Y-104866674D01*
X143342653Y-105078703D01*
X143342654Y-105078706D01*
X143342655Y-105078708D01*
X143435419Y-105277642D01*
X143435423Y-105277650D01*
X143561322Y-105457452D01*
X143561327Y-105457458D01*
X143716541Y-105612672D01*
X143716547Y-105612677D01*
X143896349Y-105738576D01*
X143896351Y-105738577D01*
X143896354Y-105738579D01*
X143984736Y-105779791D01*
X143997230Y-105785618D01*
X144049669Y-105831790D01*
X144068821Y-105898984D01*
X144048605Y-105965865D01*
X143997230Y-106010382D01*
X143896353Y-106057421D01*
X143896349Y-106057423D01*
X143716547Y-106183322D01*
X143716541Y-106183327D01*
X143561327Y-106338541D01*
X143561322Y-106338547D01*
X143435423Y-106518349D01*
X143435419Y-106518357D01*
X143342655Y-106717291D01*
X143285839Y-106929324D01*
X143285838Y-106929331D01*
X143266708Y-107147997D01*
X143266708Y-107148000D01*
X143285839Y-107366674D01*
X143342653Y-107578703D01*
X143342654Y-107578706D01*
X143342655Y-107578708D01*
X143435419Y-107777642D01*
X143435423Y-107777650D01*
X143561322Y-107957452D01*
X143561327Y-107957458D01*
X143716541Y-108112672D01*
X143716547Y-108112677D01*
X143896349Y-108238576D01*
X143896351Y-108238577D01*
X143896354Y-108238579D01*
X143984736Y-108279791D01*
X143997230Y-108285618D01*
X144049669Y-108331790D01*
X144068821Y-108398984D01*
X144048605Y-108465865D01*
X143997230Y-108510382D01*
X143896353Y-108557421D01*
X143896349Y-108557423D01*
X143716547Y-108683322D01*
X143716541Y-108683327D01*
X143561327Y-108838541D01*
X143561322Y-108838547D01*
X143435423Y-109018349D01*
X143435419Y-109018357D01*
X143342655Y-109217291D01*
X143285839Y-109429324D01*
X143285838Y-109429331D01*
X143266708Y-109647997D01*
X143266708Y-109648000D01*
X113657500Y-109648000D01*
X113657500Y-105522241D01*
X113661603Y-105496389D01*
X113660322Y-105496117D01*
X113661672Y-105489761D01*
X113661674Y-105489756D01*
X113681460Y-105301500D01*
X113661674Y-105113244D01*
X113603179Y-104933216D01*
X113508533Y-104769284D01*
X113381871Y-104628612D01*
X113381870Y-104628611D01*
X113228734Y-104517351D01*
X113228729Y-104517348D01*
X113055807Y-104440357D01*
X113055802Y-104440355D01*
X112910001Y-104409365D01*
X112870646Y-104401000D01*
X112681354Y-104401000D01*
X112648897Y-104407898D01*
X112496197Y-104440355D01*
X112496192Y-104440357D01*
X112323270Y-104517348D01*
X112323265Y-104517351D01*
X112170129Y-104628611D01*
X112043466Y-104769285D01*
X111948821Y-104933215D01*
X111948818Y-104933222D01*
X111901549Y-105078703D01*
X111890326Y-105113244D01*
X111870540Y-105301500D01*
X111886931Y-105457458D01*
X111890327Y-105489761D01*
X111891678Y-105496117D01*
X111890428Y-105496382D01*
X111894499Y-105522241D01*
X111894500Y-121930500D01*
X111874815Y-121997539D01*
X111822011Y-122043294D01*
X111770500Y-122054500D01*
X98621104Y-122054500D01*
X98616069Y-122054295D01*
X98558742Y-122049626D01*
X98558733Y-122049627D01*
X98476386Y-122060845D01*
X98474722Y-122061049D01*
X98392132Y-122070033D01*
X98392122Y-122070036D01*
X98391858Y-122070125D01*
X98369048Y-122075470D01*
X98368761Y-122075509D01*
X98368757Y-122075510D01*
X98290734Y-122104174D01*
X98289152Y-122104731D01*
X98210438Y-122131253D01*
X98210426Y-122131259D01*
X98210181Y-122131407D01*
X98189065Y-122141526D01*
X98188791Y-122141626D01*
X98188780Y-122141632D01*
X98118772Y-122186378D01*
X98117347Y-122187262D01*
X98046146Y-122230103D01*
X98046132Y-122230114D01*
X98045926Y-122230310D01*
X98027471Y-122244738D01*
X98027232Y-122244890D01*
X98027220Y-122244899D01*
X97968466Y-122303652D01*
X97967265Y-122304821D01*
X97906939Y-122361966D01*
X97906937Y-122361968D01*
X97906778Y-122362204D01*
X97891836Y-122380283D01*
X97069938Y-123202181D01*
X97008615Y-123235666D01*
X96982261Y-123238500D01*
X96955583Y-123238500D01*
X96955562Y-123238501D01*
X96854497Y-123248825D01*
X96690734Y-123303092D01*
X96690731Y-123303093D01*
X96543898Y-123393661D01*
X96421911Y-123515648D01*
X96331343Y-123662481D01*
X96331341Y-123662484D01*
X96331342Y-123662484D01*
X96277076Y-123826247D01*
X96277076Y-123826248D01*
X96277075Y-123826248D01*
X96266750Y-123927315D01*
X96266750Y-124500669D01*
X96266751Y-124500687D01*
X96277075Y-124601752D01*
X96331342Y-124765515D01*
X96331346Y-124765524D01*
X96404788Y-124884591D01*
X96423250Y-124949688D01*
X96423250Y-125922841D01*
X96403565Y-125989880D01*
X96370376Y-126024414D01*
X96354797Y-126035322D01*
X96354789Y-126035329D01*
X96199577Y-126190541D01*
X96199572Y-126190547D01*
X96073673Y-126370349D01*
X96073671Y-126370353D01*
X96026632Y-126471230D01*
X95980460Y-126523669D01*
X95913266Y-126542821D01*
X95846385Y-126522605D01*
X95801868Y-126471230D01*
X95768120Y-126398857D01*
X95754829Y-126370354D01*
X95754827Y-126370351D01*
X95754826Y-126370349D01*
X95628927Y-126190547D01*
X95628922Y-126190541D01*
X95473708Y-126035327D01*
X95473702Y-126035322D01*
X95293900Y-125909423D01*
X95293892Y-125909419D01*
X95094958Y-125816655D01*
X95094956Y-125816654D01*
X95094953Y-125816653D01*
X94944135Y-125776240D01*
X94882925Y-125759839D01*
X94882918Y-125759838D01*
X94664252Y-125740708D01*
X94664248Y-125740708D01*
X94445581Y-125759838D01*
X94445574Y-125759839D01*
X94339218Y-125788338D01*
X94233547Y-125816653D01*
X94233545Y-125816653D01*
X94233541Y-125816655D01*
X94034607Y-125909419D01*
X94034599Y-125909423D01*
X93854797Y-126035322D01*
X93854791Y-126035327D01*
X93699577Y-126190541D01*
X93699572Y-126190547D01*
X93573673Y-126370349D01*
X93573671Y-126370353D01*
X93526632Y-126471230D01*
X93480460Y-126523669D01*
X93413266Y-126542821D01*
X93346385Y-126522605D01*
X93301868Y-126471230D01*
X93268120Y-126398857D01*
X93254829Y-126370354D01*
X93254827Y-126370351D01*
X93254826Y-126370349D01*
X93128927Y-126190547D01*
X93128922Y-126190541D01*
X92973708Y-126035327D01*
X92973702Y-126035322D01*
X92793900Y-125909423D01*
X92793892Y-125909419D01*
X92594958Y-125816655D01*
X92594956Y-125816654D01*
X92594953Y-125816653D01*
X92444135Y-125776240D01*
X92382925Y-125759839D01*
X92382918Y-125759838D01*
X92164252Y-125740708D01*
X92164248Y-125740708D01*
X91945581Y-125759838D01*
X91945574Y-125759839D01*
X91839218Y-125788338D01*
X91733547Y-125816653D01*
X91733545Y-125816653D01*
X91733541Y-125816655D01*
X91534607Y-125909419D01*
X91534599Y-125909423D01*
X91354797Y-126035322D01*
X91354791Y-126035327D01*
X91199577Y-126190541D01*
X91199572Y-126190547D01*
X91073673Y-126370349D01*
X91073669Y-126370357D01*
X90980905Y-126569291D01*
X90980903Y-126569295D01*
X90980903Y-126569297D01*
X90968146Y-126616905D01*
X90924089Y-126781324D01*
X90924088Y-126781331D01*
X90907677Y-126968914D01*
X90882225Y-127033983D01*
X90871830Y-127045788D01*
X90085940Y-127831681D01*
X90024617Y-127865166D01*
X89998259Y-127868000D01*
X88326134Y-127868000D01*
X88259095Y-127848315D01*
X88213340Y-127795511D01*
X88203396Y-127726353D01*
X88224559Y-127672877D01*
X88235385Y-127657414D01*
X88254829Y-127629646D01*
X88347597Y-127430703D01*
X88404411Y-127218674D01*
X88420569Y-127033983D01*
X88423542Y-127000002D01*
X88423542Y-126999997D01*
X88409750Y-126842357D01*
X88404411Y-126781326D01*
X88347597Y-126569297D01*
X88254829Y-126370354D01*
X88254827Y-126370351D01*
X88254826Y-126370349D01*
X88128927Y-126190547D01*
X88128922Y-126190541D01*
X87973708Y-126035327D01*
X87973702Y-126035322D01*
X87793900Y-125909423D01*
X87793892Y-125909419D01*
X87594958Y-125816655D01*
X87594956Y-125816654D01*
X87594953Y-125816653D01*
X87444135Y-125776240D01*
X87382925Y-125759839D01*
X87382918Y-125759838D01*
X87164252Y-125740708D01*
X87164248Y-125740708D01*
X86945581Y-125759838D01*
X86945574Y-125759839D01*
X86839218Y-125788338D01*
X86733547Y-125816653D01*
X86733545Y-125816653D01*
X86733541Y-125816655D01*
X86534607Y-125909419D01*
X86534599Y-125909423D01*
X86354797Y-126035322D01*
X86354791Y-126035327D01*
X86199577Y-126190541D01*
X86199572Y-126190547D01*
X86073673Y-126370349D01*
X86073669Y-126370357D01*
X85980905Y-126569291D01*
X85980903Y-126569295D01*
X85980903Y-126569297D01*
X85968146Y-126616905D01*
X85924089Y-126781324D01*
X85924088Y-126781331D01*
X85904958Y-126999997D01*
X85904958Y-127000002D01*
X85921242Y-127186140D01*
X85924089Y-127218674D01*
X85980903Y-127430703D01*
X85980904Y-127430706D01*
X85980905Y-127430708D01*
X86015964Y-127505893D01*
X86073671Y-127629646D01*
X86073674Y-127629650D01*
X86103941Y-127672877D01*
X86126268Y-127739083D01*
X86109258Y-127806851D01*
X86058309Y-127854663D01*
X86002366Y-127868000D01*
X83953992Y-127868000D01*
X83886953Y-127848315D01*
X83866311Y-127831681D01*
X73434819Y-117400189D01*
X73401334Y-117338866D01*
X73398500Y-117312508D01*
X73398500Y-85634500D01*
X79660706Y-85634500D01*
X79679853Y-85877797D01*
X79736830Y-86115119D01*
X79830222Y-86340589D01*
X79957737Y-86548673D01*
X79957738Y-86548676D01*
X79957741Y-86548679D01*
X80116241Y-86734259D01*
X80259897Y-86856953D01*
X80301823Y-86892761D01*
X80301826Y-86892762D01*
X80509910Y-87020277D01*
X80735381Y-87113669D01*
X80735378Y-87113669D01*
X80735384Y-87113670D01*
X80735388Y-87113672D01*
X80972698Y-87170646D01*
X81216000Y-87189794D01*
X81459302Y-87170646D01*
X81696612Y-87113672D01*
X81922089Y-87020277D01*
X82130179Y-86892759D01*
X82315759Y-86734259D01*
X82474259Y-86548679D01*
X82601777Y-86340589D01*
X82695172Y-86115112D01*
X82752146Y-85877802D01*
X82771294Y-85634500D01*
X82752146Y-85391198D01*
X82695172Y-85153888D01*
X82601777Y-84928411D01*
X82601777Y-84928410D01*
X82474262Y-84720326D01*
X82474261Y-84720323D01*
X82438453Y-84678397D01*
X82315759Y-84534741D01*
X82193063Y-84429949D01*
X82130176Y-84376238D01*
X82130173Y-84376237D01*
X81922089Y-84248722D01*
X81696618Y-84155330D01*
X81696621Y-84155330D01*
X81590992Y-84129970D01*
X81459302Y-84098354D01*
X81459300Y-84098353D01*
X81459297Y-84098353D01*
X81216000Y-84079206D01*
X80972702Y-84098353D01*
X80735380Y-84155330D01*
X80509910Y-84248722D01*
X80301826Y-84376237D01*
X80301823Y-84376238D01*
X80116241Y-84534741D01*
X79957738Y-84720323D01*
X79957737Y-84720326D01*
X79830222Y-84928410D01*
X79736830Y-85153880D01*
X79679853Y-85391202D01*
X79660706Y-85634500D01*
X73398500Y-85634500D01*
X73398500Y-75744491D01*
X73418185Y-75677452D01*
X73470989Y-75631697D01*
X73540147Y-75621753D01*
X73603703Y-75650778D01*
X73610181Y-75656810D01*
X74241571Y-76288200D01*
X74244975Y-76291893D01*
X74282216Y-76335737D01*
X74282217Y-76335738D01*
X74348376Y-76386031D01*
X74349699Y-76387065D01*
X74363175Y-76397897D01*
X74414453Y-76439116D01*
X74414460Y-76439119D01*
X74414461Y-76439120D01*
X74414690Y-76439234D01*
X74434640Y-76451608D01*
X74434859Y-76451774D01*
X74510286Y-76486670D01*
X74511802Y-76487396D01*
X74586226Y-76524307D01*
X74586455Y-76524364D01*
X74586487Y-76524372D01*
X74608628Y-76532167D01*
X74608876Y-76532282D01*
X74608877Y-76532282D01*
X74608879Y-76532283D01*
X74636902Y-76538451D01*
X74690052Y-76550150D01*
X74691644Y-76550524D01*
X74720215Y-76557628D01*
X74772296Y-76570581D01*
X74772565Y-76570588D01*
X74795871Y-76573443D01*
X74796130Y-76573500D01*
X74796131Y-76573500D01*
X74879197Y-76573500D01*
X74880875Y-76573523D01*
X74919114Y-76574558D01*
X74963964Y-76575773D01*
X74964238Y-76575720D01*
X74987597Y-76573500D01*
X76961646Y-76573500D01*
X76966681Y-76573705D01*
X76991262Y-76575706D01*
X77024011Y-76578373D01*
X77106402Y-76567147D01*
X77108008Y-76566950D01*
X77190614Y-76557967D01*
X77190869Y-76557880D01*
X77213714Y-76552527D01*
X77213994Y-76552489D01*
X77292048Y-76523811D01*
X77293612Y-76523262D01*
X77372315Y-76496745D01*
X77372539Y-76496610D01*
X77393723Y-76486458D01*
X77393970Y-76486368D01*
X77464027Y-76441587D01*
X77465366Y-76440757D01*
X77536607Y-76397894D01*
X77536793Y-76397717D01*
X77555306Y-76383243D01*
X77555525Y-76383104D01*
X77614279Y-76324348D01*
X77615450Y-76323208D01*
X77675808Y-76266036D01*
X77675957Y-76265814D01*
X77690911Y-76247716D01*
X80225205Y-73713422D01*
X80228874Y-73710039D01*
X80272739Y-73672782D01*
X80323081Y-73606557D01*
X80324039Y-73605331D01*
X80376115Y-73540547D01*
X80376225Y-73540324D01*
X80388613Y-73520351D01*
X80388774Y-73520141D01*
X80423678Y-73444693D01*
X80424392Y-73443204D01*
X80461307Y-73368775D01*
X80461366Y-73368536D01*
X80469175Y-73346353D01*
X80469282Y-73346124D01*
X80487151Y-73264941D01*
X80487521Y-73263366D01*
X80507580Y-73182711D01*
X80507580Y-73182707D01*
X80507581Y-73182704D01*
X80507588Y-73182432D01*
X80510443Y-73159127D01*
X80510500Y-73158869D01*
X80510500Y-73075802D01*
X80510523Y-73074124D01*
X80511590Y-73034708D01*
X80512773Y-72991037D01*
X80512720Y-72990762D01*
X80510500Y-72967404D01*
X80510500Y-71773500D01*
X84946540Y-71773500D01*
X84966326Y-71961756D01*
X84966327Y-71961759D01*
X85024818Y-72141777D01*
X85024821Y-72141784D01*
X85119467Y-72305716D01*
X85246129Y-72446388D01*
X85355735Y-72526021D01*
X85370524Y-72538653D01*
X85564071Y-72732200D01*
X85567475Y-72735893D01*
X85604717Y-72779739D01*
X85637999Y-72805038D01*
X85670910Y-72830057D01*
X85672187Y-72831056D01*
X85736953Y-72883115D01*
X85737182Y-72883228D01*
X85757135Y-72895603D01*
X85757359Y-72895774D01*
X85757360Y-72895774D01*
X85757361Y-72895775D01*
X85832799Y-72930676D01*
X85834315Y-72931402D01*
X85908726Y-72968307D01*
X85908981Y-72968370D01*
X85931133Y-72976169D01*
X85931376Y-72976282D01*
X85931379Y-72976282D01*
X85931380Y-72976283D01*
X85944087Y-72979079D01*
X86012552Y-72994150D01*
X86014144Y-72994524D01*
X86042715Y-73001628D01*
X86094796Y-73014581D01*
X86095065Y-73014588D01*
X86118371Y-73017443D01*
X86118630Y-73017500D01*
X86118631Y-73017500D01*
X86201696Y-73017500D01*
X86203374Y-73017523D01*
X86240400Y-73018525D01*
X86286463Y-73019773D01*
X86286730Y-73019721D01*
X86310097Y-73017500D01*
X102118500Y-73017500D01*
X102185539Y-73037185D01*
X102231294Y-73089989D01*
X102242500Y-73141500D01*
X102242500Y-80361937D01*
X102222815Y-80428976D01*
X102170011Y-80474731D01*
X102100853Y-80484675D01*
X102068064Y-80475216D01*
X101898807Y-80399857D01*
X101898802Y-80399855D01*
X101753001Y-80368865D01*
X101713646Y-80360500D01*
X101524354Y-80360500D01*
X101491897Y-80367398D01*
X101339197Y-80399855D01*
X101339192Y-80399857D01*
X101166270Y-80476848D01*
X101166265Y-80476851D01*
X101013129Y-80588111D01*
X100886466Y-80728785D01*
X100791821Y-80892715D01*
X100791818Y-80892722D01*
X100733327Y-81072740D01*
X100733326Y-81072744D01*
X100713540Y-81261000D01*
X100733326Y-81449256D01*
X100733327Y-81449259D01*
X100791818Y-81629277D01*
X100791821Y-81629284D01*
X100847887Y-81726392D01*
X100864500Y-81788392D01*
X100864500Y-90295113D01*
X100844815Y-90362152D01*
X100828181Y-90382794D01*
X99545795Y-91665181D01*
X99484472Y-91698666D01*
X99458114Y-91701500D01*
X90487992Y-91701500D01*
X90470023Y-91700191D01*
X90446089Y-91696685D01*
X90402927Y-91700462D01*
X90393758Y-91701264D01*
X90388359Y-91701500D01*
X90380054Y-91701500D01*
X90348195Y-91705223D01*
X90346427Y-91705404D01*
X90318126Y-91707880D01*
X90270392Y-91712056D01*
X90263319Y-91713517D01*
X90263308Y-91713465D01*
X90255832Y-91715122D01*
X90255845Y-91715174D01*
X90248812Y-91716840D01*
X90177080Y-91742947D01*
X90175380Y-91743538D01*
X90102962Y-91767536D01*
X90096420Y-91770587D01*
X90096397Y-91770539D01*
X90089507Y-91773875D01*
X90089531Y-91773922D01*
X90083077Y-91777163D01*
X90019315Y-91819099D01*
X90017796Y-91820066D01*
X89952846Y-91860130D01*
X89947179Y-91864611D01*
X89947146Y-91864569D01*
X89941214Y-91869401D01*
X89941248Y-91869442D01*
X89935712Y-91874086D01*
X89883326Y-91929612D01*
X89882070Y-91930904D01*
X89274742Y-92538232D01*
X89261113Y-92550011D01*
X89241706Y-92564459D01*
X89207939Y-92604700D01*
X89204295Y-92608678D01*
X89198418Y-92614556D01*
X89178531Y-92639708D01*
X89177393Y-92641104D01*
X89128334Y-92699571D01*
X89124366Y-92705605D01*
X89124322Y-92705576D01*
X89120209Y-92712031D01*
X89120254Y-92712059D01*
X89116462Y-92718206D01*
X89084200Y-92787388D01*
X89083416Y-92789008D01*
X89049175Y-92857191D01*
X89046704Y-92863979D01*
X89046655Y-92863961D01*
X89044141Y-92871193D01*
X89044191Y-92871210D01*
X89041920Y-92878062D01*
X89026488Y-92952797D01*
X89026096Y-92954563D01*
X89024269Y-92962272D01*
X88989648Y-93022961D01*
X88927712Y-93055299D01*
X88858126Y-93049018D01*
X88850692Y-93045431D01*
X88850666Y-93045492D01*
X88671807Y-92965857D01*
X88671802Y-92965855D01*
X88526000Y-92934865D01*
X88486646Y-92926500D01*
X88297354Y-92926500D01*
X88264897Y-92933398D01*
X88112197Y-92965855D01*
X88112192Y-92965857D01*
X87939270Y-93042848D01*
X87939265Y-93042851D01*
X87786129Y-93154111D01*
X87659466Y-93294785D01*
X87564821Y-93458715D01*
X87564818Y-93458722D01*
X87527526Y-93573497D01*
X87506326Y-93638744D01*
X87486540Y-93827000D01*
X87506326Y-94015256D01*
X87506327Y-94015259D01*
X87564818Y-94195277D01*
X87564821Y-94195284D01*
X87620887Y-94292392D01*
X87637500Y-94354392D01*
X87637500Y-100528106D01*
X87620888Y-100590105D01*
X87564820Y-100687218D01*
X87564818Y-100687222D01*
X87506327Y-100867240D01*
X87506326Y-100867244D01*
X87486540Y-101055500D01*
X87506326Y-101243756D01*
X87506327Y-101243759D01*
X87564818Y-101423777D01*
X87564821Y-101423784D01*
X87659467Y-101587716D01*
X87773423Y-101714277D01*
X87786129Y-101728388D01*
X87939265Y-101839648D01*
X87939270Y-101839651D01*
X88112192Y-101916642D01*
X88112197Y-101916644D01*
X88297354Y-101956000D01*
X88297355Y-101956000D01*
X88486644Y-101956000D01*
X88486646Y-101956000D01*
X88671803Y-101916644D01*
X88844730Y-101839651D01*
X88983954Y-101738498D01*
X89049758Y-101715020D01*
X89117811Y-101730845D01*
X89148985Y-101755844D01*
X89157127Y-101764886D01*
X89157135Y-101764893D01*
X89310265Y-101876148D01*
X89310270Y-101876151D01*
X89483192Y-101953142D01*
X89483197Y-101953144D01*
X89668354Y-101992500D01*
X89668355Y-101992500D01*
X89857644Y-101992500D01*
X89857646Y-101992500D01*
X90042803Y-101953144D01*
X90215730Y-101876151D01*
X90368871Y-101764888D01*
X90495533Y-101624216D01*
X90590179Y-101460284D01*
X90648674Y-101280256D01*
X90668460Y-101092000D01*
X90648674Y-100903744D01*
X90590179Y-100723716D01*
X90534111Y-100626604D01*
X90517500Y-100564606D01*
X90517500Y-93480886D01*
X90537185Y-93413847D01*
X90553819Y-93393205D01*
X90700205Y-93246819D01*
X90761528Y-93213334D01*
X90787886Y-93210500D01*
X99758000Y-93210500D01*
X99775969Y-93211809D01*
X99781350Y-93212596D01*
X99799906Y-93215315D01*
X99852248Y-93210735D01*
X99857649Y-93210500D01*
X99865934Y-93210500D01*
X99865941Y-93210500D01*
X99897818Y-93206774D01*
X99899493Y-93206602D01*
X99975612Y-93199943D01*
X99975615Y-93199941D01*
X99982693Y-93198481D01*
X99982704Y-93198535D01*
X99990163Y-93196881D01*
X99990151Y-93196827D01*
X99997178Y-93195161D01*
X99997179Y-93195160D01*
X99997184Y-93195160D01*
X100068904Y-93169055D01*
X100070539Y-93168486D01*
X100143036Y-93144464D01*
X100143038Y-93144462D01*
X100143040Y-93144462D01*
X100149581Y-93141412D01*
X100149604Y-93141462D01*
X100156498Y-93138125D01*
X100156473Y-93138075D01*
X100162920Y-93134837D01*
X100162924Y-93134836D01*
X100226725Y-93092872D01*
X100228188Y-93091940D01*
X100293154Y-93051870D01*
X100293157Y-93051866D01*
X100298823Y-93047387D01*
X100298857Y-93047430D01*
X100304782Y-93042604D01*
X100304747Y-93042562D01*
X100310282Y-93037917D01*
X100310282Y-93037916D01*
X100310285Y-93037915D01*
X100362717Y-92982338D01*
X100363877Y-92981145D01*
X102107264Y-91237758D01*
X102120883Y-91225988D01*
X102140294Y-91211539D01*
X102174075Y-91171279D01*
X102177709Y-91167313D01*
X102183583Y-91161441D01*
X102203534Y-91136207D01*
X102204535Y-91134978D01*
X102253667Y-91076427D01*
X102253670Y-91076420D01*
X102257637Y-91070390D01*
X102257683Y-91070420D01*
X102261795Y-91063965D01*
X102261748Y-91063936D01*
X102265535Y-91057795D01*
X102265539Y-91057791D01*
X102297811Y-90988581D01*
X102298563Y-90987028D01*
X102300963Y-90982249D01*
X102348644Y-90931179D01*
X102416367Y-90913993D01*
X102482631Y-90936150D01*
X102503920Y-90954936D01*
X102619129Y-91082888D01*
X102772265Y-91194148D01*
X102772270Y-91194151D01*
X102945192Y-91271142D01*
X102945197Y-91271144D01*
X103130354Y-91310500D01*
X103130355Y-91310500D01*
X103319644Y-91310500D01*
X103319646Y-91310500D01*
X103504803Y-91271144D01*
X103677730Y-91194151D01*
X103823616Y-91088158D01*
X103889420Y-91064680D01*
X103957474Y-91080505D01*
X104006169Y-91130611D01*
X104020499Y-91188478D01*
X104020499Y-93048521D01*
X104000814Y-93115560D01*
X103948010Y-93161315D01*
X103878852Y-93171259D01*
X103823614Y-93148839D01*
X103677734Y-93042851D01*
X103677729Y-93042848D01*
X103504807Y-92965857D01*
X103504802Y-92965855D01*
X103359001Y-92934865D01*
X103319646Y-92926500D01*
X103130354Y-92926500D01*
X103097897Y-92933398D01*
X102945197Y-92965855D01*
X102945192Y-92965857D01*
X102772270Y-93042848D01*
X102772265Y-93042851D01*
X102619129Y-93154111D01*
X102492466Y-93294785D01*
X102397821Y-93458715D01*
X102397818Y-93458722D01*
X102360526Y-93573497D01*
X102339326Y-93638744D01*
X102319540Y-93827000D01*
X102339326Y-94015256D01*
X102339327Y-94015259D01*
X102397818Y-94195277D01*
X102397821Y-94195284D01*
X102453887Y-94292392D01*
X102470500Y-94354391D01*
X102470500Y-101389941D01*
X102484959Y-101513648D01*
X102485840Y-101521183D01*
X102506333Y-101577492D01*
X102507038Y-101579537D01*
X102550819Y-101714280D01*
X102550821Y-101714284D01*
X102645467Y-101878216D01*
X102748369Y-101992500D01*
X102772129Y-102018888D01*
X102925265Y-102130148D01*
X102925270Y-102130151D01*
X103098192Y-102207142D01*
X103098197Y-102207144D01*
X103283354Y-102246500D01*
X103283355Y-102246500D01*
X103472644Y-102246500D01*
X103472646Y-102246500D01*
X103657803Y-102207144D01*
X103830730Y-102130151D01*
X103983871Y-102018888D01*
X103984349Y-102018356D01*
X103984702Y-102018138D01*
X103988706Y-102014535D01*
X103989364Y-102015266D01*
X104043836Y-101981709D01*
X104113693Y-101983038D01*
X104163711Y-102015182D01*
X104164294Y-102014535D01*
X104168260Y-102018106D01*
X104168651Y-102018357D01*
X104169129Y-102018888D01*
X104169130Y-102018889D01*
X104322265Y-102130148D01*
X104322270Y-102130151D01*
X104495192Y-102207142D01*
X104495197Y-102207144D01*
X104680354Y-102246500D01*
X104680355Y-102246500D01*
X104869644Y-102246500D01*
X104869646Y-102246500D01*
X105054803Y-102207144D01*
X105227730Y-102130151D01*
X105380871Y-102018888D01*
X105507533Y-101878216D01*
X105602179Y-101714284D01*
X105660674Y-101534256D01*
X105680460Y-101346000D01*
X105660674Y-101157744D01*
X105602179Y-100977716D01*
X105546111Y-100880604D01*
X105529500Y-100818606D01*
X105529500Y-82823392D01*
X105546113Y-82761392D01*
X105602179Y-82664284D01*
X105660674Y-82484256D01*
X105680460Y-82296000D01*
X105660674Y-82107744D01*
X105602179Y-81927716D01*
X105507533Y-81763784D01*
X105380871Y-81623112D01*
X105379931Y-81622429D01*
X105227734Y-81511851D01*
X105227729Y-81511848D01*
X105054807Y-81434857D01*
X105054802Y-81434855D01*
X104909000Y-81403865D01*
X104869646Y-81395500D01*
X104680354Y-81395500D01*
X104647897Y-81402398D01*
X104495197Y-81434855D01*
X104495192Y-81434857D01*
X104322270Y-81511848D01*
X104322265Y-81511851D01*
X104202385Y-81598949D01*
X104136578Y-81622429D01*
X104068525Y-81606603D01*
X104019830Y-81556497D01*
X104005500Y-81498631D01*
X104005500Y-73141500D01*
X104025185Y-73074461D01*
X104077989Y-73028706D01*
X104129500Y-73017500D01*
X104396253Y-73017500D01*
X104463292Y-73037185D01*
X104509047Y-73089989D01*
X104519573Y-73154459D01*
X104504540Y-73297500D01*
X104524326Y-73485756D01*
X104524327Y-73485759D01*
X104582818Y-73665777D01*
X104582823Y-73665789D01*
X104638886Y-73762893D01*
X104655499Y-73824892D01*
X104655499Y-78810106D01*
X104638887Y-78872105D01*
X104582820Y-78969217D01*
X104582818Y-78969222D01*
X104524327Y-79149240D01*
X104524326Y-79149244D01*
X104504540Y-79337500D01*
X104524326Y-79525756D01*
X104524327Y-79525759D01*
X104582818Y-79705777D01*
X104582821Y-79705784D01*
X104677467Y-79869716D01*
X104804129Y-80010388D01*
X104957265Y-80121648D01*
X104957270Y-80121651D01*
X105130192Y-80198642D01*
X105130197Y-80198644D01*
X105315354Y-80238000D01*
X105315355Y-80238000D01*
X105504644Y-80238000D01*
X105504646Y-80238000D01*
X105689803Y-80198644D01*
X105862730Y-80121651D01*
X106015871Y-80010388D01*
X106142533Y-79869716D01*
X106237179Y-79705784D01*
X106295674Y-79525756D01*
X106315460Y-79337500D01*
X106295674Y-79149244D01*
X106237179Y-78969216D01*
X106181111Y-78872104D01*
X106164500Y-78810106D01*
X106164500Y-73824892D01*
X106181113Y-73762892D01*
X106237179Y-73665784D01*
X106295674Y-73485756D01*
X106315460Y-73297500D01*
X106300426Y-73154459D01*
X106312996Y-73085732D01*
X106360728Y-73034708D01*
X106423747Y-73017500D01*
X114302253Y-73017500D01*
X114369292Y-73037185D01*
X114415047Y-73089989D01*
X114425573Y-73154459D01*
X114410540Y-73297500D01*
X114426013Y-73444721D01*
X114430327Y-73485761D01*
X114431678Y-73492117D01*
X114430396Y-73492389D01*
X114434500Y-73518241D01*
X114434500Y-75399646D01*
X114434295Y-75404681D01*
X114429626Y-75462008D01*
X114429627Y-75462014D01*
X114440846Y-75544365D01*
X114441050Y-75546030D01*
X114450033Y-75628613D01*
X114450033Y-75628616D01*
X114450120Y-75628872D01*
X114455471Y-75651705D01*
X114455509Y-75651987D01*
X114455511Y-75651994D01*
X114484182Y-75730036D01*
X114484739Y-75731619D01*
X114511256Y-75810317D01*
X114511401Y-75810559D01*
X114521532Y-75831700D01*
X114521627Y-75831960D01*
X114521633Y-75831971D01*
X114566372Y-75901965D01*
X114567257Y-75903392D01*
X114610107Y-75974608D01*
X114610108Y-75974610D01*
X114610294Y-75974806D01*
X114624748Y-75993294D01*
X114624893Y-75993521D01*
X114624897Y-75993526D01*
X114683632Y-76052261D01*
X114684804Y-76053465D01*
X114741960Y-76113805D01*
X114741963Y-76113807D01*
X114742187Y-76113959D01*
X114760286Y-76128915D01*
X117359680Y-78728309D01*
X117393165Y-78789632D01*
X117395999Y-78815990D01*
X117395999Y-88003757D01*
X117391937Y-88029625D01*
X117393176Y-88029889D01*
X117391826Y-88036239D01*
X117372040Y-88224499D01*
X117391827Y-88412761D01*
X117393178Y-88419117D01*
X117391896Y-88419389D01*
X117396000Y-88445241D01*
X117396000Y-89332008D01*
X117376315Y-89399047D01*
X117359681Y-89419689D01*
X112179815Y-94599555D01*
X112176112Y-94602968D01*
X112132260Y-94640218D01*
X112132259Y-94640219D01*
X112081958Y-94706389D01*
X112080925Y-94707711D01*
X112042487Y-94755531D01*
X112028882Y-94772456D01*
X112028877Y-94772464D01*
X112028754Y-94772713D01*
X112016408Y-94792618D01*
X112016231Y-94792850D01*
X112016224Y-94792862D01*
X111981336Y-94868270D01*
X111980611Y-94869783D01*
X111943693Y-94944226D01*
X111943690Y-94944233D01*
X111943624Y-94944501D01*
X111935840Y-94966610D01*
X111935720Y-94966869D01*
X111935718Y-94966874D01*
X111917852Y-95048034D01*
X111917469Y-95049668D01*
X111897419Y-95130294D01*
X111897418Y-95130302D01*
X111897411Y-95130576D01*
X111894561Y-95153853D01*
X111894500Y-95154126D01*
X111894500Y-95237196D01*
X111894477Y-95238874D01*
X111892227Y-95321962D01*
X111892278Y-95322228D01*
X111894500Y-95345598D01*
X111894500Y-101379257D01*
X111890405Y-101405118D01*
X111891676Y-101405389D01*
X111890326Y-101411739D01*
X111871523Y-101590644D01*
X111870540Y-101600000D01*
X111890326Y-101788256D01*
X111890327Y-101788259D01*
X111948818Y-101968277D01*
X111948821Y-101968284D01*
X112043467Y-102132216D01*
X112110931Y-102207142D01*
X112170129Y-102272888D01*
X112323265Y-102384148D01*
X112323270Y-102384151D01*
X112496192Y-102461142D01*
X112496197Y-102461144D01*
X112681354Y-102500500D01*
X112681355Y-102500500D01*
X112870644Y-102500500D01*
X112870646Y-102500500D01*
X113055803Y-102461144D01*
X113228730Y-102384151D01*
X113381871Y-102272888D01*
X113508533Y-102132216D01*
X113603179Y-101968284D01*
X113661674Y-101788256D01*
X113681460Y-101600000D01*
X113661674Y-101411744D01*
X113661673Y-101411741D01*
X113661673Y-101411739D01*
X113660324Y-101405389D01*
X113661594Y-101405118D01*
X113657500Y-101379257D01*
X113657500Y-95666490D01*
X113677185Y-95599451D01*
X113693814Y-95578814D01*
X114716496Y-94556132D01*
X114777818Y-94522648D01*
X114847510Y-94527632D01*
X114903443Y-94569504D01*
X114927860Y-94634968D01*
X114927497Y-94656774D01*
X114918540Y-94742000D01*
X114938326Y-94930256D01*
X114938327Y-94930259D01*
X114996821Y-95110285D01*
X115052886Y-95207392D01*
X115069499Y-95269392D01*
X115069499Y-101127972D01*
X115052889Y-101189967D01*
X115048736Y-101197159D01*
X115048734Y-101197165D01*
X114993478Y-101367226D01*
X114990240Y-101377191D01*
X114970454Y-101565447D01*
X114990240Y-101753703D01*
X114990241Y-101753706D01*
X115048732Y-101933724D01*
X115048735Y-101933731D01*
X115143381Y-102097663D01*
X115270042Y-102238335D01*
X115270043Y-102238335D01*
X115423179Y-102349595D01*
X115423184Y-102349598D01*
X115596106Y-102426589D01*
X115596111Y-102426591D01*
X115781268Y-102465947D01*
X115781269Y-102465947D01*
X115970558Y-102465947D01*
X115970560Y-102465947D01*
X116155717Y-102426591D01*
X116328644Y-102349598D01*
X116481785Y-102238335D01*
X116608447Y-102097663D01*
X116703093Y-101933731D01*
X116761588Y-101753703D01*
X116781374Y-101565447D01*
X116779827Y-101550730D01*
X116792394Y-101482002D01*
X116840124Y-101430977D01*
X116907864Y-101413857D01*
X116928920Y-101416476D01*
X116999354Y-101431447D01*
X116999355Y-101431447D01*
X117188644Y-101431447D01*
X117188646Y-101431447D01*
X117373803Y-101392091D01*
X117546730Y-101315098D01*
X117699871Y-101203835D01*
X117826533Y-101063163D01*
X117921179Y-100899231D01*
X117979674Y-100719203D01*
X117999460Y-100530947D01*
X117979674Y-100342691D01*
X117921179Y-100162663D01*
X117865111Y-100065551D01*
X117848500Y-100003553D01*
X117848500Y-98660500D01*
X126348540Y-98660500D01*
X126368326Y-98848756D01*
X126368327Y-98848759D01*
X126426818Y-99028777D01*
X126426821Y-99028784D01*
X126521467Y-99192716D01*
X126609319Y-99290285D01*
X126648129Y-99333388D01*
X126801265Y-99444648D01*
X126801270Y-99444651D01*
X126974192Y-99521642D01*
X126974197Y-99521644D01*
X127159354Y-99561000D01*
X127159355Y-99561000D01*
X127348644Y-99561000D01*
X127348646Y-99561000D01*
X127533803Y-99521644D01*
X127706730Y-99444651D01*
X127714944Y-99438682D01*
X127780750Y-99415202D01*
X127787831Y-99415000D01*
X133094614Y-99415000D01*
X133161653Y-99434685D01*
X133182295Y-99451319D01*
X133702181Y-99971205D01*
X133735666Y-100032528D01*
X133738500Y-100058886D01*
X133738500Y-101580606D01*
X133721888Y-101642604D01*
X133680507Y-101714280D01*
X133665820Y-101739718D01*
X133665818Y-101739722D01*
X133621491Y-101876148D01*
X133607326Y-101919744D01*
X133587540Y-102108000D01*
X133607326Y-102296256D01*
X133607327Y-102296259D01*
X133665818Y-102476277D01*
X133665821Y-102476284D01*
X133760467Y-102640216D01*
X133887128Y-102780887D01*
X133887129Y-102780888D01*
X134040265Y-102892148D01*
X134040270Y-102892151D01*
X134213192Y-102969142D01*
X134213197Y-102969144D01*
X134398354Y-103008500D01*
X134398355Y-103008500D01*
X134587644Y-103008500D01*
X134587646Y-103008500D01*
X134772803Y-102969144D01*
X134945730Y-102892151D01*
X135098871Y-102780888D01*
X135225533Y-102640216D01*
X135320179Y-102476284D01*
X135378674Y-102296256D01*
X135398460Y-102108000D01*
X135378674Y-101919744D01*
X135320179Y-101739716D01*
X135264111Y-101642604D01*
X135247500Y-101580606D01*
X135247500Y-99758999D01*
X135248809Y-99741029D01*
X135249030Y-99739516D01*
X135252315Y-99717094D01*
X135247735Y-99664753D01*
X135247500Y-99659350D01*
X135247500Y-99651066D01*
X135247500Y-99651059D01*
X135243777Y-99619202D01*
X135243598Y-99617459D01*
X135236943Y-99541388D01*
X135236941Y-99541384D01*
X135235483Y-99534319D01*
X135235537Y-99534307D01*
X135233881Y-99526837D01*
X135233827Y-99526850D01*
X135232160Y-99519822D01*
X135232160Y-99519816D01*
X135213716Y-99469141D01*
X135206062Y-99448111D01*
X135205470Y-99446408D01*
X135195062Y-99415000D01*
X135181464Y-99373964D01*
X135181461Y-99373960D01*
X135178412Y-99367419D01*
X135178461Y-99367395D01*
X135175128Y-99360509D01*
X135175079Y-99360534D01*
X135171838Y-99354083D01*
X135171836Y-99354076D01*
X135129876Y-99290279D01*
X135128912Y-99288764D01*
X135088868Y-99223843D01*
X135084392Y-99218183D01*
X135084434Y-99218149D01*
X135079597Y-99212211D01*
X135079556Y-99212246D01*
X135074912Y-99206712D01*
X135019405Y-99154344D01*
X135018111Y-99153087D01*
X134037266Y-98172242D01*
X134025484Y-98158609D01*
X134022104Y-98154069D01*
X134011039Y-98139206D01*
X134011037Y-98139204D01*
X134011038Y-98139204D01*
X133979423Y-98112677D01*
X133970785Y-98105428D01*
X133966810Y-98101786D01*
X133963871Y-98098847D01*
X133960943Y-98095918D01*
X133935780Y-98076022D01*
X133934382Y-98074883D01*
X133875927Y-98025833D01*
X133869894Y-98021865D01*
X133869922Y-98021821D01*
X133863461Y-98017704D01*
X133863434Y-98017750D01*
X133857290Y-98013960D01*
X133788125Y-97981708D01*
X133786502Y-97980922D01*
X133718315Y-97946677D01*
X133711531Y-97944208D01*
X133711549Y-97944158D01*
X133704307Y-97941641D01*
X133704291Y-97941691D01*
X133697439Y-97939420D01*
X133637114Y-97926964D01*
X133622692Y-97923986D01*
X133620945Y-97923599D01*
X133546681Y-97905998D01*
X133539514Y-97905161D01*
X133539520Y-97905107D01*
X133531905Y-97904329D01*
X133531901Y-97904383D01*
X133524710Y-97903753D01*
X133448403Y-97905974D01*
X133446600Y-97906000D01*
X127794442Y-97906000D01*
X127727403Y-97886315D01*
X127723315Y-97883572D01*
X127723022Y-97883367D01*
X127723023Y-97883367D01*
X127718161Y-97881436D01*
X127712749Y-97878816D01*
X127712671Y-97878994D01*
X127533807Y-97799357D01*
X127533802Y-97799355D01*
X127388000Y-97768365D01*
X127348646Y-97760000D01*
X127159354Y-97760000D01*
X127126897Y-97766898D01*
X126974197Y-97799355D01*
X126974192Y-97799357D01*
X126801270Y-97876348D01*
X126801265Y-97876351D01*
X126648129Y-97987611D01*
X126521466Y-98128285D01*
X126426821Y-98292215D01*
X126426818Y-98292222D01*
X126368327Y-98472240D01*
X126368326Y-98472244D01*
X126348540Y-98660500D01*
X117848500Y-98660500D01*
X117848500Y-97137886D01*
X117868185Y-97070847D01*
X117884819Y-97050205D01*
X121055524Y-93879500D01*
X135492540Y-93879500D01*
X135512326Y-94067756D01*
X135512327Y-94067759D01*
X135570818Y-94247777D01*
X135570821Y-94247784D01*
X135665467Y-94411716D01*
X135792129Y-94552388D01*
X135901735Y-94632021D01*
X135916524Y-94644653D01*
X136750181Y-95478310D01*
X136783666Y-95539633D01*
X136786500Y-95565991D01*
X136786500Y-100508757D01*
X136782405Y-100534618D01*
X136783676Y-100534889D01*
X136782326Y-100541239D01*
X136774818Y-100612677D01*
X136762540Y-100729500D01*
X136782326Y-100917756D01*
X136782327Y-100917759D01*
X136840818Y-101097777D01*
X136840821Y-101097784D01*
X136935467Y-101261716D01*
X137041302Y-101379257D01*
X137062129Y-101402388D01*
X137215265Y-101513648D01*
X137215270Y-101513651D01*
X137388192Y-101590642D01*
X137388197Y-101590644D01*
X137573354Y-101630000D01*
X137573355Y-101630000D01*
X137762644Y-101630000D01*
X137762646Y-101630000D01*
X137947803Y-101590644D01*
X138120730Y-101513651D01*
X138273871Y-101402388D01*
X138400533Y-101261716D01*
X138495179Y-101097784D01*
X138553674Y-100917756D01*
X138573460Y-100729500D01*
X138553674Y-100541244D01*
X138553673Y-100541241D01*
X138553673Y-100541239D01*
X138552324Y-100534889D01*
X138553594Y-100534618D01*
X138549500Y-100508757D01*
X138549500Y-95187852D01*
X138549705Y-95182817D01*
X138554373Y-95125491D01*
X138554373Y-95125489D01*
X138543148Y-95043105D01*
X138542947Y-95041457D01*
X138534836Y-94966876D01*
X138533967Y-94958886D01*
X138533881Y-94958630D01*
X138528526Y-94935780D01*
X138528489Y-94935506D01*
X138499814Y-94857458D01*
X138499266Y-94855899D01*
X138472743Y-94777180D01*
X138472741Y-94777177D01*
X138472603Y-94776947D01*
X138462462Y-94755785D01*
X138462368Y-94755531D01*
X138462368Y-94755530D01*
X138417599Y-94685490D01*
X138416764Y-94684145D01*
X138373894Y-94612893D01*
X138373704Y-94612692D01*
X138359243Y-94594193D01*
X138359105Y-94593977D01*
X138359104Y-94593975D01*
X138300348Y-94535219D01*
X138299213Y-94534052D01*
X138242037Y-94473692D01*
X138241812Y-94473540D01*
X138223713Y-94458584D01*
X137166829Y-93401700D01*
X137147122Y-93376018D01*
X137130533Y-93347285D01*
X137130533Y-93347284D01*
X137003871Y-93206612D01*
X137003870Y-93206611D01*
X136850734Y-93095351D01*
X136850729Y-93095348D01*
X136677807Y-93018357D01*
X136677802Y-93018355D01*
X136532001Y-92987365D01*
X136492646Y-92979000D01*
X136303354Y-92979000D01*
X136270897Y-92985898D01*
X136118197Y-93018355D01*
X136118192Y-93018357D01*
X135945270Y-93095348D01*
X135945265Y-93095351D01*
X135792129Y-93206611D01*
X135665466Y-93347285D01*
X135570821Y-93511215D01*
X135570818Y-93511222D01*
X135514898Y-93683327D01*
X135512326Y-93691244D01*
X135492540Y-93879500D01*
X121055524Y-93879500D01*
X122450205Y-92484819D01*
X122511528Y-92451334D01*
X122537886Y-92448500D01*
X124180169Y-92448500D01*
X124247208Y-92468185D01*
X124253056Y-92472183D01*
X124261269Y-92478150D01*
X124261270Y-92478151D01*
X124434192Y-92555142D01*
X124434197Y-92555144D01*
X124619354Y-92594500D01*
X124619355Y-92594500D01*
X124808644Y-92594500D01*
X124808646Y-92594500D01*
X124993803Y-92555144D01*
X125166730Y-92478151D01*
X125319871Y-92366888D01*
X125446533Y-92226216D01*
X125541179Y-92062284D01*
X125599674Y-91882256D01*
X125619460Y-91694000D01*
X125599674Y-91505744D01*
X125541179Y-91325716D01*
X125446533Y-91161784D01*
X125319871Y-91021112D01*
X125319870Y-91021111D01*
X125166734Y-90909851D01*
X125166729Y-90909848D01*
X124993807Y-90832857D01*
X124993802Y-90832855D01*
X124848000Y-90801865D01*
X124808646Y-90793500D01*
X124619354Y-90793500D01*
X124586897Y-90800398D01*
X124434197Y-90832855D01*
X124434192Y-90832857D01*
X124261270Y-90909848D01*
X124261269Y-90909849D01*
X124253056Y-90915817D01*
X124187250Y-90939298D01*
X124180169Y-90939500D01*
X122238000Y-90939500D01*
X122220031Y-90938191D01*
X122196091Y-90934684D01*
X122156019Y-90938191D01*
X122143751Y-90939264D01*
X122138351Y-90939500D01*
X122130050Y-90939500D01*
X122098219Y-90943220D01*
X122096454Y-90943401D01*
X122075065Y-90945272D01*
X122020387Y-90950056D01*
X122013321Y-90951516D01*
X122013310Y-90951464D01*
X122005832Y-90953122D01*
X122005845Y-90953174D01*
X121998812Y-90954840D01*
X121927080Y-90980947D01*
X121925380Y-90981538D01*
X121852962Y-91005536D01*
X121846420Y-91008587D01*
X121846397Y-91008539D01*
X121839507Y-91011875D01*
X121839531Y-91011922D01*
X121833077Y-91015163D01*
X121769315Y-91057099D01*
X121767796Y-91058066D01*
X121702846Y-91098130D01*
X121697179Y-91102611D01*
X121697146Y-91102569D01*
X121691214Y-91107401D01*
X121691248Y-91107442D01*
X121685712Y-91112086D01*
X121633326Y-91167612D01*
X121632070Y-91168904D01*
X116790180Y-96010794D01*
X116728857Y-96044279D01*
X116659165Y-96039295D01*
X116603232Y-95997423D01*
X116578815Y-95931959D01*
X116578499Y-95923132D01*
X116578499Y-95269392D01*
X116595111Y-95207393D01*
X116651179Y-95110284D01*
X116709674Y-94930256D01*
X116729460Y-94742000D01*
X116709674Y-94553744D01*
X116651179Y-94373716D01*
X116556533Y-94209784D01*
X116429871Y-94069112D01*
X116428005Y-94067756D01*
X116276734Y-93957851D01*
X116276729Y-93957848D01*
X116103807Y-93880857D01*
X116103802Y-93880855D01*
X115958001Y-93849865D01*
X115918646Y-93841500D01*
X115730491Y-93841500D01*
X115663452Y-93821815D01*
X115617697Y-93769011D01*
X115607753Y-93699853D01*
X115636778Y-93636297D01*
X115642810Y-93629819D01*
X118061090Y-91211538D01*
X118873706Y-90398921D01*
X118877374Y-90395539D01*
X118921239Y-90358282D01*
X118971571Y-90292069D01*
X118972573Y-90290789D01*
X119024615Y-90226048D01*
X119024614Y-90226048D01*
X119024616Y-90226047D01*
X119024727Y-90225822D01*
X119037115Y-90205850D01*
X119037274Y-90205641D01*
X119072170Y-90130212D01*
X119072896Y-90128696D01*
X119109807Y-90054274D01*
X119109867Y-90054030D01*
X119117674Y-90031857D01*
X119117782Y-90031624D01*
X119135639Y-89950498D01*
X119136022Y-89948862D01*
X119156080Y-89868211D01*
X119156080Y-89868207D01*
X119156081Y-89868204D01*
X119156088Y-89867932D01*
X119158943Y-89844627D01*
X119159000Y-89844369D01*
X119159000Y-89761302D01*
X119159023Y-89759624D01*
X119160021Y-89722746D01*
X119161273Y-89676536D01*
X119161220Y-89676261D01*
X119159000Y-89652903D01*
X119159000Y-88445241D01*
X119163103Y-88419389D01*
X119161822Y-88419117D01*
X119163172Y-88412761D01*
X119163174Y-88412756D01*
X119182960Y-88224500D01*
X119163174Y-88036244D01*
X119163173Y-88036241D01*
X119163173Y-88036239D01*
X119161824Y-88029889D01*
X119163094Y-88029618D01*
X119159000Y-88003757D01*
X119159000Y-78437851D01*
X119159205Y-78432816D01*
X119160830Y-78412855D01*
X119163873Y-78375488D01*
X119152648Y-78293109D01*
X119152445Y-78291446D01*
X119148395Y-78254205D01*
X119143467Y-78208886D01*
X119143381Y-78208630D01*
X119138026Y-78185780D01*
X119137989Y-78185506D01*
X119109312Y-78107453D01*
X119108764Y-78105893D01*
X119082245Y-78027186D01*
X119082245Y-78027185D01*
X119082112Y-78026965D01*
X119071956Y-78005769D01*
X119071868Y-78005529D01*
X119027130Y-77935539D01*
X119026247Y-77934117D01*
X119026212Y-77934059D01*
X118983394Y-77862893D01*
X118983204Y-77862692D01*
X118968743Y-77844193D01*
X118968605Y-77843977D01*
X118968604Y-77843975D01*
X118909848Y-77785219D01*
X118908713Y-77784052D01*
X118851537Y-77723692D01*
X118851312Y-77723540D01*
X118833213Y-77708584D01*
X116233819Y-75109189D01*
X116200334Y-75047866D01*
X116197500Y-75021508D01*
X116197500Y-73518241D01*
X116201603Y-73492389D01*
X116200322Y-73492117D01*
X116201672Y-73485761D01*
X116201674Y-73485756D01*
X116221460Y-73297500D01*
X116206426Y-73154459D01*
X116218996Y-73085732D01*
X116266728Y-73034708D01*
X116329747Y-73017500D01*
X117350253Y-73017500D01*
X117417292Y-73037185D01*
X117463047Y-73089989D01*
X117473573Y-73154459D01*
X117458540Y-73297500D01*
X117478326Y-73485756D01*
X117478327Y-73485759D01*
X117536818Y-73665777D01*
X117536821Y-73665784D01*
X117631467Y-73829716D01*
X117735728Y-73945509D01*
X117758129Y-73970388D01*
X117911265Y-74081648D01*
X117911270Y-74081651D01*
X118084192Y-74158642D01*
X118084197Y-74158644D01*
X118269354Y-74198000D01*
X118269355Y-74198000D01*
X118458644Y-74198000D01*
X118458646Y-74198000D01*
X118622321Y-74163209D01*
X118648102Y-74160500D01*
X122318114Y-74160500D01*
X122385153Y-74180185D01*
X122405795Y-74196819D01*
X126463181Y-78254205D01*
X126496666Y-78315528D01*
X126499500Y-78341886D01*
X126499500Y-91166606D01*
X126482888Y-91228605D01*
X126426820Y-91325718D01*
X126426818Y-91325722D01*
X126368327Y-91505740D01*
X126368326Y-91505744D01*
X126348540Y-91694000D01*
X126368326Y-91882256D01*
X126368327Y-91882259D01*
X126426818Y-92062277D01*
X126426821Y-92062284D01*
X126521467Y-92226216D01*
X126648128Y-92366888D01*
X126648129Y-92366888D01*
X126801265Y-92478148D01*
X126801270Y-92478151D01*
X126974192Y-92555142D01*
X126974197Y-92555144D01*
X127159354Y-92594500D01*
X127159355Y-92594500D01*
X127348644Y-92594500D01*
X127348646Y-92594500D01*
X127533803Y-92555144D01*
X127706730Y-92478151D01*
X127859871Y-92366888D01*
X127986533Y-92226216D01*
X128081179Y-92062284D01*
X128139674Y-91882256D01*
X128159460Y-91694000D01*
X128139674Y-91505744D01*
X128081179Y-91325716D01*
X128025111Y-91228604D01*
X128008500Y-91166606D01*
X128008500Y-84720321D01*
X128008500Y-78041978D01*
X128009809Y-78024019D01*
X128012483Y-78005769D01*
X128013314Y-78000093D01*
X128008735Y-77947759D01*
X128008500Y-77942358D01*
X128008500Y-77934064D01*
X128008499Y-77934053D01*
X128004774Y-77902190D01*
X128004597Y-77900457D01*
X127997943Y-77824388D01*
X127997942Y-77824386D01*
X127996483Y-77817318D01*
X127996537Y-77817306D01*
X127994881Y-77809837D01*
X127994827Y-77809850D01*
X127993160Y-77802822D01*
X127993160Y-77802816D01*
X127967062Y-77731111D01*
X127966470Y-77729408D01*
X127958599Y-77705657D01*
X127942464Y-77656964D01*
X127942461Y-77656960D01*
X127939412Y-77650419D01*
X127939461Y-77650395D01*
X127936128Y-77643509D01*
X127936079Y-77643534D01*
X127932838Y-77637083D01*
X127932836Y-77637076D01*
X127890876Y-77573279D01*
X127889912Y-77571764D01*
X127849868Y-77506843D01*
X127845392Y-77501183D01*
X127845434Y-77501149D01*
X127840597Y-77495211D01*
X127840556Y-77495246D01*
X127835912Y-77489712D01*
X127780405Y-77437344D01*
X127779111Y-77436087D01*
X123572205Y-73229181D01*
X123538720Y-73167858D01*
X123543704Y-73098166D01*
X123585576Y-73042233D01*
X123651040Y-73017816D01*
X123659886Y-73017500D01*
X133000780Y-73017500D01*
X133067819Y-73037185D01*
X133113574Y-73089989D01*
X133123518Y-73159147D01*
X133094493Y-73222703D01*
X133088461Y-73229181D01*
X129305742Y-77011899D01*
X129292113Y-77023678D01*
X129272706Y-77038126D01*
X129238939Y-77078367D01*
X129235295Y-77082345D01*
X129229418Y-77088223D01*
X129209531Y-77113375D01*
X129208393Y-77114771D01*
X129159334Y-77173238D01*
X129155366Y-77179272D01*
X129155322Y-77179243D01*
X129151209Y-77185698D01*
X129151254Y-77185726D01*
X129147462Y-77191873D01*
X129115200Y-77261055D01*
X129114416Y-77262675D01*
X129080175Y-77330858D01*
X129077704Y-77337646D01*
X129077655Y-77337628D01*
X129075141Y-77344860D01*
X129075191Y-77344877D01*
X129072920Y-77351729D01*
X129057489Y-77426461D01*
X129057099Y-77428220D01*
X129039499Y-77502483D01*
X129038661Y-77509654D01*
X129038607Y-77509647D01*
X129037830Y-77517263D01*
X129037883Y-77517268D01*
X129037253Y-77524458D01*
X129039473Y-77600763D01*
X129039499Y-77602566D01*
X129039500Y-91166606D01*
X129022888Y-91228605D01*
X128966820Y-91325718D01*
X128966818Y-91325722D01*
X128908327Y-91505740D01*
X128908326Y-91505744D01*
X128888540Y-91694000D01*
X128908326Y-91882256D01*
X128908327Y-91882259D01*
X128966818Y-92062277D01*
X128966821Y-92062284D01*
X129061467Y-92226216D01*
X129188128Y-92366888D01*
X129188129Y-92366888D01*
X129341265Y-92478148D01*
X129341270Y-92478151D01*
X129514192Y-92555142D01*
X129514197Y-92555144D01*
X129699354Y-92594500D01*
X129699355Y-92594500D01*
X129888644Y-92594500D01*
X129888646Y-92594500D01*
X130073803Y-92555144D01*
X130246730Y-92478151D01*
X130399871Y-92366888D01*
X130526533Y-92226216D01*
X130621179Y-92062284D01*
X130679674Y-91882256D01*
X130699460Y-91694000D01*
X130679674Y-91505744D01*
X130621179Y-91325716D01*
X130598547Y-91286516D01*
X130565112Y-91228605D01*
X130548499Y-91166605D01*
X130548499Y-84720321D01*
X130548499Y-77954548D01*
X130568184Y-77887513D01*
X130584809Y-77866881D01*
X132066690Y-76385000D01*
X136684706Y-76385000D01*
X136703853Y-76628297D01*
X136760830Y-76865619D01*
X136854222Y-77091089D01*
X136981737Y-77299173D01*
X136981738Y-77299176D01*
X137008797Y-77330858D01*
X137140241Y-77484759D01*
X137277101Y-77601648D01*
X137325823Y-77643261D01*
X137325826Y-77643262D01*
X137533910Y-77770777D01*
X137759381Y-77864169D01*
X137759378Y-77864169D01*
X137759384Y-77864170D01*
X137759388Y-77864172D01*
X137996698Y-77921146D01*
X138240000Y-77940294D01*
X138483302Y-77921146D01*
X138720612Y-77864172D01*
X138946089Y-77770777D01*
X139154179Y-77643259D01*
X139339759Y-77484759D01*
X139498259Y-77299179D01*
X139625777Y-77091089D01*
X139719172Y-76865612D01*
X139776146Y-76628302D01*
X139795294Y-76385000D01*
X139776146Y-76141698D01*
X139719172Y-75904388D01*
X139719169Y-75904380D01*
X139625777Y-75678910D01*
X139498262Y-75470826D01*
X139498261Y-75470823D01*
X139437470Y-75399646D01*
X139339759Y-75285241D01*
X139217063Y-75180449D01*
X139154176Y-75126738D01*
X139154173Y-75126737D01*
X138946089Y-74999222D01*
X138720618Y-74905830D01*
X138720621Y-74905830D01*
X138614992Y-74880470D01*
X138483302Y-74848854D01*
X138483300Y-74848853D01*
X138483297Y-74848853D01*
X138267943Y-74831905D01*
X138240000Y-74829706D01*
X138239999Y-74829706D01*
X137996702Y-74848853D01*
X137759380Y-74905830D01*
X137533910Y-74999222D01*
X137325826Y-75126737D01*
X137325823Y-75126738D01*
X137140241Y-75285241D01*
X136981738Y-75470823D01*
X136981737Y-75470826D01*
X136854222Y-75678910D01*
X136760830Y-75904380D01*
X136703853Y-76141702D01*
X136684706Y-76385000D01*
X132066690Y-76385000D01*
X134247121Y-74204568D01*
X134308442Y-74171085D01*
X134308660Y-74171037D01*
X134366970Y-74158644D01*
X134366974Y-74158642D01*
X134366975Y-74158642D01*
X134425225Y-74132706D01*
X134539897Y-74081651D01*
X134693038Y-73970388D01*
X134819700Y-73829716D01*
X134914346Y-73665784D01*
X134972841Y-73485756D01*
X134992627Y-73297500D01*
X134972841Y-73109244D01*
X134944336Y-73021517D01*
X134942342Y-72951680D01*
X134978422Y-72891847D01*
X134998341Y-72876951D01*
X135012107Y-72868668D01*
X135056607Y-72841894D01*
X135056793Y-72841717D01*
X135075306Y-72827243D01*
X135075525Y-72827104D01*
X135134279Y-72768348D01*
X135135450Y-72767208D01*
X135195808Y-72710036D01*
X135195957Y-72709814D01*
X135210911Y-72691716D01*
X135863477Y-72039150D01*
X135878259Y-72026524D01*
X135987871Y-71946888D01*
X136114533Y-71806216D01*
X136209179Y-71642284D01*
X136267674Y-71462256D01*
X136287460Y-71274000D01*
X136267674Y-71085744D01*
X136211337Y-70912357D01*
X136209181Y-70905722D01*
X136209180Y-70905721D01*
X136209179Y-70905716D01*
X136114533Y-70741784D01*
X135987871Y-70601112D01*
X135964810Y-70584357D01*
X135834734Y-70489851D01*
X135834729Y-70489848D01*
X135661807Y-70412857D01*
X135661802Y-70412855D01*
X135516000Y-70381865D01*
X135476646Y-70373500D01*
X135287354Y-70373500D01*
X135254897Y-70380398D01*
X135102197Y-70412855D01*
X135102192Y-70412857D01*
X134929270Y-70489848D01*
X134929265Y-70489851D01*
X134776129Y-70601111D01*
X134649469Y-70741781D01*
X134649465Y-70741786D01*
X134632874Y-70770522D01*
X134613170Y-70796199D01*
X134191190Y-71218181D01*
X134129867Y-71251666D01*
X134103509Y-71254500D01*
X120663039Y-71254500D01*
X120596000Y-71234815D01*
X120550245Y-71182011D01*
X120541183Y-71126498D01*
X120539460Y-71126498D01*
X120539460Y-71120002D01*
X120537422Y-71100611D01*
X120519674Y-70931744D01*
X120461179Y-70751716D01*
X120366533Y-70587784D01*
X120239871Y-70447112D01*
X120192723Y-70412857D01*
X120086734Y-70335851D01*
X120086729Y-70335848D01*
X119913807Y-70258857D01*
X119913802Y-70258855D01*
X119768000Y-70227865D01*
X119728646Y-70219500D01*
X119539354Y-70219500D01*
X119506897Y-70226398D01*
X119354197Y-70258855D01*
X119354192Y-70258857D01*
X119181270Y-70335848D01*
X119181265Y-70335851D01*
X119028129Y-70447111D01*
X118901466Y-70587785D01*
X118806821Y-70751715D01*
X118806818Y-70751722D01*
X118748327Y-70931740D01*
X118748326Y-70931744D01*
X118730578Y-71100611D01*
X118728540Y-71120002D01*
X118728540Y-71126498D01*
X118726641Y-71126498D01*
X118715718Y-71186258D01*
X118667990Y-71237286D01*
X118604961Y-71254500D01*
X103205881Y-71254500D01*
X103185824Y-71252867D01*
X103172005Y-71250602D01*
X103101790Y-71254409D01*
X103098436Y-71254500D01*
X102899805Y-71254500D01*
X102832766Y-71234815D01*
X102787011Y-71182011D01*
X102776484Y-71143461D01*
X102758174Y-70969244D01*
X102699679Y-70789216D01*
X102605033Y-70625284D01*
X102478371Y-70484612D01*
X102478370Y-70484611D01*
X102325234Y-70373351D01*
X102325229Y-70373348D01*
X102152307Y-70296357D01*
X102152302Y-70296355D01*
X102006501Y-70265365D01*
X101967146Y-70257000D01*
X101777854Y-70257000D01*
X101745397Y-70263898D01*
X101592697Y-70296355D01*
X101592692Y-70296357D01*
X101419770Y-70373348D01*
X101419765Y-70373351D01*
X101266629Y-70484611D01*
X101139966Y-70625285D01*
X101045321Y-70789215D01*
X101045318Y-70789222D01*
X100986827Y-70969240D01*
X100986826Y-70969244D01*
X100968516Y-71143461D01*
X100941932Y-71208076D01*
X100884634Y-71248061D01*
X100845195Y-71254500D01*
X86651642Y-71254500D01*
X86584603Y-71234815D01*
X86559493Y-71213473D01*
X86457871Y-71100612D01*
X86457870Y-71100611D01*
X86304734Y-70989351D01*
X86304729Y-70989348D01*
X86131807Y-70912357D01*
X86131802Y-70912355D01*
X85986000Y-70881365D01*
X85946646Y-70873000D01*
X85757354Y-70873000D01*
X85724897Y-70879898D01*
X85572197Y-70912355D01*
X85572192Y-70912357D01*
X85399270Y-70989348D01*
X85399265Y-70989351D01*
X85246129Y-71100611D01*
X85119466Y-71241285D01*
X85024821Y-71405215D01*
X85024818Y-71405222D01*
X85006287Y-71462256D01*
X84966326Y-71585244D01*
X84946540Y-71773500D01*
X80510500Y-71773500D01*
X80510500Y-51851490D01*
X80530185Y-51784451D01*
X80546819Y-51763809D01*
X83154877Y-49155751D01*
X85775821Y-46534806D01*
X85837142Y-46501323D01*
X85906834Y-46506307D01*
X85962767Y-46548179D01*
X85987184Y-46613643D01*
X85987500Y-46622489D01*
X85987500Y-47283870D01*
X85987501Y-47283876D01*
X85993908Y-47343483D01*
X86044202Y-47478328D01*
X86044206Y-47478335D01*
X86130452Y-47593544D01*
X86130455Y-47593547D01*
X86245664Y-47679793D01*
X86245671Y-47679797D01*
X86380517Y-47730091D01*
X86380516Y-47730091D01*
X86387444Y-47730835D01*
X86440127Y-47736500D01*
X88043872Y-47736499D01*
X88103483Y-47730091D01*
X88238331Y-47679796D01*
X88353546Y-47593546D01*
X88439796Y-47478331D01*
X88490091Y-47343483D01*
X88496500Y-47283873D01*
X88496499Y-47283704D01*
X88496510Y-47283669D01*
X88496678Y-47280547D01*
X88497414Y-47280586D01*
X88516165Y-47216663D01*
X88568956Y-47170893D01*
X88638111Y-47160930D01*
X88701675Y-47189937D01*
X88722074Y-47212549D01*
X88777326Y-47291457D01*
X88777327Y-47291458D01*
X88897681Y-47411812D01*
X88931166Y-47473135D01*
X88934000Y-47499493D01*
X88934000Y-48286311D01*
X88915539Y-48351408D01*
X88842093Y-48470481D01*
X88842091Y-48470486D01*
X88840999Y-48473781D01*
X88787826Y-48634247D01*
X88787826Y-48634248D01*
X88787825Y-48634248D01*
X88777500Y-48735315D01*
X88777500Y-49308669D01*
X88777501Y-49308687D01*
X88787825Y-49409752D01*
X88793945Y-49428219D01*
X88837849Y-49560713D01*
X88842092Y-49573515D01*
X88842096Y-49573524D01*
X88915538Y-49692591D01*
X88934000Y-49757688D01*
X88934000Y-49899146D01*
X88933795Y-49904181D01*
X88929126Y-49961508D01*
X88929127Y-49961514D01*
X88940346Y-50043865D01*
X88940550Y-50045530D01*
X88949533Y-50128113D01*
X88949533Y-50128116D01*
X88949620Y-50128372D01*
X88954971Y-50151205D01*
X88955009Y-50151487D01*
X88955011Y-50151494D01*
X88983682Y-50229536D01*
X88984239Y-50231119D01*
X89010756Y-50309817D01*
X89010901Y-50310059D01*
X89021032Y-50331200D01*
X89021127Y-50331460D01*
X89021133Y-50331471D01*
X89065872Y-50401465D01*
X89066757Y-50402892D01*
X89109607Y-50474108D01*
X89109608Y-50474110D01*
X89109794Y-50474306D01*
X89124248Y-50492794D01*
X89124393Y-50493021D01*
X89124397Y-50493026D01*
X89183132Y-50551761D01*
X89184304Y-50552965D01*
X89241460Y-50613305D01*
X89241463Y-50613307D01*
X89241687Y-50613459D01*
X89259786Y-50628415D01*
X90789571Y-52158200D01*
X90792975Y-52161893D01*
X90830216Y-52205737D01*
X90830217Y-52205738D01*
X90896376Y-52256031D01*
X90897699Y-52257065D01*
X90962448Y-52309112D01*
X90962453Y-52309116D01*
X90962460Y-52309119D01*
X90962461Y-52309120D01*
X90962690Y-52309234D01*
X90982640Y-52321608D01*
X90982859Y-52321774D01*
X91058286Y-52356670D01*
X91059802Y-52357396D01*
X91134226Y-52394307D01*
X91134455Y-52394364D01*
X91134487Y-52394372D01*
X91156628Y-52402167D01*
X91156876Y-52402282D01*
X91156877Y-52402282D01*
X91156879Y-52402283D01*
X91184902Y-52408451D01*
X91238052Y-52420150D01*
X91239644Y-52420524D01*
X91268215Y-52427628D01*
X91320296Y-52440581D01*
X91320565Y-52440588D01*
X91343871Y-52443443D01*
X91344130Y-52443500D01*
X91344131Y-52443500D01*
X91427197Y-52443500D01*
X91428875Y-52443523D01*
X91467114Y-52444558D01*
X91511964Y-52445773D01*
X91512238Y-52445720D01*
X91535597Y-52443500D01*
X114310500Y-52443500D01*
X114377539Y-52463185D01*
X114423294Y-52515989D01*
X114434500Y-52567500D01*
X114434500Y-67343257D01*
X114430405Y-67369118D01*
X114431676Y-67369389D01*
X114430326Y-67375739D01*
X114420016Y-67473839D01*
X114410540Y-67564000D01*
X114430326Y-67752256D01*
X114430327Y-67752259D01*
X114488818Y-67932277D01*
X114488821Y-67932284D01*
X114583467Y-68096216D01*
X114710129Y-68236887D01*
X114710129Y-68236888D01*
X114863265Y-68348148D01*
X114863270Y-68348151D01*
X115036192Y-68425142D01*
X115036197Y-68425144D01*
X115221354Y-68464500D01*
X115221355Y-68464500D01*
X115410644Y-68464500D01*
X115410646Y-68464500D01*
X115595803Y-68425144D01*
X115768730Y-68348151D01*
X115921871Y-68236888D01*
X116048533Y-68096216D01*
X116143179Y-67932284D01*
X116201674Y-67752256D01*
X116221460Y-67564000D01*
X116201674Y-67375744D01*
X116201673Y-67375741D01*
X116201673Y-67375739D01*
X116200324Y-67369389D01*
X116201594Y-67369118D01*
X116197500Y-67343257D01*
X116197500Y-51643876D01*
X116199134Y-51623813D01*
X116201398Y-51610005D01*
X116197590Y-51539791D01*
X116197500Y-51536435D01*
X116197500Y-50454490D01*
X116217185Y-50387451D01*
X116233819Y-50366809D01*
X116914810Y-49685819D01*
X116976133Y-49652334D01*
X117002491Y-49649500D01*
X126202640Y-49649500D01*
X126267735Y-49667960D01*
X126285484Y-49678908D01*
X126449247Y-49733174D01*
X126550323Y-49743500D01*
X127248676Y-49743499D01*
X127248684Y-49743498D01*
X127248687Y-49743498D01*
X127304030Y-49737844D01*
X127349753Y-49733174D01*
X127513516Y-49678908D01*
X127660350Y-49588340D01*
X127782340Y-49466350D01*
X127872908Y-49319516D01*
X127927174Y-49155753D01*
X127937500Y-49054677D01*
X127937499Y-48481324D01*
X127936728Y-48473781D01*
X127927174Y-48380247D01*
X127872908Y-48216484D01*
X127799460Y-48097407D01*
X127781000Y-48032311D01*
X127781000Y-47207237D01*
X127800685Y-47140198D01*
X127803396Y-47136155D01*
X127890579Y-47011646D01*
X127937617Y-46910770D01*
X127983790Y-46858330D01*
X128050983Y-46839178D01*
X128117865Y-46859393D01*
X128162382Y-46910770D01*
X128209419Y-47011642D01*
X128209423Y-47011650D01*
X128335322Y-47191452D01*
X128335327Y-47191458D01*
X128490541Y-47346672D01*
X128490547Y-47346677D01*
X128670349Y-47472576D01*
X128670351Y-47472577D01*
X128670354Y-47472579D01*
X128869297Y-47565347D01*
X129081326Y-47622161D01*
X129237521Y-47635825D01*
X129299998Y-47641292D01*
X129300000Y-47641292D01*
X129300002Y-47641292D01*
X129354797Y-47636498D01*
X129518674Y-47622161D01*
X129730703Y-47565347D01*
X129929646Y-47472579D01*
X130109457Y-47346674D01*
X130264674Y-47191457D01*
X130390579Y-47011646D01*
X130437617Y-46910770D01*
X130483790Y-46858330D01*
X130550983Y-46839178D01*
X130617865Y-46859393D01*
X130662382Y-46910770D01*
X130709419Y-47011642D01*
X130709423Y-47011650D01*
X130835322Y-47191452D01*
X130835327Y-47191458D01*
X130990541Y-47346672D01*
X130990547Y-47346677D01*
X131170349Y-47472576D01*
X131170351Y-47472577D01*
X131170354Y-47472579D01*
X131369297Y-47565347D01*
X131581326Y-47622161D01*
X131737521Y-47635825D01*
X131799998Y-47641292D01*
X131800000Y-47641292D01*
X131800002Y-47641292D01*
X131854797Y-47636498D01*
X132018674Y-47622161D01*
X132230703Y-47565347D01*
X132429646Y-47472579D01*
X132609457Y-47346674D01*
X132764674Y-47191457D01*
X132890579Y-47011646D01*
X132983347Y-46812703D01*
X133040161Y-46600674D01*
X133059292Y-46382002D01*
X135540708Y-46382002D01*
X135559838Y-46600668D01*
X135559839Y-46600675D01*
X135565684Y-46622489D01*
X135616653Y-46812703D01*
X135616654Y-46812706D01*
X135616655Y-46812708D01*
X135709419Y-47011642D01*
X135709423Y-47011650D01*
X135835322Y-47191452D01*
X135835327Y-47191458D01*
X135990541Y-47346672D01*
X135990547Y-47346677D01*
X136170349Y-47472576D01*
X136170351Y-47472577D01*
X136170354Y-47472579D01*
X136369297Y-47565347D01*
X136581326Y-47622161D01*
X136737521Y-47635825D01*
X136799998Y-47641292D01*
X136800000Y-47641292D01*
X136800002Y-47641292D01*
X136854797Y-47636498D01*
X137018674Y-47622161D01*
X137230703Y-47565347D01*
X137429646Y-47472579D01*
X137609457Y-47346674D01*
X137764674Y-47191457D01*
X137890579Y-47011646D01*
X137983347Y-46812703D01*
X138040161Y-46600674D01*
X138059292Y-46382000D01*
X138040161Y-46163326D01*
X137983347Y-45951297D01*
X137890579Y-45752354D01*
X137890577Y-45752351D01*
X137890576Y-45752349D01*
X137764677Y-45572547D01*
X137764672Y-45572541D01*
X137609458Y-45417327D01*
X137609452Y-45417322D01*
X137429650Y-45291423D01*
X137429642Y-45291419D01*
X137230708Y-45198655D01*
X137230706Y-45198654D01*
X137230703Y-45198653D01*
X137079885Y-45158240D01*
X137018675Y-45141839D01*
X137018668Y-45141838D01*
X136800002Y-45122708D01*
X136799998Y-45122708D01*
X136581331Y-45141838D01*
X136581324Y-45141839D01*
X136458902Y-45174642D01*
X136369297Y-45198653D01*
X136369295Y-45198653D01*
X136369291Y-45198655D01*
X136170357Y-45291419D01*
X136170349Y-45291423D01*
X135990547Y-45417322D01*
X135990541Y-45417327D01*
X135835327Y-45572541D01*
X135835322Y-45572547D01*
X135709423Y-45752349D01*
X135709419Y-45752357D01*
X135616655Y-45951291D01*
X135559839Y-46163324D01*
X135559838Y-46163331D01*
X135540708Y-46381997D01*
X135540708Y-46382002D01*
X133059292Y-46382002D01*
X133059292Y-46382000D01*
X133040161Y-46163326D01*
X132983347Y-45951297D01*
X132890579Y-45752354D01*
X132890577Y-45752351D01*
X132890576Y-45752349D01*
X132764677Y-45572547D01*
X132764672Y-45572541D01*
X132609458Y-45417327D01*
X132609452Y-45417322D01*
X132429650Y-45291423D01*
X132429642Y-45291419D01*
X132230708Y-45198655D01*
X132230706Y-45198654D01*
X132230703Y-45198653D01*
X132079885Y-45158240D01*
X132018675Y-45141839D01*
X132018668Y-45141838D01*
X131831083Y-45125427D01*
X131766014Y-45099975D01*
X131754209Y-45089580D01*
X130472129Y-43807500D01*
X128994427Y-42329798D01*
X128991024Y-42326106D01*
X128953782Y-42282260D01*
X128924782Y-42260216D01*
X128883325Y-42203975D01*
X128878855Y-42134249D01*
X128912791Y-42073174D01*
X128974360Y-42040143D01*
X128999823Y-42037500D01*
X143124218Y-42037500D01*
X143191257Y-42057185D01*
G37*
%TD.AperFunction*%
%TA.AperFunction,Conductor*%
G36*
X98786046Y-45451185D02*
G01*
X98831801Y-45503989D01*
X98841745Y-45573147D01*
X98812720Y-45636703D01*
X98806688Y-45643181D01*
X98777327Y-45672541D01*
X98777322Y-45672547D01*
X98651423Y-45852349D01*
X98651419Y-45852357D01*
X98558655Y-46051291D01*
X98501839Y-46263324D01*
X98501838Y-46263331D01*
X98482708Y-46481997D01*
X98482708Y-46482002D01*
X98501838Y-46700668D01*
X98501839Y-46700675D01*
X98512981Y-46742257D01*
X98558653Y-46912703D01*
X98558654Y-46912706D01*
X98558655Y-46912708D01*
X98651419Y-47111642D01*
X98651423Y-47111650D01*
X98777322Y-47291452D01*
X98777327Y-47291458D01*
X98932541Y-47446672D01*
X98932547Y-47446677D01*
X99112349Y-47572576D01*
X99112351Y-47572577D01*
X99112354Y-47572579D01*
X99311297Y-47665347D01*
X99523326Y-47722161D01*
X99679521Y-47735826D01*
X99741998Y-47741292D01*
X99742000Y-47741292D01*
X99742002Y-47741292D01*
X99796797Y-47736498D01*
X99960674Y-47722161D01*
X100172703Y-47665347D01*
X100371646Y-47572579D01*
X100551457Y-47446674D01*
X100706674Y-47291457D01*
X100832579Y-47111646D01*
X100925347Y-46912703D01*
X100982161Y-46700674D01*
X100996672Y-46534808D01*
X101001292Y-46482002D01*
X101001292Y-46481997D01*
X100994117Y-46399997D01*
X100982161Y-46263326D01*
X100925347Y-46051297D01*
X100832579Y-45852354D01*
X100832577Y-45852351D01*
X100832576Y-45852349D01*
X100706677Y-45672547D01*
X100706672Y-45672541D01*
X100677312Y-45643181D01*
X100643827Y-45581858D01*
X100648811Y-45512166D01*
X100690683Y-45456233D01*
X100756147Y-45431816D01*
X100764993Y-45431500D01*
X122923434Y-45431500D01*
X122990473Y-45451185D01*
X123036228Y-45503989D01*
X123046722Y-45568756D01*
X123045650Y-45578723D01*
X123045500Y-45580126D01*
X123045500Y-47183870D01*
X123045501Y-47183876D01*
X123051908Y-47243483D01*
X123102202Y-47378328D01*
X123102206Y-47378335D01*
X123188452Y-47493544D01*
X123188455Y-47493547D01*
X123303664Y-47579793D01*
X123303671Y-47579797D01*
X123438517Y-47630091D01*
X123438516Y-47630091D01*
X123445444Y-47630835D01*
X123498127Y-47636500D01*
X125101872Y-47636499D01*
X125161483Y-47630091D01*
X125296331Y-47579796D01*
X125411546Y-47493546D01*
X125497796Y-47378331D01*
X125548091Y-47243483D01*
X125554500Y-47183873D01*
X125554499Y-47183704D01*
X125554510Y-47183669D01*
X125554678Y-47180547D01*
X125555414Y-47180586D01*
X125574165Y-47116663D01*
X125626956Y-47070893D01*
X125696111Y-47060930D01*
X125759675Y-47089937D01*
X125780074Y-47112549D01*
X125835326Y-47191457D01*
X125835327Y-47191458D01*
X125981681Y-47337812D01*
X126015166Y-47399135D01*
X126018000Y-47425493D01*
X126018000Y-47762500D01*
X125998315Y-47829539D01*
X125945511Y-47875294D01*
X125894000Y-47886500D01*
X116624354Y-47886500D01*
X116619319Y-47886295D01*
X116561992Y-47881626D01*
X116561983Y-47881627D01*
X116479636Y-47892845D01*
X116477972Y-47893049D01*
X116395382Y-47902033D01*
X116395372Y-47902036D01*
X116395108Y-47902125D01*
X116372298Y-47907470D01*
X116372011Y-47907509D01*
X116372007Y-47907510D01*
X116293984Y-47936174D01*
X116292402Y-47936731D01*
X116213688Y-47963253D01*
X116213676Y-47963259D01*
X116213431Y-47963407D01*
X116192315Y-47973526D01*
X116192041Y-47973626D01*
X116192030Y-47973632D01*
X116122022Y-48018378D01*
X116120597Y-48019262D01*
X116049396Y-48062103D01*
X116049382Y-48062114D01*
X116049176Y-48062310D01*
X116030721Y-48076738D01*
X116030482Y-48076890D01*
X116030470Y-48076899D01*
X115971716Y-48135652D01*
X115970515Y-48136821D01*
X115910189Y-48193966D01*
X115910187Y-48193968D01*
X115910028Y-48194204D01*
X115895086Y-48212283D01*
X114719815Y-49387555D01*
X114716112Y-49390968D01*
X114672260Y-49428218D01*
X114672259Y-49428219D01*
X114621958Y-49494389D01*
X114620925Y-49495711D01*
X114568882Y-49560456D01*
X114568877Y-49560464D01*
X114568754Y-49560713D01*
X114556408Y-49580618D01*
X114556231Y-49580850D01*
X114556224Y-49580862D01*
X114521336Y-49656270D01*
X114520611Y-49657783D01*
X114483693Y-49732226D01*
X114483690Y-49732233D01*
X114483624Y-49732501D01*
X114475840Y-49754610D01*
X114475720Y-49754869D01*
X114475718Y-49754874D01*
X114457852Y-49836034D01*
X114457469Y-49837668D01*
X114437419Y-49918294D01*
X114437418Y-49918302D01*
X114437411Y-49918576D01*
X114434561Y-49941853D01*
X114434500Y-49942126D01*
X114434500Y-50025196D01*
X114434477Y-50026874D01*
X114432227Y-50109962D01*
X114432278Y-50110228D01*
X114434500Y-50133598D01*
X114434500Y-50556500D01*
X114414815Y-50623539D01*
X114362011Y-50669294D01*
X114310500Y-50680500D01*
X91856491Y-50680500D01*
X91789452Y-50660815D01*
X91768810Y-50644181D01*
X90820400Y-49695771D01*
X90786915Y-49634448D01*
X90790374Y-49569089D01*
X90843174Y-49409753D01*
X90853500Y-49308677D01*
X90853499Y-48735324D01*
X90843174Y-48634247D01*
X90788908Y-48470484D01*
X90715460Y-48351407D01*
X90697000Y-48286311D01*
X90697000Y-47344370D01*
X90716685Y-47277331D01*
X90719425Y-47273247D01*
X90832576Y-47111650D01*
X90832575Y-47111650D01*
X90832579Y-47111646D01*
X90879208Y-47011650D01*
X90879618Y-47010770D01*
X90925790Y-46958330D01*
X90992983Y-46939178D01*
X91059865Y-46959393D01*
X91104382Y-47010770D01*
X91151419Y-47111642D01*
X91151423Y-47111650D01*
X91277322Y-47291452D01*
X91277327Y-47291458D01*
X91432541Y-47446672D01*
X91432547Y-47446677D01*
X91612349Y-47572576D01*
X91612351Y-47572577D01*
X91612354Y-47572579D01*
X91811297Y-47665347D01*
X92023326Y-47722161D01*
X92179521Y-47735826D01*
X92241998Y-47741292D01*
X92242000Y-47741292D01*
X92242002Y-47741292D01*
X92296797Y-47736498D01*
X92460674Y-47722161D01*
X92672703Y-47665347D01*
X92871646Y-47572579D01*
X93051457Y-47446674D01*
X93206674Y-47291457D01*
X93332579Y-47111646D01*
X93379208Y-47011650D01*
X93379618Y-47010770D01*
X93425790Y-46958330D01*
X93492983Y-46939178D01*
X93559865Y-46959393D01*
X93604382Y-47010770D01*
X93651419Y-47111642D01*
X93651423Y-47111650D01*
X93777322Y-47291452D01*
X93777327Y-47291458D01*
X93932541Y-47446672D01*
X93932547Y-47446677D01*
X94112349Y-47572576D01*
X94112351Y-47572577D01*
X94112354Y-47572579D01*
X94311297Y-47665347D01*
X94523326Y-47722161D01*
X94679521Y-47735826D01*
X94741998Y-47741292D01*
X94742000Y-47741292D01*
X94742002Y-47741292D01*
X94796797Y-47736498D01*
X94960674Y-47722161D01*
X95172703Y-47665347D01*
X95371646Y-47572579D01*
X95551457Y-47446674D01*
X95706674Y-47291457D01*
X95832579Y-47111646D01*
X95925347Y-46912703D01*
X95982161Y-46700674D01*
X95996672Y-46534808D01*
X96001292Y-46482002D01*
X96001292Y-46481997D01*
X95994117Y-46399997D01*
X95982161Y-46263326D01*
X95925347Y-46051297D01*
X95832579Y-45852354D01*
X95832577Y-45852351D01*
X95832576Y-45852349D01*
X95706677Y-45672547D01*
X95706672Y-45672541D01*
X95677312Y-45643181D01*
X95643827Y-45581858D01*
X95648811Y-45512166D01*
X95690683Y-45456233D01*
X95756147Y-45431816D01*
X95764993Y-45431500D01*
X98719007Y-45431500D01*
X98786046Y-45451185D01*
G37*
%TD.AperFunction*%
%TD*%
M02*
