%TF.GenerationSoftware,KiCad,Pcbnew,7.0.5*%
%TF.CreationDate,2023-10-05T13:57:49+07:00*%
%TF.ProjectId,Driver_motor,44726976-6572-45f6-9d6f-746f722e6b69,rev?*%
%TF.SameCoordinates,Original*%
%TF.FileFunction,Paste,Top*%
%TF.FilePolarity,Positive*%
%FSLAX46Y46*%
G04 Gerber Fmt 4.6, Leading zero omitted, Abs format (unit mm)*
G04 Created by KiCad (PCBNEW 7.0.5) date 2023-10-05 13:57:49*
%MOMM*%
%LPD*%
G01*
G04 APERTURE LIST*
G04 Aperture macros list*
%AMRoundRect*
0 Rectangle with rounded corners*
0 $1 Rounding radius*
0 $2 $3 $4 $5 $6 $7 $8 $9 X,Y pos of 4 corners*
0 Add a 4 corners polygon primitive as box body*
4,1,4,$2,$3,$4,$5,$6,$7,$8,$9,$2,$3,0*
0 Add four circle primitives for the rounded corners*
1,1,$1+$1,$2,$3*
1,1,$1+$1,$4,$5*
1,1,$1+$1,$6,$7*
1,1,$1+$1,$8,$9*
0 Add four rect primitives between the rounded corners*
20,1,$1+$1,$2,$3,$4,$5,0*
20,1,$1+$1,$4,$5,$6,$7,0*
20,1,$1+$1,$6,$7,$8,$9,0*
20,1,$1+$1,$8,$9,$2,$3,0*%
G04 Aperture macros list end*
%ADD10C,0.010000*%
%ADD11RoundRect,0.250000X-0.475000X0.337500X-0.475000X-0.337500X0.475000X-0.337500X0.475000X0.337500X0*%
%ADD12RoundRect,0.237500X-0.237500X0.250000X-0.237500X-0.250000X0.237500X-0.250000X0.237500X0.250000X0*%
%ADD13RoundRect,0.237500X0.237500X-0.250000X0.237500X0.250000X-0.237500X0.250000X-0.237500X-0.250000X0*%
%ADD14RoundRect,0.250000X0.475000X-0.337500X0.475000X0.337500X-0.475000X0.337500X-0.475000X-0.337500X0*%
%ADD15RoundRect,0.237500X-0.237500X0.300000X-0.237500X-0.300000X0.237500X-0.300000X0.237500X0.300000X0*%
%ADD16R,0.800000X3.810000*%
%ADD17RoundRect,0.250000X0.425000X-0.537500X0.425000X0.537500X-0.425000X0.537500X-0.425000X-0.537500X0*%
%ADD18RoundRect,0.237500X-0.250000X-0.237500X0.250000X-0.237500X0.250000X0.237500X-0.250000X0.237500X0*%
%ADD19RoundRect,0.250000X0.350000X-0.850000X0.350000X0.850000X-0.350000X0.850000X-0.350000X-0.850000X0*%
%ADD20RoundRect,0.250000X1.125000X-1.275000X1.125000X1.275000X-1.125000X1.275000X-1.125000X-1.275000X0*%
%ADD21R,2.090000X1.500000*%
%ADD22R,0.533400X1.803400*%
%ADD23RoundRect,0.237500X-0.237500X0.287500X-0.237500X-0.287500X0.237500X-0.287500X0.237500X0.287500X0*%
%ADD24RoundRect,0.237500X-0.287500X-0.237500X0.287500X-0.237500X0.287500X0.237500X-0.287500X0.237500X0*%
%ADD25R,2.000000X1.500000*%
%ADD26R,2.000000X3.800000*%
%ADD27RoundRect,0.237500X0.237500X-0.287500X0.237500X0.287500X-0.237500X0.287500X-0.237500X-0.287500X0*%
G04 APERTURE END LIST*
%TO.C,U10*%
D10*
X107100000Y-116061500D02*
X105450000Y-116061500D01*
X105450000Y-114711500D01*
X107100000Y-114711500D01*
X107100000Y-116061500D01*
G36*
X107100000Y-116061500D02*
G01*
X105450000Y-116061500D01*
X105450000Y-114711500D01*
X107100000Y-114711500D01*
X107100000Y-116061500D01*
G37*
X105080000Y-116061500D02*
X103430000Y-116061500D01*
X103430000Y-114711500D01*
X105080000Y-114711500D01*
X105080000Y-116061500D01*
G36*
X105080000Y-116061500D02*
G01*
X103430000Y-116061500D01*
X103430000Y-114711500D01*
X105080000Y-114711500D01*
X105080000Y-116061500D01*
G37*
X103060000Y-116061500D02*
X101410000Y-116061500D01*
X101410000Y-114711500D01*
X103060000Y-114711500D01*
X103060000Y-116061500D01*
G36*
X103060000Y-116061500D02*
G01*
X101410000Y-116061500D01*
X101410000Y-114711500D01*
X103060000Y-114711500D01*
X103060000Y-116061500D01*
G37*
X101040000Y-116061500D02*
X99390000Y-116061500D01*
X99390000Y-114711500D01*
X101040000Y-114711500D01*
X101040000Y-116061500D01*
G36*
X101040000Y-116061500D02*
G01*
X99390000Y-116061500D01*
X99390000Y-114711500D01*
X101040000Y-114711500D01*
X101040000Y-116061500D01*
G37*
X99020000Y-116061500D02*
X97370000Y-116061500D01*
X97370000Y-114711500D01*
X99020000Y-114711500D01*
X99020000Y-116061500D01*
G36*
X99020000Y-116061500D02*
G01*
X97370000Y-116061500D01*
X97370000Y-114711500D01*
X99020000Y-114711500D01*
X99020000Y-116061500D01*
G37*
X107100000Y-118821500D02*
X105450000Y-118821500D01*
X105450000Y-117471500D01*
X107100000Y-117471500D01*
X107100000Y-118821500D01*
G36*
X107100000Y-118821500D02*
G01*
X105450000Y-118821500D01*
X105450000Y-117471500D01*
X107100000Y-117471500D01*
X107100000Y-118821500D01*
G37*
X105080000Y-118821500D02*
X103430000Y-118821500D01*
X103430000Y-117471500D01*
X105080000Y-117471500D01*
X105080000Y-118821500D01*
G36*
X105080000Y-118821500D02*
G01*
X103430000Y-118821500D01*
X103430000Y-117471500D01*
X105080000Y-117471500D01*
X105080000Y-118821500D01*
G37*
X103060000Y-118821500D02*
X101410000Y-118821500D01*
X101410000Y-117471500D01*
X103060000Y-117471500D01*
X103060000Y-118821500D01*
G36*
X103060000Y-118821500D02*
G01*
X101410000Y-118821500D01*
X101410000Y-117471500D01*
X103060000Y-117471500D01*
X103060000Y-118821500D01*
G37*
X101040000Y-118821500D02*
X99390000Y-118821500D01*
X99390000Y-117471500D01*
X101040000Y-117471500D01*
X101040000Y-118821500D01*
G36*
X101040000Y-118821500D02*
G01*
X99390000Y-118821500D01*
X99390000Y-117471500D01*
X101040000Y-117471500D01*
X101040000Y-118821500D01*
G37*
X99020000Y-118821500D02*
X97370000Y-118821500D01*
X97370000Y-117471500D01*
X99020000Y-117471500D01*
X99020000Y-118821500D01*
G36*
X99020000Y-118821500D02*
G01*
X97370000Y-118821500D01*
X97370000Y-117471500D01*
X99020000Y-117471500D01*
X99020000Y-118821500D01*
G37*
X107100000Y-121581500D02*
X105450000Y-121581500D01*
X105450000Y-120231500D01*
X107100000Y-120231500D01*
X107100000Y-121581500D01*
G36*
X107100000Y-121581500D02*
G01*
X105450000Y-121581500D01*
X105450000Y-120231500D01*
X107100000Y-120231500D01*
X107100000Y-121581500D01*
G37*
X105080000Y-121581500D02*
X103430000Y-121581500D01*
X103430000Y-120231500D01*
X105080000Y-120231500D01*
X105080000Y-121581500D01*
G36*
X105080000Y-121581500D02*
G01*
X103430000Y-121581500D01*
X103430000Y-120231500D01*
X105080000Y-120231500D01*
X105080000Y-121581500D01*
G37*
X103060000Y-121581500D02*
X101410000Y-121581500D01*
X101410000Y-120231500D01*
X103060000Y-120231500D01*
X103060000Y-121581500D01*
G36*
X103060000Y-121581500D02*
G01*
X101410000Y-121581500D01*
X101410000Y-120231500D01*
X103060000Y-120231500D01*
X103060000Y-121581500D01*
G37*
X101040000Y-121581500D02*
X99390000Y-121581500D01*
X99390000Y-120231500D01*
X101040000Y-120231500D01*
X101040000Y-121581500D01*
G36*
X101040000Y-121581500D02*
G01*
X99390000Y-121581500D01*
X99390000Y-120231500D01*
X101040000Y-120231500D01*
X101040000Y-121581500D01*
G37*
X99020000Y-121581500D02*
X97370000Y-121581500D01*
X97370000Y-120231500D01*
X99020000Y-120231500D01*
X99020000Y-121581500D01*
G36*
X99020000Y-121581500D02*
G01*
X97370000Y-121581500D01*
X97370000Y-120231500D01*
X99020000Y-120231500D01*
X99020000Y-121581500D01*
G37*
%TO.C,U9*%
X136818000Y-116061500D02*
X135168000Y-116061500D01*
X135168000Y-114711500D01*
X136818000Y-114711500D01*
X136818000Y-116061500D01*
G36*
X136818000Y-116061500D02*
G01*
X135168000Y-116061500D01*
X135168000Y-114711500D01*
X136818000Y-114711500D01*
X136818000Y-116061500D01*
G37*
X134798000Y-116061500D02*
X133148000Y-116061500D01*
X133148000Y-114711500D01*
X134798000Y-114711500D01*
X134798000Y-116061500D01*
G36*
X134798000Y-116061500D02*
G01*
X133148000Y-116061500D01*
X133148000Y-114711500D01*
X134798000Y-114711500D01*
X134798000Y-116061500D01*
G37*
X132778000Y-116061500D02*
X131128000Y-116061500D01*
X131128000Y-114711500D01*
X132778000Y-114711500D01*
X132778000Y-116061500D01*
G36*
X132778000Y-116061500D02*
G01*
X131128000Y-116061500D01*
X131128000Y-114711500D01*
X132778000Y-114711500D01*
X132778000Y-116061500D01*
G37*
X130758000Y-116061500D02*
X129108000Y-116061500D01*
X129108000Y-114711500D01*
X130758000Y-114711500D01*
X130758000Y-116061500D01*
G36*
X130758000Y-116061500D02*
G01*
X129108000Y-116061500D01*
X129108000Y-114711500D01*
X130758000Y-114711500D01*
X130758000Y-116061500D01*
G37*
X128738000Y-116061500D02*
X127088000Y-116061500D01*
X127088000Y-114711500D01*
X128738000Y-114711500D01*
X128738000Y-116061500D01*
G36*
X128738000Y-116061500D02*
G01*
X127088000Y-116061500D01*
X127088000Y-114711500D01*
X128738000Y-114711500D01*
X128738000Y-116061500D01*
G37*
X136818000Y-118821500D02*
X135168000Y-118821500D01*
X135168000Y-117471500D01*
X136818000Y-117471500D01*
X136818000Y-118821500D01*
G36*
X136818000Y-118821500D02*
G01*
X135168000Y-118821500D01*
X135168000Y-117471500D01*
X136818000Y-117471500D01*
X136818000Y-118821500D01*
G37*
X134798000Y-118821500D02*
X133148000Y-118821500D01*
X133148000Y-117471500D01*
X134798000Y-117471500D01*
X134798000Y-118821500D01*
G36*
X134798000Y-118821500D02*
G01*
X133148000Y-118821500D01*
X133148000Y-117471500D01*
X134798000Y-117471500D01*
X134798000Y-118821500D01*
G37*
X132778000Y-118821500D02*
X131128000Y-118821500D01*
X131128000Y-117471500D01*
X132778000Y-117471500D01*
X132778000Y-118821500D01*
G36*
X132778000Y-118821500D02*
G01*
X131128000Y-118821500D01*
X131128000Y-117471500D01*
X132778000Y-117471500D01*
X132778000Y-118821500D01*
G37*
X130758000Y-118821500D02*
X129108000Y-118821500D01*
X129108000Y-117471500D01*
X130758000Y-117471500D01*
X130758000Y-118821500D01*
G36*
X130758000Y-118821500D02*
G01*
X129108000Y-118821500D01*
X129108000Y-117471500D01*
X130758000Y-117471500D01*
X130758000Y-118821500D01*
G37*
X128738000Y-118821500D02*
X127088000Y-118821500D01*
X127088000Y-117471500D01*
X128738000Y-117471500D01*
X128738000Y-118821500D01*
G36*
X128738000Y-118821500D02*
G01*
X127088000Y-118821500D01*
X127088000Y-117471500D01*
X128738000Y-117471500D01*
X128738000Y-118821500D01*
G37*
X136818000Y-121581500D02*
X135168000Y-121581500D01*
X135168000Y-120231500D01*
X136818000Y-120231500D01*
X136818000Y-121581500D01*
G36*
X136818000Y-121581500D02*
G01*
X135168000Y-121581500D01*
X135168000Y-120231500D01*
X136818000Y-120231500D01*
X136818000Y-121581500D01*
G37*
X134798000Y-121581500D02*
X133148000Y-121581500D01*
X133148000Y-120231500D01*
X134798000Y-120231500D01*
X134798000Y-121581500D01*
G36*
X134798000Y-121581500D02*
G01*
X133148000Y-121581500D01*
X133148000Y-120231500D01*
X134798000Y-120231500D01*
X134798000Y-121581500D01*
G37*
X132778000Y-121581500D02*
X131128000Y-121581500D01*
X131128000Y-120231500D01*
X132778000Y-120231500D01*
X132778000Y-121581500D01*
G36*
X132778000Y-121581500D02*
G01*
X131128000Y-121581500D01*
X131128000Y-120231500D01*
X132778000Y-120231500D01*
X132778000Y-121581500D01*
G37*
X130758000Y-121581500D02*
X129108000Y-121581500D01*
X129108000Y-120231500D01*
X130758000Y-120231500D01*
X130758000Y-121581500D01*
G36*
X130758000Y-121581500D02*
G01*
X129108000Y-121581500D01*
X129108000Y-120231500D01*
X130758000Y-120231500D01*
X130758000Y-121581500D01*
G37*
X128738000Y-121581500D02*
X127088000Y-121581500D01*
X127088000Y-120231500D01*
X128738000Y-120231500D01*
X128738000Y-121581500D01*
G36*
X128738000Y-121581500D02*
G01*
X127088000Y-121581500D01*
X127088000Y-120231500D01*
X128738000Y-120231500D01*
X128738000Y-121581500D01*
G37*
%TO.C,U2*%
X99909000Y-58399000D02*
X98259000Y-58399000D01*
X98259000Y-57049000D01*
X99909000Y-57049000D01*
X99909000Y-58399000D01*
G36*
X99909000Y-58399000D02*
G01*
X98259000Y-58399000D01*
X98259000Y-57049000D01*
X99909000Y-57049000D01*
X99909000Y-58399000D01*
G37*
X101929000Y-58399000D02*
X100279000Y-58399000D01*
X100279000Y-57049000D01*
X101929000Y-57049000D01*
X101929000Y-58399000D01*
G36*
X101929000Y-58399000D02*
G01*
X100279000Y-58399000D01*
X100279000Y-57049000D01*
X101929000Y-57049000D01*
X101929000Y-58399000D01*
G37*
X103949000Y-58399000D02*
X102299000Y-58399000D01*
X102299000Y-57049000D01*
X103949000Y-57049000D01*
X103949000Y-58399000D01*
G36*
X103949000Y-58399000D02*
G01*
X102299000Y-58399000D01*
X102299000Y-57049000D01*
X103949000Y-57049000D01*
X103949000Y-58399000D01*
G37*
X105969000Y-58399000D02*
X104319000Y-58399000D01*
X104319000Y-57049000D01*
X105969000Y-57049000D01*
X105969000Y-58399000D01*
G36*
X105969000Y-58399000D02*
G01*
X104319000Y-58399000D01*
X104319000Y-57049000D01*
X105969000Y-57049000D01*
X105969000Y-58399000D01*
G37*
X107989000Y-58399000D02*
X106339000Y-58399000D01*
X106339000Y-57049000D01*
X107989000Y-57049000D01*
X107989000Y-58399000D01*
G36*
X107989000Y-58399000D02*
G01*
X106339000Y-58399000D01*
X106339000Y-57049000D01*
X107989000Y-57049000D01*
X107989000Y-58399000D01*
G37*
X99909000Y-55639000D02*
X98259000Y-55639000D01*
X98259000Y-54289000D01*
X99909000Y-54289000D01*
X99909000Y-55639000D01*
G36*
X99909000Y-55639000D02*
G01*
X98259000Y-55639000D01*
X98259000Y-54289000D01*
X99909000Y-54289000D01*
X99909000Y-55639000D01*
G37*
X101929000Y-55639000D02*
X100279000Y-55639000D01*
X100279000Y-54289000D01*
X101929000Y-54289000D01*
X101929000Y-55639000D01*
G36*
X101929000Y-55639000D02*
G01*
X100279000Y-55639000D01*
X100279000Y-54289000D01*
X101929000Y-54289000D01*
X101929000Y-55639000D01*
G37*
X103949000Y-55639000D02*
X102299000Y-55639000D01*
X102299000Y-54289000D01*
X103949000Y-54289000D01*
X103949000Y-55639000D01*
G36*
X103949000Y-55639000D02*
G01*
X102299000Y-55639000D01*
X102299000Y-54289000D01*
X103949000Y-54289000D01*
X103949000Y-55639000D01*
G37*
X105969000Y-55639000D02*
X104319000Y-55639000D01*
X104319000Y-54289000D01*
X105969000Y-54289000D01*
X105969000Y-55639000D01*
G36*
X105969000Y-55639000D02*
G01*
X104319000Y-55639000D01*
X104319000Y-54289000D01*
X105969000Y-54289000D01*
X105969000Y-55639000D01*
G37*
X107989000Y-55639000D02*
X106339000Y-55639000D01*
X106339000Y-54289000D01*
X107989000Y-54289000D01*
X107989000Y-55639000D01*
G36*
X107989000Y-55639000D02*
G01*
X106339000Y-55639000D01*
X106339000Y-54289000D01*
X107989000Y-54289000D01*
X107989000Y-55639000D01*
G37*
X99909000Y-52879000D02*
X98259000Y-52879000D01*
X98259000Y-51529000D01*
X99909000Y-51529000D01*
X99909000Y-52879000D01*
G36*
X99909000Y-52879000D02*
G01*
X98259000Y-52879000D01*
X98259000Y-51529000D01*
X99909000Y-51529000D01*
X99909000Y-52879000D01*
G37*
X101929000Y-52879000D02*
X100279000Y-52879000D01*
X100279000Y-51529000D01*
X101929000Y-51529000D01*
X101929000Y-52879000D01*
G36*
X101929000Y-52879000D02*
G01*
X100279000Y-52879000D01*
X100279000Y-51529000D01*
X101929000Y-51529000D01*
X101929000Y-52879000D01*
G37*
X103949000Y-52879000D02*
X102299000Y-52879000D01*
X102299000Y-51529000D01*
X103949000Y-51529000D01*
X103949000Y-52879000D01*
G36*
X103949000Y-52879000D02*
G01*
X102299000Y-52879000D01*
X102299000Y-51529000D01*
X103949000Y-51529000D01*
X103949000Y-52879000D01*
G37*
X105969000Y-52879000D02*
X104319000Y-52879000D01*
X104319000Y-51529000D01*
X105969000Y-51529000D01*
X105969000Y-52879000D01*
G36*
X105969000Y-52879000D02*
G01*
X104319000Y-52879000D01*
X104319000Y-51529000D01*
X105969000Y-51529000D01*
X105969000Y-52879000D01*
G37*
X107989000Y-52879000D02*
X106339000Y-52879000D01*
X106339000Y-51529000D01*
X107989000Y-51529000D01*
X107989000Y-52879000D01*
G36*
X107989000Y-52879000D02*
G01*
X106339000Y-52879000D01*
X106339000Y-51529000D01*
X107989000Y-51529000D01*
X107989000Y-52879000D01*
G37*
%TO.C,U6*%
X122314000Y-116061500D02*
X120664000Y-116061500D01*
X120664000Y-114711500D01*
X122314000Y-114711500D01*
X122314000Y-116061500D01*
G36*
X122314000Y-116061500D02*
G01*
X120664000Y-116061500D01*
X120664000Y-114711500D01*
X122314000Y-114711500D01*
X122314000Y-116061500D01*
G37*
X120294000Y-116061500D02*
X118644000Y-116061500D01*
X118644000Y-114711500D01*
X120294000Y-114711500D01*
X120294000Y-116061500D01*
G36*
X120294000Y-116061500D02*
G01*
X118644000Y-116061500D01*
X118644000Y-114711500D01*
X120294000Y-114711500D01*
X120294000Y-116061500D01*
G37*
X118274000Y-116061500D02*
X116624000Y-116061500D01*
X116624000Y-114711500D01*
X118274000Y-114711500D01*
X118274000Y-116061500D01*
G36*
X118274000Y-116061500D02*
G01*
X116624000Y-116061500D01*
X116624000Y-114711500D01*
X118274000Y-114711500D01*
X118274000Y-116061500D01*
G37*
X116254000Y-116061500D02*
X114604000Y-116061500D01*
X114604000Y-114711500D01*
X116254000Y-114711500D01*
X116254000Y-116061500D01*
G36*
X116254000Y-116061500D02*
G01*
X114604000Y-116061500D01*
X114604000Y-114711500D01*
X116254000Y-114711500D01*
X116254000Y-116061500D01*
G37*
X114234000Y-116061500D02*
X112584000Y-116061500D01*
X112584000Y-114711500D01*
X114234000Y-114711500D01*
X114234000Y-116061500D01*
G36*
X114234000Y-116061500D02*
G01*
X112584000Y-116061500D01*
X112584000Y-114711500D01*
X114234000Y-114711500D01*
X114234000Y-116061500D01*
G37*
X122314000Y-118821500D02*
X120664000Y-118821500D01*
X120664000Y-117471500D01*
X122314000Y-117471500D01*
X122314000Y-118821500D01*
G36*
X122314000Y-118821500D02*
G01*
X120664000Y-118821500D01*
X120664000Y-117471500D01*
X122314000Y-117471500D01*
X122314000Y-118821500D01*
G37*
X120294000Y-118821500D02*
X118644000Y-118821500D01*
X118644000Y-117471500D01*
X120294000Y-117471500D01*
X120294000Y-118821500D01*
G36*
X120294000Y-118821500D02*
G01*
X118644000Y-118821500D01*
X118644000Y-117471500D01*
X120294000Y-117471500D01*
X120294000Y-118821500D01*
G37*
X118274000Y-118821500D02*
X116624000Y-118821500D01*
X116624000Y-117471500D01*
X118274000Y-117471500D01*
X118274000Y-118821500D01*
G36*
X118274000Y-118821500D02*
G01*
X116624000Y-118821500D01*
X116624000Y-117471500D01*
X118274000Y-117471500D01*
X118274000Y-118821500D01*
G37*
X116254000Y-118821500D02*
X114604000Y-118821500D01*
X114604000Y-117471500D01*
X116254000Y-117471500D01*
X116254000Y-118821500D01*
G36*
X116254000Y-118821500D02*
G01*
X114604000Y-118821500D01*
X114604000Y-117471500D01*
X116254000Y-117471500D01*
X116254000Y-118821500D01*
G37*
X114234000Y-118821500D02*
X112584000Y-118821500D01*
X112584000Y-117471500D01*
X114234000Y-117471500D01*
X114234000Y-118821500D01*
G36*
X114234000Y-118821500D02*
G01*
X112584000Y-118821500D01*
X112584000Y-117471500D01*
X114234000Y-117471500D01*
X114234000Y-118821500D01*
G37*
X122314000Y-121581500D02*
X120664000Y-121581500D01*
X120664000Y-120231500D01*
X122314000Y-120231500D01*
X122314000Y-121581500D01*
G36*
X122314000Y-121581500D02*
G01*
X120664000Y-121581500D01*
X120664000Y-120231500D01*
X122314000Y-120231500D01*
X122314000Y-121581500D01*
G37*
X120294000Y-121581500D02*
X118644000Y-121581500D01*
X118644000Y-120231500D01*
X120294000Y-120231500D01*
X120294000Y-121581500D01*
G36*
X120294000Y-121581500D02*
G01*
X118644000Y-121581500D01*
X118644000Y-120231500D01*
X120294000Y-120231500D01*
X120294000Y-121581500D01*
G37*
X118274000Y-121581500D02*
X116624000Y-121581500D01*
X116624000Y-120231500D01*
X118274000Y-120231500D01*
X118274000Y-121581500D01*
G36*
X118274000Y-121581500D02*
G01*
X116624000Y-121581500D01*
X116624000Y-120231500D01*
X118274000Y-120231500D01*
X118274000Y-121581500D01*
G37*
X116254000Y-121581500D02*
X114604000Y-121581500D01*
X114604000Y-120231500D01*
X116254000Y-120231500D01*
X116254000Y-121581500D01*
G36*
X116254000Y-121581500D02*
G01*
X114604000Y-121581500D01*
X114604000Y-120231500D01*
X116254000Y-120231500D01*
X116254000Y-121581500D01*
G37*
X114234000Y-121581500D02*
X112584000Y-121581500D01*
X112584000Y-120231500D01*
X114234000Y-120231500D01*
X114234000Y-121581500D01*
G36*
X114234000Y-121581500D02*
G01*
X112584000Y-121581500D01*
X112584000Y-120231500D01*
X114234000Y-120231500D01*
X114234000Y-121581500D01*
G37*
%TO.C,U3*%
X117689000Y-58145000D02*
X116039000Y-58145000D01*
X116039000Y-56795000D01*
X117689000Y-56795000D01*
X117689000Y-58145000D01*
G36*
X117689000Y-58145000D02*
G01*
X116039000Y-58145000D01*
X116039000Y-56795000D01*
X117689000Y-56795000D01*
X117689000Y-58145000D01*
G37*
X119709000Y-58145000D02*
X118059000Y-58145000D01*
X118059000Y-56795000D01*
X119709000Y-56795000D01*
X119709000Y-58145000D01*
G36*
X119709000Y-58145000D02*
G01*
X118059000Y-58145000D01*
X118059000Y-56795000D01*
X119709000Y-56795000D01*
X119709000Y-58145000D01*
G37*
X121729000Y-58145000D02*
X120079000Y-58145000D01*
X120079000Y-56795000D01*
X121729000Y-56795000D01*
X121729000Y-58145000D01*
G36*
X121729000Y-58145000D02*
G01*
X120079000Y-58145000D01*
X120079000Y-56795000D01*
X121729000Y-56795000D01*
X121729000Y-58145000D01*
G37*
X123749000Y-58145000D02*
X122099000Y-58145000D01*
X122099000Y-56795000D01*
X123749000Y-56795000D01*
X123749000Y-58145000D01*
G36*
X123749000Y-58145000D02*
G01*
X122099000Y-58145000D01*
X122099000Y-56795000D01*
X123749000Y-56795000D01*
X123749000Y-58145000D01*
G37*
X125769000Y-58145000D02*
X124119000Y-58145000D01*
X124119000Y-56795000D01*
X125769000Y-56795000D01*
X125769000Y-58145000D01*
G36*
X125769000Y-58145000D02*
G01*
X124119000Y-58145000D01*
X124119000Y-56795000D01*
X125769000Y-56795000D01*
X125769000Y-58145000D01*
G37*
X117689000Y-55385000D02*
X116039000Y-55385000D01*
X116039000Y-54035000D01*
X117689000Y-54035000D01*
X117689000Y-55385000D01*
G36*
X117689000Y-55385000D02*
G01*
X116039000Y-55385000D01*
X116039000Y-54035000D01*
X117689000Y-54035000D01*
X117689000Y-55385000D01*
G37*
X119709000Y-55385000D02*
X118059000Y-55385000D01*
X118059000Y-54035000D01*
X119709000Y-54035000D01*
X119709000Y-55385000D01*
G36*
X119709000Y-55385000D02*
G01*
X118059000Y-55385000D01*
X118059000Y-54035000D01*
X119709000Y-54035000D01*
X119709000Y-55385000D01*
G37*
X121729000Y-55385000D02*
X120079000Y-55385000D01*
X120079000Y-54035000D01*
X121729000Y-54035000D01*
X121729000Y-55385000D01*
G36*
X121729000Y-55385000D02*
G01*
X120079000Y-55385000D01*
X120079000Y-54035000D01*
X121729000Y-54035000D01*
X121729000Y-55385000D01*
G37*
X123749000Y-55385000D02*
X122099000Y-55385000D01*
X122099000Y-54035000D01*
X123749000Y-54035000D01*
X123749000Y-55385000D01*
G36*
X123749000Y-55385000D02*
G01*
X122099000Y-55385000D01*
X122099000Y-54035000D01*
X123749000Y-54035000D01*
X123749000Y-55385000D01*
G37*
X125769000Y-55385000D02*
X124119000Y-55385000D01*
X124119000Y-54035000D01*
X125769000Y-54035000D01*
X125769000Y-55385000D01*
G36*
X125769000Y-55385000D02*
G01*
X124119000Y-55385000D01*
X124119000Y-54035000D01*
X125769000Y-54035000D01*
X125769000Y-55385000D01*
G37*
X117689000Y-52625000D02*
X116039000Y-52625000D01*
X116039000Y-51275000D01*
X117689000Y-51275000D01*
X117689000Y-52625000D01*
G36*
X117689000Y-52625000D02*
G01*
X116039000Y-52625000D01*
X116039000Y-51275000D01*
X117689000Y-51275000D01*
X117689000Y-52625000D01*
G37*
X119709000Y-52625000D02*
X118059000Y-52625000D01*
X118059000Y-51275000D01*
X119709000Y-51275000D01*
X119709000Y-52625000D01*
G36*
X119709000Y-52625000D02*
G01*
X118059000Y-52625000D01*
X118059000Y-51275000D01*
X119709000Y-51275000D01*
X119709000Y-52625000D01*
G37*
X121729000Y-52625000D02*
X120079000Y-52625000D01*
X120079000Y-51275000D01*
X121729000Y-51275000D01*
X121729000Y-52625000D01*
G36*
X121729000Y-52625000D02*
G01*
X120079000Y-52625000D01*
X120079000Y-51275000D01*
X121729000Y-51275000D01*
X121729000Y-52625000D01*
G37*
X123749000Y-52625000D02*
X122099000Y-52625000D01*
X122099000Y-51275000D01*
X123749000Y-51275000D01*
X123749000Y-52625000D01*
G36*
X123749000Y-52625000D02*
G01*
X122099000Y-52625000D01*
X122099000Y-51275000D01*
X123749000Y-51275000D01*
X123749000Y-52625000D01*
G37*
X125769000Y-52625000D02*
X124119000Y-52625000D01*
X124119000Y-51275000D01*
X125769000Y-51275000D01*
X125769000Y-52625000D01*
G36*
X125769000Y-52625000D02*
G01*
X124119000Y-52625000D01*
X124119000Y-51275000D01*
X125769000Y-51275000D01*
X125769000Y-52625000D01*
G37*
%TO.C,U4*%
X83881000Y-58399000D02*
X82231000Y-58399000D01*
X82231000Y-57049000D01*
X83881000Y-57049000D01*
X83881000Y-58399000D01*
G36*
X83881000Y-58399000D02*
G01*
X82231000Y-58399000D01*
X82231000Y-57049000D01*
X83881000Y-57049000D01*
X83881000Y-58399000D01*
G37*
X85901000Y-58399000D02*
X84251000Y-58399000D01*
X84251000Y-57049000D01*
X85901000Y-57049000D01*
X85901000Y-58399000D01*
G36*
X85901000Y-58399000D02*
G01*
X84251000Y-58399000D01*
X84251000Y-57049000D01*
X85901000Y-57049000D01*
X85901000Y-58399000D01*
G37*
X87921000Y-58399000D02*
X86271000Y-58399000D01*
X86271000Y-57049000D01*
X87921000Y-57049000D01*
X87921000Y-58399000D01*
G36*
X87921000Y-58399000D02*
G01*
X86271000Y-58399000D01*
X86271000Y-57049000D01*
X87921000Y-57049000D01*
X87921000Y-58399000D01*
G37*
X89941000Y-58399000D02*
X88291000Y-58399000D01*
X88291000Y-57049000D01*
X89941000Y-57049000D01*
X89941000Y-58399000D01*
G36*
X89941000Y-58399000D02*
G01*
X88291000Y-58399000D01*
X88291000Y-57049000D01*
X89941000Y-57049000D01*
X89941000Y-58399000D01*
G37*
X91961000Y-58399000D02*
X90311000Y-58399000D01*
X90311000Y-57049000D01*
X91961000Y-57049000D01*
X91961000Y-58399000D01*
G36*
X91961000Y-58399000D02*
G01*
X90311000Y-58399000D01*
X90311000Y-57049000D01*
X91961000Y-57049000D01*
X91961000Y-58399000D01*
G37*
X83881000Y-55639000D02*
X82231000Y-55639000D01*
X82231000Y-54289000D01*
X83881000Y-54289000D01*
X83881000Y-55639000D01*
G36*
X83881000Y-55639000D02*
G01*
X82231000Y-55639000D01*
X82231000Y-54289000D01*
X83881000Y-54289000D01*
X83881000Y-55639000D01*
G37*
X85901000Y-55639000D02*
X84251000Y-55639000D01*
X84251000Y-54289000D01*
X85901000Y-54289000D01*
X85901000Y-55639000D01*
G36*
X85901000Y-55639000D02*
G01*
X84251000Y-55639000D01*
X84251000Y-54289000D01*
X85901000Y-54289000D01*
X85901000Y-55639000D01*
G37*
X87921000Y-55639000D02*
X86271000Y-55639000D01*
X86271000Y-54289000D01*
X87921000Y-54289000D01*
X87921000Y-55639000D01*
G36*
X87921000Y-55639000D02*
G01*
X86271000Y-55639000D01*
X86271000Y-54289000D01*
X87921000Y-54289000D01*
X87921000Y-55639000D01*
G37*
X89941000Y-55639000D02*
X88291000Y-55639000D01*
X88291000Y-54289000D01*
X89941000Y-54289000D01*
X89941000Y-55639000D01*
G36*
X89941000Y-55639000D02*
G01*
X88291000Y-55639000D01*
X88291000Y-54289000D01*
X89941000Y-54289000D01*
X89941000Y-55639000D01*
G37*
X91961000Y-55639000D02*
X90311000Y-55639000D01*
X90311000Y-54289000D01*
X91961000Y-54289000D01*
X91961000Y-55639000D01*
G36*
X91961000Y-55639000D02*
G01*
X90311000Y-55639000D01*
X90311000Y-54289000D01*
X91961000Y-54289000D01*
X91961000Y-55639000D01*
G37*
X83881000Y-52879000D02*
X82231000Y-52879000D01*
X82231000Y-51529000D01*
X83881000Y-51529000D01*
X83881000Y-52879000D01*
G36*
X83881000Y-52879000D02*
G01*
X82231000Y-52879000D01*
X82231000Y-51529000D01*
X83881000Y-51529000D01*
X83881000Y-52879000D01*
G37*
X85901000Y-52879000D02*
X84251000Y-52879000D01*
X84251000Y-51529000D01*
X85901000Y-51529000D01*
X85901000Y-52879000D01*
G36*
X85901000Y-52879000D02*
G01*
X84251000Y-52879000D01*
X84251000Y-51529000D01*
X85901000Y-51529000D01*
X85901000Y-52879000D01*
G37*
X87921000Y-52879000D02*
X86271000Y-52879000D01*
X86271000Y-51529000D01*
X87921000Y-51529000D01*
X87921000Y-52879000D01*
G36*
X87921000Y-52879000D02*
G01*
X86271000Y-52879000D01*
X86271000Y-51529000D01*
X87921000Y-51529000D01*
X87921000Y-52879000D01*
G37*
X89941000Y-52879000D02*
X88291000Y-52879000D01*
X88291000Y-51529000D01*
X89941000Y-51529000D01*
X89941000Y-52879000D01*
G36*
X89941000Y-52879000D02*
G01*
X88291000Y-52879000D01*
X88291000Y-51529000D01*
X89941000Y-51529000D01*
X89941000Y-52879000D01*
G37*
X91961000Y-52879000D02*
X90311000Y-52879000D01*
X90311000Y-51529000D01*
X91961000Y-51529000D01*
X91961000Y-52879000D01*
G36*
X91961000Y-52879000D02*
G01*
X90311000Y-52879000D01*
X90311000Y-51529000D01*
X91961000Y-51529000D01*
X91961000Y-52879000D01*
G37*
%TO.C,U1*%
X133437000Y-58299000D02*
X131787000Y-58299000D01*
X131787000Y-56949000D01*
X133437000Y-56949000D01*
X133437000Y-58299000D01*
G36*
X133437000Y-58299000D02*
G01*
X131787000Y-58299000D01*
X131787000Y-56949000D01*
X133437000Y-56949000D01*
X133437000Y-58299000D01*
G37*
X135457000Y-58299000D02*
X133807000Y-58299000D01*
X133807000Y-56949000D01*
X135457000Y-56949000D01*
X135457000Y-58299000D01*
G36*
X135457000Y-58299000D02*
G01*
X133807000Y-58299000D01*
X133807000Y-56949000D01*
X135457000Y-56949000D01*
X135457000Y-58299000D01*
G37*
X137477000Y-58299000D02*
X135827000Y-58299000D01*
X135827000Y-56949000D01*
X137477000Y-56949000D01*
X137477000Y-58299000D01*
G36*
X137477000Y-58299000D02*
G01*
X135827000Y-58299000D01*
X135827000Y-56949000D01*
X137477000Y-56949000D01*
X137477000Y-58299000D01*
G37*
X139497000Y-58299000D02*
X137847000Y-58299000D01*
X137847000Y-56949000D01*
X139497000Y-56949000D01*
X139497000Y-58299000D01*
G36*
X139497000Y-58299000D02*
G01*
X137847000Y-58299000D01*
X137847000Y-56949000D01*
X139497000Y-56949000D01*
X139497000Y-58299000D01*
G37*
X141517000Y-58299000D02*
X139867000Y-58299000D01*
X139867000Y-56949000D01*
X141517000Y-56949000D01*
X141517000Y-58299000D01*
G36*
X141517000Y-58299000D02*
G01*
X139867000Y-58299000D01*
X139867000Y-56949000D01*
X141517000Y-56949000D01*
X141517000Y-58299000D01*
G37*
X133437000Y-55539000D02*
X131787000Y-55539000D01*
X131787000Y-54189000D01*
X133437000Y-54189000D01*
X133437000Y-55539000D01*
G36*
X133437000Y-55539000D02*
G01*
X131787000Y-55539000D01*
X131787000Y-54189000D01*
X133437000Y-54189000D01*
X133437000Y-55539000D01*
G37*
X135457000Y-55539000D02*
X133807000Y-55539000D01*
X133807000Y-54189000D01*
X135457000Y-54189000D01*
X135457000Y-55539000D01*
G36*
X135457000Y-55539000D02*
G01*
X133807000Y-55539000D01*
X133807000Y-54189000D01*
X135457000Y-54189000D01*
X135457000Y-55539000D01*
G37*
X137477000Y-55539000D02*
X135827000Y-55539000D01*
X135827000Y-54189000D01*
X137477000Y-54189000D01*
X137477000Y-55539000D01*
G36*
X137477000Y-55539000D02*
G01*
X135827000Y-55539000D01*
X135827000Y-54189000D01*
X137477000Y-54189000D01*
X137477000Y-55539000D01*
G37*
X139497000Y-55539000D02*
X137847000Y-55539000D01*
X137847000Y-54189000D01*
X139497000Y-54189000D01*
X139497000Y-55539000D01*
G36*
X139497000Y-55539000D02*
G01*
X137847000Y-55539000D01*
X137847000Y-54189000D01*
X139497000Y-54189000D01*
X139497000Y-55539000D01*
G37*
X141517000Y-55539000D02*
X139867000Y-55539000D01*
X139867000Y-54189000D01*
X141517000Y-54189000D01*
X141517000Y-55539000D01*
G36*
X141517000Y-55539000D02*
G01*
X139867000Y-55539000D01*
X139867000Y-54189000D01*
X141517000Y-54189000D01*
X141517000Y-55539000D01*
G37*
X133437000Y-52779000D02*
X131787000Y-52779000D01*
X131787000Y-51429000D01*
X133437000Y-51429000D01*
X133437000Y-52779000D01*
G36*
X133437000Y-52779000D02*
G01*
X131787000Y-52779000D01*
X131787000Y-51429000D01*
X133437000Y-51429000D01*
X133437000Y-52779000D01*
G37*
X135457000Y-52779000D02*
X133807000Y-52779000D01*
X133807000Y-51429000D01*
X135457000Y-51429000D01*
X135457000Y-52779000D01*
G36*
X135457000Y-52779000D02*
G01*
X133807000Y-52779000D01*
X133807000Y-51429000D01*
X135457000Y-51429000D01*
X135457000Y-52779000D01*
G37*
X137477000Y-52779000D02*
X135827000Y-52779000D01*
X135827000Y-51429000D01*
X137477000Y-51429000D01*
X137477000Y-52779000D01*
G36*
X137477000Y-52779000D02*
G01*
X135827000Y-52779000D01*
X135827000Y-51429000D01*
X137477000Y-51429000D01*
X137477000Y-52779000D01*
G37*
X139497000Y-52779000D02*
X137847000Y-52779000D01*
X137847000Y-51429000D01*
X139497000Y-51429000D01*
X139497000Y-52779000D01*
G36*
X139497000Y-52779000D02*
G01*
X137847000Y-52779000D01*
X137847000Y-51429000D01*
X139497000Y-51429000D01*
X139497000Y-52779000D01*
G37*
X141517000Y-52779000D02*
X139867000Y-52779000D01*
X139867000Y-51429000D01*
X141517000Y-51429000D01*
X141517000Y-52779000D01*
G36*
X141517000Y-52779000D02*
G01*
X139867000Y-52779000D01*
X139867000Y-51429000D01*
X141517000Y-51429000D01*
X141517000Y-52779000D01*
G37*
%TO.C,U7*%
X92088000Y-116061500D02*
X90438000Y-116061500D01*
X90438000Y-114711500D01*
X92088000Y-114711500D01*
X92088000Y-116061500D01*
G36*
X92088000Y-116061500D02*
G01*
X90438000Y-116061500D01*
X90438000Y-114711500D01*
X92088000Y-114711500D01*
X92088000Y-116061500D01*
G37*
X90068000Y-116061500D02*
X88418000Y-116061500D01*
X88418000Y-114711500D01*
X90068000Y-114711500D01*
X90068000Y-116061500D01*
G36*
X90068000Y-116061500D02*
G01*
X88418000Y-116061500D01*
X88418000Y-114711500D01*
X90068000Y-114711500D01*
X90068000Y-116061500D01*
G37*
X88048000Y-116061500D02*
X86398000Y-116061500D01*
X86398000Y-114711500D01*
X88048000Y-114711500D01*
X88048000Y-116061500D01*
G36*
X88048000Y-116061500D02*
G01*
X86398000Y-116061500D01*
X86398000Y-114711500D01*
X88048000Y-114711500D01*
X88048000Y-116061500D01*
G37*
X86028000Y-116061500D02*
X84378000Y-116061500D01*
X84378000Y-114711500D01*
X86028000Y-114711500D01*
X86028000Y-116061500D01*
G36*
X86028000Y-116061500D02*
G01*
X84378000Y-116061500D01*
X84378000Y-114711500D01*
X86028000Y-114711500D01*
X86028000Y-116061500D01*
G37*
X84008000Y-116061500D02*
X82358000Y-116061500D01*
X82358000Y-114711500D01*
X84008000Y-114711500D01*
X84008000Y-116061500D01*
G36*
X84008000Y-116061500D02*
G01*
X82358000Y-116061500D01*
X82358000Y-114711500D01*
X84008000Y-114711500D01*
X84008000Y-116061500D01*
G37*
X92088000Y-118821500D02*
X90438000Y-118821500D01*
X90438000Y-117471500D01*
X92088000Y-117471500D01*
X92088000Y-118821500D01*
G36*
X92088000Y-118821500D02*
G01*
X90438000Y-118821500D01*
X90438000Y-117471500D01*
X92088000Y-117471500D01*
X92088000Y-118821500D01*
G37*
X90068000Y-118821500D02*
X88418000Y-118821500D01*
X88418000Y-117471500D01*
X90068000Y-117471500D01*
X90068000Y-118821500D01*
G36*
X90068000Y-118821500D02*
G01*
X88418000Y-118821500D01*
X88418000Y-117471500D01*
X90068000Y-117471500D01*
X90068000Y-118821500D01*
G37*
X88048000Y-118821500D02*
X86398000Y-118821500D01*
X86398000Y-117471500D01*
X88048000Y-117471500D01*
X88048000Y-118821500D01*
G36*
X88048000Y-118821500D02*
G01*
X86398000Y-118821500D01*
X86398000Y-117471500D01*
X88048000Y-117471500D01*
X88048000Y-118821500D01*
G37*
X86028000Y-118821500D02*
X84378000Y-118821500D01*
X84378000Y-117471500D01*
X86028000Y-117471500D01*
X86028000Y-118821500D01*
G36*
X86028000Y-118821500D02*
G01*
X84378000Y-118821500D01*
X84378000Y-117471500D01*
X86028000Y-117471500D01*
X86028000Y-118821500D01*
G37*
X84008000Y-118821500D02*
X82358000Y-118821500D01*
X82358000Y-117471500D01*
X84008000Y-117471500D01*
X84008000Y-118821500D01*
G36*
X84008000Y-118821500D02*
G01*
X82358000Y-118821500D01*
X82358000Y-117471500D01*
X84008000Y-117471500D01*
X84008000Y-118821500D01*
G37*
X92088000Y-121581500D02*
X90438000Y-121581500D01*
X90438000Y-120231500D01*
X92088000Y-120231500D01*
X92088000Y-121581500D01*
G36*
X92088000Y-121581500D02*
G01*
X90438000Y-121581500D01*
X90438000Y-120231500D01*
X92088000Y-120231500D01*
X92088000Y-121581500D01*
G37*
X90068000Y-121581500D02*
X88418000Y-121581500D01*
X88418000Y-120231500D01*
X90068000Y-120231500D01*
X90068000Y-121581500D01*
G36*
X90068000Y-121581500D02*
G01*
X88418000Y-121581500D01*
X88418000Y-120231500D01*
X90068000Y-120231500D01*
X90068000Y-121581500D01*
G37*
X88048000Y-121581500D02*
X86398000Y-121581500D01*
X86398000Y-120231500D01*
X88048000Y-120231500D01*
X88048000Y-121581500D01*
G36*
X88048000Y-121581500D02*
G01*
X86398000Y-121581500D01*
X86398000Y-120231500D01*
X88048000Y-120231500D01*
X88048000Y-121581500D01*
G37*
X86028000Y-121581500D02*
X84378000Y-121581500D01*
X84378000Y-120231500D01*
X86028000Y-120231500D01*
X86028000Y-121581500D01*
G36*
X86028000Y-121581500D02*
G01*
X84378000Y-121581500D01*
X84378000Y-120231500D01*
X86028000Y-120231500D01*
X86028000Y-121581500D01*
G37*
X84008000Y-121581500D02*
X82358000Y-121581500D01*
X82358000Y-120231500D01*
X84008000Y-120231500D01*
X84008000Y-121581500D01*
G36*
X84008000Y-121581500D02*
G01*
X82358000Y-121581500D01*
X82358000Y-120231500D01*
X84008000Y-120231500D01*
X84008000Y-121581500D01*
G37*
%TD*%
D11*
%TO.C,C4*%
X93218000Y-64594500D03*
X93218000Y-66669500D03*
%TD*%
D12*
%TO.C,R8*%
X89636000Y-68072000D03*
X89636000Y-69897000D03*
%TD*%
D13*
%TO.C,R18*%
X84582000Y-104902000D03*
X84582000Y-103077000D03*
%TD*%
D12*
%TO.C,R7*%
X123444000Y-67921500D03*
X123444000Y-69746500D03*
%TD*%
D14*
%TO.C,C2*%
X109194000Y-66923500D03*
X109194000Y-64848500D03*
%TD*%
D15*
%TO.C,C5*%
X134366000Y-93879500D03*
X134366000Y-95604500D03*
%TD*%
D12*
%TO.C,R10*%
X87858000Y-68072000D03*
X87858000Y-69897000D03*
%TD*%
D16*
%TO.C,U10*%
X106045000Y-108486500D03*
X104775000Y-108486500D03*
X103505000Y-108486500D03*
X102235000Y-108486500D03*
X100965000Y-108486500D03*
X99695000Y-108486500D03*
X98425000Y-108486500D03*
%TD*%
%TO.C,U9*%
X135763000Y-108486500D03*
X134493000Y-108486500D03*
X133223000Y-108486500D03*
X131953000Y-108486500D03*
X130683000Y-108486500D03*
X129413000Y-108486500D03*
X128143000Y-108486500D03*
%TD*%
%TO.C,U2*%
X99314000Y-64624000D03*
X100584000Y-64624000D03*
X101854000Y-64624000D03*
X103124000Y-64624000D03*
X104394000Y-64624000D03*
X105664000Y-64624000D03*
X106934000Y-64624000D03*
%TD*%
D12*
%TO.C,R13*%
X118719000Y-103113500D03*
X118719000Y-104938500D03*
%TD*%
D15*
%TO.C,C6*%
X105512000Y-88685000D03*
X105512000Y-90410000D03*
%TD*%
D17*
%TO.C,C10*%
X90018000Y-90577500D03*
X90018000Y-87702500D03*
%TD*%
D16*
%TO.C,U6*%
X121259000Y-108486500D03*
X119989000Y-108486500D03*
X118719000Y-108486500D03*
X117449000Y-108486500D03*
X116179000Y-108486500D03*
X114909000Y-108486500D03*
X113639000Y-108486500D03*
%TD*%
%TO.C,U3*%
X117094000Y-64370000D03*
X118364000Y-64370000D03*
X119634000Y-64370000D03*
X120904000Y-64370000D03*
X122174000Y-64370000D03*
X123444000Y-64370000D03*
X124714000Y-64370000D03*
%TD*%
D12*
%TO.C,R27*%
X103378000Y-103113500D03*
X103378000Y-104938500D03*
%TD*%
D13*
%TO.C,R2*%
X101828000Y-69897000D03*
X101828000Y-68072000D03*
%TD*%
D12*
%TO.C,R22*%
X142494000Y-116435500D03*
X142494000Y-118260500D03*
%TD*%
%TO.C,R4*%
X103860000Y-68072000D03*
X103860000Y-69897000D03*
%TD*%
D18*
%TO.C,R19*%
X81637500Y-73660000D03*
X83462500Y-73660000D03*
%TD*%
D13*
%TO.C,R16*%
X86461600Y-104902000D03*
X86461600Y-103077000D03*
%TD*%
D14*
%TO.C,C1*%
X142748000Y-66723500D03*
X142748000Y-64648500D03*
%TD*%
D19*
%TO.C,U11*%
X94596000Y-90513500D03*
D20*
X95351000Y-85888500D03*
X98401000Y-85888500D03*
X95351000Y-82538500D03*
X98401000Y-82538500D03*
D19*
X99156000Y-90513500D03*
%TD*%
D12*
%TO.C,R5*%
X139192000Y-68075500D03*
X139192000Y-69900500D03*
%TD*%
D16*
%TO.C,U4*%
X83286000Y-64624000D03*
X84556000Y-64624000D03*
X85826000Y-64624000D03*
X87096000Y-64624000D03*
X88366000Y-64624000D03*
X89636000Y-64624000D03*
X90906000Y-64624000D03*
%TD*%
D11*
%TO.C,C3*%
X127000000Y-64494500D03*
X127000000Y-66569500D03*
%TD*%
D12*
%TO.C,R26*%
X133248400Y-103113500D03*
X133248400Y-104938500D03*
%TD*%
D13*
%TO.C,R24*%
X142494000Y-122428000D03*
X142494000Y-120603000D03*
%TD*%
D15*
%TO.C,C9*%
X116688000Y-86499500D03*
X116688000Y-88224500D03*
%TD*%
%TO.C,C13*%
X92050000Y-88785500D03*
X92050000Y-90510500D03*
%TD*%
D13*
%TO.C,R23*%
X131318000Y-104938500D03*
X131318000Y-103113500D03*
%TD*%
D21*
%TO.C,D1*%
X82300000Y-90410000D03*
X86560000Y-90410000D03*
%TD*%
D12*
%TO.C,R9*%
X121666000Y-67921500D03*
X121666000Y-69746500D03*
%TD*%
D15*
%TO.C,C14*%
X101702000Y-88685000D03*
X101702000Y-90410000D03*
%TD*%
D22*
%TO.C,U5*%
X132308000Y-84161300D03*
X131038000Y-84161300D03*
X129768000Y-84161300D03*
X128498000Y-84161300D03*
X127228000Y-84161300D03*
X125958000Y-84161300D03*
X124688000Y-84161300D03*
X123418000Y-84161300D03*
X122148000Y-84161300D03*
X120878000Y-84161300D03*
X120878000Y-93711700D03*
X122148000Y-93711700D03*
X123418000Y-93711700D03*
X124688000Y-93711700D03*
X125958000Y-93711700D03*
X127228000Y-93711700D03*
X128498000Y-93711700D03*
X129768000Y-93711700D03*
X131038000Y-93711700D03*
X132308000Y-93711700D03*
%TD*%
D13*
%TO.C,R1*%
X135382000Y-69900500D03*
X135382000Y-68075500D03*
%TD*%
D16*
%TO.C,U1*%
X132842000Y-64524000D03*
X134112000Y-64524000D03*
X135382000Y-64524000D03*
X136652000Y-64524000D03*
X137922000Y-64524000D03*
X139192000Y-64524000D03*
X140462000Y-64524000D03*
%TD*%
D12*
%TO.C,R3*%
X137414000Y-68075500D03*
X137414000Y-69900500D03*
%TD*%
D13*
%TO.C,R20*%
X129438400Y-104938500D03*
X129438400Y-103113500D03*
%TD*%
%TO.C,R15*%
X116687000Y-104938500D03*
X116687000Y-103113500D03*
%TD*%
%TO.C,R17*%
X114909000Y-104938500D03*
X114909000Y-103113500D03*
%TD*%
D11*
%TO.C,C12*%
X95351000Y-108573000D03*
X95351000Y-110648000D03*
%TD*%
D23*
%TO.C,5V1*%
X144526000Y-116473000D03*
X144526000Y-118223000D03*
%TD*%
D14*
%TO.C,C8*%
X80111000Y-110648000D03*
X80111000Y-108573000D03*
%TD*%
D11*
%TO.C,C11*%
X125577000Y-108573000D03*
X125577000Y-110648000D03*
%TD*%
D12*
%TO.C,R14*%
X88392000Y-103077000D03*
X88392000Y-104902000D03*
%TD*%
D13*
%TO.C,R21*%
X99568000Y-104938500D03*
X99568000Y-103113500D03*
%TD*%
D24*
%TO.C,12V1*%
X81675000Y-75692000D03*
X83425000Y-75692000D03*
%TD*%
D23*
%TO.C,12V2*%
X143764000Y-86106000D03*
X143764000Y-87856000D03*
%TD*%
D16*
%TO.C,U7*%
X91033000Y-108486500D03*
X89763000Y-108486500D03*
X88493000Y-108486500D03*
X87223000Y-108486500D03*
X85953000Y-108486500D03*
X84683000Y-108486500D03*
X83413000Y-108486500D03*
%TD*%
D13*
%TO.C,R12*%
X85826000Y-69897000D03*
X85826000Y-68072000D03*
%TD*%
D25*
%TO.C,U8*%
X107950000Y-85824000D03*
X107950000Y-88124000D03*
D26*
X114250000Y-88124000D03*
D25*
X107950000Y-90424000D03*
%TD*%
D13*
%TO.C,R25*%
X101346000Y-104938500D03*
X101346000Y-103113500D03*
%TD*%
D12*
%TO.C,R28*%
X145796000Y-86068500D03*
X145796000Y-87893500D03*
%TD*%
D13*
%TO.C,R11*%
X119634000Y-69746500D03*
X119634000Y-67921500D03*
%TD*%
D27*
%TO.C,3V1*%
X144526000Y-122390500D03*
X144526000Y-120640500D03*
%TD*%
D12*
%TO.C,R6*%
X105638000Y-68072000D03*
X105638000Y-69897000D03*
%TD*%
D14*
%TO.C,C7*%
X110591000Y-110648000D03*
X110591000Y-108573000D03*
%TD*%
M02*
