%TF.GenerationSoftware,KiCad,Pcbnew,7.0.5*%
%TF.CreationDate,2023-10-05T13:58:56+07:00*%
%TF.ProjectId,Main_board,4d61696e-5f62-46f6-9172-642e6b696361,rev?*%
%TF.SameCoordinates,Original*%
%TF.FileFunction,Soldermask,Top*%
%TF.FilePolarity,Negative*%
%FSLAX46Y46*%
G04 Gerber Fmt 4.6, Leading zero omitted, Abs format (unit mm)*
G04 Created by KiCad (PCBNEW 7.0.5) date 2023-10-05 13:58:56*
%MOMM*%
%LPD*%
G01*
G04 APERTURE LIST*
G04 Aperture macros list*
%AMRoundRect*
0 Rectangle with rounded corners*
0 $1 Rounding radius*
0 $2 $3 $4 $5 $6 $7 $8 $9 X,Y pos of 4 corners*
0 Add a 4 corners polygon primitive as box body*
4,1,4,$2,$3,$4,$5,$6,$7,$8,$9,$2,$3,0*
0 Add four circle primitives for the rounded corners*
1,1,$1+$1,$2,$3*
1,1,$1+$1,$4,$5*
1,1,$1+$1,$6,$7*
1,1,$1+$1,$8,$9*
0 Add four rect primitives between the rounded corners*
20,1,$1+$1,$2,$3,$4,$5,0*
20,1,$1+$1,$4,$5,$6,$7,0*
20,1,$1+$1,$6,$7,$8,$9,0*
20,1,$1+$1,$8,$9,$2,$3,0*%
G04 Aperture macros list end*
%ADD10R,1.575000X1.575000*%
%ADD11C,1.575000*%
%ADD12RoundRect,0.250000X-0.325000X-0.450000X0.325000X-0.450000X0.325000X0.450000X-0.325000X0.450000X0*%
%ADD13R,1.700000X1.700000*%
%ADD14O,1.700000X1.700000*%
%ADD15C,6.400000*%
%ADD16RoundRect,0.250000X0.337500X0.475000X-0.337500X0.475000X-0.337500X-0.475000X0.337500X-0.475000X0*%
%ADD17RoundRect,0.250000X0.350000X-0.850000X0.350000X0.850000X-0.350000X0.850000X-0.350000X-0.850000X0*%
%ADD18RoundRect,0.249997X2.650003X-2.950003X2.650003X2.950003X-2.650003X2.950003X-2.650003X-2.950003X0*%
%ADD19RoundRect,0.250000X0.475000X-0.337500X0.475000X0.337500X-0.475000X0.337500X-0.475000X-0.337500X0*%
%ADD20RoundRect,0.250000X-0.350000X-0.450000X0.350000X-0.450000X0.350000X0.450000X-0.350000X0.450000X0*%
%ADD21R,2.000000X2.000000*%
%ADD22C,2.000000*%
%ADD23RoundRect,0.250000X0.350000X0.450000X-0.350000X0.450000X-0.350000X-0.450000X0.350000X-0.450000X0*%
%ADD24RoundRect,0.250000X0.325000X0.450000X-0.325000X0.450000X-0.325000X-0.450000X0.325000X-0.450000X0*%
%ADD25RoundRect,0.250000X0.425000X-0.537500X0.425000X0.537500X-0.425000X0.537500X-0.425000X-0.537500X0*%
%ADD26RoundRect,0.250000X-0.475000X0.337500X-0.475000X-0.337500X0.475000X-0.337500X0.475000X0.337500X0*%
%ADD27RoundRect,0.250000X-0.400000X-1.450000X0.400000X-1.450000X0.400000X1.450000X-0.400000X1.450000X0*%
%ADD28R,1.508000X1.508000*%
%ADD29C,1.508000*%
%ADD30RoundRect,0.102000X-1.050000X1.050000X-1.050000X-1.050000X1.050000X-1.050000X1.050000X1.050000X0*%
%ADD31C,2.304000*%
%ADD32R,2.000000X1.500000*%
%ADD33R,2.000000X3.800000*%
%ADD34RoundRect,0.250000X-0.450000X0.350000X-0.450000X-0.350000X0.450000X-0.350000X0.450000X0.350000X0*%
%ADD35RoundRect,0.150000X0.150000X-0.587500X0.150000X0.587500X-0.150000X0.587500X-0.150000X-0.587500X0*%
%ADD36RoundRect,0.250000X0.450000X-0.350000X0.450000X0.350000X-0.450000X0.350000X-0.450000X-0.350000X0*%
%ADD37RoundRect,0.102000X0.754000X-0.754000X0.754000X0.754000X-0.754000X0.754000X-0.754000X-0.754000X0*%
%ADD38C,1.712000*%
%ADD39RoundRect,0.102000X1.050000X-1.050000X1.050000X1.050000X-1.050000X1.050000X-1.050000X-1.050000X0*%
%ADD40R,1.500000X2.090000*%
%ADD41C,1.854000*%
%ADD42RoundRect,0.102000X0.825000X0.825000X-0.825000X0.825000X-0.825000X-0.825000X0.825000X-0.825000X0*%
G04 APERTURE END LIST*
D10*
%TO.C,J9*%
X182118000Y-66762000D03*
D11*
X182118000Y-64262000D03*
%TD*%
D12*
%TO.C,3V1*%
X175251000Y-111252000D03*
X177301000Y-111252000D03*
%TD*%
D13*
%TO.C,J7*%
X168910000Y-110490000D03*
D14*
X171450000Y-110490000D03*
%TD*%
D13*
%TO.C,J6*%
X165105000Y-110490000D03*
D14*
X162565000Y-110490000D03*
%TD*%
D15*
%TO.C,H1*%
X139954000Y-29464000D03*
%TD*%
D16*
%TO.C,C6*%
X149627500Y-90424000D03*
X147552500Y-90424000D03*
%TD*%
D13*
%TO.C,J2*%
X146304000Y-28702000D03*
D14*
X146304000Y-31242000D03*
X146304000Y-33782000D03*
%TD*%
D17*
%TO.C,U8*%
X160281000Y-105463000D03*
D18*
X162561000Y-99163000D03*
D17*
X164841000Y-105463000D03*
%TD*%
D12*
%TO.C,15V1*%
X147327000Y-106438500D03*
X149377000Y-106438500D03*
%TD*%
D19*
%TO.C,C9*%
X173206500Y-32025500D03*
X173206500Y-29950500D03*
%TD*%
D20*
%TO.C,R6*%
X147352000Y-104406500D03*
X149352000Y-104406500D03*
%TD*%
D21*
%TO.C,BZ1*%
X179578000Y-58664000D03*
D22*
X179578000Y-51064000D03*
%TD*%
D13*
%TO.C,U3*%
X150082800Y-28740800D03*
D14*
X150082800Y-31280800D03*
X150082800Y-33820800D03*
X150082800Y-36360800D03*
X150082800Y-38900800D03*
X150082800Y-41440800D03*
X150082800Y-43980800D03*
X150082800Y-46520800D03*
X150082800Y-49060800D03*
X150082800Y-51600800D03*
X150082800Y-54140800D03*
X150082800Y-56680800D03*
X150082800Y-59220800D03*
X150082800Y-61760800D03*
X150082800Y-64300800D03*
X150082800Y-66840800D03*
X150082800Y-69380800D03*
X150082800Y-71920800D03*
X150082800Y-74460800D03*
X150082800Y-77000800D03*
X167894000Y-76962000D03*
X167894000Y-74422000D03*
X167894000Y-71882000D03*
X167894000Y-69342000D03*
X167894000Y-66802000D03*
X167894000Y-64262000D03*
X167894000Y-61722000D03*
X167894000Y-59182000D03*
X167894000Y-56642000D03*
X167894000Y-54102000D03*
X167894000Y-51562000D03*
X167894000Y-49022000D03*
X167894000Y-46482000D03*
X167894000Y-43942000D03*
X167894000Y-41402000D03*
X167894000Y-38862000D03*
X167894000Y-36322000D03*
X167894000Y-33782000D03*
X167894000Y-31242000D03*
X167894000Y-28702000D03*
%TD*%
D23*
%TO.C,R2*%
X179562000Y-47244000D03*
X177562000Y-47244000D03*
%TD*%
D24*
%TO.C,15V2*%
X174507000Y-35306000D03*
X172457000Y-35306000D03*
%TD*%
D25*
%TO.C,C18*%
X155195000Y-105494500D03*
X155195000Y-102619500D03*
%TD*%
D26*
%TO.C,C19*%
X181102000Y-97006500D03*
X181102000Y-99081500D03*
%TD*%
D27*
%TO.C,F1*%
X145349000Y-101092000D03*
X149799000Y-101092000D03*
%TD*%
D23*
%TO.C,R7*%
X174482000Y-37338000D03*
X172482000Y-37338000D03*
%TD*%
D15*
%TO.C,H4*%
X182118000Y-108966000D03*
%TD*%
D16*
%TO.C,C5*%
X149627500Y-88138000D03*
X147552500Y-88138000D03*
%TD*%
D28*
%TO.C,U5*%
X139954000Y-84970000D03*
D29*
X139954000Y-82470000D03*
X139954000Y-79970000D03*
X139954000Y-77470000D03*
%TD*%
D26*
%TO.C,C13*%
X172974000Y-39348500D03*
X172974000Y-41423500D03*
%TD*%
D19*
%TO.C,C8*%
X143747000Y-71294000D03*
X143747000Y-69219000D03*
%TD*%
D30*
%TO.C,J4*%
X141922000Y-95803500D03*
D31*
X141922000Y-100883500D03*
%TD*%
D32*
%TO.C,U7*%
X172364000Y-96760000D03*
X172364000Y-99060000D03*
D33*
X178664000Y-99060000D03*
D32*
X172364000Y-101360000D03*
%TD*%
D26*
%TO.C,C20*%
X157481000Y-103295000D03*
X157481000Y-105370000D03*
%TD*%
%TO.C,C15*%
X145779000Y-82976500D03*
X145779000Y-85051500D03*
%TD*%
%TO.C,C22*%
X167133000Y-103549000D03*
X167133000Y-105624000D03*
%TD*%
%TO.C,C16*%
X143747000Y-82976500D03*
X143747000Y-85051500D03*
%TD*%
%TO.C,C17*%
X169926000Y-99292500D03*
X169926000Y-101367500D03*
%TD*%
D28*
%TO.C,U4*%
X139954000Y-71762000D03*
D29*
X139954000Y-69262000D03*
X139954000Y-66762000D03*
X139954000Y-64262000D03*
%TD*%
D13*
%TO.C,J8*%
X151130000Y-110490000D03*
D14*
X153670000Y-110490000D03*
X156210000Y-110490000D03*
X158750000Y-110490000D03*
%TD*%
D19*
%TO.C,C21*%
X171196000Y-58717000D03*
X171196000Y-56642000D03*
%TD*%
D34*
%TO.C,R5*%
X171196000Y-52832000D03*
X171196000Y-54832000D03*
%TD*%
D15*
%TO.C,H3*%
X182118000Y-29464000D03*
%TD*%
D26*
%TO.C,C14*%
X170942000Y-39348500D03*
X170942000Y-41423500D03*
%TD*%
D35*
%TO.C,Q1*%
X172786000Y-45895500D03*
X174686000Y-45895500D03*
X173736000Y-44020500D03*
%TD*%
D24*
%TO.C,5V1*%
X178063000Y-103886000D03*
X176013000Y-103886000D03*
%TD*%
D36*
%TO.C,R1*%
X170942000Y-45958000D03*
X170942000Y-43958000D03*
%TD*%
D37*
%TO.C,J1*%
X139954000Y-58648000D03*
D38*
X139954000Y-56148000D03*
X139954000Y-53648000D03*
X139954000Y-51148000D03*
X139954000Y-48648000D03*
X139954000Y-46148000D03*
X139954000Y-43648000D03*
X139954000Y-41148000D03*
X139954000Y-38648000D03*
%TD*%
D13*
%TO.C,U1*%
X147388250Y-93283000D03*
D14*
X149928250Y-93283000D03*
X152468250Y-93283000D03*
X155008250Y-93283000D03*
X157548250Y-93283000D03*
X160088250Y-93283000D03*
X162628250Y-93283000D03*
X165168250Y-93283000D03*
X167708250Y-93283000D03*
X170248250Y-93283000D03*
%TD*%
D15*
%TO.C,H2*%
X139954000Y-108966000D03*
%TD*%
D20*
%TO.C,R3*%
X171974000Y-103886000D03*
X173974000Y-103886000D03*
%TD*%
D19*
%TO.C,C10*%
X170942000Y-32025500D03*
X170942000Y-29950500D03*
%TD*%
D39*
%TO.C,J5*%
X178816000Y-42418000D03*
D31*
X178816000Y-37338000D03*
%TD*%
D19*
%TO.C,C7*%
X145796000Y-71272500D03*
X145796000Y-69197500D03*
%TD*%
D20*
%TO.C,R4*%
X175276000Y-109220000D03*
X177276000Y-109220000D03*
%TD*%
D37*
%TO.C,J3*%
X183134000Y-89796000D03*
D38*
X183134000Y-87296000D03*
X183134000Y-84796000D03*
X183134000Y-82296000D03*
X183134000Y-79796000D03*
X183134000Y-77296000D03*
X183134000Y-74796000D03*
X183134000Y-72296000D03*
%TD*%
D40*
%TO.C,D1*%
X152401000Y-101165000D03*
X152401000Y-105425000D03*
%TD*%
D41*
%TO.C,D2*%
X153196000Y-60198000D03*
D42*
X163796000Y-60198000D03*
%TD*%
D41*
%TO.C,D3*%
X153450000Y-41402000D03*
D42*
X164050000Y-41402000D03*
%TD*%
M02*
