%TF.GenerationSoftware,KiCad,Pcbnew,7.0.5*%
%TF.CreationDate,2023-10-05T13:58:56+07:00*%
%TF.ProjectId,Main_board,4d61696e-5f62-46f6-9172-642e6b696361,rev?*%
%TF.SameCoordinates,Original*%
%TF.FileFunction,Soldermask,Bot*%
%TF.FilePolarity,Negative*%
%FSLAX46Y46*%
G04 Gerber Fmt 4.6, Leading zero omitted, Abs format (unit mm)*
G04 Created by KiCad (PCBNEW 7.0.5) date 2023-10-05 13:58:56*
%MOMM*%
%LPD*%
G01*
G04 APERTURE LIST*
G04 Aperture macros list*
%AMRoundRect*
0 Rectangle with rounded corners*
0 $1 Rounding radius*
0 $2 $3 $4 $5 $6 $7 $8 $9 X,Y pos of 4 corners*
0 Add a 4 corners polygon primitive as box body*
4,1,4,$2,$3,$4,$5,$6,$7,$8,$9,$2,$3,0*
0 Add four circle primitives for the rounded corners*
1,1,$1+$1,$2,$3*
1,1,$1+$1,$4,$5*
1,1,$1+$1,$6,$7*
1,1,$1+$1,$8,$9*
0 Add four rect primitives between the rounded corners*
20,1,$1+$1,$2,$3,$4,$5,0*
20,1,$1+$1,$4,$5,$6,$7,0*
20,1,$1+$1,$6,$7,$8,$9,0*
20,1,$1+$1,$8,$9,$2,$3,0*%
G04 Aperture macros list end*
%ADD10R,1.575000X1.575000*%
%ADD11C,1.575000*%
%ADD12R,1.700000X1.700000*%
%ADD13O,1.700000X1.700000*%
%ADD14C,6.400000*%
%ADD15R,2.000000X2.000000*%
%ADD16C,2.000000*%
%ADD17R,1.508000X1.508000*%
%ADD18C,1.508000*%
%ADD19RoundRect,0.102000X-1.050000X1.050000X-1.050000X-1.050000X1.050000X-1.050000X1.050000X1.050000X0*%
%ADD20C,2.304000*%
%ADD21RoundRect,0.102000X0.754000X-0.754000X0.754000X0.754000X-0.754000X0.754000X-0.754000X-0.754000X0*%
%ADD22C,1.712000*%
%ADD23RoundRect,0.102000X1.050000X-1.050000X1.050000X1.050000X-1.050000X1.050000X-1.050000X-1.050000X0*%
%ADD24C,1.854000*%
%ADD25RoundRect,0.102000X0.825000X0.825000X-0.825000X0.825000X-0.825000X-0.825000X0.825000X-0.825000X0*%
%ADD26RoundRect,0.250000X-0.337500X-0.475000X0.337500X-0.475000X0.337500X0.475000X-0.337500X0.475000X0*%
%ADD27RoundRect,0.250000X-0.450000X0.350000X-0.450000X-0.350000X0.450000X-0.350000X0.450000X0.350000X0*%
%ADD28RoundRect,0.250000X0.350000X0.450000X-0.350000X0.450000X-0.350000X-0.450000X0.350000X-0.450000X0*%
%ADD29R,1.701800X0.533400*%
%ADD30RoundRect,0.250000X-0.350000X-0.450000X0.350000X-0.450000X0.350000X0.450000X-0.350000X0.450000X0*%
%ADD31RoundRect,0.250000X0.337500X0.475000X-0.337500X0.475000X-0.337500X-0.475000X0.337500X-0.475000X0*%
%ADD32R,0.570000X1.970000*%
%ADD33RoundRect,0.250000X0.450000X-0.350000X0.450000X0.350000X-0.450000X0.350000X-0.450000X-0.350000X0*%
G04 APERTURE END LIST*
D10*
%TO.C,J9*%
X182118000Y-66762000D03*
D11*
X182118000Y-64262000D03*
%TD*%
D12*
%TO.C,J7*%
X168910000Y-110490000D03*
D13*
X171450000Y-110490000D03*
%TD*%
D12*
%TO.C,J6*%
X165105000Y-110490000D03*
D13*
X162565000Y-110490000D03*
%TD*%
D14*
%TO.C,H1*%
X139954000Y-29464000D03*
%TD*%
D12*
%TO.C,J2*%
X146304000Y-28702000D03*
D13*
X146304000Y-31242000D03*
X146304000Y-33782000D03*
%TD*%
D15*
%TO.C,BZ1*%
X179578000Y-58664000D03*
D16*
X179578000Y-51064000D03*
%TD*%
D12*
%TO.C,U3*%
X150082800Y-28740800D03*
D13*
X150082800Y-31280800D03*
X150082800Y-33820800D03*
X150082800Y-36360800D03*
X150082800Y-38900800D03*
X150082800Y-41440800D03*
X150082800Y-43980800D03*
X150082800Y-46520800D03*
X150082800Y-49060800D03*
X150082800Y-51600800D03*
X150082800Y-54140800D03*
X150082800Y-56680800D03*
X150082800Y-59220800D03*
X150082800Y-61760800D03*
X150082800Y-64300800D03*
X150082800Y-66840800D03*
X150082800Y-69380800D03*
X150082800Y-71920800D03*
X150082800Y-74460800D03*
X150082800Y-77000800D03*
X167894000Y-76962000D03*
X167894000Y-74422000D03*
X167894000Y-71882000D03*
X167894000Y-69342000D03*
X167894000Y-66802000D03*
X167894000Y-64262000D03*
X167894000Y-61722000D03*
X167894000Y-59182000D03*
X167894000Y-56642000D03*
X167894000Y-54102000D03*
X167894000Y-51562000D03*
X167894000Y-49022000D03*
X167894000Y-46482000D03*
X167894000Y-43942000D03*
X167894000Y-41402000D03*
X167894000Y-38862000D03*
X167894000Y-36322000D03*
X167894000Y-33782000D03*
X167894000Y-31242000D03*
X167894000Y-28702000D03*
%TD*%
D14*
%TO.C,H4*%
X182118000Y-108966000D03*
%TD*%
D17*
%TO.C,U5*%
X139954000Y-84970000D03*
D18*
X139954000Y-82470000D03*
X139954000Y-79970000D03*
X139954000Y-77470000D03*
%TD*%
D19*
%TO.C,J4*%
X141922000Y-95803500D03*
D20*
X141922000Y-100883500D03*
%TD*%
D17*
%TO.C,U4*%
X139954000Y-71762000D03*
D18*
X139954000Y-69262000D03*
X139954000Y-66762000D03*
X139954000Y-64262000D03*
%TD*%
D12*
%TO.C,J8*%
X151130000Y-110490000D03*
D13*
X153670000Y-110490000D03*
X156210000Y-110490000D03*
X158750000Y-110490000D03*
%TD*%
D14*
%TO.C,H3*%
X182118000Y-29464000D03*
%TD*%
D21*
%TO.C,J1*%
X139954000Y-58648000D03*
D22*
X139954000Y-56148000D03*
X139954000Y-53648000D03*
X139954000Y-51148000D03*
X139954000Y-48648000D03*
X139954000Y-46148000D03*
X139954000Y-43648000D03*
X139954000Y-41148000D03*
X139954000Y-38648000D03*
%TD*%
D12*
%TO.C,U1*%
X147388250Y-93283000D03*
D13*
X149928250Y-93283000D03*
X152468250Y-93283000D03*
X155008250Y-93283000D03*
X157548250Y-93283000D03*
X160088250Y-93283000D03*
X162628250Y-93283000D03*
X165168250Y-93283000D03*
X167708250Y-93283000D03*
X170248250Y-93283000D03*
%TD*%
D14*
%TO.C,H2*%
X139954000Y-108966000D03*
%TD*%
D23*
%TO.C,J5*%
X178816000Y-42418000D03*
D20*
X178816000Y-37338000D03*
%TD*%
D21*
%TO.C,J3*%
X183134000Y-89796000D03*
D22*
X183134000Y-87296000D03*
X183134000Y-84796000D03*
X183134000Y-82296000D03*
X183134000Y-79796000D03*
X183134000Y-77296000D03*
X183134000Y-74796000D03*
X183134000Y-72296000D03*
%TD*%
D24*
%TO.C,D2*%
X153196000Y-60198000D03*
D25*
X163796000Y-60198000D03*
%TD*%
D26*
%TO.C,C11*%
X157226000Y-85852000D03*
X159301000Y-85852000D03*
%TD*%
D27*
%TO.C,R9*%
X153416000Y-43958000D03*
X153416000Y-45958000D03*
%TD*%
D28*
%TO.C,R15*%
X161274000Y-43942000D03*
X159274000Y-43942000D03*
%TD*%
D29*
%TO.C,U6*%
X171348400Y-78232000D03*
X171348400Y-76962000D03*
X171348400Y-75692000D03*
X171348400Y-74422000D03*
X171348400Y-73152000D03*
X171348400Y-71882000D03*
X171348400Y-70612000D03*
X176530000Y-70612000D03*
X176530000Y-71882000D03*
X176530000Y-73152000D03*
X176530000Y-74422000D03*
X176530000Y-75692000D03*
X176530000Y-76962000D03*
X176530000Y-78232000D03*
%TD*%
D30*
%TO.C,R11*%
X155464000Y-43942000D03*
X157464000Y-43942000D03*
%TD*%
D28*
%TO.C,R16*%
X162544000Y-55626000D03*
X160544000Y-55626000D03*
%TD*%
D31*
%TO.C,C23*%
X163851500Y-64770000D03*
X161776500Y-64770000D03*
%TD*%
D26*
%TO.C,C2*%
X174476500Y-82042000D03*
X176551500Y-82042000D03*
%TD*%
%TO.C,C24*%
X161776500Y-62738000D03*
X163851500Y-62738000D03*
%TD*%
D29*
%TO.C,U2*%
X154127200Y-82042000D03*
X154127200Y-80772000D03*
X154127200Y-79502000D03*
X154127200Y-78232000D03*
X154127200Y-76962000D03*
X154127200Y-75692000D03*
X154127200Y-74422000D03*
X159308800Y-74422000D03*
X159308800Y-75692000D03*
X159308800Y-76962000D03*
X159308800Y-78232000D03*
X159308800Y-79502000D03*
X159308800Y-80772000D03*
X159308800Y-82042000D03*
%TD*%
D26*
%TO.C,C26*%
X162030500Y-38862000D03*
X164105500Y-38862000D03*
%TD*%
%TO.C,C3*%
X174476500Y-80010000D03*
X176551500Y-80010000D03*
%TD*%
D32*
%TO.C,U9*%
X161290000Y-53210000D03*
X160020000Y-53210000D03*
X158750000Y-53210000D03*
X157480000Y-53210000D03*
X157480000Y-48260000D03*
X158750000Y-48260000D03*
X160020000Y-48260000D03*
X161290000Y-48260000D03*
%TD*%
D28*
%TO.C,R17*%
X161274000Y-45974000D03*
X159274000Y-45974000D03*
%TD*%
D24*
%TO.C,D3*%
X153450000Y-41402000D03*
D25*
X164050000Y-41402000D03*
%TD*%
D30*
%TO.C,R10*%
X156734000Y-57658000D03*
X158734000Y-57658000D03*
%TD*%
D28*
%TO.C,R14*%
X162544000Y-57658000D03*
X160544000Y-57658000D03*
%TD*%
D31*
%TO.C,C25*%
X164105500Y-36830000D03*
X162030500Y-36830000D03*
%TD*%
D33*
%TO.C,R8*%
X154686000Y-57642000D03*
X154686000Y-55642000D03*
%TD*%
D28*
%TO.C,R12*%
X158734000Y-55626000D03*
X156734000Y-55626000D03*
%TD*%
%TO.C,R13*%
X157464000Y-45974000D03*
X155464000Y-45974000D03*
%TD*%
D26*
%TO.C,C12*%
X157204500Y-83820000D03*
X159279500Y-83820000D03*
%TD*%
M02*
