M48
; DRILL file {KiCad 7.0.5} date Thu Oct  5 13:59:01 2023
; FORMAT={-:-/ absolute / inch / decimal}
; #@! TF.CreationDate,2023-10-05T13:59:01+07:00
; #@! TF.GenerationSoftware,Kicad,Pcbnew,7.0.5
; #@! TF.FileFunction,MixedPlating,1,2
FMAT,2
INCH
; #@! TA.AperFunction,Plated,PTH,ViaDrill
T1C0.0157
; #@! TA.AperFunction,Plated,PTH,ComponentDrill
T2C0.0394
; #@! TA.AperFunction,Plated,PTH,ComponentDrill
T3C0.0413
; #@! TA.AperFunction,Plated,PTH,ComponentDrill
T4C0.0433
; #@! TA.AperFunction,Plated,PTH,ComponentDrill
T5C0.0551
; #@! TA.AperFunction,Plated,PTH,ComponentDrill
T6C0.1260
%
G90
G05
T1
X5.41Y-2.28
X5.41Y-2.33
X5.43Y-3.43
X5.43Y-3.5
X5.43Y-3.57
X5.43Y-3.62
X5.43Y-3.67
X5.43Y-3.73
X5.43Y-3.81
X5.43Y-3.89
X5.43Y-3.96
X5.43Y-4.04
X5.44Y-1.34
X5.44Y-1.4
X5.44Y-2.38
X5.51Y-1.34
X5.51Y-1.4
X5.51Y-2.38
X5.51Y-3.43
X5.51Y-3.5
X5.51Y-3.57
X5.51Y-3.62
X5.51Y-3.67
X5.57Y-2.37
X5.58Y-3.43
X5.58Y-3.5
X5.58Y-3.57
X5.5875Y-3.8718
X5.59Y-1.34
X5.59Y-1.4
X5.62Y-3.62
X5.62Y-3.67
X5.64Y-2.27
X5.64Y-2.36
X5.65Y-1.45
X5.66Y-3.42
X5.66Y-3.49
X5.66Y-3.57
X5.67Y-1.05
X5.67Y-1.28
X5.68Y-4.39
X5.69Y-4.3
X5.7Y-3.09
X5.7Y-3.17
X5.71Y-1.45
X5.71Y-2.27
X5.71Y-2.36
X5.73Y-3.42
X5.73Y-3.49
X5.73Y-3.54
X5.73Y-4.35
X5.74Y-3.05
X5.74Y-3.13
X5.7415Y-2.9815
X5.75Y-1.05
X5.78Y-2.27
X5.78Y-2.36
X5.79Y-4.39
X5.86Y-1.05
X5.86Y-4.27
X5.87Y-3.33
X5.89Y-3.13
X5.91Y-3.19
X5.93Y-3.78
X5.95Y-1.05
X5.96Y-3.47
X5.99Y-3.23
X6.0Y-2.46
X6.0Y-2.54
X6.01Y-3.78
X6.01Y-4.25
X6.03Y-1.06
X6.03Y-1.12
X6.03Y-1.19
X6.03Y-1.26
X6.03Y-1.39
X6.03Y-1.44
X6.03Y-1.49
X6.03Y-1.54
X6.03Y-1.89
X6.03Y-1.97
X6.03Y-2.04
X6.03Y-2.12
X6.04Y-3.3
X6.07Y-2.46
X6.07Y-2.53
X6.07Y-2.59
X6.08Y-3.78
X6.09Y-4.25
X6.1Y-1.06
X6.1Y-1.12
X6.1Y-1.19
X6.1Y-1.26
X6.1Y-1.89
X6.1Y-1.97
X6.1Y-2.04
X6.1Y-2.12
X6.11Y-3.3
X6.12Y-1.39
X6.12Y-1.44
X6.12Y-1.49
X6.12Y-1.54
X6.12Y-1.6
X6.12Y-1.65
X6.13Y-2.46
X6.13Y-2.53
X6.13Y-2.6
X6.14Y-2.66
X6.14Y-3.03
X6.16Y-3.78
X6.17Y-4.25
X6.18Y-1.06
X6.18Y-1.12
X6.18Y-1.19
X6.18Y-1.26
X6.1807Y-3.13
X6.24Y-4.25
X6.25Y-1.06
X6.25Y-1.12
X6.25Y-1.19
X6.25Y-1.26
X6.26Y-2.62
X6.26Y-2.7
X6.26Y-2.76
X6.27Y-1.39
X6.27Y-1.46
X6.27Y-1.52
X6.27Y-1.59
X6.2717Y-3.4383
X6.3Y-2.55
X6.31Y-2.7
X6.31Y-2.76
X6.32Y-1.46
X6.32Y-1.52
X6.32Y-1.59
X6.32Y-4.25
X6.33Y-1.06
X6.33Y-1.12
X6.33Y-1.19
X6.33Y-1.26
X6.33Y-1.39
X6.33Y-2.62
X6.34Y-3.2907
X6.39Y-1.12
X6.39Y-1.19
X6.39Y-1.26
X6.39Y-1.39
X6.39Y-4.25
X6.41Y-1.06
X6.51Y-1.9
X6.51Y-2.18
X6.51Y-3.1
X6.57Y-3.82
X6.59Y-3.35
X6.62Y-3.77
X6.63Y-4.26
X6.65Y-4.05
X6.66Y-3.35
X6.68Y-2.88
X6.71Y-4.21
X6.72Y-2.39
X6.72Y-2.47
X6.72Y-2.55
X6.73Y-1.93
X6.73Y-2.01
X6.73Y-3.35
X6.79Y-2.39
X6.79Y-2.47
X6.79Y-2.55
X6.8Y-1.93
X6.8Y-2.01
X6.8Y-3.35
X6.81Y-2.08
X6.81Y-3.61
X6.81Y-3.66
X6.81Y-3.71
X6.82Y-4.29
X6.85Y-4.38
X6.86Y-2.49
X6.86Y-2.55
X6.87Y-2.98
X6.87Y-3.04
X6.87Y-3.35
X6.8739Y-2.8326
X6.89Y-1.63
X6.89Y-3.56
X6.9Y-4.17
X6.91Y-3.99
X6.93Y-2.55
X6.9357Y-1.1857
X6.94Y-2.61
X6.94Y-3.35
X6.95Y-3.4
X6.96Y-3.57
X6.96Y-3.61
X6.96Y-3.66
X6.98Y-3.71
X7.02Y-3.67
X7.03Y-2.11
X7.03Y-2.19
X7.0343Y-3.44
X7.09Y-4.03
X7.1Y-2.11
X7.1Y-2.19
X7.1275Y-1.3918
X7.1275Y-1.4518
X7.1275Y-1.5218
X7.1275Y-1.5918
X7.13Y-1.34
X7.17Y-1.66
X7.17Y-1.72
X7.17Y-1.79
X7.17Y-1.86
X7.17Y-2.7
X7.18Y-1.94
X7.18Y-2.0
X7.18Y-2.07
X7.18Y-2.14
X7.18Y-2.22
X7.18Y-2.28
X7.18Y-2.35
X7.18Y-2.42
X7.19Y-1.34
X7.1975Y-1.3918
X7.1975Y-1.4518
X7.1975Y-1.5218
X7.1975Y-1.5918
X7.24Y-1.66
X7.24Y-1.72
X7.24Y-1.79
X7.24Y-1.86
X7.25Y-1.94
X7.25Y-2.0
X7.25Y-2.07
X7.25Y-2.14
X7.25Y-2.22
X7.25Y-2.28
X7.25Y-2.35
X7.25Y-2.42
X7.25Y-2.48
X7.25Y-2.55
X7.25Y-2.63
X7.25Y-2.7
X7.25Y-4.11
X7.26Y-1.32
X7.26Y-1.37
X7.26Y-1.45
X7.26Y-1.52
X7.26Y-1.59
X7.26Y-3.69
T2
X5.51Y-1.5216
X5.51Y-1.62
X5.51Y-1.7184
X5.51Y-1.8169
X5.51Y-1.9153
X5.51Y-2.0137
X5.51Y-2.1121
X5.51Y-2.2106
X5.51Y-2.309
X5.51Y-2.53
X5.51Y-2.6284
X5.51Y-2.7269
X5.51Y-2.8253
X5.51Y-3.05
X5.51Y-3.1484
X5.51Y-3.2469
X5.51Y-3.3453
X5.76Y-1.13
X5.76Y-1.23
X5.76Y-1.33
X5.8027Y-3.6726
X5.9027Y-3.6726
X5.9088Y-1.1315
X5.9088Y-1.2315
X5.9088Y-1.3315
X5.9088Y-1.4315
X5.9088Y-1.5315
X5.9088Y-1.6315
X5.9088Y-1.7315
X5.9088Y-1.8315
X5.9088Y-1.9315
X5.9088Y-2.0315
X5.9088Y-2.1315
X5.9088Y-2.2315
X5.9088Y-2.3315
X5.9088Y-2.4315
X5.9088Y-2.5315
X5.9088Y-2.6315
X5.9088Y-2.7315
X5.9088Y-2.8315
X5.9088Y-2.9315
X5.9088Y-3.0315
X5.95Y-4.35
X6.0027Y-3.6726
X6.05Y-4.35
X6.1027Y-3.6726
X6.15Y-4.35
X6.2027Y-3.6726
X6.25Y-4.35
X6.3027Y-3.6726
X6.4002Y-4.35
X6.4027Y-3.6726
X6.5002Y-4.35
X6.5027Y-3.6726
X6.6027Y-3.6726
X6.61Y-1.13
X6.61Y-1.23
X6.61Y-1.33
X6.61Y-1.43
X6.61Y-1.53
X6.61Y-1.63
X6.61Y-1.73
X6.61Y-1.83
X6.61Y-1.93
X6.61Y-2.03
X6.61Y-2.13
X6.61Y-2.23
X6.61Y-2.33
X6.61Y-2.43
X6.61Y-2.53
X6.61Y-2.63
X6.61Y-2.73
X6.61Y-2.83
X6.61Y-2.93
X6.61Y-3.03
X6.65Y-4.35
X6.7027Y-3.6726
X6.75Y-4.35
X7.07Y-2.0104
X7.07Y-2.3096
X7.21Y-2.8463
X7.21Y-2.9447
X7.21Y-3.0431
X7.21Y-3.1416
X7.21Y-3.24
X7.21Y-3.3384
X7.21Y-3.4369
X7.21Y-3.5353
T3
X7.17Y-2.53
X7.17Y-2.6284
T4
X6.0313Y-2.37
X6.0413Y-1.63
X6.4487Y-2.37
X6.4587Y-1.63
T5
X5.5875Y-3.7718
X5.5875Y-3.9718
X7.04Y-1.47
X7.04Y-1.67
T6
X5.51Y-1.16
X5.51Y-4.29
X7.17Y-1.16
X7.17Y-4.29
T0
M30
